<?xml version="1.0" encoding="utf-8"?>
<svg width="102px" height="101px" viewBox="0 0 102 101" version="1.1" xmlns:xlink="http://www.w3.org/1999/xlink" xmlns="http://www.w3.org/2000/svg">
  <desc>Created with Lunacy</desc>
  <g id="backpack" transform="translate(1.150024 1.150024)">
    <path d="M2.759 0L79.2025 0Q79.338 0 79.4729 0.0132853Q79.6078 0.0265707 79.7407 0.0530134Q79.8737 0.0794561 80.0034 0.118802Q80.1331 0.158147 80.2583 0.210016Q80.3835 0.261886 80.5031 0.325779Q80.6226 0.389673 80.7353 0.464975Q80.848 0.540278 80.9528 0.626264Q81.0575 0.71225 81.1534 0.808092Q81.2492 0.903934 81.3352 1.00871Q81.4212 1.11348 81.4965 1.22618Q81.5718 1.33888 81.6357 1.45842Q81.6996 1.57795 81.7515 1.70318Q81.8033 1.8284 81.8427 1.9581Q81.882 2.08781 81.9085 2.22075Q81.9349 2.35368 81.9482 2.48857Q81.9615 2.62346 81.9615 2.759L81.9615 17.6429Q81.9615 17.7784 81.9482 17.9133Q81.9349 18.0482 81.9085 18.1811Q81.882 18.314 81.8427 18.4437Q81.8033 18.5734 81.7515 18.6987Q81.6996 18.8239 81.6357 18.9434Q81.5718 19.063 81.4965 19.1757Q81.4212 19.2884 81.3352 19.3931Q81.2492 19.4979 81.1534 19.5938Q81.0575 19.6896 80.9528 19.7756Q80.848 19.8616 80.7353 19.9369Q80.6226 20.0122 80.5031 20.0761Q80.3835 20.14 80.2583 20.1918Q80.1331 20.2437 80.0034 20.283Q79.8737 20.3224 79.7407 20.3488Q79.6078 20.3753 79.4729 20.3886Q79.338 20.4019 79.2025 20.4019L2.759 20.4019Q2.62346 20.4019 2.48857 20.3886Q2.35368 20.3753 2.22075 20.3488Q2.08781 20.3224 1.9581 20.283Q1.8284 20.2437 1.70318 20.1918Q1.57795 20.14 1.45842 20.0761Q1.33888 20.0122 1.22618 19.9369Q1.11348 19.8616 1.00871 19.7756Q0.903934 19.6896 0.808092 19.5938Q0.71225 19.4979 0.626264 19.3931Q0.540278 19.2884 0.464975 19.1757Q0.389673 19.063 0.325779 18.9434Q0.261886 18.8239 0.210016 18.6987Q0.158147 18.5734 0.118802 18.4437Q0.0794561 18.314 0.0530134 18.1811Q0.0265707 18.0482 0.0132853 17.9133Q0 17.7784 0 17.6429L0 2.759Q0 2.62346 0.0132853 2.48857Q0.0265707 2.35368 0.0530134 2.22075Q0.0794561 2.08781 0.118802 1.9581Q0.158147 1.8284 0.210016 1.70318Q0.261886 1.57795 0.325779 1.45842Q0.389673 1.33888 0.464975 1.22618Q0.540278 1.11348 0.626264 1.00871Q0.712251 0.903934 0.808092 0.808092Q0.903934 0.712251 1.00871 0.626264Q1.11348 0.540278 1.22618 0.464975Q1.33888 0.389673 1.45842 0.325779Q1.57795 0.261886 1.70318 0.210016Q1.8284 0.158147 1.9581 0.118802Q2.08781 0.0794561 2.22075 0.0530134Q2.35368 0.0265707 2.48857 0.0132853Q2.62346 0 2.759 0L2.759 0Z" transform="translate(9.159258 16.33315)" id="Rectangle-15-Copy-2" fill="#EC523A" stroke="none" />
    <path d="M2.759 0L62.4347 0Q62.5702 0 62.7051 0.0132853Q62.84 0.0265707 62.9729 0.0530134Q63.1059 0.0794561 63.2356 0.118802Q63.3653 0.158147 63.4905 0.210016Q63.6157 0.261886 63.7353 0.325779Q63.8548 0.389673 63.9675 0.464975Q64.0802 0.540278 64.185 0.626264Q64.2897 0.712251 64.3856 0.808092Q64.4814 0.903934 64.5674 1.00871Q64.6534 1.11348 64.7287 1.22618Q64.804 1.33888 64.8679 1.45842Q64.9318 1.57795 64.9837 1.70318Q65.0355 1.8284 65.0749 1.9581Q65.1142 2.08781 65.1407 2.22075Q65.1671 2.35368 65.1804 2.48857Q65.1937 2.62346 65.1937 2.759L65.1937 22.6013Q65.1937 22.7369 65.1804 22.8718Q65.1671 23.0066 65.1407 23.1396Q65.1142 23.2725 65.0749 23.4022Q65.0355 23.5319 64.9836 23.6572Q64.9318 23.7824 64.8679 23.9019Q64.804 24.0214 64.7287 24.1341Q64.6534 24.2468 64.5674 24.3516Q64.4814 24.4564 64.3856 24.5522Q64.2897 24.6481 64.185 24.7341Q64.0802 24.82 63.9675 24.8953Q63.8548 24.9707 63.7353 25.0345Q63.6157 25.0984 63.4905 25.1503Q63.3653 25.2022 63.2356 25.2415Q63.1059 25.2809 62.9729 25.3073Q62.84 25.3338 62.7051 25.347Q62.5702 25.3603 62.4347 25.3603L2.759 25.3603Q2.62346 25.3603 2.48857 25.347Q2.35368 25.3338 2.22075 25.3073Q2.08781 25.2809 1.9581 25.2415Q1.8284 25.2022 1.70318 25.1503Q1.57795 25.0984 1.45842 25.0345Q1.33888 24.9707 1.22618 24.8954Q1.11348 24.8201 1.00871 24.7341Q0.903934 24.6481 0.808092 24.5522Q0.71225 24.4564 0.626264 24.3516Q0.540278 24.2468 0.464975 24.1341Q0.389673 24.0214 0.325779 23.9019Q0.261886 23.7824 0.210016 23.6571Q0.158147 23.5319 0.118802 23.4022Q0.0794561 23.2725 0.0530134 23.1396Q0.0265707 23.0066 0.0132853 22.8718Q0 22.7369 0 22.6013L0 2.759Q0 2.62346 0.0132853 2.48857Q0.0265707 2.35368 0.0530134 2.22075Q0.0794561 2.08781 0.118802 1.9581Q0.158147 1.8284 0.210016 1.70318Q0.261886 1.57795 0.325779 1.45842Q0.389673 1.33888 0.464975 1.22618Q0.540278 1.11348 0.626264 1.00871Q0.71225 0.903934 0.808092 0.808092Q0.903934 0.71225 1.00871 0.626264Q1.11348 0.540278 1.22618 0.464975Q1.33888 0.389673 1.45842 0.325779Q1.57795 0.261886 1.70318 0.210016Q1.8284 0.158147 1.9581 0.118802Q2.08781 0.0794561 2.22075 0.0530134Q2.35368 0.0265707 2.48857 0.0132853Q2.62346 0 2.759 0Z" transform="translate(17.54317 13.85391)" id="Rectangle-15" fill="#C42D24" stroke="none" />
    <path d="M18.6432 9.3216C18.6432 14.4698 14.4698 18.6432 9.3216 18.6432C4.17342 18.6432 0 14.4698 0 9.3216C0 4.17342 4.17342 0 9.3216 0C14.4698 0 18.6432 4.17342 18.6432 9.3216ZM15.7808 9.3216C15.7808 12.8889 12.8889 15.7808 9.3216 15.7808C5.7543 15.7808 2.86243 12.8889 2.86243 9.3216C2.86243 5.7543 5.7543 2.86243 9.3216 2.86243C12.8889 2.86243 15.7808 5.7543 15.7808 9.3216Z" transform="translate(40.94 0)" id="Combined-Shape" fill="#8DB440" fill-rule="evenodd" stroke="none" />
    <g id="Group-2" transform="translate(78.43 56.35)">
      <path d="M1.25116 5.2331C1.50665 2.02357 3.68357 -0.304907 6.11479 0.0324941L13.5758 1.06792C16.0065 1.40524 17.7698 4.27978 17.5143 7.49007L16.2877 22.8988C16.0323 26.1083 13.8553 28.4368 11.4241 28.0994L3.96306 27.0639C1.53243 26.7266 -0.23093 23.8521 0.024613 20.6418L1.25116 5.2331" transform="translate(0.2005509 0.92)" id="Rectangle-13" fill="#779C2E" stroke="none" />
      <path d="M0.149602 0C-0.699823 4.63343 2.15409 9.11968 6.524 10.0203L6.524 10.0203C10.8939 10.921 15.125 7.89496 15.9744 3.26153" transform="translate(4.754357 0)" id="Oval-7" fill="#8DB440" stroke="none" />
    </g>
    <path d="M1.25116 5.2331C1.50665 2.02357 3.68357 -0.304907 6.11479 0.0324941L13.5758 1.06792C16.0065 1.40524 17.7698 4.27978 17.5143 7.49007L16.2877 22.8988C16.0323 26.1083 13.8553 28.4368 11.4241 28.0994L3.96306 27.0639C1.53243 26.7266 -0.23093 23.8521 0.024613 20.6418L1.25116 5.2331" transform="matrix(-1 0 0 1 20.93 57.27)" id="Rectangle-13-Copy" fill="#779C2E" stroke="none" />
    <path d="M0.149602 0C-0.699823 4.63343 2.15409 9.11968 6.524 10.0203L6.524 10.0203C10.8939 10.921 15.125 7.89496 15.9744 3.26153" transform="matrix(-1 0 0 1 16.17661 56.35)" id="Oval-7-Copy" fill="#8DB440" stroke="none" />
    <path d="M9.05286 0L67.4927 0C71.105 0 74.2036 3.01676 74.4133 6.73257L76.5345 44.3145C76.7444 48.0328 74.0358 52.1674 70.3637 53.2975C70.3637 53.2975 64.4462 56.9663 39.4279 56.9663C14.4096 56.9663 6.2636 53.0966 6.2636 53.0966C2.59558 51.9646 -0.198654 48.0303 0.0110743 44.3145L2.13227 6.73257C2.34214 3.01428 5.44091 0 9.05286 0Z" transform="translate(11.96 40.71)" id="Rectangle-9" fill="#F7961E" stroke="none" />
    <path d="M8.12096 0L60.545 0C63.7854 0 66.5651 2.70622 66.7532 6.03952L68.656 39.7527C68.8443 43.0883 66.4146 46.7973 63.1205 47.8111C63.1205 47.8111 57.8121 51.1022 35.3692 51.1022C12.9263 51.1022 5.61882 47.6308 5.61882 47.6308C2.32839 46.6154 -0.178204 43.0861 0.00993433 39.7527L1.91278 6.03952C2.10104 2.70399 4.88082 0 8.12096 0Z" transform="translate(15.89981 43.64205)" id="Rectangle-9-Copy-5" fill="#FFA22E" stroke="none" />
    <path d="M6.43259 12.8652C9.98521 12.8652 12.8652 9.98521 12.8652 6.43259C12.8652 2.87997 9.98521 0 6.43259 0C2.87997 0 0 2.87997 0 6.43259C0 9.98521 2.87997 12.8652 6.43259 12.8652Z" transform="translate(43.7 81.65)" id="Oval-11" fill="#EC523A" stroke="none" />
    <path d="M7.30421 0L54.4558 0C57.3704 0 59.8704 1.68561 60.0396 3.76182L61.7511 24.7606C61.9204 26.8382 59.7351 29.1484 56.7723 29.7799C56.7723 29.7799 51.9978 31.8298 31.812 31.8298C11.6263 31.8298 5.05372 29.6676 5.05372 29.6676C2.09422 29.0352 -0.160282 26.8368 0.00893521 24.7606L1.7204 3.76182C1.88973 1.68422 4.38994 0 7.30421 0Z" transform="translate(19.32 58.19)" id="Rectangle-9-Copy" fill="#FCD143" stroke="none" />
    <path d="M48.9384 0C51.4082 0 53.7025 2.44181 54.0647 5.44944L57.8706 35.8687C58.2612 38.8784 56.4382 42.225 53.6756 43.1397C53.6756 43.1397 49.274 46.1093 29.8572 46.1093C10.4404 46.1093 4.31914 42.9771 4.31914 42.9771C1.5609 42.0609 -0.339531 38.8764 0.0508079 35.8687L3.85663 5.44944C4.21911 2.4398 6.51342 0 8.98292 0L48.9384 0Z" transform="translate(21.22911 8.404882)" id="Rectangle-9-Copy-2" fill="#FCC143" stroke="none" />
    <path d="M48.9384 0C51.4082 0 53.7025 2.44181 54.0647 5.44944L57.8706 35.8687C58.2612 38.8784 56.4382 42.225 53.6756 43.1397C53.6756 43.1397 49.274 46.1093 29.8572 46.1093C10.4404 46.1093 4.31914 42.9771 4.31914 42.9771C1.5609 42.0609 -0.339531 38.8764 0.0508079 35.8687L3.85663 5.44944C4.21911 2.4398 6.51342 0 8.98292 0L48.9384 0Z" transform="translate(21.16 8.51)" id="Rectangle-9-Copy-3" fill="#F7961E" stroke="none" />
    <path d="M44.2113 0C46.4424 0 48.5152 2.20594 48.8424 4.92305L52.2806 32.404C52.6335 35.123 50.9866 38.1463 48.4909 38.9727C48.4909 38.9727 44.5144 41.6554 26.9732 41.6554C9.43191 41.6554 3.90194 38.8257 3.90194 38.8257C1.41013 37.9981 -0.306735 35.1211 0.0459001 32.404L3.4841 4.92305C3.81157 2.20413 5.88426 0 8.11523 0L44.2113 0Z" transform="translate(23.95751 10.73694)" id="Rectangle-9-Copy-6" fill="#FCD143" stroke="none" />
    <path d="M51.4031 10.2251L1.2249e-07 10.2251L0.597495 5.44944C0.959978 2.4398 3.25429 0 5.72379 0L45.6793 0C48.149 0 50.4434 2.44181 50.8056 5.44944L51.4031 10.2251Z" transform="translate(24.38 8.51)" id="Combined-Shape" fill="#F7961E" fill-rule="evenodd" stroke="none" />
    <path d="M39.7662 10.2251L7.86408e-08 10.2251L0.462231 5.44944C0.742654 2.4398 2.51756 0 4.42801 0L35.3382 0C37.2488 0 39.0237 2.44181 39.304 5.44944L39.7662 10.2251Z" transform="translate(30.30399 12.68234)" id="Combined-Shape-Copy-6" fill="#FCD143" fill-rule="evenodd" stroke="none" />
    <path d="M0 0L21.2039 0L21.2039 8.1488L0 8.1488L0 0Z" transform="translate(39.64864 22.09149)" id="Rectangle-11" fill="#779C2E" stroke="none" />
    <path d="M7.29033 0L14.8397 7.11207L7.54936 14.4768L0 7.36477L7.29033 0" transform="translate(42.83073 22.8974)" id="Rectangle-12" fill="#8DB440" stroke="none" />
    <path d="M4.08528 0L8.31571 3.98539L4.23043 8.11237L0 4.12699L4.08528 0" transform="translate(46.09272 26.07963)" id="Rectangle-12-Copy" fill="#779C2E" stroke="none" />
    <g id="Group" transform="translate(60.85252 37.72)">
      <path d="M2.759 0L3.7559 0Q3.89144 0 4.02633 0.0132853Q4.16122 0.0265707 4.29416 0.0530134Q4.42709 0.0794561 4.5568 0.118802Q4.6865 0.158147 4.81172 0.210016Q4.93695 0.261886 5.05648 0.325779Q5.17602 0.389673 5.28872 0.464975Q5.40142 0.540278 5.50619 0.626264Q5.61097 0.712251 5.70681 0.808092Q5.80265 0.903934 5.88864 1.00871Q5.97462 1.11348 6.04992 1.22618Q6.12523 1.33888 6.18912 1.45842Q6.25302 1.57795 6.30488 1.70318Q6.35675 1.8284 6.3961 1.9581Q6.43545 2.08781 6.46189 2.22075Q6.48833 2.35368 6.50162 2.48857Q6.5149 2.62346 6.5149 2.759L6.5149 11.5064Q6.5149 11.6419 6.50162 11.7768Q6.48833 11.9117 6.46189 12.0446Q6.43545 12.1776 6.3961 12.3073Q6.35675 12.437 6.30488 12.5622Q6.25302 12.6874 6.18912 12.807Q6.12523 12.9265 6.04992 13.0392Q5.97462 13.1519 5.88864 13.2567Q5.80265 13.3615 5.70681 13.4573Q5.61097 13.5531 5.50619 13.6391Q5.40142 13.7251 5.28872 13.8004Q5.17602 13.8757 5.05648 13.9396Q4.93695 14.0035 4.81172 14.0554Q4.6865 14.1072 4.5568 14.1466Q4.42709 14.1859 4.29416 14.2124Q4.16122 14.2388 4.02633 14.2521Q3.89144 14.2654 3.7559 14.2654L2.759 14.2654Q2.62346 14.2654 2.48857 14.2521Q2.35368 14.2388 2.22075 14.2124Q2.08781 14.1859 1.9581 14.1466Q1.8284 14.1072 1.70318 14.0554Q1.57795 14.0035 1.45842 13.9396Q1.33888 13.8757 1.22618 13.8004Q1.11348 13.7251 1.00871 13.6391Q0.903934 13.5531 0.808092 13.4573Q0.71225 13.3615 0.626264 13.2567Q0.540278 13.1519 0.464975 13.0392Q0.389673 12.9265 0.325779 12.807Q0.261886 12.6874 0.210016 12.5622Q0.158147 12.437 0.118802 12.3073Q0.0794561 12.1776 0.0530134 12.0446Q0.0265707 11.9117 0.0132853 11.7768Q0 11.6419 0 11.5064L0 2.759Q0 2.62346 0.0132853 2.48857Q0.0265707 2.35368 0.0530134 2.22075Q0.0794561 2.08781 0.118802 1.9581Q0.158147 1.8284 0.210016 1.70318Q0.261886 1.57795 0.325779 1.45842Q0.389673 1.33888 0.464975 1.22618Q0.540278 1.11348 0.626264 1.00871Q0.712251 0.903934 0.808092 0.808092Q0.903934 0.712251 1.00871 0.626264Q1.11348 0.540278 1.22618 0.464975Q1.33888 0.389673 1.45842 0.325779Q1.57795 0.261886 1.70318 0.210016Q1.8284 0.158147 1.9581 0.118802Q2.08781 0.0794561 2.22075 0.0530134Q2.35368 0.0265707 2.48857 0.0132853Q2.62346 0 2.759 0L2.759 0Z" transform="translate(3.001646 22.87637)" id="Rectangle-14-Copy" fill="#668823" stroke="none" />
      <path d="M6.22268 12.4454C9.65937 12.4454 12.4454 9.65937 12.4454 6.22268C12.4454 2.78599 9.65937 0 6.22268 0C2.78599 0 0 2.78599 0 6.22268C0 9.65937 2.78599 12.4454 6.22268 12.4454Z" transform="translate(0.07897914 19.43642)" id="Oval-8" fill="#DB3F36" stroke="none" />
      <path d="M4.34996 8.69992C6.75237 8.69992 8.69992 6.75237 8.69992 4.34996C8.69992 1.94754 6.75237 0 4.34996 0C1.94754 0 0 1.94754 0 4.34996C0 6.75237 1.94754 8.69992 4.34996 8.69992Z" transform="translate(1.951699 21.30914)" id="Oval-8-Copy" fill="#C42D24" stroke="none" />
      <path d="M1.24873 2.49746C1.93838 2.49746 2.49746 1.93838 2.49746 1.24873C2.49746 0.559075 1.93838 0 1.24873 0C0.559075 0 0 0.559075 0 1.24873C0 1.93838 0.559075 2.49746 1.24873 2.49746Z" transform="translate(1.214962 22.59265)" id="Oval-8-Copy-3" fill="#FFFFFF" stroke="none" />
      <path d="M0 0C0 1.99507 1.61733 3.6124 3.6124 3.6124L3.6124 3.6124C5.60747 3.6124 7.2248 1.99507 7.2248 0" transform="translate(2.664668 25.66446)" id="Oval-8-Copy-2" fill="#FFFFFF" stroke="none" />
      <path d="M2.759 0L3.7559 0Q3.89144 0 4.02633 0.0132853Q4.16122 0.0265707 4.29416 0.0530134Q4.42709 0.0794561 4.5568 0.118802Q4.6865 0.158147 4.81172 0.210016Q4.93695 0.261886 5.05648 0.325779Q5.17602 0.389673 5.28872 0.464975Q5.40142 0.540278 5.50619 0.626264Q5.61097 0.712251 5.70681 0.808092Q5.80265 0.903934 5.88864 1.00871Q5.97462 1.11348 6.04992 1.22618Q6.12523 1.33888 6.18912 1.45842Q6.25302 1.57795 6.30488 1.70318Q6.35675 1.8284 6.3961 1.9581Q6.43545 2.08781 6.46189 2.22075Q6.48833 2.35368 6.50162 2.48857Q6.5149 2.62346 6.5149 2.759L6.5149 22.2418Q6.5149 22.3773 6.50162 22.5122Q6.48833 22.6471 6.46189 22.78Q6.43545 22.913 6.3961 23.0427Q6.35675 23.1724 6.30488 23.2976Q6.25302 23.4228 6.18912 23.5424Q6.12523 23.6619 6.04992 23.7746Q5.97462 23.8873 5.88864 23.9921Q5.80265 24.0969 5.70681 24.1927Q5.61097 24.2885 5.50619 24.3745Q5.40142 24.4605 5.28872 24.5358Q5.17602 24.6111 5.05648 24.675Q4.93695 24.7389 4.81172 24.7908Q4.6865 24.8426 4.5568 24.882Q4.42709 24.9213 4.29416 24.9478Q4.16122 24.9742 4.02633 24.9875Q3.89144 25.0008 3.7559 25.0008L2.759 25.0008Q2.62346 25.0008 2.48857 24.9875Q2.35368 24.9742 2.22075 24.9478Q2.08781 24.9213 1.9581 24.882Q1.8284 24.8426 1.70318 24.7908Q1.57795 24.7389 1.45842 24.675Q1.33888 24.6111 1.22618 24.5358Q1.11348 24.4605 1.00871 24.3745Q0.903934 24.2885 0.808092 24.1927Q0.71225 24.0969 0.626264 23.9921Q0.540278 23.8873 0.464975 23.7746Q0.389673 23.6619 0.325779 23.5424Q0.261886 23.4228 0.210016 23.2976Q0.158147 23.1724 0.118802 23.0427Q0.0794561 22.913 0.0530134 22.78Q0.0265707 22.6471 0.0132853 22.5122Q0 22.3773 0 22.2418L0 2.759Q0 2.62346 0.0132853 2.48857Q0.0265707 2.35368 0.0530134 2.22075Q0.0794561 2.08781 0.118802 1.9581Q0.158147 1.8284 0.210016 1.70318Q0.261886 1.57795 0.325779 1.45842Q0.389673 1.33888 0.464975 1.22618Q0.540278 1.11348 0.626264 1.00871Q0.712251 0.903934 0.808092 0.808092Q0.903934 0.712251 1.00871 0.626264Q1.11348 0.540278 1.22618 0.464975Q1.33888 0.389673 1.45842 0.325779Q1.57795 0.261886 1.70318 0.210016Q1.8284 0.158147 1.9581 0.118802Q2.08781 0.0794561 2.22075 0.0530134Q2.35368 0.0265707 2.48857 0.0132853Q2.62346 0 2.759 0L2.759 0Z" transform="translate(3.001646 0.1020428)" id="Rectangle-14" fill="#668823" stroke="none" />
    </g>
    <g id="Group-Copy" transform="translate(26.795 37.72)">
      <path d="M2.759 0L3.7559 0Q3.89144 0 4.02633 0.0132853Q4.16122 0.0265707 4.29416 0.0530134Q4.42709 0.0794561 4.5568 0.118802Q4.6865 0.158147 4.81172 0.210016Q4.93695 0.261886 5.05648 0.325779Q5.17602 0.389673 5.28872 0.464975Q5.40142 0.540278 5.50619 0.626264Q5.61097 0.712251 5.70681 0.808092Q5.80265 0.903934 5.88864 1.00871Q5.97462 1.11348 6.04992 1.22618Q6.12523 1.33888 6.18912 1.45842Q6.25302 1.57795 6.30488 1.70318Q6.35675 1.8284 6.3961 1.9581Q6.43545 2.08781 6.46189 2.22075Q6.48833 2.35368 6.50162 2.48857Q6.5149 2.62346 6.5149 2.759L6.5149 11.5064Q6.5149 11.6419 6.50162 11.7768Q6.48833 11.9117 6.46189 12.0446Q6.43545 12.1776 6.3961 12.3073Q6.35675 12.437 6.30488 12.5622Q6.25302 12.6874 6.18912 12.807Q6.12523 12.9265 6.04992 13.0392Q5.97462 13.1519 5.88864 13.2567Q5.80265 13.3615 5.70681 13.4573Q5.61097 13.5531 5.50619 13.6391Q5.40142 13.7251 5.28872 13.8004Q5.17602 13.8757 5.05648 13.9396Q4.93695 14.0035 4.81172 14.0554Q4.6865 14.1072 4.5568 14.1466Q4.42709 14.1859 4.29416 14.2124Q4.16122 14.2388 4.02633 14.2521Q3.89144 14.2654 3.7559 14.2654L2.759 14.2654Q2.62346 14.2654 2.48857 14.2521Q2.35368 14.2388 2.22075 14.2124Q2.08781 14.1859 1.9581 14.1466Q1.8284 14.1072 1.70318 14.0554Q1.57795 14.0035 1.45842 13.9396Q1.33888 13.8757 1.22618 13.8004Q1.11348 13.7251 1.00871 13.6391Q0.903934 13.5531 0.808092 13.4573Q0.71225 13.3615 0.626264 13.2567Q0.540278 13.1519 0.464975 13.0392Q0.389673 12.9265 0.325779 12.807Q0.261886 12.6874 0.210016 12.5622Q0.158147 12.437 0.118802 12.3073Q0.0794561 12.1776 0.0530134 12.0446Q0.0265707 11.9117 0.0132853 11.7768Q0 11.6419 0 11.5064L0 2.759Q0 2.62346 0.0132853 2.48857Q0.0265707 2.35368 0.0530134 2.22075Q0.0794561 2.08781 0.118802 1.9581Q0.158147 1.8284 0.210016 1.70318Q0.261886 1.57795 0.325779 1.45842Q0.389673 1.33888 0.464975 1.22618Q0.540278 1.11348 0.626264 1.00871Q0.712251 0.903934 0.808092 0.808092Q0.903934 0.712251 1.00871 0.626264Q1.11348 0.540278 1.22618 0.464975Q1.33888 0.389673 1.45842 0.325779Q1.57795 0.261886 1.70318 0.210016Q1.8284 0.158147 1.9581 0.118802Q2.08781 0.0794561 2.22075 0.0530134Q2.35368 0.0265707 2.48857 0.0132853Q2.62346 0 2.759 0L2.759 0Z" transform="translate(3.001646 22.87637)" id="Rectangle-14-Copy" fill="#668823" stroke="none" />
      <path d="M6.22268 12.4454C9.65937 12.4454 12.4454 9.65937 12.4454 6.22268C12.4454 2.78599 9.65937 0 6.22268 0C2.78599 0 0 2.78599 0 6.22268C0 9.65937 2.78599 12.4454 6.22268 12.4454Z" transform="translate(0.07897914 19.43642)" id="Oval-8" fill="#DB3F36" stroke="none" />
      <path d="M4.34996 8.69992C6.75237 8.69992 8.69992 6.75237 8.69992 4.34996C8.69992 1.94754 6.75237 0 4.34996 0C1.94754 0 0 1.94754 0 4.34996C0 6.75237 1.94754 8.69992 4.34996 8.69992Z" transform="translate(1.951699 21.30914)" id="Oval-8-Copy" fill="#C42D24" stroke="none" />
      <path d="M1.24873 2.49746C1.93838 2.49746 2.49746 1.93838 2.49746 1.24873C2.49746 0.559075 1.93838 0 1.24873 0C0.559075 0 0 0.559075 0 1.24873C0 1.93838 0.559075 2.49746 1.24873 2.49746Z" transform="translate(1.214962 22.59265)" id="Oval-8-Copy-3" fill="#FFFFFF" stroke="none" />
      <path d="M0 0C0 1.99507 1.61733 3.6124 3.6124 3.6124L3.6124 3.6124C5.60747 3.6124 7.2248 1.99507 7.2248 0" transform="translate(2.664668 25.66446)" id="Oval-8-Copy-2" fill="#FFFFFF" stroke="none" />
      <path d="M2.759 0L3.7559 0Q3.89144 0 4.02633 0.0132853Q4.16122 0.0265707 4.29416 0.0530134Q4.42709 0.0794561 4.5568 0.118802Q4.6865 0.158147 4.81172 0.210016Q4.93695 0.261886 5.05648 0.325779Q5.17602 0.389673 5.28872 0.464975Q5.40142 0.540278 5.50619 0.626264Q5.61097 0.712251 5.70681 0.808092Q5.80265 0.903934 5.88864 1.00871Q5.97462 1.11348 6.04992 1.22618Q6.12523 1.33888 6.18912 1.45842Q6.25302 1.57795 6.30488 1.70318Q6.35675 1.8284 6.3961 1.9581Q6.43545 2.08781 6.46189 2.22075Q6.48833 2.35368 6.50162 2.48857Q6.5149 2.62346 6.5149 2.759L6.5149 22.2418Q6.5149 22.3773 6.50162 22.5122Q6.48833 22.6471 6.46189 22.78Q6.43545 22.913 6.3961 23.0427Q6.35675 23.1724 6.30488 23.2976Q6.25302 23.4228 6.18912 23.5424Q6.12523 23.6619 6.04992 23.7746Q5.97462 23.8873 5.88864 23.9921Q5.80265 24.0969 5.70681 24.1927Q5.61097 24.2885 5.50619 24.3745Q5.40142 24.4605 5.28872 24.5358Q5.17602 24.6111 5.05648 24.675Q4.93695 24.7389 4.81172 24.7908Q4.6865 24.8426 4.5568 24.882Q4.42709 24.9213 4.29416 24.9478Q4.16122 24.9742 4.02633 24.9875Q3.89144 25.0008 3.7559 25.0008L2.759 25.0008Q2.62346 25.0008 2.48857 24.9875Q2.35368 24.9742 2.22075 24.9478Q2.08781 24.9213 1.9581 24.882Q1.8284 24.8426 1.70318 24.7908Q1.57795 24.7389 1.45842 24.675Q1.33888 24.6111 1.22618 24.5358Q1.11348 24.4605 1.00871 24.3745Q0.903934 24.2885 0.808092 24.1927Q0.71225 24.0969 0.626264 23.9921Q0.540278 23.8873 0.464975 23.7746Q0.389673 23.6619 0.325779 23.5424Q0.261886 23.4228 0.210016 23.2976Q0.158147 23.1724 0.118802 23.0427Q0.0794561 22.913 0.0530134 22.78Q0.0265707 22.6471 0.0132853 22.5122Q0 22.3773 0 22.2418L0 2.759Q0 2.62346 0.0132853 2.48857Q0.0265707 2.35368 0.0530134 2.22075Q0.0794561 2.08781 0.118802 1.9581Q0.158147 1.8284 0.210016 1.70318Q0.261886 1.57795 0.325779 1.45842Q0.389673 1.33888 0.464975 1.22618Q0.540278 1.11348 0.626264 1.00871Q0.712251 0.903934 0.808092 0.808092Q0.903934 0.712251 1.00871 0.626264Q1.11348 0.540278 1.22618 0.464975Q1.33888 0.389673 1.45842 0.325779Q1.57795 0.261886 1.70318 0.210016Q1.8284 0.158147 1.9581 0.118802Q2.08781 0.0794561 2.22075 0.0530134Q2.35368 0.0265707 2.48857 0.0132853Q2.62346 0 2.759 0L2.759 0Z" transform="translate(3.001646 0.1020428)" id="Rectangle-14" fill="#668823" stroke="none" />
    </g>
    <path d="M0 0C0 2.55702 2.07287 4.62989 4.62989 4.62989C7.18691 4.62989 9.25978 2.55702 9.25978 0" transform="translate(45.54 73.6)" id="Oval-10" fill="none" stroke="#ED4C30" stroke-width="2.3" stroke-linecap="round" />
  </g>
</svg>