<?xml version="1.0" encoding="utf-8"?>
<svg width="36px" height="93px" viewBox="0 0 36 93" version="1.1" xmlns:xlink="http://www.w3.org/1999/xlink" xmlns="http://www.w3.org/2000/svg">
  <desc>Created with Lunacy</desc>
  <defs>
    <path d="M1.149 0L15.5464 0Q15.6029 0 15.659 0.00553275Q15.7152 0.0110655 15.7706 0.0220777Q15.8259 0.0330899 15.88 0.0494755Q15.934 0.0658612 15.9861 0.0874624Q16.0383 0.109064 16.0881 0.135672Q16.1378 0.162281 16.1848 0.193641Q16.2317 0.225002 16.2753 0.260811Q16.319 0.29662 16.3589 0.336534Q16.3988 0.376448 16.4346 0.420082Q16.4704 0.463716 16.5018 0.51065Q16.5331 0.557584 16.5598 0.607365Q16.5864 0.657147 16.608 0.709297Q16.6296 0.761447 16.646 0.815463Q16.6623 0.869479 16.6733 0.924841Q16.6844 0.980203 16.6899 1.03638Q16.6954 1.09255 16.6954 1.149L16.6954 20.7819Q16.6954 20.8383 16.6899 20.8945Q16.6844 20.9507 16.6733 21.006Q16.6623 21.0614 16.646 21.1154Q16.6296 21.1694 16.608 21.2216Q16.5864 21.2737 16.5598 21.3235Q16.5331 21.3733 16.5018 21.4202Q16.4704 21.4671 16.4346 21.5108Q16.3988 21.5544 16.3589 21.5943Q16.319 21.6342 16.2753 21.67Q16.2317 21.7059 16.1848 21.7372Q16.1378 21.7686 16.0881 21.7952Q16.0383 21.8218 15.9861 21.8434Q15.934 21.865 15.88 21.8814Q15.8259 21.8978 15.7706 21.9088Q15.7152 21.9198 15.659 21.9253Q15.6029 21.9309 15.5464 21.9309L1.149 21.9309Q1.09255 21.9309 1.03638 21.9253Q0.980203 21.9198 0.924841 21.9088Q0.869479 21.8978 0.815463 21.8814Q0.761447 21.865 0.709297 21.8434Q0.657147 21.8218 0.607365 21.7952Q0.557584 21.7686 0.51065 21.7372Q0.463716 21.7059 0.420082 21.67Q0.376448 21.6342 0.336534 21.5943Q0.29662 21.5544 0.260811 21.5108Q0.225002 21.4671 0.193641 21.4202Q0.162281 21.3733 0.135672 21.3235Q0.109064 21.2737 0.0874624 21.2216Q0.0658612 21.1694 0.0494755 21.1154Q0.0330899 21.0614 0.0220777 21.006Q0.0110655 20.9507 0.00553275 20.8945Q0 20.8383 0 20.7819L0 1.149Q0 1.09255 0.00553275 1.03638Q0.0110655 0.980203 0.0220777 0.924841Q0.0330899 0.869479 0.0494755 0.815463Q0.0658612 0.761447 0.0874624 0.709297Q0.109064 0.657147 0.135672 0.607365Q0.162281 0.557584 0.193641 0.51065Q0.225002 0.463716 0.260811 0.420082Q0.29662 0.376448 0.336534 0.336534Q0.376448 0.29662 0.420082 0.260811Q0.463716 0.225002 0.51065 0.193641Q0.557584 0.162281 0.607365 0.135672Q0.657147 0.109064 0.709297 0.0874624Q0.761447 0.0658612 0.815463 0.0494755Q0.869479 0.0330899 0.924841 0.0220777Q0.980203 0.0110655 1.03638 0.00553275Q1.09255 0 1.149 0Z" transform="translate(9.2 60.90915)" id="path_1" />
    <clipPath id="clip_1">
      <use xlink:href="#path_1" />
    </clipPath>
  </defs>
  <g id="botol-minumam" transform="translate(0.2874756 0.2874756)">
    <path d="M0 0L9.13576 0L9.13576 5.7595L0 5.7595L0 0Z" transform="translate(13.11 0)" id="Rectangle-52" fill="#27BFCA" stroke="none" />
    <path d="M4.139 0L10.059 0Q10.1606 0 10.2621 0.00498561Q10.3636 0.00997121 10.4647 0.0199304Q10.5658 0.0298896 10.6663 0.0447984Q10.7668 0.0597072 10.8665 0.0795297Q10.9661 0.0993522 11.0647 0.124041Q11.1633 0.148729 11.2605 0.178224Q11.3577 0.207719 11.4534 0.241949Q11.5491 0.276179 11.6429 0.315063Q11.7368 0.353946 11.8287 0.397388Q11.9205 0.440831 12.0101 0.488728Q12.0997 0.536625 12.1869 0.588861Q12.274 0.641098 12.3585 0.697547Q12.443 0.753997 12.5246 0.814524Q12.6062 0.875051 12.6848 0.93951Q12.7633 1.00397 12.8386 1.0722Q12.9139 1.14044 12.9857 1.21228Q13.0576 1.28413 13.1258 1.35942Q13.194 1.4347 13.2585 1.51325Q13.323 1.59179 13.3835 1.6734Q13.444 1.75501 13.5005 1.83949Q13.5569 1.92398 13.6091 2.01113Q13.6614 2.09828 13.7093 2.18789Q13.7572 2.2775 13.8006 2.36935Q13.8441 2.4612 13.8829 2.55507Q13.9218 2.64895 13.9561 2.74461Q13.9903 2.84028 14.0198 2.93751Q14.0493 3.03474 14.074 3.1333Q14.0987 3.23187 14.1185 3.33152Q14.1383 3.43118 14.1532 3.53168Q14.1681 3.63219 14.1781 3.73331Q14.188 3.83442 14.193 3.93591Q14.198 4.03739 14.198 4.139L14.198 15.4991Q14.198 15.6007 14.193 15.7022Q14.188 15.8037 14.1781 15.9048Q14.1681 16.0059 14.1532 16.1064Q14.1383 16.2069 14.1185 16.3066Q14.0987 16.4062 14.074 16.5048Q14.0493 16.6033 14.0198 16.7006Q13.9903 16.7978 13.9561 16.8935Q13.9218 16.9891 13.8829 17.083Q13.8441 17.1769 13.8006 17.2687Q13.7572 17.3606 13.7093 17.4502Q13.6614 17.5398 13.6091 17.627Q13.5569 17.7141 13.5005 17.7986Q13.444 17.8831 13.3835 17.9647Q13.323 18.0463 13.2585 18.1248Q13.194 18.2034 13.1258 18.2787Q13.0576 18.354 12.9857 18.4258Q12.9139 18.4977 12.8386 18.5659Q12.7633 18.6341 12.6848 18.6986Q12.6062 18.763 12.5246 18.8236Q12.443 18.8841 12.3585 18.9405Q12.274 18.997 12.1869 19.0492Q12.0997 19.1015 12.0101 19.1494Q11.9205 19.1973 11.8287 19.2407Q11.7368 19.2841 11.6429 19.323Q11.5491 19.3619 11.4534 19.3961Q11.3577 19.4304 11.2605 19.4599Q11.1633 19.4894 11.0647 19.5141Q10.9661 19.5387 10.8665 19.5586Q10.7668 19.5784 10.6663 19.5933Q10.5658 19.6082 10.4647 19.6182Q10.3636 19.6281 10.2621 19.6331Q10.1606 19.6381 10.059 19.6381L4.139 19.6381Q4.03739 19.6381 3.93591 19.6331Q3.83442 19.6281 3.73331 19.6182Q3.63219 19.6082 3.53168 19.5933Q3.43118 19.5784 3.33152 19.5586Q3.23187 19.5387 3.1333 19.5141Q3.03474 19.4894 2.93751 19.4599Q2.84028 19.4304 2.74461 19.3961Q2.64895 19.3619 2.55507 19.323Q2.4612 19.2841 2.36935 19.2407Q2.2775 19.1973 2.18789 19.1494Q2.09828 19.1015 2.01113 19.0492Q1.92398 18.997 1.83949 18.9405Q1.75501 18.8841 1.6734 18.8236Q1.59179 18.763 1.51325 18.6986Q1.4347 18.6341 1.35942 18.5659Q1.28413 18.4977 1.21228 18.4258Q1.14044 18.354 1.0722 18.2787Q1.00397 18.2034 0.93951 18.1248Q0.875051 18.0463 0.814524 17.9647Q0.753997 17.8831 0.697547 17.7986Q0.641098 17.7141 0.588861 17.627Q0.536625 17.5398 0.488728 17.4502Q0.440831 17.3606 0.397388 17.2687Q0.353946 17.1769 0.315063 17.083Q0.276179 16.9891 0.241949 16.8935Q0.207719 16.7978 0.178224 16.7006Q0.148729 16.6033 0.124041 16.5048Q0.0993522 16.4062 0.0795297 16.3066Q0.0597072 16.2069 0.0447984 16.1064Q0.0298896 16.0059 0.0199304 15.9048Q0.00997121 15.8037 0.00498561 15.7022Q0 15.6007 0 15.4991L0 4.139Q0 4.03739 0.00498561 3.93591Q0.00997121 3.83442 0.0199304 3.73331Q0.0298896 3.63219 0.0447984 3.53168Q0.0597072 3.43118 0.0795297 3.33152Q0.0993522 3.23187 0.124041 3.1333Q0.148729 3.03474 0.178224 2.93751Q0.207719 2.84028 0.241949 2.74461Q0.276179 2.64895 0.315063 2.55507Q0.353946 2.4612 0.397388 2.36935Q0.440831 2.2775 0.488728 2.18789Q0.536625 2.09828 0.588861 2.01113Q0.641098 1.92398 0.697547 1.83949Q0.753997 1.75501 0.814524 1.6734Q0.875051 1.59179 0.93951 1.51325Q1.00397 1.4347 1.0722 1.35942Q1.14044 1.28413 1.21229 1.21228Q1.28413 1.14044 1.35942 1.0722Q1.4347 1.00397 1.51325 0.93951Q1.59179 0.875051 1.6734 0.814524Q1.75501 0.753997 1.83949 0.697547Q1.92398 0.641098 2.01113 0.588861Q2.09828 0.536625 2.18789 0.488728Q2.2775 0.440831 2.36935 0.397388Q2.4612 0.353946 2.55507 0.315063Q2.64895 0.276179 2.74461 0.241949Q2.84028 0.207719 2.93751 0.178224Q3.03474 0.148729 3.13331 0.124041Q3.23187 0.0993522 3.33152 0.0795297Q3.43118 0.0597072 3.53168 0.0447984Q3.63219 0.0298896 3.73331 0.0199304Q3.83442 0.00997121 3.93591 0.00498561Q4.03739 0 4.139 0L4.139 0Z" transform="translate(10.611 18.73762)" id="Rectangle-48-Copy-3" fill="#27BFCA" stroke="none" />
    <path d="M4.139 0L25.504 0Q25.6057 0 25.7071 0.00498561Q25.8086 0.00997121 25.9097 0.0199304Q26.0109 0.0298896 26.1114 0.0447984Q26.2119 0.0597072 26.3115 0.0795297Q26.4112 0.0993522 26.5097 0.124041Q26.6083 0.148729 26.7055 0.178224Q26.8028 0.207719 26.8984 0.241949Q26.9941 0.276179 27.088 0.315063Q27.1818 0.353946 27.2737 0.397388Q27.3655 0.440831 27.4552 0.488728Q27.5448 0.536625 27.6319 0.588861Q27.7191 0.641098 27.8036 0.697547Q27.888 0.753997 27.9696 0.814524Q28.0513 0.875051 28.1298 0.93951Q28.2083 1.00397 28.2836 1.0722Q28.3589 1.14044 28.4308 1.21228Q28.5026 1.28413 28.5708 1.35942Q28.6391 1.4347 28.7035 1.51325Q28.768 1.59179 28.8285 1.6734Q28.889 1.75501 28.9455 1.83949Q29.0019 1.92398 29.0542 2.01113Q29.1064 2.09828 29.1543 2.18789Q29.2022 2.2775 29.2457 2.36935Q29.2891 2.4612 29.328 2.55507Q29.3669 2.64895 29.4011 2.74461Q29.4353 2.84028 29.4648 2.93751Q29.4943 3.03474 29.519 3.1333Q29.5437 3.23187 29.5635 3.33152Q29.5833 3.43118 29.5982 3.53168Q29.6132 3.63219 29.6231 3.73331Q29.6331 3.83442 29.6381 3.93591Q29.643 4.03739 29.643 4.139L29.643 31.0621Q29.643 31.1637 29.6381 31.2652Q29.6331 31.3667 29.6231 31.4678Q29.6132 31.5689 29.5983 31.6694Q29.5833 31.7699 29.5635 31.8696Q29.5437 31.9692 29.519 32.0678Q29.4943 32.1664 29.4648 32.2636Q29.4353 32.3608 29.4011 32.4565Q29.3669 32.5522 29.328 32.646Q29.2891 32.7399 29.2457 32.8318Q29.2022 32.9236 29.1543 33.0132Q29.1064 33.1028 29.0542 33.19Q29.0019 33.2771 28.9455 33.3616Q28.889 33.4461 28.8285 33.5277Q28.768 33.6093 28.7035 33.6879Q28.6391 33.7664 28.5708 33.8417Q28.5026 33.917 28.4308 33.9888Q28.3589 34.0607 28.2836 34.1289Q28.2083 34.1971 28.1298 34.2616Q28.0513 34.3261 27.9696 34.3866Q27.888 34.4471 27.8035 34.5036Q27.7191 34.56 27.6319 34.6122Q27.5448 34.6645 27.4552 34.7124Q27.3655 34.7603 27.2737 34.8037Q27.1818 34.8472 27.088 34.886Q26.9941 34.9249 26.8984 34.9592Q26.8028 34.9934 26.7055 35.0229Q26.6083 35.0524 26.5097 35.0771Q26.4112 35.1018 26.3115 35.1216Q26.2119 35.1414 26.1114 35.1563Q26.0109 35.1712 25.9097 35.1812Q25.8086 35.1911 25.7071 35.1961Q25.6057 35.2011 25.504 35.2011L4.139 35.2011Q4.03739 35.2011 3.93591 35.1961Q3.83442 35.1911 3.73331 35.1812Q3.63219 35.1712 3.53168 35.1563Q3.43118 35.1414 3.33152 35.1216Q3.23187 35.1018 3.1333 35.0771Q3.03474 35.0524 2.93751 35.0229Q2.84028 34.9934 2.74461 34.9592Q2.64895 34.9249 2.55507 34.886Q2.4612 34.8472 2.36935 34.8037Q2.2775 34.7603 2.18789 34.7124Q2.09828 34.6645 2.01113 34.6123Q1.92398 34.56 1.83949 34.5036Q1.75501 34.4471 1.6734 34.3866Q1.59179 34.3261 1.51325 34.2616Q1.4347 34.1971 1.35942 34.1289Q1.28413 34.0607 1.21228 33.9888Q1.14044 33.917 1.0722 33.8417Q1.00397 33.7664 0.93951 33.6879Q0.875051 33.6093 0.814524 33.5277Q0.753997 33.4461 0.697547 33.3616Q0.641098 33.2771 0.588861 33.19Q0.536625 33.1028 0.488728 33.0132Q0.440831 32.9236 0.397388 32.8318Q0.353946 32.7399 0.315063 32.646Q0.276179 32.5522 0.241949 32.4565Q0.207719 32.3608 0.178224 32.2636Q0.148729 32.1664 0.124041 32.0678Q0.0993522 31.9692 0.0795297 31.8696Q0.0597072 31.7699 0.0447984 31.6694Q0.0298896 31.5689 0.0199304 31.4678Q0.00997121 31.3667 0.00498561 31.2652Q0 31.1637 0 31.0621L0 4.139Q0 4.03739 0.00498561 3.93591Q0.00997121 3.83442 0.0199304 3.73331Q0.0298896 3.63219 0.0447984 3.53168Q0.0597072 3.43118 0.0795297 3.33152Q0.0993522 3.23187 0.124041 3.1333Q0.148729 3.03474 0.178224 2.93751Q0.207719 2.84028 0.241949 2.74461Q0.276179 2.64895 0.315063 2.55507Q0.353946 2.4612 0.397388 2.36935Q0.440831 2.2775 0.488728 2.18789Q0.536625 2.09828 0.588861 2.01113Q0.641098 1.92398 0.697547 1.83949Q0.753997 1.75501 0.814524 1.6734Q0.875051 1.59179 0.93951 1.51325Q1.00397 1.4347 1.0722 1.35942Q1.14044 1.28413 1.21229 1.21228Q1.28413 1.14044 1.35942 1.0722Q1.4347 1.00397 1.51325 0.93951Q1.59179 0.875051 1.6734 0.814524Q1.75501 0.753997 1.83949 0.697547Q1.92398 0.641098 2.01113 0.588861Q2.09828 0.536625 2.18789 0.488728Q2.2775 0.440831 2.36935 0.397388Q2.4612 0.353946 2.55507 0.315063Q2.64895 0.276179 2.74461 0.241949Q2.84028 0.207719 2.93751 0.178224Q3.03474 0.148729 3.13331 0.124041Q3.23187 0.0993522 3.33152 0.0795297Q3.43118 0.0597072 3.53168 0.0447984Q3.63219 0.0298896 3.73331 0.0199304Q3.83442 0.00997121 3.93591 0.00498561Q4.03739 0 4.139 0L4.139 0Z" transform="translate(2.99 34.73)" id="Rectangle-48-Copy" fill="#15A5AE" stroke="none" />
    <path d="M4.139 0L31.1027 0Q31.2043 0 31.3058 0.00498561Q31.4072 0.00997121 31.5084 0.0199304Q31.6095 0.0298896 31.71 0.0447984Q31.8105 0.0597072 31.9101 0.0795297Q32.0098 0.0993522 32.1083 0.124041Q32.2069 0.148729 32.3041 0.178224Q32.4014 0.207719 32.497 0.241949Q32.5927 0.276179 32.6866 0.315063Q32.7805 0.353946 32.8723 0.397388Q32.9642 0.440831 33.0538 0.488728Q33.1434 0.536625 33.2305 0.588861Q33.3177 0.641098 33.4022 0.697547Q33.4866 0.753997 33.5683 0.814524Q33.6499 0.875051 33.7284 0.93951Q33.807 1.00397 33.8822 1.0722Q33.9575 1.14044 34.0294 1.21228Q34.1012 1.28413 34.1695 1.35942Q34.2377 1.4347 34.3022 1.51325Q34.3666 1.59179 34.4271 1.6734Q34.4877 1.75501 34.5441 1.83949Q34.6006 1.92398 34.6528 2.01113Q34.705 2.09828 34.7529 2.18789Q34.8008 2.2775 34.8443 2.36935Q34.8877 2.4612 34.9266 2.55507Q34.9655 2.64895 34.9997 2.74461Q35.0339 2.84028 35.0634 2.93751Q35.0929 3.03474 35.1176 3.1333Q35.1423 3.23187 35.1621 3.33152Q35.1819 3.43118 35.1969 3.53168Q35.2118 3.63219 35.2217 3.73331Q35.2317 3.83442 35.2367 3.93591Q35.2417 4.03739 35.2417 4.139L35.2417 33.3171Q35.2417 33.4187 35.2367 33.5202Q35.2317 33.6217 35.2217 33.7228Q35.2118 33.8239 35.1969 33.9244Q35.1819 34.0249 35.1621 34.1246Q35.1423 34.2242 35.1176 34.3228Q35.0929 34.4213 35.0634 34.5186Q35.0339 34.6158 34.9997 34.7115Q34.9655 34.8071 34.9266 34.901Q34.8877 34.9949 34.8443 35.0867Q34.8008 35.1786 34.7529 35.2682Q34.705 35.3578 34.6528 35.445Q34.6006 35.5321 34.5441 35.6166Q34.4877 35.7011 34.4271 35.7827Q34.3666 35.8643 34.3022 35.9428Q34.2377 36.0214 34.1695 36.0967Q34.1012 36.172 34.0294 36.2438Q33.9575 36.3157 33.8822 36.3839Q33.807 36.4521 33.7284 36.5166Q33.6499 36.581 33.5683 36.6416Q33.4866 36.7021 33.4022 36.7585Q33.3177 36.815 33.2305 36.8672Q33.1434 36.9195 33.0538 36.9674Q32.9642 37.0153 32.8723 37.0587Q32.7805 37.1021 32.6866 37.141Q32.5927 37.1799 32.497 37.2141Q32.4014 37.2484 32.3041 37.2779Q32.2069 37.3074 32.1084 37.3321Q32.0098 37.3567 31.9101 37.3766Q31.8105 37.3964 31.71 37.4113Q31.6095 37.4262 31.5084 37.4362Q31.4072 37.4461 31.3057 37.4511Q31.2043 37.4561 31.1027 37.4561L4.139 37.4561Q4.03739 37.4561 3.93591 37.4511Q3.83442 37.4461 3.73331 37.4362Q3.63219 37.4262 3.53168 37.4113Q3.43118 37.3964 3.33152 37.3766Q3.23187 37.3567 3.1333 37.3321Q3.03474 37.3074 2.93751 37.2779Q2.84028 37.2484 2.74461 37.2141Q2.64895 37.1799 2.55507 37.141Q2.4612 37.1021 2.36935 37.0587Q2.2775 37.0153 2.18789 36.9674Q2.09828 36.9195 2.01113 36.8672Q1.92398 36.815 1.83949 36.7585Q1.75501 36.7021 1.6734 36.6416Q1.59179 36.581 1.51325 36.5166Q1.4347 36.4521 1.35942 36.3839Q1.28413 36.3157 1.21228 36.2438Q1.14044 36.172 1.0722 36.0967Q1.00397 36.0214 0.93951 35.9428Q0.875051 35.8643 0.814524 35.7827Q0.753997 35.7011 0.697547 35.6166Q0.641098 35.5321 0.588861 35.445Q0.536625 35.3578 0.488728 35.2682Q0.440831 35.1786 0.397388 35.0867Q0.353946 34.9949 0.315063 34.901Q0.276179 34.8071 0.241949 34.7115Q0.207719 34.6158 0.178224 34.5186Q0.148729 34.4213 0.124041 34.3228Q0.0993522 34.2242 0.0795297 34.1246Q0.0597072 34.0249 0.0447984 33.9244Q0.0298896 33.8239 0.0199304 33.7228Q0.00997121 33.6217 0.00498561 33.5202Q0 33.4187 0 33.3171L0 4.139Q0 4.03739 0.00498561 3.93591Q0.00997121 3.83442 0.0199304 3.73331Q0.0298896 3.63219 0.0447984 3.53168Q0.0597072 3.43118 0.0795297 3.33152Q0.0993522 3.23187 0.124041 3.1333Q0.148729 3.03474 0.178224 2.93751Q0.207719 2.84028 0.241949 2.74461Q0.276179 2.64895 0.315063 2.55507Q0.353946 2.4612 0.397388 2.36935Q0.440831 2.2775 0.488728 2.18789Q0.536625 2.09828 0.588861 2.01113Q0.641098 1.92398 0.697547 1.83949Q0.753997 1.75501 0.814524 1.6734Q0.875051 1.59179 0.93951 1.51325Q1.00397 1.4347 1.0722 1.35942Q1.14044 1.28413 1.21228 1.21228Q1.28413 1.14044 1.35942 1.0722Q1.4347 1.00397 1.51325 0.93951Q1.59179 0.875051 1.6734 0.814524Q1.75501 0.753997 1.83949 0.697547Q1.92398 0.641098 2.01113 0.588861Q2.09828 0.536625 2.18789 0.488728Q2.2775 0.440831 2.36935 0.397388Q2.4612 0.353946 2.55507 0.315063Q2.64895 0.276179 2.74461 0.241949Q2.84028 0.207719 2.93751 0.178224Q3.03474 0.148729 3.1333 0.124041Q3.23187 0.0993522 3.33152 0.0795297Q3.43118 0.0597072 3.53168 0.0447984Q3.63219 0.0298896 3.73331 0.0199304Q3.83442 0.00997121 3.93591 0.00498561Q4.03739 0 4.139 0Z" transform="translate(0 54.51)" id="Rectangle-48" fill="#27BFCA" stroke="none" />
    <path d="M4.67614 0L4.67614 13.2398Q4.67614 13.3414 4.67116 13.4429Q4.66617 13.5444 4.65621 13.6455Q4.64625 13.7466 4.63134 13.8471Q4.61643 13.9476 4.59661 14.0473Q4.57679 14.1469 4.5521 14.2455Q4.52741 14.3441 4.49792 14.4413Q4.46842 14.5385 4.43419 14.6342Q4.39996 14.7299 4.36108 14.8237Q4.3222 14.9176 4.27875 15.0095Q4.23531 15.1013 4.18741 15.1909Q4.13952 15.2805 4.08728 15.3677Q4.03504 15.4548 3.97859 15.5393Q3.92214 15.6238 3.86162 15.7054Q3.80109 15.787 3.73663 15.8656Q3.67217 15.9441 3.60394 16.0194Q3.5357 16.0947 3.46386 16.1665Q3.39201 16.2384 3.31672 16.3066Q3.24144 16.3748 3.1629 16.4393Q3.08435 16.5038 3.00274 16.5643Q2.92113 16.6248 2.83665 16.6813Q2.75216 16.7377 2.66501 16.79Q2.57786 16.8422 2.48825 16.8901Q2.39864 16.938 2.30679 16.9814Q2.21494 17.0249 2.12107 17.0637Q2.0272 17.1026 1.93153 17.1369Q1.83586 17.1711 1.73863 17.2006Q1.6414 17.2301 1.54284 17.2548Q1.44427 17.2795 1.34462 17.2993Q1.24497 17.3191 1.14446 17.334Q1.04395 17.3489 0.942835 17.3589Q0.841717 17.3688 0.740233 17.3738Q0.638749 17.3788 0.537142 17.3788L0 17.3788L0 19.4804Q0 19.582 0.00498561 19.6835Q0.00997121 19.7849 0.0199304 19.8861Q0.0298896 19.9872 0.0447984 20.0877Q0.0597072 20.1882 0.0795297 20.2878Q0.0993522 20.3875 0.124041 20.4861Q0.148729 20.5846 0.178224 20.6818Q0.207719 20.7791 0.241949 20.8747Q0.276179 20.9704 0.315063 21.0643Q0.353946 21.1582 0.397388 21.25Q0.440831 21.3419 0.488728 21.4315Q0.536625 21.5211 0.588861 21.6082Q0.641098 21.6954 0.697547 21.7799Q0.753997 21.8643 0.814524 21.946Q0.875051 22.0276 0.93951 22.1061Q1.00397 22.1847 1.0722 22.2599Q1.14044 22.3352 1.21228 22.4071Q1.28413 22.4789 1.35942 22.5472Q1.4347 22.6154 1.51325 22.6798Q1.59179 22.7443 1.6734 22.8048Q1.75501 22.8654 1.83949 22.9218Q1.92398 22.9783 2.01113 23.0305Q2.09828 23.0827 2.18789 23.1306Q2.2775 23.1785 2.36935 23.222Q2.4612 23.2654 2.55507 23.3043Q2.64895 23.3432 2.74461 23.3774Q2.84028 23.4116 2.93751 23.4411Q3.03474 23.4706 3.1333 23.4953Q3.23187 23.52 3.33152 23.5398Q3.43118 23.5597 3.53168 23.5746Q3.63219 23.5895 3.73331 23.5994Q3.83442 23.6094 3.93591 23.6144Q4.03739 23.6194 4.139 23.6194L18.0933 23.6194Q18.1949 23.6194 18.2964 23.6144Q18.3979 23.6094 18.499 23.5994Q18.6001 23.5895 18.7006 23.5746Q18.8011 23.5597 18.9008 23.5398Q19.0004 23.52 19.099 23.4953Q19.1975 23.4706 19.2948 23.4411Q19.392 23.4116 19.4877 23.3774Q19.5833 23.3432 19.6772 23.3043Q19.7711 23.2654 19.8629 23.222Q19.9548 23.1785 20.0444 23.1306Q20.134 23.0827 20.2212 23.0305Q20.3083 22.9783 20.3928 22.9218Q20.4773 22.8654 20.5589 22.8048Q20.6405 22.7443 20.719 22.6798Q20.7976 22.6154 20.8729 22.5472Q20.9482 22.4789 21.02 22.4071Q21.0918 22.3352 21.1601 22.2599Q21.2283 22.1847 21.2928 22.1061Q21.3572 22.0276 21.4178 21.946Q21.4783 21.8643 21.5347 21.7799Q21.5912 21.6954 21.6434 21.6082Q21.6957 21.5211 21.7436 21.4315Q21.7915 21.3419 21.8349 21.25Q21.8783 21.1582 21.9172 21.0643Q21.9561 20.9704 21.9903 20.8747Q22.0246 20.7791 22.0541 20.6818Q22.0836 20.5846 22.1082 20.4861Q22.1329 20.3875 22.1528 20.2878Q22.1726 20.1882 22.1875 20.0877Q22.2024 19.9872 22.2124 19.8861Q22.2223 19.7849 22.2273 19.6835Q22.2323 19.582 22.2323 19.4804L22.2323 17.3788L21.8052 17.3788Q21.7036 17.3788 21.6021 17.3738Q21.5006 17.3688 21.3995 17.3589Q21.2984 17.3489 21.1979 17.334Q21.0974 17.3191 20.9977 17.2993Q20.8981 17.2795 20.7995 17.2548Q20.7009 17.2301 20.6037 17.2006Q20.5065 17.1711 20.4108 17.1369Q20.3151 17.1026 20.2213 17.0637Q20.1274 17.0249 20.0355 16.9814Q19.9437 16.938 19.8541 16.8901Q19.7645 16.8422 19.6773 16.79Q19.5902 16.7377 19.5057 16.6813Q19.4212 16.6248 19.3396 16.5643Q19.258 16.5038 19.1794 16.4393Q19.1009 16.3748 19.0256 16.3066Q18.9503 16.2384 18.8785 16.1665Q18.8066 16.0947 18.7384 16.0194Q18.6702 15.9441 18.6057 15.8656Q18.5412 15.787 18.4807 15.7054Q18.4202 15.6238 18.3637 15.5393Q18.3073 15.4548 18.2551 15.3677Q18.2028 15.2805 18.1549 15.1909Q18.107 15.1013 18.0636 15.0095Q18.0201 14.9176 17.9813 14.8237Q17.9424 14.7299 17.9081 14.6342Q17.8739 14.5385 17.8444 14.4413Q17.8149 14.3441 17.7902 14.2455Q17.7655 14.1469 17.7457 14.0473Q17.7259 13.9476 17.711 13.8471Q17.6961 13.7466 17.6861 13.6455Q17.6762 13.5444 17.6712 13.4429Q17.6662 13.3414 17.6662 13.2398L17.6662 -4.44089e-16L4.67614 0Z" transform="translate(6.67 2.76)" id="Combined-Shape" fill="#15A5AE" fill-rule="evenodd" stroke="none" />
    <path d="M1.954 0L17.4976 0Q17.5936 0 17.6891 0.00940904Q17.7847 0.0188181 17.8788 0.0375456Q17.973 0.056273 18.0648 0.0841386Q18.1567 0.112004 18.2454 0.148739Q18.3341 0.185475 18.4187 0.230726Q18.5034 0.275977 18.5832 0.329308Q18.663 0.38264 18.7372 0.443538Q18.8114 0.504435 18.8793 0.572313Q18.9472 0.640191 19.0081 0.714396Q19.069 0.7886 19.1223 0.868416Q19.1756 0.948232 19.2209 1.03289Q19.2661 1.11755 19.3029 1.20624Q19.3396 1.29492 19.3675 1.38678Q19.3953 1.47864 19.4141 1.57279Q19.4328 1.66694 19.4422 1.76247Q19.4516 1.85801 19.4516 1.954L19.4516 3.32342Q19.4516 3.41942 19.4422 3.51495Q19.4328 3.61048 19.4141 3.70463Q19.3953 3.79878 19.3675 3.89064Q19.3396 3.9825 19.3029 4.07119Q19.2661 4.15987 19.2209 4.24453Q19.1756 4.32919 19.1223 4.40901Q19.069 4.48882 19.0081 4.56303Q18.9472 4.63723 18.8793 4.70511Q18.8114 4.77299 18.7372 4.83388Q18.663 4.89478 18.5832 4.94811Q18.5034 5.00144 18.4187 5.0467Q18.3341 5.09195 18.2454 5.12868Q18.1567 5.16542 18.0648 5.19328Q17.973 5.22115 17.8788 5.23988Q17.7847 5.2586 17.6891 5.26801Q17.5936 5.27742 17.4976 5.27742L1.954 5.27742Q1.85801 5.27742 1.76247 5.26801Q1.66694 5.2586 1.57279 5.23988Q1.47864 5.22115 1.38678 5.19328Q1.29492 5.16542 1.20624 5.12868Q1.11755 5.09195 1.03289 5.0467Q0.948232 5.00144 0.868416 4.94811Q0.7886 4.89478 0.714396 4.83388Q0.640191 4.77299 0.572313 4.70511Q0.504435 4.63723 0.443538 4.56303Q0.38264 4.48882 0.329308 4.40901Q0.275977 4.32919 0.230726 4.24453Q0.185475 4.15987 0.148739 4.07119Q0.112004 3.9825 0.0841386 3.89064Q0.056273 3.79878 0.0375456 3.70463Q0.0188181 3.61048 0.00940904 3.51495Q0 3.41942 0 3.32342L0 1.954Q0 1.85801 0.00940904 1.76247Q0.0188181 1.66694 0.0375456 1.57279Q0.056273 1.47864 0.0841386 1.38678Q0.112004 1.29492 0.148739 1.20624Q0.185475 1.11755 0.230726 1.03289Q0.275977 0.948232 0.329308 0.868416Q0.38264 0.7886 0.443538 0.714396Q0.504435 0.640191 0.572313 0.572313Q0.640191 0.504435 0.714396 0.443538Q0.7886 0.38264 0.868416 0.329308Q0.948232 0.275977 1.03289 0.230726Q1.11755 0.185475 1.20624 0.148739Q1.29492 0.112004 1.38678 0.0841386Q1.47864 0.056273 1.57279 0.0375456Q1.66694 0.0188181 1.76247 0.00940904Q1.85801 0 1.954 0Z" transform="translate(8.05 6.21)" id="Rectangle-49" fill="#37CCD7" stroke="none" />
    <g id="Rectangle-54">
      <g clip-path="url(#clip_1)">
        <use xlink:href="#path_1" fill="none" stroke="#FCD143" stroke-width="6.44" />
      </g>
    </g>
    <path d="M4.51791 4.51791C2.02274 4.51791 0 2.49517 0 0L16.6251 0C16.6251 2.49517 14.6024 4.51791 12.1072 4.51791C10.5164 4.51791 9.11753 3.69565 8.31257 2.45293C7.50761 3.69565 6.10878 4.51791 4.51791 4.51791Z" transform="translate(6.44 38.37571)" id="Combined-Shape" fill="#27BFCA" fill-rule="evenodd" stroke="none" />
    <path d="M1.149 0L7.92744 0Q7.98389 0 8.04006 0.00553275Q8.09624 0.0110655 8.1516 0.0220777Q8.20696 0.0330899 8.26098 0.0494756Q8.315 0.0658612 8.36714 0.0874624Q8.41929 0.109064 8.46908 0.135672Q8.51886 0.162281 8.56579 0.193641Q8.61273 0.225002 8.65636 0.260811Q8.69999 0.29662 8.73991 0.336534Q8.77982 0.376448 8.81563 0.420082Q8.85144 0.463716 8.8828 0.51065Q8.91416 0.557584 8.94077 0.607365Q8.96738 0.657147 8.98898 0.709297Q9.01058 0.761447 9.02697 0.815463Q9.04335 0.869479 9.05436 0.924841Q9.06538 0.980203 9.07091 1.03638Q9.07644 1.09255 9.07644 1.149L9.07644 7.92744Q9.07644 7.98389 9.07091 8.04006Q9.06538 8.09624 9.05436 8.1516Q9.04335 8.20696 9.02697 8.26098Q9.01058 8.315 8.98898 8.36714Q8.96738 8.41929 8.94077 8.46908Q8.91416 8.51886 8.8828 8.56579Q8.85144 8.61273 8.81563 8.65636Q8.77982 8.69999 8.73991 8.73991Q8.69999 8.77982 8.65636 8.81563Q8.61272 8.85144 8.56579 8.8828Q8.51886 8.91416 8.46908 8.94077Q8.41929 8.96738 8.36714 8.98898Q8.315 9.01058 8.26098 9.02697Q8.20696 9.04335 8.1516 9.05436Q8.09624 9.06538 8.04006 9.07091Q7.98389 9.07644 7.92744 9.07644L1.149 9.07644Q1.09255 9.07644 1.03638 9.07091Q0.980203 9.06538 0.924841 9.05436Q0.869479 9.04335 0.815463 9.02697Q0.761447 9.01058 0.709297 8.98898Q0.657147 8.96738 0.607365 8.94077Q0.557584 8.91416 0.51065 8.8828Q0.463716 8.85144 0.420082 8.81563Q0.376448 8.77982 0.336534 8.73991Q0.29662 8.69999 0.260811 8.65636Q0.225002 8.61272 0.193641 8.56579Q0.162281 8.51886 0.135672 8.46908Q0.109064 8.41929 0.0874624 8.36714Q0.0658612 8.315 0.0494755 8.26098Q0.0330899 8.20696 0.0220777 8.1516Q0.0110655 8.09624 0.00553275 8.04006Q0 7.98389 0 7.92744L0 1.149Q0 1.09255 0.00553275 1.03638Q0.0110655 0.980203 0.0220777 0.924841Q0.0330899 0.869479 0.0494756 0.815463Q0.0658612 0.761447 0.0874624 0.709297Q0.109064 0.657147 0.135672 0.607365Q0.162281 0.557584 0.193641 0.51065Q0.225002 0.463716 0.260811 0.420082Q0.29662 0.376448 0.336534 0.336534Q0.376448 0.29662 0.420082 0.260811Q0.463716 0.225002 0.51065 0.193641Q0.557584 0.162281 0.607365 0.135672Q0.657147 0.109064 0.709297 0.0874624Q0.761447 0.0658612 0.815463 0.0494755Q0.869479 0.0330899 0.924841 0.0220777Q0.980203 0.0110655 1.03638 0.00553275Q1.09255 0 1.149 0Z" transform="translate(20.27078 67.33635)" id="Rectangle-55" fill="#FCD143" stroke="none" />
  </g>
</svg>