<?xml version="1.0" encoding="utf-8"?>
<svg width="54px" height="81px" viewBox="0 0 54 81" version="1.1" xmlns:xlink="http://www.w3.org/1999/xlink" xmlns="http://www.w3.org/2000/svg">
  <desc>Created with Lunacy</desc>
  <defs>
    <path d="M12.3004 0L12.3024 0Q12.6043 0 12.9059 0.0148163Q13.2075 0.0296327 13.508 0.0592297Q13.8085 0.0888266 14.1072 0.133133Q14.4059 0.177439 14.7021 0.236348Q14.9982 0.295257 15.2911 0.368627Q15.584 0.441996 15.873 0.52965Q16.1619 0.617303 16.4462 0.71903Q16.7306 0.820756 17.0095 0.93631Q17.2885 1.05186 17.5615 1.18097Q17.8344 1.31007 18.1007 1.45241Q18.367 1.59475 18.626 1.74999Q18.885 1.90523 19.1361 2.07299Q19.3872 2.24075 19.6297 2.42062Q19.8722 2.6005 20.1056 2.79206Q20.3391 2.98362 20.5628 3.1864Q20.7865 3.38918 21.0001 3.6027Q21.2136 3.81621 21.4163 4.03995Q21.6191 4.26368 21.8107 4.4971Q22.0023 4.73052 22.1821 4.97305Q22.362 5.21558 22.5298 5.46665Q22.6975 5.71772 22.8528 5.97672Q23.008 6.23571 23.1503 6.50202Q23.2927 6.76832 23.4218 7.04129Q23.5509 7.31425 23.6664 7.59322Q23.782 7.8722 23.8837 8.1565Q23.9854 8.44081 24.0731 8.72976Q24.1607 9.01872 24.2341 9.31163Q24.3075 9.60454 24.3664 9.90069Q24.4253 10.1968 24.4696 10.4955Q24.5139 10.7942 24.5435 11.0947Q24.5731 11.3952 24.5879 11.6968Q24.6027 11.9984 24.6027 12.3004L24.6027 12.3024Q24.6027 12.6043 24.5879 12.9059Q24.5731 13.2075 24.5435 13.508Q24.5139 13.8085 24.4696 14.1072Q24.4253 14.4059 24.3664 14.7021Q24.3075 14.9982 24.2341 15.2911Q24.1608 15.584 24.0731 15.873Q23.9854 16.1619 23.8837 16.4462Q23.782 16.7306 23.6664 17.0095Q23.5509 17.2885 23.4218 17.5615Q23.2927 17.8344 23.1503 18.1007Q23.008 18.367 22.8528 18.626Q22.6975 18.885 22.5298 19.1361Q22.362 19.3872 22.1821 19.6297Q22.0023 19.8722 21.8107 20.1056Q21.6191 20.3391 21.4163 20.5628Q21.2136 20.7865 21.0001 21.0001Q20.7865 21.2136 20.5628 21.4163Q20.3391 21.6191 20.1056 21.8107Q19.8722 22.0023 19.6297 22.1821Q19.3872 22.362 19.1361 22.5298Q18.885 22.6975 18.626 22.8528Q18.367 23.008 18.1007 23.1503Q17.8344 23.2927 17.5615 23.4218Q17.2885 23.5509 17.0095 23.6664Q16.7306 23.782 16.4462 23.8837Q16.1619 23.9854 15.873 24.0731Q15.584 24.1607 15.2911 24.2341Q14.9982 24.3075 14.7021 24.3664Q14.4059 24.4253 14.1072 24.4696Q13.8085 24.5139 13.508 24.5435Q13.2075 24.5731 12.9059 24.5879Q12.6043 24.6027 12.3024 24.6027L12.3004 24.6027Q11.9984 24.6027 11.6968 24.5879Q11.3952 24.5731 11.0947 24.5435Q10.7942 24.5139 10.4955 24.4696Q10.1968 24.4253 9.90069 24.3664Q9.60454 24.3075 9.31163 24.2341Q9.01872 24.1608 8.72976 24.0731Q8.44081 23.9854 8.1565 23.8837Q7.8722 23.782 7.59322 23.6664Q7.31425 23.5509 7.04129 23.4218Q6.76832 23.2927 6.50202 23.1503Q6.23571 23.008 5.97672 22.8528Q5.71772 22.6975 5.46665 22.5298Q5.21558 22.362 4.97305 22.1821Q4.73052 22.0023 4.4971 21.8107Q4.26368 21.6191 4.03995 21.4163Q3.81621 21.2136 3.6027 21.0001Q3.38918 20.7865 3.1864 20.5628Q2.98362 20.3391 2.79206 20.1056Q2.6005 19.8722 2.42062 19.6297Q2.24075 19.3872 2.07299 19.1361Q1.90523 18.885 1.74999 18.626Q1.59475 18.367 1.45241 18.1007Q1.31007 17.8344 1.18097 17.5615Q1.05186 17.2885 0.93631 17.0095Q0.820756 16.7306 0.71903 16.4462Q0.617303 16.1619 0.52965 15.873Q0.441996 15.584 0.368627 15.2911Q0.295257 14.9982 0.236348 14.7021Q0.177439 14.4059 0.133133 14.1072Q0.0888266 13.8085 0.0592297 13.508Q0.0296327 13.2075 0.0148163 12.9059Q0 12.6043 0 12.3024L0 12.3004Q0 11.9984 0.0148163 11.6968Q0.0296327 11.3952 0.0592297 11.0947Q0.0888266 10.7942 0.133133 10.4955Q0.177439 10.1968 0.236348 9.90069Q0.295257 9.60454 0.368627 9.31163Q0.441996 9.01872 0.52965 8.72976Q0.617303 8.44081 0.71903 8.1565Q0.820756 7.8722 0.93631 7.59322Q1.05186 7.31425 1.18097 7.04129Q1.31007 6.76832 1.45241 6.50202Q1.59475 6.23571 1.74999 5.97672Q1.90523 5.71772 2.07299 5.46665Q2.24075 5.21558 2.42062 4.97305Q2.6005 4.73052 2.79206 4.4971Q2.98362 4.26368 3.1864 4.03995Q3.38918 3.81621 3.6027 3.6027Q3.81621 3.38918 4.03995 3.1864Q4.26368 2.98362 4.4971 2.79206Q4.73052 2.6005 4.97305 2.42062Q5.21558 2.24075 5.46665 2.07299Q5.71772 1.90523 5.97672 1.74999Q6.23571 1.59475 6.50202 1.45241Q6.76832 1.31007 7.04129 1.18097Q7.31425 1.05186 7.59322 0.93631Q7.8722 0.820756 8.1565 0.71903Q8.44081 0.617303 8.72976 0.52965Q9.01872 0.441996 9.31163 0.368627Q9.60454 0.295257 9.90069 0.236348Q10.1968 0.177439 10.4955 0.133133Q10.7942 0.0888266 11.0947 0.0592297Q11.3952 0.0296327 11.6968 0.0148163Q11.9984 0 12.3004 0L12.3004 0Z" transform="translate(0.1677963 0.2053703)" id="path_1" />
    <path d="M15.7292 9.63981Q15.673 9.38593 15.6061 9.13466Q15.5391 8.88339 15.4617 8.63517Q15.3842 8.38695 15.2963 8.14222Q15.2084 7.8975 15.1102 7.65671Q15.012 7.41592 14.9038 7.17949Q14.7955 6.94306 14.6774 6.71142Q14.5592 6.47978 14.4314 6.25334Q14.3035 6.0269 14.1663 5.80607Q14.029 5.58523 13.8825 5.3704Q13.736 5.15556 13.5805 4.94711Q13.4251 4.73866 13.2609 4.53696Q13.0968 4.33526 12.9243 4.14068Q12.7518 3.9461 12.5713 3.75898Q12.3907 3.57187 12.2024 3.39255Q12.0141 3.21323 11.8183 3.04203Q11.6226 2.87083 11.4198 2.70806Q11.2171 2.54528 11.0076 2.39122Q10.7981 2.23716 10.5823 2.09209Q10.3665 1.94702 10.1447 1.8112Q9.92299 1.67538 9.6957 1.54906Q9.46842 1.42273 9.236 1.30612Q9.00358 1.18951 8.76643 1.08283Q8.52929 0.976151 8.28785 0.879587Q8.04642 0.783022 7.80111 0.696748Q7.55581 0.610473 7.30708 0.534642Q7.05835 0.458812 6.80664 0.393561Q6.55492 0.32831 6.30068 0.273754Q6.04643 0.219199 5.79011 0.175438Q5.53378 0.131677 5.27584 0.0987868Q5.01789 0.0658971 4.75879 0.043938Q4.49968 0.0219788 4.23988 0.0109894Q3.98008 0 3.72005 0L3.71805 0Q1.8207 1.88985e-15 0.0115445 0.571733C-0.0267446 1.57694 -0.013557 3.74498 0.767561 4.2846C1.7939 4.99361 3.3307 5.30823 3.70799 6.62641C3.89494 7.2796 3.59149 8.51645 3.30523 9.68317C3.01381 10.871 2.74023 11.9861 3.02007 12.3387C3.5748 13.0377 5.50549 14.0513 6.30445 15.005C6.92511 15.7459 7.54904 14.9862 8.25958 14.121C8.46371 13.8724 8.67499 13.6152 8.89539 13.3823C9.88299 12.3387 10.5986 11.0055 12.0189 11.0055C13.2481 11.0055 14.9882 10.781 15.7292 9.63981L15.7292 9.63981Z" transform="translate(8.695302 0.2053703)" id="path_2" />
    <path d="M13.562 11.9027Q12.7923 12.0002 12.0164 12.0002L12.0144 12.0002Q11.7542 12.0002 11.4941 11.9891Q11.2341 11.9781 10.9748 11.9561Q10.7154 11.9341 10.4573 11.9012Q10.1991 11.8682 9.94257 11.8244Q9.68603 11.7806 9.43157 11.7259Q9.17711 11.6713 8.92519 11.6059Q8.67327 11.5405 8.42434 11.4646Q8.17541 11.3886 7.92991 11.3022Q7.68442 11.2158 7.4428 11.119Q7.20118 11.0223 6.96387 10.9154Q6.72656 10.8086 6.49398 10.6918Q6.26141 10.575 6.03398 10.4484Q5.80655 10.3219 5.58468 10.1858Q5.3628 10.0498 5.14688 9.90448Q4.93096 9.75918 4.72138 9.60486Q4.5118 9.45055 4.30894 9.28751Q4.10607 9.12447 3.91028 8.953Q3.7145 8.78152 3.52614 8.60192Q3.33778 8.42232 3.15718 8.23491Q2.97659 8.0475 2.80409 7.85262Q2.63158 7.65774 2.46747 7.45574Q2.30337 7.25374 2.14795 7.04497Q1.99254 6.83621 1.84609 6.62106Q1.69964 6.40591 1.56243 6.18476Q1.42521 5.96361 1.29748 5.73685Q1.16974 5.51009 1.05171 5.27813Q0.933675 5.04617 0.825561 4.80943Q0.717447 4.57269 0.619443 4.33158Q0.521439 4.09048 0.433722 3.84544Q0.346005 3.60041 0.26873 3.35188Q0.191456 3.10336 0.124763 2.85179Q0.0580702 2.60021 0.00207821 2.34605C1.01235 1.24948 2.68034 -0.337075 3.55535 0.0633214C4.86465 0.662447 5.43611 2.67961 6.44585 4.02288C7.45559 5.36615 6.62896 7.28345 7.71642 7.28345C8.09334 7.28345 8.56488 7.07949 9.05898 6.86577C9.99043 6.46287 11.0021 6.0253 11.6111 6.85405C12.5433 8.12243 12.7929 8.94636 13.4254 9.62038C13.7743 9.99223 13.6993 11.0389 13.562 11.9027Z" transform="translate(0.453746 12.80797)" id="path_3" />
    <clipPath id="clip_1">
      <use xlink:href="#path_1" />
    </clipPath>
    <clipPath id="clip_2">
      <use xlink:href="#path_2" />
    </clipPath>
    <clipPath id="clip_3">
      <use xlink:href="#path_3" />
    </clipPath>
  </defs>
  <g id="buku" transform="translate(0.2874756 0.2874756)">
    <path d="M0.0120378 0L42.3484 0L42.3484 0.000999928Q42.3484 0.193363 42.3579 0.385494Q42.3673 0.577625 42.3862 0.769062Q42.405 0.960499 42.4332 1.15078Q42.4615 1.34106 42.499 1.52973Q42.5365 1.71839 42.5833 1.90499Q42.63 2.09159 42.6858 2.27567Q42.7417 2.45975 42.8065 2.64087Q42.8713 2.82199 42.9449 2.99971Q43.0185 3.17743 43.1008 3.35132Q43.183 3.52521 43.2737 3.69486Q43.3644 3.86451 43.4633 4.02951Q43.5621 4.1945 43.669 4.35445Q43.7759 4.51439 43.8905 4.6689Q44.0051 4.8234 44.1271 4.9721Q44.2491 5.1208 44.3783 5.26333Q44.5075 5.40586 44.6435 5.54189Q44.7795 5.67791 44.9221 5.80709Q45.0646 5.93627 45.2133 6.05831Q45.362 6.18034 45.5165 6.29493Q45.671 6.40952 45.831 6.51639Q45.9909 6.62326 46.1559 6.72216Q46.3209 6.82105 46.4905 6.91173Q46.6602 7.00241 46.8341 7.08466Q47.008 7.1669 47.1857 7.24052Q47.3634 7.31413 47.5445 7.37893Q47.7257 7.44374 47.9097 7.49958Q48.0938 7.55542 48.2804 7.60216Q48.467 7.6489 48.6557 7.68643Q48.8443 7.72396 49.0346 7.75218Q49.2249 7.78041 49.4164 7.79926Q49.6078 7.81812 49.7999 7.82756Q49.9921 7.837 50.1844 7.837L53.1163 7.837L53.1163 62.3752L8.09774 62.3752Q7.89895 62.3752 7.7004 62.3655Q7.50185 62.3557 7.30402 62.3363Q7.10619 62.3168 6.90956 62.2876Q6.71292 62.2584 6.51795 62.2196Q6.32298 62.1809 6.13015 62.1326Q5.93732 62.0843 5.74709 62.0266Q5.55686 61.9689 5.36969 61.9019Q5.18253 61.8349 4.99887 61.7588Q4.81521 61.6828 4.63551 61.5978Q4.45581 61.5128 4.28049 61.4191Q4.10518 61.3254 3.93467 61.2232Q3.76416 61.121 3.59888 61.0105Q3.43359 60.9001 3.27392 60.7817Q3.11425 60.6633 2.96059 60.5372Q2.80692 60.411 2.65963 60.2775Q2.51234 60.144 2.37177 60.0035Q2.23121 59.8629 2.09771 59.7156Q1.96421 59.5683 1.8381 59.4147Q1.71199 59.261 1.59357 59.1013Q1.47516 58.9417 1.36472 58.7764Q1.25427 58.6111 1.15208 58.4406Q1.04988 58.2701 0.956171 58.0948Q0.862463 57.9194 0.77747 57.7397Q0.692477 57.56 0.616404 57.3764Q0.540331 57.1927 0.473361 57.0056Q0.406391 56.8184 0.348686 56.6282Q0.290981 56.4379 0.242679 56.2451Q0.194377 56.0523 0.155596 55.8573Q0.116814 55.6623 0.0876458 55.4657Q0.0584775 55.2691 0.0389928 55.0712Q0.0195082 54.8734 0.00975408 54.6748Q0 54.4763 0 54.2775L0 54.2755Q0 54.0547 0.0120378 53.8341L0.0120378 0Z" transform="translate(0.1105377 9.993729)" id="Combined-Shape" fill="#D73316" fill-rule="evenodd" stroke="none" />
    <path d="M9.46386 0L9.46386 62.3752L8.09774 62.3752Q7.89895 62.3752 7.7004 62.3655Q7.50185 62.3557 7.30402 62.3363Q7.10619 62.3168 6.90956 62.2876Q6.71292 62.2584 6.51795 62.2196Q6.32298 62.1809 6.13015 62.1326Q5.93732 62.0843 5.74709 62.0266Q5.55686 61.9689 5.36969 61.9019Q5.18253 61.8349 4.99887 61.7588Q4.81521 61.6828 4.63551 61.5978Q4.45581 61.5128 4.28049 61.4191Q4.10518 61.3254 3.93467 61.2232Q3.76416 61.121 3.59888 61.0105Q3.43359 60.9001 3.27392 60.7817Q3.11425 60.6633 2.96059 60.5372Q2.80692 60.411 2.65963 60.2775Q2.51234 60.144 2.37177 60.0035Q2.23121 59.8629 2.09771 59.7156Q1.96421 59.5683 1.8381 59.4147Q1.71199 59.261 1.59357 59.1013Q1.47516 58.9417 1.36472 58.7764Q1.25427 58.6111 1.15208 58.4406Q1.04988 58.2701 0.956171 58.0948Q0.862463 57.9194 0.77747 57.7397Q0.692477 57.56 0.616404 57.3764Q0.540331 57.1927 0.473361 57.0056Q0.406391 56.8184 0.348686 56.6282Q0.290981 56.4379 0.242679 56.2451Q0.194377 56.0523 0.155596 55.8573Q0.116814 55.6623 0.0876458 55.4657Q0.0584775 55.2691 0.0389928 55.0712Q0.0195082 54.8734 0.00975408 54.6748Q0 54.4763 0 54.2775L0 54.2755Q0 54.0547 0.0120378 53.8341L0.0120378 0L9.46386 0Z" transform="translate(0.1105377 9.993729)" id="Combined-Shape" fill="#C7290D" fill-rule="evenodd" stroke="none" />
    <path d="M53.1828 0.058427Q52.6518 0 52.1175 0L9.7404 0Q9.50129 0 9.26247 0.0117327Q9.02364 0.0234655 8.78568 0.0469027Q8.54772 0.0703399 8.31119 0.105425Q8.07466 0.14051 7.84015 0.187159Q7.60563 0.233808 7.37368 0.291908Q7.14173 0.350008 6.91291 0.419418Q6.6841 0.488829 6.45896 0.569384Q6.23382 0.649939 6.01291 0.741444Q5.792 0.832949 5.57584 0.935183Q5.35969 1.03742 5.14881 1.15013Q4.93793 1.26285 4.73284 1.38578Q4.52774 1.50871 4.32892 1.64155Q4.13011 1.7744 3.93805 1.91684Q3.74599 2.05928 3.56116 2.21097Q3.37632 2.36266 3.19915 2.52324Q3.02198 2.68382 2.8529 2.8529Q2.68382 3.02198 2.52324 3.19915Q2.36266 3.37632 2.21097 3.56116Q2.05928 3.74599 1.91684 3.93805Q1.7744 4.13011 1.64155 4.32893Q1.50871 4.52774 1.38578 4.73284Q1.26285 4.93793 1.15013 5.14881Q1.03742 5.35969 0.935183 5.57584Q0.832949 5.792 0.741444 6.01291Q0.649939 6.23382 0.569384 6.45896Q0.488829 6.6841 0.419418 6.91291Q0.350007 7.14173 0.291908 7.37368Q0.233808 7.60563 0.187159 7.84015Q0.14051 8.07467 0.105425 8.31119Q0.0703399 8.54772 0.0469027 8.78568Q0.0234655 9.02364 0.0117327 9.26247Q0 9.50129 0 9.7404L0 9.7424Q0 9.98152 0.0117327 10.2203Q0.0234655 10.4592 0.0469027 10.6971Q0.0703399 10.9351 0.105425 11.1716Q0.14051 11.4081 0.187159 11.6427Q0.233808 11.8772 0.291908 12.1091Q0.350008 12.3411 0.419418 12.5699Q0.488829 12.7987 0.569384 13.0238Q0.649939 13.249 0.741444 13.4699Q0.832949 13.6908 0.935183 13.907Q1.03742 14.1231 1.15013 14.334Q1.26285 14.5449 1.38578 14.75Q1.50871 14.9551 1.64155 15.1539Q1.7744 15.3527 1.91684 15.5448Q2.05928 15.7368 2.21097 15.9217Q2.36266 16.1065 2.52324 16.2837Q2.68382 16.4608 2.8529 16.6299Q3.02198 16.799 3.19915 16.9596Q3.37632 17.1201 3.56116 17.2718Q3.74599 17.4235 3.93805 17.566Q4.13011 17.7084 4.32893 17.8413Q4.52774 17.9741 4.73284 18.097Q4.93793 18.22 5.14881 18.3327Q5.35969 18.4454 5.57584 18.5476Q5.792 18.6499 6.01291 18.7414Q6.23382 18.8329 6.45896 18.9134Q6.6841 18.994 6.91291 19.0634Q7.14173 19.1328 7.37368 19.1909Q7.60563 19.249 7.84015 19.2956Q8.07467 19.3423 8.31119 19.3774Q8.54772 19.4125 8.78568 19.4359Q9.02364 19.4593 9.26247 19.4711Q9.50129 19.4828 9.7404 19.4828L52.1175 19.4828Q52.6518 19.4828 53.1828 19.4244L53.1828 17.5889L50.1844 17.5889Q49.9921 17.5889 49.7999 17.5794Q49.6078 17.57 49.4164 17.5511Q49.2249 17.5323 49.0346 17.5041Q48.8444 17.4758 48.6557 17.4383Q48.467 17.4008 48.2804 17.354Q48.0938 17.3073 47.9098 17.2515Q47.7257 17.1956 47.5446 17.1308Q47.3634 17.066 47.1857 16.9924Q47.008 16.9188 46.8341 16.8365Q46.6602 16.7543 46.4906 16.6636Q46.3209 16.5729 46.1559 16.474Q45.9909 16.3751 45.831 16.2683Q45.671 16.1614 45.5165 16.0468Q45.362 15.9322 45.2133 15.8102Q45.0646 15.6881 44.9221 15.559Q44.7796 15.4298 44.6435 15.2938Q44.5075 15.1577 44.3783 15.0152Q44.2491 14.8727 44.1271 14.724Q44.0051 14.5753 43.8905 14.4208Q43.7759 14.2663 43.669 14.1063Q43.5621 13.9464 43.4633 13.7814Q43.3644 13.6164 43.2737 13.4467Q43.183 13.2771 43.1008 13.1032Q43.0185 12.9293 42.9449 12.7516Q42.8713 12.5739 42.8065 12.3927Q42.7417 12.2116 42.6858 12.0275Q42.63 11.8435 42.5833 11.6569Q42.5365 11.4703 42.499 11.2816Q42.4615 11.0929 42.4332 10.9027Q42.405 10.7124 42.3862 10.5209Q42.3673 10.3295 42.3579 10.1374Q42.3484 9.94524 42.3484 9.75288L42.3484 9.75088Q42.3484 9.55851 42.3579 9.36638Q42.3673 9.17425 42.3862 8.98281Q42.405 8.79138 42.4332 8.6011Q42.4615 8.41082 42.499 8.22215Q42.5365 8.03348 42.5833 7.84688Q42.63 7.66029 42.6858 7.47621Q42.7417 7.29213 42.8065 7.11101Q42.8713 6.92989 42.9449 6.75217Q43.0185 6.57445 43.1008 6.40056Q43.183 6.22666 43.2737 6.05701Q43.3644 5.88736 43.4633 5.72237Q43.5622 5.55737 43.669 5.39743Q43.7759 5.23748 43.8905 5.08298Q44.0051 4.92847 44.1271 4.77977Q44.2491 4.63107 44.3783 4.48854Q44.5075 4.34601 44.6435 4.20999Q44.7796 4.07397 44.9221 3.94479Q45.0646 3.8156 45.2133 3.69357Q45.362 3.57154 45.5165 3.45694Q45.671 3.34235 45.831 3.23548Q45.9909 3.12861 46.1559 3.02972Q46.3209 2.93082 46.4906 2.84014Q46.6602 2.74946 46.8341 2.66722Q47.008 2.58497 47.1857 2.51136Q47.3634 2.43775 47.5445 2.37294Q47.7257 2.30813 47.9097 2.25229Q48.0938 2.19645 48.2804 2.14971Q48.467 2.10297 48.6557 2.06545Q48.8444 2.02792 49.0346 1.99969Q49.2249 1.97147 49.4164 1.95261Q49.6078 1.93376 49.7999 1.92432Q49.9921 1.91488 50.1844 1.91488L53.1828 1.91488L53.1828 0.058427Z" transform="translate(0.1105377 0.02908888)" id="Combined-Shape" fill="#EE4C2F" fill-rule="evenodd" stroke="none" />
    <path d="M49.9502 0L7.836 0Q7.64363 0 7.4515 0.0094388Q7.25937 0.0188776 7.06793 0.0377325Q6.8765 0.0565873 6.68622 0.0848128Q6.49594 0.113038 6.30727 0.150566Q6.1186 0.188095 5.932 0.234835Q5.74541 0.281575 5.56133 0.337415Q5.37725 0.393255 5.19613 0.45806Q5.01501 0.522866 4.83729 0.59648Q4.65957 0.670094 4.48568 0.75234Q4.31178 0.834585 4.14213 0.925265Q3.97248 1.01594 3.80749 1.11484Q3.64249 1.21373 3.48255 1.3206Q3.32261 1.42747 3.1681 1.54206Q3.01359 1.65666 2.86489 1.77869Q2.71619 1.90072 2.57366 2.02991Q2.43113 2.15909 2.29511 2.29511Q2.15909 2.43113 2.02991 2.57366Q1.90072 2.71619 1.77869 2.86489Q1.65666 3.01359 1.54206 3.1681Q1.42747 3.32261 1.3206 3.48255Q1.21373 3.64249 1.11484 3.80749Q1.01594 3.97248 0.925265 4.14213Q0.834585 4.31178 0.75234 4.48568Q0.670094 4.65957 0.59648 4.83729Q0.522866 5.01501 0.45806 5.19613Q0.393255 5.37725 0.337415 5.56133Q0.281575 5.74541 0.234835 5.932Q0.188095 6.1186 0.150566 6.30727Q0.113038 6.49594 0.0848128 6.68622Q0.0565873 6.8765 0.0377325 7.06793Q0.0188776 7.25937 0.0094388 7.4515Q0 7.64363 0 7.836L0 7.838Q0 8.03036 0.0094388 8.22249Q0.0188776 8.41462 0.0377325 8.60606Q0.0565873 8.79749 0.0848128 8.98777Q0.113038 9.17806 0.150566 9.36672Q0.188095 9.55539 0.234835 9.74199Q0.281575 9.92859 0.337415 10.1127Q0.393255 10.2967 0.45806 10.4779Q0.522866 10.659 0.59648 10.8367Q0.670094 11.0144 0.75234 11.1883Q0.834585 11.3622 0.925265 11.5319Q1.01594 11.7015 1.11484 11.8665Q1.21373 12.0315 1.3206 12.1914Q1.42747 12.3514 1.54206 12.5059Q1.65666 12.6604 1.77869 12.8091Q1.90072 12.9578 2.02991 13.1003Q2.15909 13.2429 2.29511 13.3789Q2.43113 13.5149 2.57366 13.6441Q2.71619 13.7733 2.86489 13.8953Q3.01359 14.0173 3.1681 14.1319Q3.32261 14.2465 3.48255 14.3534Q3.64249 14.4603 3.80749 14.5592Q3.97248 14.658 4.14213 14.7487Q4.31178 14.8394 4.48568 14.9217Q4.65957 15.0039 4.83729 15.0775Q5.01501 15.1511 5.19613 15.2159Q5.37725 15.2807 5.56133 15.3366Q5.74541 15.3924 5.932 15.4392Q6.1186 15.4859 6.30727 15.5234Q6.49594 15.561 6.68622 15.5892Q6.8765 15.6174 7.06793 15.6363Q7.25937 15.6551 7.4515 15.6646Q7.64363 15.674 7.836 15.674L49.9786 15.674Q49.7488 15.505 49.5294 15.3229Q49.3099 15.1408 49.1015 14.9461Q48.8931 14.7515 48.6964 14.545Q48.4998 14.3385 48.3155 14.1208Q48.1313 13.9031 47.9601 13.6751Q47.7888 13.447 47.6313 13.2093Q47.4737 12.9716 47.3303 12.7251Q47.1869 12.4786 47.0582 12.2241Q46.9295 11.9697 46.8159 11.7081Q46.7023 11.4465 46.6041 11.1788Q46.506 10.911 46.4237 10.6379Q46.3415 10.3649 46.2753 10.0875Q46.2091 9.81011 46.1593 9.52932Q46.1095 9.24853 46.0762 8.9653Q46.0429 8.68208 46.0262 8.39739Q46.0095 8.1127 46.0095 7.82753L46.0095 7.82552Q46.0095 7.25689 46.0757 6.69213Q46.1418 6.12736 46.2733 5.57413Q46.4047 5.02089 46.5996 4.48671Q46.7945 3.95253 47.0503 3.44466Q47.306 2.93679 47.6191 2.46213Q47.9322 1.98746 48.2985 1.55246Q48.6647 1.11745 49.079 0.728016Q49.4933 0.338579 49.9502 1.03491e-15L49.9502 0Z" transform="translate(2.876475 1.943968)" id="Combined-Shape" fill="#E6E6E6" fill-rule="evenodd" stroke="none" />
    <g id="Group-4" transform="translate(18.25203 27.47569)">
      <g id="Rectangle-28-Copy-6">
        <use stroke="none" fill="#FCC143" xlink:href="#path_1" />
        <g clip-path="url(#clip_1)">
          <use xlink:href="#path_1" fill="none" stroke="#E47C00" stroke-width="2.3" />
        </g>
      </g>
      <g id="Combined-Shape">
        <use stroke="none" fill="#F6951F" xlink:href="#path_2" fill-rule="evenodd" />
        <g clip-path="url(#clip_2)">
          <use xlink:href="#path_2" fill="none" stroke="#E47C00" stroke-width="2.3" />
        </g>
      </g>
      <g id="Combined-Shape">
        <use stroke="none" fill="#F6951F" xlink:href="#path_3" fill-rule="evenodd" />
        <g clip-path="url(#clip_3)">
          <use xlink:href="#path_3" fill="none" stroke="#E47C00" stroke-width="2.3" />
        </g>
      </g>
    </g>
    <path d="M4.58006 9.16012C7.10956 9.16012 9.16012 7.10956 9.16012 4.58006C9.16012 2.05056 7.10956 0 4.58006 0C2.05056 0 0 2.05056 0 4.58006C0 7.10956 2.05056 9.16012 4.58006 9.16012Z" transform="translate(17.54181 25.18662)" id="Oval-15" fill="#FFFFFF" stroke="none" />
    <path d="M2.29397 4.58795C3.5609 4.58795 4.58795 3.5609 4.58795 2.29397C4.58795 1.02705 3.5609 0 2.29397 0C1.02705 0 0 1.02705 0 2.29397C0 3.5609 1.02705 4.58795 2.29397 4.58795Z" transform="translate(40.85148 34.34675)" id="Oval-15-Copy" fill="#FFFFFF" stroke="none" />
    <path d="M1.72239 0L20.8016 0Q20.8862 0 20.9704 0.00829377Q21.0546 0.0165875 21.1376 0.0330952Q21.2206 0.0496029 21.3016 0.0741655Q21.3825 0.098728 21.4607 0.131109Q21.5389 0.16349 21.6135 0.203377Q21.6881 0.243265 21.7585 0.290275Q21.8288 0.337285 21.8942 0.390964Q21.9597 0.444644 22.0195 0.504476Q22.0793 0.564308 22.133 0.629717Q22.1867 0.695125 22.2337 0.765481Q22.2807 0.835836 22.3206 0.91046Q22.3605 0.985084 22.3928 1.06326Q22.4252 1.14143 22.4498 1.22241Q22.4744 1.30338 22.4909 1.38637Q22.5074 1.46936 22.5157 1.55356Q22.524 1.63777 22.524 1.72239L22.524 1.72439Q22.524 1.809 22.5157 1.89321Q22.5074 1.97742 22.4909 2.06041Q22.4744 2.1434 22.4498 2.22437Q22.4252 2.30534 22.3928 2.38352Q22.3605 2.46169 22.3206 2.53632Q22.2807 2.61094 22.2337 2.6813Q22.1867 2.75165 22.133 2.81706Q22.0793 2.88247 22.0195 2.9423Q21.9597 3.00213 21.8942 3.05581Q21.8288 3.10949 21.7585 3.1565Q21.6881 3.20351 21.6135 3.2434Q21.5389 3.28329 21.4607 3.31567Q21.3825 3.34805 21.3016 3.37261Q21.2206 3.39717 21.1376 3.41368Q21.0546 3.43019 20.9704 3.43848Q20.8862 3.44678 20.8016 3.44678L1.72239 3.44678Q1.63777 3.44678 1.55356 3.43848Q1.46936 3.43019 1.38637 3.41368Q1.30338 3.39717 1.22241 3.37261Q1.14143 3.34805 1.06326 3.31567Q0.985084 3.28329 0.91046 3.2434Q0.835836 3.20351 0.765481 3.1565Q0.695125 3.10949 0.629717 3.05581Q0.564308 3.00213 0.504476 2.9423Q0.444644 2.88247 0.390964 2.81706Q0.337285 2.75165 0.290275 2.6813Q0.243265 2.61094 0.203377 2.53632Q0.16349 2.46169 0.131109 2.38352Q0.098728 2.30534 0.0741655 2.22437Q0.0496029 2.1434 0.0330952 2.06041Q0.0165875 1.97742 0.00829377 1.89321Q0 1.809 0 1.72439L0 1.72239Q0 1.63777 0.00829377 1.55356Q0.0165875 1.46936 0.0330952 1.38637Q0.0496029 1.30338 0.0741655 1.22241Q0.098728 1.14143 0.131109 1.06326Q0.16349 0.985084 0.203377 0.91046Q0.243265 0.835836 0.290275 0.765481Q0.337285 0.695125 0.390964 0.629717Q0.444644 0.564308 0.504476 0.504476Q0.564308 0.444644 0.629717 0.390964Q0.695125 0.337285 0.765481 0.290275Q0.835836 0.243265 0.91046 0.203377Q0.985084 0.16349 1.06326 0.131109Q1.14143 0.098728 1.22241 0.0741655Q1.30338 0.0496029 1.38637 0.0330952Q1.46936 0.0165875 1.55356 0.00829377Q1.63777 0 1.72239 0Z" transform="translate(19.43676 56.46692)" id="Rectangle-28" fill="#B61B00" stroke="none" />
    <path d="M1.18069 0L14.2634 0Q14.3214 0 14.3792 0.00568532Q14.4369 0.0113706 14.4938 0.0226865Q14.5507 0.0340024 14.6062 0.0508399Q14.6617 0.0676774 14.7153 0.0898743Q14.7689 0.112071 14.82 0.139414Q14.8712 0.166756 14.9194 0.198981Q14.9676 0.231206 15.0125 0.268003Q15.0573 0.3048 15.0983 0.345815Q15.1393 0.386829 15.1761 0.431666Q15.2129 0.476504 15.2451 0.524732Q15.2774 0.57296 15.3047 0.624114Q15.3321 0.675268 15.3543 0.728857Q15.3764 0.782445 15.3933 0.837951Q15.4101 0.893456 15.4214 0.950345Q15.4328 1.00723 15.4384 1.06496Q15.4441 1.12268 15.4441 1.18069L15.4441 1.18269Q15.4441 1.24069 15.4384 1.29841Q15.4328 1.35614 15.4214 1.41303Q15.4101 1.46991 15.3933 1.52542Q15.3764 1.58093 15.3543 1.63451Q15.3321 1.6881 15.3047 1.73926Q15.2774 1.79041 15.2451 1.83864Q15.2129 1.88687 15.1761 1.9317Q15.1393 1.97654 15.0983 2.01756Q15.0573 2.05857 15.0125 2.09537Q14.9676 2.13216 14.9194 2.16439Q14.8712 2.19661 14.82 2.22396Q14.7689 2.2513 14.7153 2.2735Q14.6617 2.29569 14.6062 2.31253Q14.5507 2.32937 14.4938 2.34068Q14.4369 2.352 14.3792 2.35769Q14.3214 2.36337 14.2634 2.36337L1.18069 2.36337Q1.12268 2.36337 1.06496 2.35769Q1.00723 2.352 0.950345 2.34068Q0.893456 2.32937 0.83795 2.31253Q0.782445 2.29569 0.728857 2.2735Q0.675268 2.2513 0.624114 2.22396Q0.57296 2.19661 0.524732 2.16439Q0.476504 2.13216 0.431666 2.09537Q0.386829 2.05857 0.345815 2.01756Q0.3048 1.97654 0.268003 1.9317Q0.231206 1.88687 0.198981 1.83864Q0.166756 1.79041 0.139414 1.73926Q0.112071 1.6881 0.0898743 1.63451Q0.0676774 1.58093 0.0508399 1.52542Q0.0340024 1.46991 0.0226865 1.41303Q0.0113706 1.35614 0.00568532 1.29841Q0 1.24069 0 1.18269L0 1.18069Q0 1.12268 0.00568532 1.06496Q0.0113706 1.00723 0.0226865 0.950345Q0.0340024 0.893456 0.0508399 0.83795Q0.0676774 0.782445 0.0898743 0.728857Q0.112071 0.675268 0.139414 0.624114Q0.166756 0.57296 0.198981 0.524732Q0.231206 0.476504 0.268003 0.431666Q0.3048 0.386829 0.345815 0.345815Q0.386829 0.3048 0.431666 0.268003Q0.476504 0.231206 0.524732 0.198981Q0.57296 0.166756 0.624114 0.139414Q0.675268 0.112071 0.728857 0.0898743Q0.782445 0.0676774 0.83795 0.0508399Q0.893456 0.0340024 0.950345 0.0226865Q1.00723 0.0113706 1.06496 0.00568532Q1.12268 0 1.18069 0L1.18069 0Z" transform="translate(22.97668 61.51283)" id="Rectangle-28-Copy-8" fill="#EA553A" stroke="none" />
    <path d="M0 0L6.85626 0L6.85626 7.55182L0 7.55182L0 0Z" transform="translate(10.68555 1.943968)" id="Rectangle-31" fill="#F6951F" stroke="none" />
    <path d="M6.85626 0L0 0L0 7.40233L3.45389 3.94844L6.85626 7.35081L6.85626 0Z" transform="translate(10.68555 72.36897)" id="Combined-Shape" fill="#F6951F" fill-rule="evenodd" stroke="none" />
  </g>
</svg>