<?xml version="1.0" encoding="utf-8"?>
<svg width="96px" height="68px" viewBox="0 0 96 68" version="1.1" xmlns:xlink="http://www.w3.org/1999/xlink" xmlns="http://www.w3.org/2000/svg">
  <desc>Created with Lunacy</desc>
  <defs>
    <path d="M1.379 0L11.8431 0Q11.9108 0 11.9783 0.00664026Q12.0457 0.0132805 12.1121 0.0264971Q12.1786 0.0397137 12.2434 0.0593793Q12.3082 0.0790449 12.3708 0.10497Q12.4334 0.130895 12.4931 0.162831Q12.5529 0.194766 12.6092 0.232403Q12.6656 0.270041 12.7179 0.313019Q12.7703 0.355996 12.8182 0.4039Q12.8661 0.451803 12.9091 0.504172Q12.952 0.55654 12.9897 0.612869Q13.0273 0.669197 13.0593 0.728944Q13.0912 0.78869 13.1171 0.851279Q13.143 0.913869 13.1627 0.978697Q13.1824 1.04353 13.1956 1.10997Q13.2088 1.17641 13.2155 1.24383Q13.2221 1.31125 13.2221 1.379L13.2221 6.14868Q13.2221 6.21642 13.2155 6.28384Q13.2088 6.35126 13.1956 6.41771Q13.1824 6.48415 13.1627 6.54898Q13.143 6.61381 13.1171 6.6764Q13.0912 6.73899 13.0593 6.79873Q13.0273 6.85848 12.9897 6.91481Q12.952 6.97114 12.9091 7.0235Q12.8661 7.07587 12.8182 7.12378Q12.7703 7.17168 12.7179 7.21466Q12.6656 7.25764 12.6092 7.29527Q12.5529 7.33291 12.4931 7.36485Q12.4334 7.39678 12.3708 7.42271Q12.3082 7.44863 12.2434 7.4683Q12.1786 7.48796 12.1121 7.50118Q12.0457 7.5144 11.9783 7.52104Q11.9108 7.52768 11.8431 7.52768L1.379 7.52768Q1.31125 7.52768 1.24383 7.52104Q1.17641 7.5144 1.10997 7.50118Q1.04353 7.48796 0.978697 7.4683Q0.913869 7.44863 0.851279 7.42271Q0.78869 7.39678 0.728944 7.36485Q0.669197 7.33291 0.612869 7.29527Q0.55654 7.25764 0.504172 7.21466Q0.451803 7.17168 0.4039 7.12378Q0.355996 7.07587 0.313019 7.02351Q0.270041 6.97114 0.232403 6.91481Q0.194766 6.85848 0.162831 6.79873Q0.130895 6.73899 0.10497 6.6764Q0.0790449 6.61381 0.0593793 6.54898Q0.0397137 6.48415 0.0264971 6.41771Q0.0132805 6.35126 0.00664026 6.28384Q0 6.21642 0 6.14868L0 1.379Q0 1.31125 0.00664026 1.24383Q0.0132805 1.17641 0.0264971 1.10997Q0.0397137 1.04353 0.0593793 0.978697Q0.0790449 0.913869 0.10497 0.851279Q0.130895 0.78869 0.162831 0.728944Q0.194766 0.669197 0.232403 0.612869Q0.270041 0.55654 0.313019 0.504172Q0.355996 0.451803 0.4039 0.4039Q0.451803 0.355996 0.504172 0.313019Q0.55654 0.270041 0.612869 0.232403Q0.669197 0.194766 0.728944 0.162831Q0.78869 0.130895 0.851279 0.10497Q0.913869 0.0790449 0.978697 0.0593793Q1.04353 0.0397137 1.10997 0.0264971Q1.17641 0.0132805 1.24383 0.00664026Q1.31125 0 1.379 0Z" transform="translate(0.2133526 0.1353934)" id="path_1" />
    <clipPath id="mask_1">
      <use xlink:href="#path_1" />
    </clipPath>
  </defs>
  <g id="camera" transform="translate(0.2874756 0.2874756)">
    <path d="M6.60786 0L1.724 0Q1.63931 0 1.55502 0.00830153Q1.47073 0.0166031 1.38766 0.0331262Q1.3046 0.0496493 1.22355 0.0742349Q1.1425 0.0988204 1.06425 0.131232Q0.986006 0.163643 0.911312 0.203568Q0.836618 0.243493 0.766197 0.290546Q0.695776 0.3376 0.630306 0.39133Q0.564836 0.44506 0.504948 0.504948Q0.44506 0.564836 0.39133 0.630306Q0.3376 0.695776 0.290546 0.766197Q0.243493 0.836618 0.203568 0.911312Q0.163643 0.986006 0.131232 1.06425Q0.0988204 1.1425 0.0742349 1.22355Q0.0496493 1.3046 0.0331262 1.38766Q0.0166031 1.47073 0.00830153 1.55502Q0 1.63931 0 1.724L0 1.93153Q0 2.01622 0.00830153 2.10051Q0.0166031 2.1848 0.0331262 2.26787Q0.0496493 2.35093 0.0742349 2.43198Q0.0988204 2.51303 0.131232 2.59128Q0.163643 2.66952 0.203568 2.74422Q0.243493 2.81891 0.290546 2.88933Q0.3376 2.95975 0.39133 3.02522Q0.44506 3.09069 0.504948 3.15058Q0.564836 3.21047 0.630306 3.2642Q0.695776 3.31793 0.766197 3.36498Q0.836618 3.41204 0.911312 3.45196Q0.986006 3.49189 1.06425 3.5243Q1.1425 3.55671 1.22355 3.58129Q1.3046 3.60588 1.38766 3.6224Q1.47073 3.63893 1.55502 3.64723Q1.63931 3.65553 1.724 3.65553L6.60786 3.65553Q6.69256 3.65553 6.77685 3.64723Q6.86113 3.63893 6.9442 3.6224Q7.02727 3.60588 7.10831 3.58129Q7.18936 3.55671 7.26761 3.5243Q7.34586 3.49189 7.42055 3.45196Q7.49524 3.41204 7.56567 3.36498Q7.63609 3.31793 7.70156 3.2642Q7.76703 3.21047 7.82692 3.15058Q7.8868 3.09069 7.94053 3.02522Q7.99426 2.95975 8.04132 2.88933Q8.08837 2.81891 8.1283 2.74422Q8.16822 2.66952 8.20063 2.59128Q8.23304 2.51303 8.25763 2.43198Q8.28222 2.35093 8.29874 2.26787Q8.31526 2.1848 8.32356 2.10051Q8.33186 2.01622 8.33186 1.93153L8.33186 1.724Q8.33186 1.63931 8.32356 1.55502Q8.31526 1.47073 8.29874 1.38766Q8.28222 1.3046 8.25763 1.22355Q8.23304 1.1425 8.20063 1.06425Q8.16822 0.986006 8.1283 0.911312Q8.08837 0.836618 8.04132 0.766197Q7.99426 0.695776 7.94053 0.630306Q7.8868 0.564836 7.82692 0.504948Q7.76703 0.44506 7.70156 0.39133Q7.63609 0.3376 7.56567 0.290546Q7.49524 0.243493 7.42055 0.203568Q7.34586 0.163643 7.26761 0.131232Q7.18936 0.0988204 7.10831 0.0742349Q7.02727 0.0496493 6.9442 0.0331262Q6.86113 0.0166031 6.77685 0.00830153Q6.69256 0 6.60786 0ZM92.6822 0L87.7983 0Q87.7136 0 87.6293 0.00830153Q87.545 0.0166031 87.462 0.0331262Q87.3789 0.0496493 87.2979 0.0742349Q87.2168 0.0988204 87.1385 0.131232Q87.0603 0.163643 86.9856 0.203568Q86.9109 0.243493 86.8405 0.290546Q86.7701 0.3376 86.7046 0.39133Q86.6391 0.44506 86.5792 0.504948Q86.5194 0.564836 86.4656 0.630306Q86.4119 0.695776 86.3648 0.766197Q86.3178 0.836618 86.2779 0.911312Q86.2379 0.986006 86.2055 1.06425Q86.1731 1.1425 86.1485 1.22355Q86.124 1.3046 86.1074 1.38766Q86.0909 1.47073 86.0826 1.55502Q86.0743 1.63931 86.0743 1.724L86.0743 1.93153Q86.0743 2.01622 86.0826 2.10051Q86.0909 2.1848 86.1074 2.26787Q86.124 2.35093 86.1485 2.43198Q86.1731 2.51303 86.2055 2.59128Q86.2379 2.66952 86.2779 2.74422Q86.3178 2.81891 86.3648 2.88933Q86.4119 2.95975 86.4656 3.02522Q86.5194 3.09069 86.5792 3.15058Q86.6391 3.21047 86.7046 3.2642Q86.7701 3.31793 86.8405 3.36498Q86.9109 3.41204 86.9856 3.45196Q87.0603 3.49189 87.1385 3.5243Q87.2168 3.55671 87.2979 3.58129Q87.3789 3.60588 87.462 3.6224Q87.545 3.63893 87.6293 3.64723Q87.7136 3.65553 87.7983 3.65553L92.6822 3.65553Q92.7669 3.65553 92.8512 3.64723Q92.9354 3.63893 93.0185 3.6224Q93.1016 3.60588 93.1826 3.58129Q93.2637 3.55671 93.3419 3.5243Q93.4202 3.49189 93.4948 3.45196Q93.5695 3.41204 93.64 3.36498Q93.7104 3.31793 93.7759 3.2642Q93.8413 3.21047 93.9012 3.15058Q93.9611 3.09069 94.0148 3.02522Q94.0686 2.95975 94.1156 2.88933Q94.1627 2.81891 94.2026 2.74422Q94.2425 2.66952 94.2749 2.59128Q94.3073 2.51303 94.3319 2.43198Q94.3565 2.35093 94.373 2.26787Q94.3896 2.1848 94.3979 2.10051Q94.4062 2.01622 94.4062 1.93153L94.4062 1.724Q94.4062 1.63931 94.3979 1.55502Q94.3896 1.47073 94.373 1.38766Q94.3565 1.3046 94.3319 1.22355Q94.3073 1.1425 94.2749 1.06425Q94.2425 0.986006 94.2026 0.911312Q94.1627 0.836618 94.1156 0.766197Q94.0686 0.695776 94.0148 0.630306Q93.9611 0.564836 93.9012 0.504948Q93.8413 0.44506 93.7759 0.39133Q93.7104 0.3376 93.64 0.290546Q93.5695 0.243493 93.4948 0.203568Q93.4202 0.163643 93.3419 0.131232Q93.2637 0.0988204 93.1826 0.0742349Q93.1016 0.0496493 93.0185 0.0331262Q92.9354 0.0166031 92.8511 0.00830153Q92.7669 0 92.6822 0Z" transform="translate(0.1006352 22.10072)" id="Combined-Shape" fill="#BFC6CB" fill-rule="evenodd" stroke="none" />
    <path d="M1.379 0L3.84427 0Q3.91202 0 3.97943 0.00664026Q4.04685 0.0132805 4.1133 0.0264971Q4.17974 0.0397137 4.24457 0.0593793Q4.3094 0.0790449 4.37199 0.10497Q4.43458 0.130895 4.49433 0.162831Q4.55407 0.194766 4.6104 0.232403Q4.66673 0.270041 4.7191 0.313019Q4.77147 0.355996 4.81937 0.4039Q4.86727 0.451803 4.91025 0.504172Q4.95323 0.55654 4.99086 0.612869Q5.0285 0.669197 5.06044 0.728944Q5.09237 0.78869 5.1183 0.851279Q5.14422 0.913869 5.16389 0.978697Q5.18356 1.04353 5.19677 1.10997Q5.20999 1.17641 5.21663 1.24383Q5.22327 1.31125 5.22327 1.379L5.22327 2.11823Q5.22327 2.18598 5.21663 2.2534Q5.20999 2.32082 5.19677 2.38726Q5.18356 2.4537 5.16389 2.51853Q5.14422 2.58336 5.1183 2.64595Q5.09237 2.70854 5.06044 2.76829Q5.0285 2.82803 4.99086 2.88436Q4.95323 2.94069 4.91025 2.99306Q4.86727 3.04543 4.81937 3.09333Q4.77147 3.14123 4.7191 3.18421Q4.66673 3.22719 4.6104 3.26483Q4.55407 3.30246 4.49432 3.3344Q4.43458 3.36633 4.37199 3.39226Q4.3094 3.41819 4.24457 3.43785Q4.17974 3.45752 4.1133 3.47073Q4.04685 3.48395 3.97943 3.49059Q3.91201 3.49723 3.84427 3.49723L1.379 3.49723Q1.31125 3.49723 1.24383 3.49059Q1.17641 3.48395 1.10997 3.47073Q1.04353 3.45752 0.978697 3.43785Q0.913869 3.41819 0.851279 3.39226Q0.78869 3.36633 0.728944 3.3344Q0.669197 3.30246 0.612869 3.26483Q0.55654 3.22719 0.504172 3.18421Q0.451803 3.14123 0.4039 3.09333Q0.355996 3.04543 0.313019 2.99306Q0.270041 2.94069 0.232403 2.88436Q0.194766 2.82803 0.162831 2.76829Q0.130895 2.70854 0.10497 2.64595Q0.0790449 2.58336 0.0593793 2.51853Q0.0397137 2.4537 0.0264971 2.38726Q0.0132805 2.32082 0.00664026 2.2534Q2.14613e-15 2.18598 2.3632e-15 2.11823L4.73177e-15 1.379Q4.94883e-15 1.31125 0.00664026 1.24383Q0.0132805 1.17641 0.0264971 1.10997Q0.0397137 1.04353 0.0593793 0.978697Q0.0790449 0.913869 0.10497 0.851279Q0.130895 0.78869 0.162831 0.728944Q0.194766 0.669197 0.232403 0.612869Q0.270041 0.55654 0.313019 0.504172Q0.355996 0.451803 0.4039 0.4039Q0.451803 0.355996 0.504172 0.313019Q0.55654 0.270041 0.612869 0.232403Q0.669197 0.194766 0.728944 0.162831Q0.788691 0.130895 0.85128 0.10497Q0.913869 0.0790449 0.978698 0.0593793Q1.04353 0.0397137 1.10997 0.0264971Q1.17641 0.0132805 1.24383 0.00664026Q1.31125 0 1.379 0L1.379 0Z" transform="translate(17.90053 0.1597271)" id="Rectangle-6-Copy-2" fill="#613F34" stroke="none" />
    <path d="M1.379 0L9.02472 0Q9.09246 0 9.15988 0.00664026Q9.2273 0.0132805 9.29375 0.0264971Q9.36019 0.0397137 9.42502 0.0593793Q9.48985 0.0790449 9.55244 0.10497Q9.61503 0.130895 9.67477 0.162831Q9.73452 0.194766 9.79085 0.232403Q9.84718 0.270041 9.89955 0.313019Q9.95191 0.355996 9.99982 0.4039Q10.0477 0.451803 10.0907 0.504172Q10.1337 0.55654 10.1713 0.612869Q10.209 0.669197 10.2409 0.728944Q10.2728 0.78869 10.2987 0.851279Q10.3247 0.913869 10.3443 0.978697Q10.364 1.04353 10.3772 1.10997Q10.3904 1.17641 10.3971 1.24383Q10.4037 1.31125 10.4037 1.379L10.4037 3.02263Q10.4037 3.09038 10.3971 3.15779Q10.3904 3.22521 10.3772 3.29166Q10.364 3.3581 10.3443 3.42293Q10.3247 3.48776 10.2987 3.55035Q10.2728 3.61294 10.2409 3.67269Q10.209 3.73243 10.1713 3.78876Q10.1337 3.84509 10.0907 3.89746Q10.0477 3.94983 9.99982 3.99773Q9.95191 4.04563 9.89955 4.08861Q9.84718 4.13159 9.79085 4.16923Q9.73452 4.20686 9.67477 4.2388Q9.61503 4.27073 9.55244 4.29666Q9.48985 4.32258 9.42502 4.34225Q9.36019 4.36192 9.29375 4.37513Q9.2273 4.38835 9.15988 4.39499Q9.09246 4.40163 9.02472 4.40163L1.379 4.40163Q1.31125 4.40163 1.24383 4.39499Q1.17641 4.38835 1.10997 4.37513Q1.04353 4.36192 0.978697 4.34225Q0.913869 4.32258 0.851279 4.29666Q0.78869 4.27073 0.728944 4.2388Q0.669197 4.20686 0.612869 4.16922Q0.55654 4.13159 0.504172 4.08861Q0.451803 4.04563 0.4039 3.99773Q0.355996 3.94983 0.313019 3.89746Q0.270041 3.84509 0.232403 3.78876Q0.194766 3.73243 0.162831 3.67268Q0.130895 3.61294 0.10497 3.55035Q0.0790449 3.48776 0.0593793 3.42293Q0.0397137 3.3581 0.0264971 3.29166Q0.0132805 3.22521 0.00664026 3.15779Q-3.51762e-16 3.09038 -8.24671e-18 3.02263L8.32602e-15 1.379Q8.66953e-15 1.31125 0.00664026 1.24383Q0.0132805 1.17641 0.0264971 1.10997Q0.0397137 1.04353 0.0593793 0.978697Q0.0790449 0.913869 0.10497 0.851279Q0.130895 0.78869 0.162831 0.728944Q0.194766 0.669197 0.232403 0.612869Q0.270041 0.55654 0.313019 0.504172Q0.355996 0.451803 0.4039 0.4039Q0.451803 0.355996 0.504172 0.313019Q0.55654 0.270041 0.612869 0.232403Q0.669197 0.194766 0.728944 0.162831Q0.78869 0.130895 0.851279 0.10497Q0.913869 0.0790449 0.978697 0.0593793Q1.04353 0.0397137 1.10997 0.0264971Q1.17641 0.0132805 1.24383 0.00664026Q1.31125 0 1.379 0Z" transform="translate(15.31031 2.159761)" id="Rectangle-6" fill="#795549" stroke="none" />
    <path d="M1.379 0L13.5029 0Q13.5706 0 13.6381 0.00664026Q13.7055 0.0132805 13.7719 0.0264971Q13.8384 0.0397137 13.9032 0.0593793Q13.968 0.0790449 14.0306 0.10497Q14.0932 0.130895 14.153 0.162831Q14.2127 0.194766 14.269 0.232403Q14.3254 0.270041 14.3777 0.313019Q14.4301 0.355996 14.478 0.4039Q14.5259 0.451803 14.5689 0.504172Q14.6119 0.55654 14.6495 0.612869Q14.6871 0.669197 14.7191 0.728944Q14.751 0.78869 14.7769 0.851279Q14.8029 0.913869 14.8225 0.978697Q14.8422 1.04353 14.8554 1.10997Q14.8686 1.17641 14.8753 1.24383Q14.8819 1.31125 14.8819 1.379L14.8819 4.91727Q14.8819 4.98502 14.8753 5.05244Q14.8686 5.11985 14.8554 5.1863Q14.8422 5.25274 14.8225 5.31757Q14.8029 5.3824 14.7769 5.44499Q14.751 5.50758 14.7191 5.56733Q14.6871 5.62707 14.6495 5.6834Q14.6119 5.73973 14.5689 5.7921Q14.5259 5.84447 14.478 5.89237Q14.4301 5.94027 14.3777 5.98325Q14.3254 6.02623 14.269 6.06387Q14.2127 6.1015 14.153 6.13344Q14.0932 6.16537 14.0306 6.1913Q13.968 6.21722 13.9032 6.23689Q13.8384 6.25656 13.7719 6.26977Q13.7055 6.28299 13.6381 6.28963Q13.5706 6.29627 13.5029 6.29627L1.379 6.29627Q1.31125 6.29627 1.24383 6.28963Q1.17641 6.28299 1.10997 6.26977Q1.04353 6.25656 0.978697 6.23689Q0.913869 6.21722 0.851279 6.1913Q0.78869 6.16537 0.728944 6.13344Q0.669197 6.1015 0.612869 6.06387Q0.55654 6.02623 0.504172 5.98325Q0.451803 5.94027 0.4039 5.89237Q0.355996 5.84447 0.313019 5.7921Q0.270041 5.73973 0.232403 5.6834Q0.194766 5.62707 0.162831 5.56733Q0.130895 5.50758 0.10497 5.44499Q0.0790449 5.3824 0.0593793 5.31757Q0.0397137 5.25274 0.0264971 5.1863Q0.0132805 5.11985 0.00664026 5.05244Q7.93157e-16 4.98502 1.13667e-15 4.91727L1.9078e-14 1.379Q1.94215e-14 1.31125 0.00664026 1.24383Q0.0132805 1.17641 0.0264971 1.10997Q0.0397137 1.04353 0.0593793 0.978697Q0.0790449 0.913869 0.10497 0.851279Q0.130895 0.78869 0.162831 0.728944Q0.194766 0.669197 0.232403 0.612869Q0.270041 0.55654 0.313019 0.504172Q0.355996 0.451803 0.4039 0.4039Q0.451803 0.355996 0.504172 0.313019Q0.55654 0.270041 0.612869 0.232403Q0.669197 0.194766 0.728944 0.162831Q0.78869 0.130895 0.851279 0.10497Q0.913869 0.0790449 0.978697 0.0593793Q1.04353 0.0397137 1.10997 0.0264971Q1.17641 0.0132805 1.24383 0.00664026Q1.31125 0 1.379 0Z" transform="translate(66.2546 0.2651211)" id="Rectangle-6-Copy" fill="#613F34" stroke="none" />
    <path d="M2.43968 0L1.379 0Q1.31125 0 1.24383 0.00664026Q1.17641 0.0132805 1.10997 0.0264971Q1.04353 0.0397137 0.978697 0.0593793Q0.913869 0.0790449 0.851279 0.10497Q0.78869 0.130895 0.728944 0.162831Q0.669197 0.194766 0.612869 0.232403Q0.55654 0.270041 0.504172 0.313019Q0.451803 0.355996 0.4039 0.4039Q0.355996 0.451803 0.313019 0.504172Q0.270041 0.55654 0.232403 0.612869Q0.194766 0.669197 0.162831 0.728944Q0.130895 0.78869 0.10497 0.851279Q0.0790449 0.913869 0.0593793 0.978697Q0.0397137 1.04353 0.0264971 1.10997Q0.0132805 1.17641 0.00664026 1.24383Q0 1.31125 0 1.379L0 5.88922Q0 5.95697 0.00664026 6.02439Q0.0132805 6.09181 0.0264971 6.15825Q0.0397137 6.22469 0.0593793 6.28952Q0.0790449 6.35435 0.10497 6.41694Q0.130895 6.47953 0.162831 6.53928Q0.194766 6.59902 0.232403 6.65535Q0.270041 6.71168 0.313019 6.76405Q0.355996 6.81642 0.4039 6.86432Q0.451803 6.91222 0.504172 6.9552Q0.55654 6.99818 0.612869 7.03582Q0.669197 7.07345 0.728944 7.10539Q0.788691 7.13733 0.85128 7.16325Q0.913869 7.18918 0.978698 7.20884Q1.04353 7.22851 1.10997 7.24172Q1.17641 7.25494 1.24383 7.26158Q1.31125 7.26822 1.379 7.26822L2.43968 7.26822Q2.50743 7.26822 2.57484 7.26158Q2.64226 7.25494 2.70871 7.24172Q2.77515 7.22851 2.83998 7.20884Q2.90481 7.18918 2.9674 7.16325Q3.02999 7.13733 3.08974 7.10539Q3.14948 7.07345 3.20581 7.03582Q3.26214 6.99818 3.31451 6.9552Q3.36688 6.91223 3.41478 6.86432Q3.46268 6.81642 3.50566 6.76405Q3.54864 6.71168 3.58628 6.65535Q3.62391 6.59902 3.65585 6.53928Q3.68778 6.47953 3.71371 6.41694Q3.73963 6.35435 3.7593 6.28952Q3.77897 6.22469 3.79218 6.15825Q3.8054 6.09181 3.81204 6.02439Q3.81868 5.95697 3.81868 5.88922L3.81868 1.379Q3.81868 1.31125 3.81204 1.24383Q3.8054 1.17641 3.79218 1.10997Q3.77897 1.04353 3.7593 0.978697Q3.73963 0.913869 3.71371 0.851279Q3.68778 0.788691 3.65585 0.728944Q3.62391 0.669197 3.58628 0.612869Q3.54864 0.55654 3.50566 0.504172Q3.46268 0.451803 3.41478 0.4039Q3.36688 0.355996 3.31451 0.313019Q3.26214 0.270041 3.20581 0.232403Q3.14948 0.194766 3.08974 0.162831Q3.02999 0.130895 2.9674 0.10497Q2.90481 0.0790449 2.83998 0.0593793Q2.77515 0.0397137 2.70871 0.0264971Q2.64226 0.0132805 2.57484 0.00664026Q2.50743 0 2.43968 0ZM16.669 0L15.6083 0Q15.5406 0 15.4731 0.00664026Q15.4057 0.0132805 15.3393 0.0264971Q15.2728 0.0397137 15.208 0.0593793Q15.1432 0.0790449 15.0806 0.10497Q15.018 0.130895 14.9582 0.162831Q14.8985 0.194766 14.8422 0.232403Q14.7858 0.270041 14.7335 0.313019Q14.6811 0.355996 14.6332 0.4039Q14.5853 0.451803 14.5423 0.504172Q14.4993 0.55654 14.4617 0.612869Q14.4241 0.669197 14.3921 0.728944Q14.3602 0.788691 14.3343 0.85128Q14.3083 0.913869 14.2887 0.978698Q14.269 1.04353 14.2558 1.10997Q14.2426 1.17641 14.2359 1.24383Q14.2293 1.31125 14.2293 1.379L14.2293 5.88922Q14.2293 5.95697 14.2359 6.02439Q14.2426 6.09181 14.2558 6.15825Q14.269 6.22469 14.2887 6.28952Q14.3083 6.35435 14.3343 6.41694Q14.3602 6.47953 14.3921 6.53928Q14.4241 6.59902 14.4617 6.65535Q14.4993 6.71168 14.5423 6.76405Q14.5853 6.81642 14.6332 6.86432Q14.6811 6.91222 14.7335 6.9552Q14.7858 6.99818 14.8422 7.03582Q14.8985 7.07345 14.9582 7.10539Q15.018 7.13733 15.0806 7.16325Q15.1432 7.18918 15.208 7.20884Q15.2728 7.22851 15.3393 7.24172Q15.4057 7.25494 15.4731 7.26158Q15.5406 7.26822 15.6083 7.26822L16.669 7.26822Q16.7367 7.26822 16.8041 7.26158Q16.8716 7.25494 16.938 7.24172Q17.0045 7.22851 17.0693 7.20884Q17.1341 7.18918 17.1967 7.16325Q17.2593 7.13733 17.319 7.10539Q17.3788 7.07345 17.4351 7.03582Q17.4914 6.99818 17.5438 6.9552Q17.5962 6.91223 17.6441 6.86432Q17.692 6.81642 17.735 6.76405Q17.7779 6.71168 17.8156 6.65535Q17.8532 6.59902 17.8852 6.53928Q17.9171 6.47953 17.943 6.41694Q17.9689 6.35435 17.9886 6.28952Q18.0083 6.22469 18.0215 6.15825Q18.0347 6.09181 18.0413 6.02439Q18.048 5.95697 18.048 5.88922L18.048 1.379Q18.048 1.31125 18.0413 1.24383Q18.0347 1.17641 18.0215 1.10997Q18.0083 1.04353 17.9886 0.978697Q17.9689 0.913869 17.943 0.851279Q17.9171 0.788691 17.8852 0.728944Q17.8532 0.669197 17.8156 0.612869Q17.7779 0.55654 17.735 0.504172Q17.692 0.451803 17.6441 0.4039Q17.5962 0.355996 17.5438 0.313019Q17.4914 0.270041 17.4351 0.232403Q17.3788 0.194766 17.319 0.162831Q17.2593 0.130895 17.1967 0.10497Q17.1341 0.0790449 17.0693 0.0593793Q17.0045 0.0397137 16.938 0.0264971Q16.8716 0.0132805 16.8041 0.00664026Q16.7367 0 16.669 0Z" transform="translate(38.32638 0.2651211)" id="Combined-Shape" fill="#A37C6F" fill-rule="evenodd" stroke="none" />
    <path d="M6.209 0L76.1844 0Q76.3369 0 76.4891 0.00747901Q76.6413 0.014958 76.793 0.029898Q76.9447 0.044838 77.0955 0.067203Q77.2463 0.089568 77.3958 0.119304Q77.5452 0.14904 77.6931 0.186076Q77.841 0.223112 77.9868 0.267357Q78.1327 0.311603 78.2762 0.362953Q78.4197 0.414302 78.5605 0.472632Q78.7013 0.530961 78.8391 0.59613Q78.9769 0.661299 79.1113 0.733151Q79.2458 0.805002 79.3765 0.883363Q79.5072 0.961724 79.634 1.04641Q79.7607 1.13109 79.8831 1.22188Q80.0056 1.31268 80.1234 1.40938Q80.2412 1.50607 80.3541 1.60843Q80.4671 1.7108 80.5749 1.81857Q80.6826 1.92635 80.785 2.03929Q80.8874 2.15223 80.9841 2.27005Q81.0807 2.38788 81.1715 2.5103Q81.2624 2.63273 81.347 2.75946Q81.4317 2.8862 81.5101 3.01694Q81.5884 3.14767 81.6603 3.2821Q81.7321 3.41652 81.7973 3.55431Q81.8625 3.6921 81.9208 3.83292Q81.9791 3.97374 82.0305 4.11725Q82.0818 4.26076 82.1261 4.40662Q82.1703 4.55248 82.2074 4.70034Q82.2444 4.84819 82.2741 4.99768Q82.3039 5.14718 82.3262 5.29795Q82.3486 5.44872 82.3635 5.60041Q82.3785 5.7521 82.386 5.90434Q82.3934 6.05658 82.3934 6.209L82.3934 51.7921Q82.3934 51.9445 82.386 52.0967Q82.3785 52.249 82.3635 52.4007Q82.3486 52.5523 82.3262 52.7031Q82.3039 52.8539 82.2741 53.0034Q82.2444 53.1529 82.2074 53.3007Q82.1703 53.4486 82.1261 53.5944Q82.0818 53.7403 82.0305 53.8838Q81.9791 54.0273 81.9208 54.1681Q81.8625 54.309 81.7973 54.4468Q81.7321 54.5845 81.6603 54.719Q81.5884 54.8534 81.5101 54.9841Q81.4317 55.1149 81.347 55.2416Q81.2624 55.3683 81.1715 55.4908Q81.0807 55.6132 80.9841 55.731Q80.8874 55.8488 80.785 55.9618Q80.6826 56.0747 80.5749 56.1825Q80.4671 56.2903 80.3541 56.3926Q80.2412 56.495 80.1234 56.5917Q80.0056 56.6884 79.8831 56.7792Q79.7607 56.87 79.634 56.9547Q79.5072 57.0393 79.3765 57.1177Q79.2458 57.1961 79.1113 57.2679Q78.9769 57.3398 78.8391 57.4049Q78.7013 57.4701 78.5605 57.5284Q78.4197 57.5868 78.2762 57.6381Q78.1327 57.6895 77.9868 57.7337Q77.841 57.778 77.6931 57.815Q77.5452 57.852 77.3958 57.8818Q77.2463 57.9115 77.0955 57.9339Q76.9447 57.9562 76.793 57.9712Q76.6413 57.9861 76.4891 57.9936Q76.3369 58.0011 76.1844 58.0011L6.209 58.0011Q6.05658 58.0011 5.90434 57.9936Q5.7521 57.9861 5.60041 57.9712Q5.44872 57.9562 5.29795 57.9339Q5.14718 57.9115 4.99768 57.8818Q4.84819 57.852 4.70034 57.815Q4.55248 57.778 4.40662 57.7337Q4.26076 57.6895 4.11725 57.6381Q3.97374 57.5868 3.83292 57.5284Q3.6921 57.4701 3.55431 57.4049Q3.41652 57.3398 3.2821 57.2679Q3.14767 57.1961 3.01694 57.1177Q2.8862 57.0393 2.75946 56.9547Q2.63273 56.87 2.5103 56.7792Q2.38788 56.6884 2.27005 56.5917Q2.15223 56.495 2.03929 56.3926Q1.92635 56.2903 1.81857 56.1825Q1.7108 56.0747 1.60843 55.9618Q1.50607 55.8488 1.40938 55.731Q1.31268 55.6132 1.22188 55.4908Q1.13109 55.3683 1.04641 55.2416Q0.961724 55.1149 0.883363 54.9841Q0.805002 54.8534 0.733151 54.719Q0.661299 54.5845 0.59613 54.4468Q0.530961 54.309 0.472632 54.1681Q0.414302 54.0273 0.362953 53.8838Q0.311603 53.7403 0.267357 53.5944Q0.223112 53.4486 0.186076 53.3007Q0.14904 53.1529 0.119304 53.0034Q0.089568 52.8539 0.067203 52.7031Q0.044838 52.5523 0.029898 52.4007Q0.014958 52.249 0.00747901 52.0967Q0 51.9445 0 51.7921L0 6.209Q0 6.05658 0.00747901 5.90434Q0.014958 5.7521 0.029898 5.60041Q0.044838 5.44872 0.067203 5.29795Q0.089568 5.14718 0.119304 4.99768Q0.14904 4.84819 0.186076 4.70034Q0.223112 4.55248 0.267357 4.40662Q0.311603 4.26076 0.362953 4.11725Q0.414302 3.97374 0.472632 3.83292Q0.530961 3.6921 0.59613 3.55431Q0.661299 3.41652 0.733151 3.2821Q0.805002 3.14767 0.883363 3.01694Q0.961724 2.8862 1.04641 2.75946Q1.13109 2.63273 1.22188 2.5103Q1.31268 2.38788 1.40938 2.27005Q1.50607 2.15223 1.60843 2.03929Q1.7108 1.92635 1.81857 1.81857Q1.92635 1.7108 2.03929 1.60843Q2.15223 1.50607 2.27005 1.40938Q2.38788 1.31268 2.5103 1.22188Q2.63273 1.13109 2.75946 1.04641Q2.8862 0.961724 3.01694 0.883363Q3.14767 0.805002 3.2821 0.733151Q3.41652 0.661299 3.55431 0.59613Q3.6921 0.530961 3.83292 0.472632Q3.97374 0.414302 4.11725 0.362953Q4.26076 0.311603 4.40662 0.267357Q4.55248 0.223112 4.70034 0.186076Q4.84819 0.14904 4.99768 0.119304Q5.14718 0.089568 5.29795 0.067203Q5.44872 0.044838 5.60041 0.029898Q5.7521 0.014958 5.90434 0.00747901Q6.05658 0 6.209 0Z" transform="translate(6.103218 4.630338)" id="Rectangle" fill="#D3D3D3" stroke="none" />
    <path d="M17.8255 -1.77636e-15L17.8255 5.98086Q17.8255 6.13328 17.818 6.28552Q17.8106 6.43776 17.7956 6.58945Q17.7807 6.74113 17.7583 6.89191Q17.7359 7.04268 17.7062 7.19217Q17.6765 7.34167 17.6394 7.48952Q17.6024 7.63738 17.5581 7.78323Q17.5139 7.92909 17.4626 8.07261Q17.4112 8.21612 17.3529 8.35694Q17.2945 8.49776 17.2294 8.63555Q17.1642 8.77333 17.0924 8.90776Q17.0205 9.04218 16.9421 9.17292Q16.8638 9.30366 16.7791 9.43039Q16.6944 9.55713 16.6036 9.67955Q16.5128 9.80198 16.4161 9.9198Q16.3194 10.0376 16.2171 10.1506Q16.1147 10.2635 16.0069 10.3713Q15.8992 10.4791 15.7862 10.5814Q15.6733 10.6838 15.5555 10.7805Q15.4376 10.8772 15.3152 10.968Q15.1928 11.0588 15.066 11.1435Q14.9393 11.2281 14.8086 11.3065Q14.6778 11.3849 14.5434 11.4567Q14.409 11.5286 14.2712 11.5937Q14.1334 11.6589 13.9926 11.7172Q13.8518 11.7756 13.7083 11.8269Q13.5647 11.8783 13.4189 11.9225Q13.273 11.9667 13.1252 12.0038Q12.9773 12.0408 12.8278 12.0706Q12.6783 12.1003 12.5276 12.1227Q12.3768 12.145 12.2251 12.16Q12.0734 12.1749 11.9212 12.1824Q11.7689 12.1899 11.6165 12.1899L0 12.1899L0 0L17.8255 0L17.8255 -1.77636e-15Z" transform="translate(70.63798 50.44155)" id="Combined-Shape" fill="#949494" fill-rule="evenodd" stroke="none" />
    <path d="M17.8255 -1.77636e-15L17.8255 5.98086Q17.8255 6.13328 17.818 6.28552Q17.8106 6.43776 17.7956 6.58945Q17.7807 6.74113 17.7583 6.89191Q17.7359 7.04268 17.7062 7.19217Q17.6765 7.34167 17.6394 7.48952Q17.6024 7.63738 17.5581 7.78323Q17.5139 7.92909 17.4626 8.07261Q17.4112 8.21612 17.3529 8.35694Q17.2945 8.49776 17.2294 8.63555Q17.1642 8.77333 17.0924 8.90776Q17.0205 9.04218 16.9421 9.17292Q16.8638 9.30366 16.7791 9.43039Q16.6944 9.55713 16.6036 9.67955Q16.5128 9.80198 16.4161 9.9198Q16.3194 10.0376 16.2171 10.1506Q16.1147 10.2635 16.0069 10.3713Q15.8992 10.4791 15.7862 10.5814Q15.6733 10.6838 15.5555 10.7805Q15.4376 10.8772 15.3152 10.968Q15.1928 11.0588 15.066 11.1435Q14.9393 11.2281 14.8086 11.3065Q14.6778 11.3849 14.5434 11.4567Q14.409 11.5286 14.2712 11.5937Q14.1334 11.6589 13.9926 11.7172Q13.8518 11.7756 13.7083 11.8269Q13.5647 11.8783 13.4189 11.9225Q13.273 11.9667 13.1252 12.0038Q12.9773 12.0408 12.8278 12.0706Q12.6783 12.1003 12.5276 12.1227Q12.3768 12.145 12.2251 12.16Q12.0734 12.1749 11.9212 12.1824Q11.7689 12.1899 11.6165 12.1899L0 12.1899L0 0L17.8255 0L17.8255 -1.77636e-15Z" transform="matrix(-1 0 0 1 23.92872 50.44155)" id="Combined-Shape-Copy-2" fill="#949494" fill-rule="evenodd" stroke="none" />
    <path d="M17.8255 1.77636e-15L17.8255 8.97086Q17.8255 9.129 17.81 9.28637Q17.7945 9.44375 17.7637 9.59885Q17.7328 9.75395 17.6869 9.90528Q17.641 10.0566 17.5805 10.2027Q17.52 10.3488 17.4454 10.4883Q17.3709 10.6277 17.283 10.7592Q17.1952 10.8907 17.0948 11.013Q16.9945 11.1352 16.8827 11.247Q16.7709 11.3589 16.6486 11.4592Q16.5264 11.5595 16.3949 11.6474Q16.2634 11.7352 16.1239 11.8098Q15.9845 11.8843 15.8384 11.9448Q15.6923 12.0053 15.5409 12.0512Q15.3896 12.0972 15.2345 12.128Q15.0794 12.1589 14.922 12.1744Q14.7646 12.1899 14.6065 12.1899L-3.55271e-15 12.1899L0 3.219Q0 3.06086 0.0155004 2.90348Q0.0310007 2.7461 0.0618522 2.591Q0.0927036 2.4359 0.138609 2.28457Q0.184514 2.13324 0.245032 1.98714Q0.305549 1.84104 0.380095 1.70157Q0.454642 1.56211 0.542499 1.43062Q0.630357 1.29913 0.730679 1.17689Q0.831002 1.05464 0.942823 0.942823Q1.05464 0.831002 1.17689 0.730679Q1.29913 0.630357 1.43062 0.542499Q1.56211 0.454642 1.70157 0.380095Q1.84104 0.305549 1.98714 0.245032Q2.13324 0.184514 2.28457 0.138609Q2.4359 0.0927036 2.591 0.0618522Q2.74611 0.0310007 2.90348 0.0155004Q3.06086 0 3.219 0L17.8255 0L17.8255 1.77636e-15Z" transform="translate(66.22143 46.08525)" id="Combined-Shape-Copy" fill="#D3D3D3" fill-rule="evenodd" stroke="none" />
    <path d="M17.8255 1.77636e-15L17.8255 8.97086Q17.8255 9.129 17.81 9.28637Q17.7945 9.44375 17.7637 9.59885Q17.7328 9.75395 17.6869 9.90528Q17.641 10.0566 17.5805 10.2027Q17.52 10.3488 17.4454 10.4883Q17.3709 10.6277 17.283 10.7592Q17.1952 10.8907 17.0948 11.013Q16.9945 11.1352 16.8827 11.247Q16.7709 11.3589 16.6486 11.4592Q16.5264 11.5595 16.3949 11.6474Q16.2634 11.7352 16.1239 11.8098Q15.9845 11.8843 15.8384 11.9448Q15.6923 12.0053 15.5409 12.0512Q15.3896 12.0972 15.2345 12.128Q15.0794 12.1589 14.922 12.1744Q14.7646 12.1899 14.6065 12.1899L-3.55271e-15 12.1899L0 3.219Q0 3.06086 0.0155004 2.90348Q0.0310007 2.7461 0.0618522 2.591Q0.0927036 2.4359 0.138609 2.28457Q0.184514 2.13324 0.245032 1.98714Q0.305549 1.84104 0.380095 1.70157Q0.454642 1.56211 0.542499 1.43062Q0.630357 1.29913 0.730679 1.17689Q0.831002 1.05464 0.942823 0.942823Q1.05464 0.831002 1.17689 0.730679Q1.29913 0.630357 1.43062 0.542499Q1.56211 0.454642 1.70157 0.380095Q1.84104 0.305549 1.98714 0.245032Q2.13324 0.184514 2.28457 0.138609Q2.4359 0.0927036 2.591 0.0618522Q2.74611 0.0310007 2.90348 0.0155004Q3.06086 0 3.219 0L17.8255 0L17.8255 1.77636e-15Z" transform="matrix(-1 0 0 1 28.42447 46.08525)" id="Combined-Shape-Copy-3" fill="#D3D3D3" fill-rule="evenodd" stroke="none" />
    <path d="M82.3934 17.4704L5.32907e-15 17.4704L0 6.209Q0 6.05658 0.00747901 5.90434Q0.014958 5.7521 0.029898 5.60041Q0.044838 5.44872 0.067203 5.29795Q0.089568 5.14718 0.119304 4.99768Q0.14904 4.84819 0.186076 4.70034Q0.223112 4.55248 0.267357 4.40662Q0.311603 4.26076 0.362953 4.11725Q0.414302 3.97374 0.472632 3.83292Q0.530961 3.6921 0.59613 3.55431Q0.661299 3.41652 0.733151 3.2821Q0.805002 3.14767 0.883363 3.01694Q0.961724 2.8862 1.04641 2.75946Q1.13109 2.63273 1.22188 2.5103Q1.31268 2.38788 1.40938 2.27005Q1.50607 2.15223 1.60843 2.03929Q1.7108 1.92635 1.81857 1.81857Q1.92635 1.7108 2.03929 1.60843Q2.15223 1.50607 2.27005 1.40938Q2.38788 1.31268 2.5103 1.22188Q2.63273 1.13109 2.75946 1.04641Q2.8862 0.961724 3.01694 0.883363Q3.14767 0.805002 3.2821 0.733151Q3.41652 0.661299 3.55431 0.59613Q3.6921 0.530961 3.83292 0.472632Q3.97374 0.414302 4.11725 0.362953Q4.26076 0.311603 4.40662 0.267357Q4.55248 0.223112 4.70034 0.186076Q4.84819 0.14904 4.99768 0.119304Q5.14718 0.089568 5.29795 0.067203Q5.44872 0.044838 5.60041 0.029898Q5.7521 0.014958 5.90434 0.00747901Q6.05658 0 6.209 0L76.1844 0Q76.3369 0 76.4891 0.00747901Q76.6413 0.014958 76.793 0.029898Q76.9447 0.044838 77.0955 0.067203Q77.2463 0.089568 77.3958 0.119304Q77.5452 0.14904 77.6931 0.186076Q77.841 0.223112 77.9868 0.267357Q78.1327 0.311603 78.2762 0.362953Q78.4197 0.414302 78.5605 0.472632Q78.7013 0.530961 78.8391 0.59613Q78.9769 0.661299 79.1113 0.733151Q79.2458 0.805002 79.3765 0.883363Q79.5072 0.961724 79.634 1.04641Q79.7607 1.13109 79.8831 1.22188Q80.0056 1.31268 80.1234 1.40938Q80.2412 1.50607 80.3541 1.60843Q80.4671 1.7108 80.5749 1.81857Q80.6826 1.92635 80.785 2.03929Q80.8874 2.15223 80.9841 2.27005Q81.0807 2.38788 81.1715 2.5103Q81.2624 2.63273 81.347 2.75946Q81.4317 2.8862 81.5101 3.01694Q81.5884 3.14767 81.6603 3.2821Q81.7321 3.41652 81.7973 3.55431Q81.8625 3.6921 81.9208 3.83292Q81.9791 3.97374 82.0305 4.11725Q82.0818 4.26076 82.1261 4.40662Q82.1703 4.55248 82.2074 4.70034Q82.2444 4.84819 82.2741 4.99768Q82.3039 5.14718 82.3262 5.29795Q82.3486 5.44872 82.3635 5.60041Q82.3785 5.7521 82.386 5.90434Q82.3934 6.05658 82.3934 6.209L82.3934 17.4704Z" transform="translate(6.103218 4.630338)" id="Combined-Shape" fill="#795549" fill-rule="evenodd" stroke="none" />
    <path d="M28.8179 1.38778e-17L28.8179 6.97648Q28.8179 7.1289 28.8104 7.28114Q28.8029 7.43338 28.788 7.58507Q28.7731 7.73675 28.7507 7.88753Q28.7283 8.0383 28.6986 8.18779Q28.6689 8.33729 28.6318 8.48514Q28.5948 8.633 28.5505 8.77886Q28.5063 8.92472 28.4549 9.06823Q28.4036 9.21174 28.3453 9.35256Q28.2869 9.49338 28.2218 9.63117Q28.1566 9.76895 28.0847 9.90338Q28.0129 10.0378 27.9345 10.1685Q27.8562 10.2993 27.7715 10.426Q27.6868 10.5527 27.596 10.6752Q27.5052 10.7976 27.4085 10.9154Q27.3118 11.0332 27.2095 11.1462Q27.1071 11.2591 26.9993 11.3669Q26.8915 11.4747 26.7786 11.577Q26.6657 11.6794 26.5478 11.7761Q26.43 11.8728 26.3076 11.9636Q26.1852 12.0544 26.0584 12.1391Q25.9317 12.2238 25.801 12.3021Q25.6702 12.3805 25.5358 12.4523Q25.4014 12.5242 25.2636 12.5893Q25.1258 12.6545 24.985 12.7128Q24.8442 12.7712 24.7006 12.8225Q24.5571 12.8739 24.4113 12.9181Q24.2654 12.9624 24.1176 12.9994Q23.9697 13.0364 23.8202 13.0662Q23.6707 13.0959 23.5199 13.1183Q23.3692 13.1406 23.2175 13.1556Q23.0658 13.1705 22.9136 13.178Q22.7613 13.1855 22.6089 13.1855L-1.77636e-15 13.1855L0 6.209Q0 6.05658 0.00747901 5.90434Q0.014958 5.7521 0.029898 5.60041Q0.044838 5.44872 0.067203 5.29795Q0.089568 5.14718 0.119304 4.99768Q0.14904 4.84819 0.186076 4.70034Q0.223112 4.55248 0.267357 4.40662Q0.311603 4.26076 0.362953 4.11725Q0.414302 3.97374 0.472632 3.83292Q0.530961 3.6921 0.59613 3.55431Q0.661299 3.41652 0.733151 3.2821Q0.805002 3.14767 0.883363 3.01694Q0.961724 2.8862 1.04641 2.75946Q1.13109 2.63273 1.22188 2.5103Q1.31268 2.38788 1.40938 2.27005Q1.50607 2.15223 1.60843 2.03929Q1.7108 1.92635 1.81857 1.81857Q1.92635 1.7108 2.03929 1.60843Q2.15223 1.50607 2.27005 1.40938Q2.38788 1.31268 2.5103 1.22188Q2.63273 1.13109 2.75946 1.04641Q2.8862 0.961724 3.01694 0.883363Q3.14767 0.805002 3.2821 0.733151Q3.41652 0.661299 3.55431 0.59613Q3.6921 0.530961 3.83292 0.472632Q3.97374 0.414302 4.11725 0.362953Q4.26076 0.311603 4.40662 0.267357Q4.55248 0.223112 4.70034 0.186076Q4.84819 0.14904 4.99768 0.119304Q5.14718 0.089568 5.29795 0.067203Q5.44872 0.044838 5.60041 0.029898Q5.7521 0.014958 5.90434 0.00747901Q6.05658 0 6.209 0L28.8179 0L28.8179 1.38778e-17Z" transform="translate(6.103218 4.630338)" id="Combined-Shape" fill="#613F34" fill-rule="evenodd" stroke="none" />
    <path d="M3.219 0L3.58843 0Q3.74657 0 3.90395 0.0155004Q4.06133 0.0310007 4.21643 0.0618522Q4.37153 0.0927036 4.52286 0.138609Q4.67419 0.184514 4.82029 0.245032Q4.96639 0.305549 5.10586 0.380095Q5.24533 0.454642 5.37681 0.542499Q5.5083 0.630357 5.63055 0.730679Q5.75279 0.831002 5.86461 0.942823Q5.97643 1.05464 6.07676 1.17689Q6.17708 1.29913 6.26494 1.43062Q6.35279 1.56211 6.42734 1.70157Q6.50189 1.84104 6.5624 1.98714Q6.62292 2.13324 6.66883 2.28457Q6.71473 2.4359 6.74558 2.591Q6.77643 2.7461 6.79194 2.90348Q6.80744 3.06086 6.80744 3.219L6.80744 10.672Q6.80744 10.8302 6.79194 10.9875Q6.77643 11.1449 6.74558 11.3Q6.71473 11.4551 6.66883 11.6064Q6.62292 11.7578 6.5624 11.9039Q6.50189 12.05 6.42734 12.1894Q6.35279 12.3289 6.26493 12.4604Q6.17708 12.5919 6.07675 12.7141Q5.97643 12.8364 5.86461 12.9482Q5.75279 13.06 5.63055 13.1603Q5.5083 13.2607 5.37681 13.3485Q5.24533 13.4364 5.10586 13.5109Q4.96639 13.5855 4.82029 13.646Q4.67419 13.7065 4.52286 13.7524Q4.37153 13.7983 4.21643 13.8292Q4.06133 13.86 3.90395 13.8755Q3.74657 13.891 3.58843 13.891L3.219 13.891Q3.06086 13.891 2.90348 13.8755Q2.7461 13.86 2.591 13.8292Q2.4359 13.7983 2.28457 13.7524Q2.13324 13.7065 1.98714 13.646Q1.84104 13.5855 1.70157 13.5109Q1.56211 13.4364 1.43062 13.3485Q1.29913 13.2607 1.17689 13.1603Q1.05464 13.06 0.942823 12.9482Q0.831002 12.8364 0.730679 12.7141Q0.630357 12.5919 0.542499 12.4604Q0.454642 12.3289 0.380095 12.1894Q0.305549 12.05 0.245032 11.9039Q0.184514 11.7578 0.138609 11.6064Q0.0927036 11.4551 0.0618522 11.3Q0.0310007 11.1449 0.0155004 10.9875Q0 10.8302 0 10.672L0 3.219Q0 3.06086 0.0155004 2.90348Q0.0310007 2.7461 0.0618522 2.591Q0.0927036 2.4359 0.138609 2.28457Q0.184514 2.13324 0.245032 1.98714Q0.305549 1.84104 0.380095 1.70157Q0.454642 1.56211 0.542499 1.43062Q0.630357 1.29913 0.730679 1.17689Q0.831002 1.05464 0.942823 0.942823Q1.05464 0.831002 1.17689 0.730679Q1.29913 0.630357 1.43062 0.542499Q1.56211 0.454642 1.70157 0.380095Q1.84104 0.305549 1.98714 0.245032Q2.13324 0.184514 2.28457 0.138609Q2.4359 0.0927036 2.591 0.0618522Q2.7461 0.0310007 2.90348 0.0155004Q3.06086 0 3.219 0L3.219 0Z" transform="translate(68.84642 33.50902)" id="Rectangle-8" fill="#949494" stroke="none" />
    <g id="lensa" transform="translate(22.06548 14.62212)">
      <path d="M25.2175 52.3607C39.1447 52.3607 50.435 40.6394 50.435 26.1804C50.435 11.7213 39.1447 0 25.2175 0C11.2903 0 0 11.7213 0 26.1804C0 40.6394 11.2903 52.3607 25.2175 52.3607Z" id="Oval" fill="#68453A" stroke="none" />
      <path d="M23.2972 48.3734C36.1638 48.3734 46.5943 37.5447 46.5943 24.1867C46.5943 10.8288 36.1638 0 23.2972 0C10.4305 0 0 10.8288 0 24.1867C0 37.5447 10.4305 48.3734 23.2972 48.3734Z" transform="translate(1.920322 1.993644)" id="Oval-Copy" fill="#949494" stroke="none" />
      <path d="M18.9385 39.3231C29.3979 39.3231 37.8769 30.5203 37.8769 19.6616C37.8769 8.80278 29.3979 0 18.9385 0C8.47903 0 0 8.80278 0 19.6616C0 30.5203 8.47903 39.3231 18.9385 39.3231Z" transform="translate(6.279043 6.51879)" id="Oval-Copy-2" fill="#858585" stroke="#707578" stroke-width="0.575" />
      <path d="M16.6519 34.5753C25.8484 34.5753 33.3037 26.8354 33.3037 17.2877C33.3037 7.73995 25.8484 0 16.6519 0C7.45529 0 0 7.73995 0 17.2877C0 26.8354 7.45529 34.5753 16.6519 34.5753Z" transform="translate(8.565629 8.892683)" id="Oval-Copy-3" fill="#BABDBE" stroke="none" />
      <path d="M0 0C0 8.72701 6.81445 15.8017 15.2205 15.8017L15.2205 15.8017C23.6265 15.8017 30.441 8.72701 30.441 0" transform="translate(9.996994 26.18035)" id="Oval-Copy-5" fill="#D5D5D5" stroke="none" />
      <path d="M10.4822 21.7649C16.2714 21.7649 20.9644 16.8926 20.9644 10.8824C20.9644 4.87223 16.2714 0 10.4822 0C4.69304 0 0 4.87223 0 10.8824C0 16.8926 4.69304 21.7649 10.4822 21.7649Z" transform="translate(14.73529 15.29792)" id="Oval-Copy-4" fill="#613F34" stroke="none" />
      <path d="M0 0C0 2.6265 2.05089 4.75571 4.5808 4.75571C7.11071 4.75571 9.1616 2.6265 9.1616 0" transform="translate(12.18398 19.41222)" id="Oval-Copy-6" fill="#D5D5D5" stroke="none" />
    </g>
    <path d="M0 0C0 1.49744 1.16927 2.71135 2.61163 2.71135C4.054 2.71135 5.22327 1.49744 5.22327 0" transform="translate(9.04604 24.90788)" id="Oval-Copy-8" fill="#949494" stroke="none" />
    <path d="M0 0C0 1.49744 1.16927 2.71135 2.61163 2.71135C4.054 2.71135 5.22327 1.49744 5.22327 0" transform="translate(14.03457 24.90788)" id="Oval-Copy-9" fill="#949494" stroke="none" />
    <path d="M0 0C0 1.49744 1.16927 2.71135 2.61163 2.71135C4.054 2.71135 5.22327 1.49744 5.22327 0" transform="translate(14.03457 28.61872)" id="Oval-Copy-10" fill="#949494" stroke="none" />
    <path d="M1.379 0L14.0343 0Q14.102 0 14.1694 0.00664026Q14.2369 0.0132805 14.3033 0.0264971Q14.3698 0.0397137 14.4346 0.0593793Q14.4994 0.0790449 14.562 0.10497Q14.6246 0.130895 14.6843 0.162831Q14.7441 0.194766 14.8004 0.232403Q14.8567 0.270041 14.9091 0.313019Q14.9615 0.355996 15.0094 0.4039Q15.0573 0.451803 15.1003 0.504172Q15.1432 0.55654 15.1809 0.612869Q15.2185 0.669197 15.2504 0.728944Q15.2824 0.78869 15.3083 0.851279Q15.3342 0.913869 15.3539 0.978697Q15.3736 1.04353 15.3868 1.10997Q15.4 1.17641 15.4066 1.24383Q15.4133 1.31125 15.4133 1.379L15.4133 7.39618Q15.4133 7.46392 15.4066 7.53134Q15.4 7.59876 15.3868 7.6652Q15.3736 7.73165 15.3539 7.79648Q15.3342 7.86131 15.3083 7.92389Q15.2824 7.98648 15.2504 8.04623Q15.2185 8.10598 15.1809 8.1623Q15.1432 8.21863 15.1003 8.271Q15.0573 8.32337 15.0094 8.37127Q14.9615 8.41918 14.9091 8.46216Q14.8567 8.50513 14.8004 8.54277Q14.7441 8.58041 14.6843 8.61234Q14.6246 8.64428 14.562 8.6702Q14.4994 8.69613 14.4346 8.71579Q14.3698 8.73546 14.3033 8.74868Q14.2369 8.76189 14.1694 8.76854Q14.102 8.77518 14.0343 8.77518L1.379 8.77518Q1.31125 8.77518 1.24383 8.76854Q1.17641 8.76189 1.10997 8.74868Q1.04353 8.73546 0.978697 8.71579Q0.913869 8.69613 0.851279 8.6702Q0.78869 8.64428 0.728944 8.61234Q0.669197 8.58041 0.612869 8.54277Q0.55654 8.50513 0.504172 8.46216Q0.451803 8.41918 0.4039 8.37127Q0.355996 8.32337 0.313019 8.271Q0.270041 8.21863 0.232403 8.1623Q0.194766 8.10598 0.162831 8.04623Q0.130895 7.98648 0.10497 7.92389Q0.0790449 7.86131 0.0593793 7.79648Q0.0397137 7.73165 0.0264971 7.6652Q0.0132805 7.59876 0.00664026 7.53134Q0 7.46392 0 7.39618L0 1.379Q0 1.31125 0.00664026 1.24383Q0.0132805 1.17641 0.0264971 1.10997Q0.0397137 1.04353 0.0593793 0.978697Q0.0790449 0.913869 0.10497 0.851279Q0.130895 0.78869 0.162831 0.728944Q0.194766 0.669197 0.232403 0.612869Q0.270041 0.55654 0.313019 0.504172Q0.355996 0.451803 0.4039 0.4039Q0.451803 0.355996 0.504172 0.313019Q0.55654 0.270041 0.612869 0.232403Q0.669197 0.194766 0.728944 0.162831Q0.78869 0.130895 0.851279 0.10497Q0.913869 0.0790449 0.978697 0.0593793Q1.04353 0.0397137 1.10997 0.0264971Q1.17641 0.0132805 1.24383 0.00664026Q1.31125 0 1.379 0L1.379 0Z" transform="translate(68.60055 10.23453)" id="Rectangle-5" fill="#BFC6CB" stroke="none" />
    <g id="Oval-Copy-7" transform="translate(69.48279 10.72289)">
      <path d="M1.379 0L11.8431 0Q11.9108 0 11.9783 0.00664026Q12.0457 0.0132805 12.1121 0.0264971Q12.1786 0.0397137 12.2434 0.0593793Q12.3082 0.0790449 12.3708 0.10497Q12.4334 0.130895 12.4931 0.162831Q12.5529 0.194766 12.6092 0.232403Q12.6656 0.270041 12.7179 0.313019Q12.7703 0.355996 12.8182 0.4039Q12.8661 0.451803 12.9091 0.504172Q12.952 0.55654 12.9897 0.612869Q13.0273 0.669197 13.0593 0.728944Q13.0912 0.78869 13.1171 0.851279Q13.143 0.913869 13.1627 0.978697Q13.1824 1.04353 13.1956 1.10997Q13.2088 1.17641 13.2155 1.24383Q13.2221 1.31125 13.2221 1.379L13.2221 6.14868Q13.2221 6.21642 13.2155 6.28384Q13.2088 6.35126 13.1956 6.41771Q13.1824 6.48415 13.1627 6.54898Q13.143 6.61381 13.1171 6.6764Q13.0912 6.73899 13.0593 6.79873Q13.0273 6.85848 12.9897 6.91481Q12.952 6.97114 12.9091 7.0235Q12.8661 7.07587 12.8182 7.12378Q12.7703 7.17168 12.7179 7.21466Q12.6656 7.25764 12.6092 7.29527Q12.5529 7.33291 12.4931 7.36485Q12.4334 7.39678 12.3708 7.42271Q12.3082 7.44863 12.2434 7.4683Q12.1786 7.48796 12.1121 7.50118Q12.0457 7.5144 11.9783 7.52104Q11.9108 7.52768 11.8431 7.52768L1.379 7.52768Q1.31125 7.52768 1.24383 7.52104Q1.17641 7.5144 1.10997 7.50118Q1.04353 7.48796 0.978697 7.4683Q0.913869 7.44863 0.851279 7.42271Q0.78869 7.39678 0.728944 7.36485Q0.669197 7.33291 0.612869 7.29527Q0.55654 7.25764 0.504172 7.21466Q0.451803 7.17168 0.4039 7.12378Q0.355996 7.07587 0.313019 7.02351Q0.270041 6.97114 0.232403 6.91481Q0.194766 6.85848 0.162831 6.79873Q0.130895 6.73899 0.10497 6.6764Q0.0790449 6.61381 0.0593793 6.54898Q0.0397137 6.48415 0.0264971 6.41771Q0.0132805 6.35126 0.00664026 6.28384Q0 6.21642 0 6.14868L0 1.379Q0 1.31125 0.00664026 1.24383Q0.0132805 1.17641 0.0264971 1.10997Q0.0397137 1.04353 0.0593793 0.978697Q0.0790449 0.913869 0.10497 0.851279Q0.130895 0.78869 0.162831 0.728944Q0.194766 0.669197 0.232403 0.612869Q0.270041 0.55654 0.313019 0.504172Q0.355996 0.451803 0.4039 0.4039Q0.451803 0.355996 0.504172 0.313019Q0.55654 0.270041 0.612869 0.232403Q0.669197 0.194766 0.728944 0.162831Q0.78869 0.130895 0.851279 0.10497Q0.913869 0.0790449 0.978697 0.0593793Q1.04353 0.0397137 1.10997 0.0264971Q1.17641 0.0132805 1.24383 0.00664026Q1.31125 0 1.379 0Z" transform="translate(0.2133526 0.1353934)" id="Mask" fill="#707578" stroke="none" />
      <g clip-path="url(#mask_1)">
        <path d="M4.60726 9.56635C7.15178 9.56635 9.21452 7.42485 9.21452 4.78317C9.21452 2.1415 7.15178 0 4.60726 0C2.06274 0 0 2.1415 0 4.78317C0 7.42485 2.06274 9.56635 4.60726 9.56635Z" transform="translate(2.217139 -0.8839428)" id="Oval-Copy-7" fill="#939393" stroke="none" />
      </g>
    </g>
    <path d="M0 0C0 1.49744 1.16927 2.71135 2.61163 2.71135C4.054 2.71135 5.22327 1.49744 5.22327 0" transform="translate(71.08392 11.78892)" id="Oval-Copy-11" fill="#D5D5D5" stroke="none" />
    <path d="M0 0C0 0.964982 0.753502 1.74725 1.68299 1.74725C2.61249 1.74725 3.36599 0.964982 3.36599 0" transform="translate(76.29022 15.74214)" id="Oval-Copy-12" fill="#D5D5D5" stroke="none" />
    <path d="M2.93424 6.09255C4.55477 6.09255 5.86848 4.72869 5.86848 3.04627C5.86848 1.36386 4.55477 0 2.93424 0C1.3137 0 0 1.36386 0 3.04627C0 4.72869 1.3137 6.09255 2.93424 6.09255Z" transform="translate(9.04604 7.052042)" id="Oval-2" fill="#A37C6F" stroke="none" />
  </g>
</svg>