<?xml version="1.0" encoding="utf-8"?>
<svg width="85px" height="83px" viewBox="0 0 85 83" version="1.1" xmlns:xlink="http://www.w3.org/1999/xlink" xmlns="http://www.w3.org/2000/svg">
  <desc>Created with Lunacy</desc>
  <defs>
    <path d="M3.449 0L12.6653 0Q12.8347 0 13.0034 0.0166079Q13.172 0.0332158 13.3382 0.0662716Q13.5043 0.0993274 13.6665 0.148513Q13.8286 0.197698 13.9852 0.262539Q14.1417 0.327381 14.2911 0.407254Q14.4406 0.487126 14.5815 0.581261Q14.7223 0.675396 14.8533 0.782887Q14.9843 0.890378 15.1041 1.01019Q15.2239 1.13 15.3314 1.26098Q15.4389 1.39196 15.533 1.53284Q15.6272 1.67372 15.707 1.82315Q15.7869 1.97258 15.8518 2.12912Q15.9166 2.28567 15.9658 2.44781Q16.015 2.60995 16.048 2.77613Q16.0811 2.94232 16.0977 3.11094Q16.1143 3.27956 16.1143 3.449L16.1143 8.87184Q16.1143 9.04128 16.0977 9.2099Q16.0811 9.37852 16.048 9.54471Q16.015 9.71089 15.9658 9.87303Q15.9166 10.0352 15.8518 10.1917Q15.7869 10.3483 15.707 10.4977Q15.6272 10.6471 15.533 10.788Q15.4389 10.9289 15.3314 11.0599Q15.2239 11.1908 15.1041 11.3107Q14.9843 11.4305 14.8533 11.538Q14.7223 11.6454 14.5815 11.7396Q14.4406 11.8337 14.2911 11.9136Q14.1417 11.9935 13.9852 12.0583Q13.8286 12.1231 13.6665 12.1723Q13.5043 12.2215 13.3382 12.2546Q13.172 12.2876 13.0034 12.3042Q12.8347 12.3208 12.6653 12.3208L3.449 12.3208Q3.27956 12.3208 3.11094 12.3042Q2.94232 12.2876 2.77613 12.2546Q2.60995 12.2215 2.44781 12.1723Q2.28567 12.1231 2.12912 12.0583Q1.97258 11.9935 1.82315 11.9136Q1.67372 11.8337 1.53284 11.7396Q1.39196 11.6454 1.26098 11.538Q1.13 11.4305 1.01019 11.3107Q0.890378 11.1908 0.782887 11.0599Q0.675396 10.9289 0.581261 10.788Q0.487126 10.6471 0.407254 10.4977Q0.327381 10.3483 0.262539 10.1917Q0.197698 10.0352 0.148513 9.87303Q0.0993274 9.71089 0.0662716 9.54471Q0.0332158 9.37852 0.0166079 9.2099Q0 9.04128 0 8.87184L0 3.449Q0 3.27956 0.0166079 3.11094Q0.0332158 2.94232 0.0662716 2.77613Q0.0993274 2.60995 0.148513 2.44781Q0.197698 2.28567 0.262539 2.12912Q0.327381 1.97258 0.407254 1.82315Q0.487126 1.67372 0.581261 1.53284Q0.675396 1.39196 0.782887 1.26098Q0.890378 1.13 1.01019 1.01019Q1.13 0.890378 1.26098 0.782887Q1.39196 0.675396 1.53284 0.581261Q1.67372 0.487126 1.82315 0.407254Q1.97258 0.327381 2.12912 0.262539Q2.28567 0.197698 2.44781 0.148513Q2.60995 0.0993274 2.77613 0.0662716Q2.94232 0.0332158 3.11094 0.0166079Q3.27956 0 3.449 0L3.449 0Z" id="path_1" />
    <clipPath id="mask_1">
      <use xlink:href="#path_1" />
    </clipPath>
  </defs>
  <g id="camera2" transform="translate(0.2874756 0.2874756)">
    <path d="M1.609 0L3.77405 0Q3.85309 0 3.93176 0.00774777Q4.01042 0.0154955 4.08795 0.0309165Q4.16548 0.0463374 4.24112 0.069283Q4.31676 0.0922286 4.38979 0.122478Q4.46281 0.152727 4.53253 0.189989Q4.60224 0.22725 4.66796 0.271165Q4.73369 0.31508 4.79479 0.365226Q4.85589 0.415372 4.91178 0.471265Q4.96768 0.527158 5.01782 0.588261Q5.06797 0.649364 5.11188 0.715087Q5.1558 0.780811 5.19306 0.850523Q5.23032 0.920234 5.26057 0.993262Q5.29082 1.06629 5.31377 1.14193Q5.33671 1.21757 5.35213 1.2951Q5.36755 1.37263 5.3753 1.45129Q5.38305 1.52995 5.38305 1.609L5.38305 7.82764Q5.38305 7.90669 5.3753 7.98535Q5.36755 8.06402 5.35213 8.14154Q5.33671 8.21907 5.31377 8.29471Q5.29082 8.37035 5.26057 8.44338Q5.23032 8.51641 5.19306 8.58612Q5.1558 8.65583 5.11188 8.72155Q5.06797 8.78728 5.01782 8.84838Q4.96768 8.90948 4.91178 8.96538Q4.85589 9.02127 4.79479 9.07141Q4.73369 9.12156 4.66796 9.16548Q4.60224 9.20939 4.53253 9.24665Q4.46281 9.28392 4.38979 9.31416Q4.31676 9.34441 4.24112 9.36736Q4.16548 9.39031 4.08795 9.40573Q4.01042 9.42115 3.93176 9.42889Q3.85309 9.43664 3.77405 9.43664L1.609 9.43664Q1.52995 9.43664 1.45129 9.42889Q1.37263 9.42115 1.2951 9.40573Q1.21757 9.39031 1.14193 9.36736Q1.06629 9.34441 0.993262 9.31416Q0.920234 9.28392 0.850523 9.24665Q0.780811 9.20939 0.715087 9.16547Q0.649364 9.12156 0.588261 9.07141Q0.527158 9.02127 0.471265 8.96538Q0.415372 8.90948 0.365226 8.84838Q0.31508 8.78728 0.271165 8.72155Q0.22725 8.65583 0.189989 8.58612Q0.152727 8.51641 0.122478 8.44338Q0.0922286 8.37035 0.069283 8.29471Q0.0463374 8.21907 0.0309165 8.14154Q0.0154955 8.06402 0.00774777 7.98535Q0 7.90669 0 7.82764L0 1.609Q0 1.52995 0.00774777 1.45129Q0.0154955 1.37263 0.0309165 1.2951Q0.0463374 1.21757 0.069283 1.14193Q0.0922286 1.06629 0.122478 0.993262Q0.152727 0.920234 0.189989 0.850523Q0.22725 0.780811 0.271165 0.715087Q0.31508 0.649364 0.365226 0.588261Q0.415372 0.527158 0.471265 0.471265Q0.527158 0.415372 0.588261 0.365226Q0.649364 0.31508 0.715087 0.271165Q0.780811 0.22725 0.850523 0.189989Q0.920234 0.152727 0.993262 0.122478Q1.06629 0.0922286 1.14193 0.069283Q1.21757 0.0463374 1.2951 0.0309165Q1.37263 0.0154955 1.45129 0.00774777Q1.52995 0 1.609 0Z" transform="translate(19.13677 0.1514119)" id="Rectangle-2-Copy-8" fill="#D3D3D3" stroke="none" />
    <path d="M9.25101 0L1.954 0Q1.85801 0 1.76247 0.00940904Q1.66694 0.0188181 1.57279 0.0375456Q1.47864 0.056273 1.38678 0.0841386Q1.29492 0.112004 1.20624 0.148739Q1.11755 0.185475 1.03289 0.230726Q0.948232 0.275977 0.868416 0.329308Q0.7886 0.38264 0.714396 0.443538Q0.640191 0.504435 0.572313 0.572313Q0.504435 0.640191 0.443538 0.714396Q0.38264 0.7886 0.329308 0.868416Q0.275977 0.948232 0.230726 1.03289Q0.185475 1.11755 0.148739 1.20624Q0.112004 1.29492 0.0841386 1.38678Q0.056273 1.47864 0.0375456 1.57279Q0.0188181 1.66694 0.00940904 1.76247Q0 1.85801 0 1.954L0 2.18944Q0 2.28544 0.00940904 2.38097Q0.0188181 2.4765 0.0375456 2.57065Q0.056273 2.6648 0.0841386 2.75666Q0.112004 2.84852 0.148739 2.93721Q0.185475 3.02589 0.230726 3.11055Q0.275977 3.19521 0.329308 3.27503Q0.38264 3.35484 0.443538 3.42905Q0.504435 3.50325 0.572313 3.57113Q0.640191 3.63901 0.714396 3.69991Q0.7886 3.7608 0.868416 3.81413Q0.948232 3.86747 1.03289 3.91272Q1.11755 3.95797 1.20624 3.9947Q1.29492 4.03144 1.38678 4.0593Q1.47864 4.08717 1.57279 4.1059Q1.66694 4.12463 1.76247 4.13403Q1.85801 4.14344 1.954 4.14344L9.25101 4.14344Q9.347 4.14344 9.44253 4.13403Q9.53806 4.12463 9.63221 4.1059Q9.72636 4.08717 9.81822 4.0593Q9.91008 4.03144 9.99877 3.9947Q10.0875 3.95797 10.1721 3.91272Q10.2568 3.86747 10.3366 3.81413Q10.4164 3.7608 10.4906 3.69991Q10.5648 3.63901 10.6327 3.57113Q10.7006 3.50325 10.7615 3.42905Q10.8224 3.35484 10.8757 3.27503Q10.929 3.19521 10.9743 3.11055Q11.0195 3.02589 11.0563 2.93721Q11.093 2.84852 11.1209 2.75666Q11.1487 2.6648 11.1675 2.57065Q11.1862 2.4765 11.1956 2.38097Q11.205 2.28544 11.205 2.18944L11.205 1.954Q11.205 1.85801 11.1956 1.76247Q11.1862 1.66694 11.1675 1.57279Q11.1487 1.47864 11.1209 1.38678Q11.093 1.29492 11.0563 1.20624Q11.0195 1.11755 10.9743 1.03289Q10.929 0.948232 10.8757 0.868416Q10.8224 0.7886 10.7615 0.714396Q10.7006 0.640191 10.6327 0.572313Q10.5648 0.504435 10.4906 0.443538Q10.4164 0.38264 10.3366 0.329308Q10.2568 0.275977 10.1721 0.230726Q10.0875 0.185475 9.99877 0.148739Q9.91008 0.112004 9.81822 0.0841386Q9.72636 0.056273 9.63221 0.0375456Q9.53806 0.0188181 9.44253 0.00940904Q9.347 0 9.25101 0ZM81.9679 0L74.6709 0Q74.5749 0 74.4793 0.00940904Q74.3838 0.0188181 74.2896 0.0375456Q74.1955 0.056273 74.1036 0.0841386Q74.0118 0.112004 73.9231 0.148739Q73.8344 0.185475 73.7497 0.230726Q73.6651 0.275977 73.5853 0.329308Q73.5055 0.38264 73.4313 0.443538Q73.3571 0.504435 73.2892 0.572313Q73.2213 0.640191 73.1604 0.714396Q73.0995 0.7886 73.0462 0.868416Q72.9928 0.948232 72.9476 1.03289Q72.9023 1.11755 72.8656 1.20624Q72.8288 1.29492 72.801 1.38678Q72.7731 1.47864 72.7544 1.57279Q72.7357 1.66694 72.7263 1.76247Q72.7169 1.85801 72.7169 1.954L72.7169 2.18944Q72.7169 2.28544 72.7263 2.38097Q72.7357 2.4765 72.7544 2.57065Q72.7731 2.6648 72.801 2.75666Q72.8288 2.84852 72.8656 2.93721Q72.9023 3.02589 72.9476 3.11055Q72.9928 3.19521 73.0462 3.27503Q73.0995 3.35484 73.1604 3.42905Q73.2213 3.50325 73.2892 3.57113Q73.3571 3.63901 73.4313 3.69991Q73.5055 3.7608 73.5853 3.81413Q73.6651 3.86747 73.7497 3.91272Q73.8344 3.95797 73.9231 3.9947Q74.0118 4.03144 74.1036 4.0593Q74.1955 4.08717 74.2896 4.1059Q74.3838 4.12463 74.4793 4.13403Q74.5749 4.14344 74.6709 4.14344L81.9679 4.14344Q82.0639 4.14344 82.1594 4.13403Q82.2549 4.12463 82.349 4.1059Q82.4432 4.08717 82.5351 4.0593Q82.6269 4.03144 82.7156 3.9947Q82.8043 3.95797 82.889 3.91272Q82.9736 3.86747 83.0534 3.81413Q83.1332 3.7608 83.2075 3.69991Q83.2817 3.63901 83.3495 3.57113Q83.4174 3.50325 83.4783 3.42905Q83.5392 3.35484 83.5925 3.27503Q83.6459 3.19521 83.6911 3.11055Q83.7364 3.02589 83.7731 2.93721Q83.8099 2.84852 83.8377 2.75666Q83.8656 2.6648 83.8843 2.57065Q83.903 2.4765 83.9125 2.38097Q83.9219 2.28544 83.9219 2.18944L83.9219 1.954Q83.9219 1.85801 83.9125 1.76247Q83.903 1.66694 83.8843 1.57279Q83.8656 1.47864 83.8377 1.38678Q83.8099 1.29492 83.7731 1.20624Q83.7364 1.11755 83.6911 1.03289Q83.6459 0.948232 83.5925 0.868416Q83.5392 0.7886 83.4783 0.714396Q83.4174 0.640191 83.3495 0.572313Q83.2817 0.504435 83.2075 0.443538Q83.1332 0.38264 83.0534 0.329308Q82.9736 0.275977 82.889 0.230726Q82.8043 0.185475 82.7156 0.148739Q82.6269 0.112004 82.5351 0.0841386Q82.4432 0.056273 82.3491 0.0375456Q82.2549 0.0188181 82.1594 0.00940904Q82.0639 0 81.9679 0Z" transform="translate(0.07854643 28.13724)" id="Combined-Shape" fill="#B7A291" fill-rule="evenodd" stroke="none" />
    <path d="M6.669 0L63.5463 0Q63.71 0 63.8735 0.0080331Q64.037 0.0160662 64.2 0.0321131Q64.3629 0.0481599 64.5248 0.0721819Q64.6868 0.0962038 64.8473 0.128143Q65.0079 0.160082 65.1667 0.199862Q65.3255 0.239641 65.4822 0.287165Q65.6388 0.334689 65.793 0.389843Q65.9471 0.444996 66.0984 0.507647Q66.2496 0.570298 66.3976 0.640295Q66.5456 0.710292 66.69 0.787467Q66.8344 0.864642 66.9748 0.948808Q67.1152 1.03297 67.2514 1.12393Q67.3875 1.21488 67.519 1.31241Q67.6505 1.40993 67.777 1.51379Q67.9036 1.61765 68.0249 1.7276Q68.1462 1.83754 68.262 1.9533Q68.3777 2.06907 68.4877 2.19037Q68.5976 2.31168 68.7015 2.43823Q68.8053 2.56478 68.9029 2.69628Q69.0004 2.82778 69.0913 2.9639Q69.1823 3.10003 69.2665 3.24045Q69.3506 3.38087 69.4278 3.52525Q69.505 3.66964 69.575 3.81763Q69.645 3.96563 69.7076 4.11688Q69.7703 4.26814 69.8254 4.42228Q69.8806 4.57643 69.9281 4.73309Q69.9756 4.88976 70.0154 5.04856Q70.0552 5.20737 70.0871 5.36794Q70.1191 5.52851 70.1431 5.69045Q70.1671 5.8524 70.1832 6.01532Q70.1992 6.17825 70.2072 6.34177Q70.2153 6.50529 70.2153 6.669L70.2153 66.9896Q70.2153 67.1533 70.2072 67.3168Q70.1992 67.4804 70.1832 67.6433Q70.1671 67.8062 70.1431 67.9681Q70.1191 68.1301 70.0871 68.2906Q70.0552 68.4512 70.0154 68.61Q69.9756 68.7688 69.9281 68.9255Q69.8806 69.0822 69.8254 69.2363Q69.7703 69.3904 69.7076 69.5417Q69.645 69.693 69.575 69.841Q69.505 69.989 69.4278 70.1333Q69.3506 70.2777 69.2665 70.4182Q69.1823 70.5586 69.0913 70.6947Q69.0004 70.8308 68.9029 70.9623Q68.8053 71.0938 68.7015 71.2204Q68.5976 71.3469 68.4877 71.4682Q68.3777 71.5895 68.262 71.7053Q68.1462 71.8211 68.0249 71.931Q67.9036 72.0409 67.777 72.1448Q67.6505 72.2487 67.519 72.3462Q67.3875 72.4437 67.2514 72.5347Q67.1152 72.6256 66.9748 72.7098Q66.8344 72.794 66.69 72.8711Q66.5456 72.9483 66.3976 73.0183Q66.2496 73.0883 66.0984 73.1509Q65.9471 73.2136 65.793 73.2688Q65.6388 73.3239 65.4822 73.3714Q65.3255 73.4189 65.1667 73.4587Q65.0079 73.4985 64.8473 73.5304Q64.6868 73.5624 64.5248 73.5864Q64.3629 73.6104 64.2 73.6265Q64.037 73.6425 63.8735 73.6506Q63.71 73.6586 63.5463 73.6586L6.669 73.6586Q6.50529 73.6586 6.34177 73.6506Q6.17825 73.6425 6.01532 73.6265Q5.8524 73.6104 5.69045 73.5864Q5.52851 73.5624 5.36794 73.5304Q5.20737 73.4985 5.04856 73.4587Q4.88976 73.4189 4.73309 73.3714Q4.57643 73.3239 4.42228 73.2688Q4.26814 73.2136 4.11688 73.1509Q3.96563 73.0883 3.81763 73.0183Q3.66964 72.9483 3.52525 72.8711Q3.38087 72.794 3.24045 72.7098Q3.10003 72.6256 2.9639 72.5347Q2.82778 72.4437 2.69628 72.3462Q2.56478 72.2487 2.43823 72.1448Q2.31168 72.0409 2.19037 71.931Q2.06907 71.8211 1.9533 71.7053Q1.83754 71.5895 1.7276 71.4682Q1.61765 71.3469 1.51379 71.2204Q1.40993 71.0938 1.31241 70.9623Q1.21488 70.8308 1.12393 70.6947Q1.03297 70.5586 0.948808 70.4182Q0.864642 70.2777 0.787467 70.1333Q0.710292 69.989 0.640295 69.841Q0.570298 69.693 0.507647 69.5417Q0.444996 69.3904 0.389843 69.2363Q0.334689 69.0822 0.287165 68.9255Q0.239641 68.7688 0.199862 68.61Q0.160082 68.4512 0.128143 68.2906Q0.0962038 68.1301 0.0721819 67.9681Q0.0481599 67.8062 0.0321131 67.6433Q0.0160662 67.4804 0.0080331 67.3168Q0 67.1533 0 66.9896L0 6.669Q0 6.50529 0.0080331 6.34177Q0.0160662 6.17825 0.0321131 6.01532Q0.0481599 5.8524 0.0721819 5.69045Q0.0962038 5.52851 0.128143 5.36794Q0.160082 5.20737 0.199862 5.04856Q0.239641 4.88976 0.287165 4.73309Q0.334689 4.57643 0.389843 4.42228Q0.444996 4.26814 0.507647 4.11688Q0.570298 3.96563 0.640295 3.81763Q0.710292 3.66964 0.787467 3.52525Q0.864642 3.38087 0.948808 3.24045Q1.03297 3.10003 1.12393 2.9639Q1.21488 2.82778 1.31241 2.69628Q1.40993 2.56478 1.51379 2.43823Q1.61765 2.31168 1.7276 2.19037Q1.83754 2.06907 1.9533 1.9533Q2.06907 1.83754 2.19037 1.7276Q2.31168 1.61765 2.43823 1.51379Q2.56478 1.40993 2.69628 1.31241Q2.82778 1.21488 2.9639 1.12393Q3.10003 1.03297 3.24045 0.948808Q3.38087 0.864642 3.52525 0.787467Q3.66964 0.710292 3.81763 0.640295Q3.96563 0.570298 4.11688 0.507647Q4.26814 0.444996 4.42228 0.389843Q4.57643 0.334689 4.73309 0.287165Q4.88976 0.239641 5.04856 0.199862Q5.20737 0.160082 5.36794 0.128143Q5.52851 0.0962038 5.69045 0.0721819Q5.8524 0.0481599 6.01532 0.0321131Q6.17825 0.0160662 6.34177 0.0080331Q6.50529 0 6.669 0Z" transform="translate(6.824495 5.402566)" id="Rectangle-2-Copy-3" fill="#E75B80" stroke="none" />
    <path d="M2.759 0L11.0775 0Q11.2131 0 11.348 0.0132853Q11.4829 0.0265707 11.6158 0.0530134Q11.7487 0.0794561 11.8784 0.118802Q12.0081 0.158147 12.1334 0.210016Q12.2586 0.261886 12.3781 0.325779Q12.4977 0.389673 12.6104 0.464975Q12.7231 0.540278 12.8278 0.626264Q12.9326 0.71225 13.0285 0.808092Q13.1243 0.903934 13.2103 1.00871Q13.2963 1.11348 13.3716 1.22618Q13.4469 1.33888 13.5108 1.45842Q13.5747 1.57795 13.6265 1.70318Q13.6784 1.8284 13.7177 1.9581Q13.7571 2.08781 13.7835 2.22075Q13.81 2.35368 13.8233 2.48857Q13.8366 2.62346 13.8365 2.759L13.8365 11.6999Q13.8366 11.8354 13.8233 11.9703Q13.81 12.1052 13.7835 12.2382Q13.7571 12.3711 13.7177 12.5008Q13.6784 12.6305 13.6265 12.7557Q13.5747 12.881 13.5108 13.0005Q13.4469 13.12 13.3716 13.2327Q13.2963 13.3454 13.2103 13.4502Q13.1243 13.555 13.0285 13.6508Q12.9326 13.7467 12.8278 13.8326Q12.7231 13.9186 12.6104 13.9939Q12.4977 14.0692 12.3781 14.1331Q12.2586 14.197 12.1334 14.2489Q12.0081 14.3008 11.8784 14.3401Q11.7487 14.3794 11.6158 14.4059Q11.4829 14.4323 11.348 14.4456Q11.2131 14.4589 11.0775 14.4589L2.759 14.4589Q2.62346 14.4589 2.48857 14.4456Q2.35368 14.4323 2.22075 14.4059Q2.08781 14.3794 1.9581 14.3401Q1.8284 14.3008 1.70318 14.2489Q1.57795 14.197 1.45842 14.1331Q1.33888 14.0692 1.22618 13.9939Q1.11348 13.9186 1.00871 13.8326Q0.903934 13.7467 0.808092 13.6508Q0.71225 13.555 0.626264 13.4502Q0.540278 13.3454 0.464975 13.2327Q0.389673 13.12 0.325779 13.0005Q0.261886 12.881 0.210016 12.7557Q0.158147 12.6305 0.118802 12.5008Q0.0794561 12.3711 0.0530134 12.2382Q0.0265707 12.1052 0.0132853 11.9703Q0 11.8354 0 11.6999L0 2.759Q0 2.62346 0.0132853 2.48857Q0.0265707 2.35368 0.0530134 2.22075Q0.0794561 2.08781 0.118802 1.9581Q0.158147 1.8284 0.210016 1.70318Q0.261886 1.57795 0.325779 1.45842Q0.389673 1.33888 0.464975 1.22618Q0.540278 1.11348 0.626264 1.00871Q0.712251 0.903934 0.808092 0.808092Q0.903934 0.71225 1.00871 0.626264Q1.11348 0.540278 1.22618 0.464975Q1.33888 0.389673 1.45842 0.325779Q1.57795 0.261886 1.70318 0.210016Q1.8284 0.158147 1.9581 0.118802Q2.08781 0.0794561 2.22075 0.0530134Q2.35368 0.0265707 2.48857 0.0132853Q2.62346 0 2.759 0L2.759 0Z" transform="translate(3.074736 48.33194)" id="Rectangle-2-Copy-6" fill="#CC4C6D" stroke="none" />
    <path d="M1.609 0L12.2275 0Q12.3066 0 12.3853 0.00774777Q12.4639 0.0154955 12.5414 0.0309165Q12.619 0.0463374 12.6946 0.069283Q12.7703 0.0922286 12.8433 0.122478Q12.9163 0.152727 12.986 0.189989Q13.0557 0.22725 13.1215 0.271165Q13.1872 0.31508 13.2483 0.365226Q13.3094 0.415372 13.3653 0.471265Q13.4212 0.527158 13.4713 0.588261Q13.5215 0.649364 13.5654 0.715087Q13.6093 0.780811 13.6466 0.850523Q13.6838 0.920234 13.7141 0.993262Q13.7443 1.06629 13.7673 1.14193Q13.7902 1.21757 13.8056 1.2951Q13.8211 1.37263 13.8288 1.45129Q13.8366 1.52995 13.8365 1.609L13.8365 12.8499Q13.8366 12.9289 13.8288 13.0076Q13.8211 13.0863 13.8056 13.1638Q13.7902 13.2413 13.7673 13.317Q13.7443 13.3926 13.7141 13.4656Q13.6838 13.5387 13.6466 13.6084Q13.6093 13.6781 13.5654 13.7438Q13.5215 13.8095 13.4713 13.8706Q13.4212 13.9317 13.3653 13.9876Q13.3094 14.0435 13.2483 14.0937Q13.1872 14.1438 13.1215 14.1877Q13.0557 14.2317 12.986 14.2689Q12.9163 14.3062 12.8433 14.3364Q12.7703 14.3667 12.6946 14.3896Q12.619 14.4126 12.5414 14.428Q12.4639 14.4434 12.3853 14.4512Q12.3066 14.4589 12.2275 14.4589L1.609 14.4589Q1.52995 14.4589 1.45129 14.4512Q1.37263 14.4434 1.2951 14.428Q1.21757 14.4126 1.14193 14.3896Q1.06629 14.3667 0.993262 14.3364Q0.920234 14.3062 0.850523 14.2689Q0.780811 14.2317 0.715087 14.1877Q0.649364 14.1438 0.588261 14.0937Q0.527158 14.0435 0.471265 13.9876Q0.415372 13.9317 0.365226 13.8706Q0.31508 13.8095 0.271165 13.7438Q0.22725 13.6781 0.189989 13.6084Q0.152727 13.5387 0.122478 13.4656Q0.0922286 13.3926 0.069283 13.317Q0.0463374 13.2413 0.0309165 13.1638Q0.0154955 13.0863 0.00774777 13.0076Q0 12.9289 0 12.8499L0 1.609Q0 1.52995 0.00774777 1.45129Q0.0154955 1.37263 0.0309165 1.2951Q0.0463374 1.21757 0.069283 1.14193Q0.0922286 1.06629 0.122478 0.993262Q0.152727 0.920234 0.189989 0.850523Q0.22725 0.780811 0.271165 0.715087Q0.31508 0.649364 0.365226 0.588261Q0.415372 0.527158 0.471265 0.471265Q0.527158 0.415372 0.588261 0.365226Q0.649364 0.31508 0.715088 0.271165Q0.780811 0.22725 0.850523 0.189989Q0.920234 0.152727 0.993262 0.122478Q1.06629 0.0922286 1.14193 0.069283Q1.21757 0.0463374 1.2951 0.0309165Q1.37263 0.0154955 1.45129 0.00774777Q1.52996 0 1.609 0L1.609 0Z" transform="translate(14.86765 2.310997)" id="Rectangle-2-Copy-7" fill="#949494" stroke="none" />
    <path d="M21.9359 11.7911L6.669 11.7911Q6.50529 11.7911 6.34177 11.7831Q6.17825 11.7751 6.01532 11.759Q5.8524 11.743 5.69045 11.719Q5.52851 11.6949 5.36794 11.663Q5.20737 11.6311 5.04856 11.5913Q4.88976 11.5515 4.73309 11.504Q4.57643 11.4565 4.42228 11.4013Q4.26814 11.3461 4.11688 11.2835Q3.96563 11.2208 3.81763 11.1508Q3.66964 11.0808 3.52525 11.0037Q3.38087 10.9265 3.24045 10.8423Q3.10003 10.7582 2.9639 10.6672Q2.82778 10.5763 2.69628 10.4787Q2.56478 10.3812 2.43823 10.2773Q2.31168 10.1735 2.19037 10.0635Q2.06907 9.9536 1.9533 9.83784Q1.83754 9.72207 1.7276 9.60077Q1.61765 9.47946 1.51379 9.35291Q1.40993 9.22636 1.31241 9.09486Q1.21488 8.96336 1.12393 8.82724Q1.03297 8.69112 0.948808 8.55069Q0.864642 8.41027 0.787467 8.26589Q0.710292 8.1215 0.640295 7.97351Q0.570298 7.82551 0.507647 7.67426Q0.444996 7.523 0.389843 7.36886Q0.334689 7.21472 0.287165 7.05805Q0.239641 6.90138 0.199862 6.74258Q0.160082 6.58377 0.128143 6.4232Q0.0962038 6.26263 0.0721819 6.10069Q0.0481599 5.93875 0.0321131 5.77582Q0.0160662 5.61289 0.0080331 5.44938Q0 5.28586 0 5.12214L0 0L21.9359 0L21.9359 11.7911Z" transform="translate(6.824495 67.27002)" id="Combined-Shape" fill="#CC4C6D" fill-rule="evenodd" stroke="none" />
    <path d="M21.8804 11.7911L3.449 11.7911Q3.27956 11.7911 3.11094 11.7745Q2.94232 11.7579 2.77613 11.7249Q2.60995 11.6918 2.44781 11.6426Q2.28567 11.5934 2.12912 11.5286Q1.97258 11.4638 1.82315 11.3839Q1.67372 11.304 1.53284 11.2099Q1.39196 11.1157 1.26098 11.0083Q1.13 10.9008 1.01019 10.781Q0.890378 10.6611 0.782887 10.5302Q0.675396 10.3992 0.581261 10.2583Q0.487126 10.1174 0.407254 9.96799Q0.327381 9.81856 0.262539 9.66202Q0.197698 9.50548 0.148513 9.34334Q0.0993274 9.18119 0.0662716 9.01501Q0.0332158 8.84883 0.0166079 8.68021Q0 8.51158 0 8.34214L0 0L18.4869 0Q18.6563 0 18.8249 0.0166079Q18.9936 0.0332158 19.1597 0.0662716Q19.3259 0.0993274 19.4881 0.148513Q19.6502 0.197698 19.8068 0.262539Q19.9633 0.327381 20.1127 0.407254Q20.2622 0.487126 20.403 0.581261Q20.5439 0.675396 20.6749 0.782887Q20.8059 0.890378 20.9257 1.01019Q21.0455 1.13 21.153 1.26098Q21.2605 1.39196 21.3546 1.53284Q21.4487 1.67372 21.5286 1.82315Q21.6085 1.97258 21.6733 2.12912Q21.7382 2.28567 21.7874 2.44781Q21.8365 2.60995 21.8696 2.77613Q21.9027 2.94232 21.9193 3.11094Q21.9359 3.27956 21.9359 3.449L21.9359 11.1749Q21.9359 11.4855 21.8804 11.7911Z" transform="translate(11.68581 62.79084)" id="Combined-Shape-Copy-5" fill="#E75B80" fill-rule="evenodd" stroke="none" />
    <path d="M70.2153 22.7347L-1.77636e-15 22.7347L0 6.669Q0 6.50529 0.0080331 6.34177Q0.0160662 6.17825 0.0321131 6.01532Q0.0481599 5.8524 0.0721819 5.69045Q0.0962038 5.52851 0.128143 5.36794Q0.160082 5.20737 0.199862 5.04856Q0.239641 4.88976 0.287165 4.73309Q0.334689 4.57643 0.389843 4.42228Q0.444996 4.26814 0.507647 4.11688Q0.570298 3.96563 0.640295 3.81763Q0.710292 3.66964 0.787467 3.52525Q0.864642 3.38087 0.948808 3.24045Q1.03297 3.10003 1.12393 2.9639Q1.21488 2.82778 1.31241 2.69628Q1.40993 2.56478 1.51379 2.43823Q1.61765 2.31168 1.7276 2.19037Q1.83754 2.06907 1.9533 1.9533Q2.06907 1.83754 2.19037 1.7276Q2.31168 1.61765 2.43823 1.51379Q2.56478 1.40993 2.69628 1.31241Q2.82778 1.21488 2.9639 1.12393Q3.10003 1.03297 3.24045 0.948808Q3.38087 0.864642 3.52525 0.787467Q3.66964 0.710292 3.81763 0.640295Q3.96563 0.570298 4.11688 0.507647Q4.26814 0.444996 4.42228 0.389843Q4.57643 0.334689 4.73309 0.287165Q4.88976 0.239641 5.04856 0.199862Q5.20737 0.160082 5.36794 0.128143Q5.52851 0.0962038 5.69045 0.0721819Q5.8524 0.0481599 6.01532 0.0321131Q6.17825 0.0160662 6.34177 0.0080331Q6.50529 0 6.669 0L63.5463 0Q63.71 0 63.8735 0.0080331Q64.037 0.0160662 64.2 0.0321131Q64.3629 0.0481599 64.5248 0.0721819Q64.6868 0.0962038 64.8473 0.128143Q65.0079 0.160082 65.1667 0.199862Q65.3255 0.239641 65.4822 0.287165Q65.6388 0.334689 65.793 0.389843Q65.9471 0.444996 66.0984 0.507647Q66.2496 0.570298 66.3976 0.640295Q66.5456 0.710292 66.69 0.787467Q66.8344 0.864642 66.9748 0.948808Q67.1152 1.03297 67.2514 1.12393Q67.3875 1.21488 67.519 1.31241Q67.6505 1.40993 67.777 1.51379Q67.9036 1.61765 68.0249 1.7276Q68.1462 1.83754 68.262 1.9533Q68.3777 2.06907 68.4877 2.19037Q68.5976 2.31168 68.7015 2.43823Q68.8053 2.56478 68.9029 2.69628Q69.0004 2.82778 69.0913 2.9639Q69.1823 3.10003 69.2665 3.24045Q69.3506 3.38087 69.4278 3.52525Q69.505 3.66964 69.575 3.81763Q69.645 3.96563 69.7076 4.11688Q69.7703 4.26814 69.8254 4.42228Q69.8806 4.57643 69.9281 4.73309Q69.9756 4.88976 70.0154 5.04856Q70.0552 5.20737 70.0871 5.36794Q70.1191 5.52851 70.1431 5.69045Q70.1671 5.8524 70.1832 6.01532Q70.1992 6.17825 70.2072 6.34177Q70.2153 6.50529 70.2153 6.669L70.2153 22.7347Z" transform="translate(6.824495 5.402566)" id="Combined-Shape-Copy-4" fill="#E8E7E6" fill-rule="evenodd" stroke="none" />
    <path d="M30.7064 11.8137L5.289 11.8137Q5.15916 11.8137 5.02948 11.8073Q4.8998 11.801 4.77059 11.7882Q4.64137 11.7755 4.51294 11.7565Q4.38451 11.7374 4.25717 11.7121Q4.12982 11.6868 4.00388 11.6552Q3.87793 11.6237 3.75368 11.586Q3.62944 11.5483 3.50719 11.5045Q3.38494 11.4608 3.26499 11.4111Q3.14503 11.3614 3.02766 11.3059Q2.91029 11.2504 2.79578 11.1892Q2.68128 11.128 2.56991 11.0612Q2.45854 10.9945 2.35059 10.9223Q2.24263 10.8502 2.13835 10.7729Q2.03406 10.6955 1.93369 10.6132Q1.83333 10.5308 1.73712 10.4436Q1.64092 10.3564 1.54911 10.2646Q1.4573 10.1728 1.37011 10.0766Q1.28292 9.98038 1.20055 9.88001Q1.11818 9.77965 1.04084 9.67536Q0.963491 9.57108 0.891357 9.46312Q0.819223 9.35516 0.752473 9.2438Q0.685723 9.13243 0.624518 9.01793Q0.563313 8.90342 0.507801 8.78605Q0.452288 8.66867 0.402601 8.54872Q0.352914 8.42877 0.309173 8.30652Q0.265432 8.18427 0.227743 8.06002Q0.190053 7.93578 0.158505 7.80983Q0.126957 7.68388 0.101627 7.55654Q0.0762966 7.4292 0.0572454 7.30077Q0.0381943 7.17233 0.025468 7.04312Q0.0127417 6.91391 0.00637083 6.78423Q0 6.65455 0 6.52471L0 0L24.0374 0Q24.2011 0 24.3647 0.0080331Q24.5282 0.0160662 24.6911 0.0321131Q24.854 0.0481599 25.016 0.0721819Q25.1779 0.0962038 25.3385 0.128143Q25.499 0.160082 25.6579 0.199862Q25.8167 0.239641 25.9733 0.287165Q26.13 0.334689 26.2841 0.389843Q26.4383 0.444996 26.5895 0.507647Q26.7408 0.570298 26.8888 0.640295Q27.0368 0.710292 27.1812 0.787467Q27.3255 0.864642 27.466 0.948808Q27.6064 1.03297 27.7425 1.12393Q27.8786 1.21488 28.0101 1.31241Q28.1416 1.40993 28.2682 1.51379Q28.3947 1.61765 28.516 1.7276Q28.6374 1.83754 28.7531 1.9533Q28.8689 2.06907 28.9788 2.19037Q29.0888 2.31168 29.1926 2.43823Q29.2965 2.56478 29.394 2.69628Q29.4915 2.82778 29.5825 2.9639Q29.6734 3.10003 29.7576 3.24045Q29.8418 3.38087 29.919 3.52525Q29.9961 3.66964 30.0661 3.81763Q30.1361 3.96563 30.1988 4.11688Q30.2614 4.26814 30.3166 4.42228Q30.3717 4.57643 30.4193 4.73309Q30.4668 4.88976 30.5066 5.04856Q30.5463 5.20737 30.5783 5.36794Q30.6102 5.52851 30.6342 5.69045Q30.6583 5.8524 30.6743 6.01532Q30.6904 6.17825 30.6984 6.34177Q30.7064 6.50529 30.7064 6.669L30.7064 11.8137Z" transform="translate(46.33335 5.402566)" id="Combined-Shape" fill="#D3D3D3" fill-rule="evenodd" stroke="none" />
    <path d="M29.6054 59.2108C45.956 59.2108 59.2108 45.956 59.2108 29.6054C59.2108 13.2548 45.956 0 29.6054 0C13.2548 0 0 13.2548 0 29.6054C0 45.956 13.2548 59.2108 29.6054 59.2108Z" transform="translate(19.7837 23.06314)" id="Oval" fill="#CC4C6D" stroke="none" />
    <path d="M27.351 54.7019C42.4565 54.7019 54.7019 42.4565 54.7019 27.351C54.7019 12.2454 42.4565 0 27.351 0C12.2454 0 0 12.2454 0 27.351C0 42.4565 12.2454 54.7019 27.351 54.7019Z" transform="translate(22.03817 25.3176)" id="Oval-Copy" fill="#D3D3D3" stroke="none" />
    <path d="M22.2338 44.4676C34.5132 44.4676 44.4676 34.5132 44.4676 22.2338C44.4676 9.95441 34.5132 0 22.2338 0C9.95441 0 0 9.95441 0 22.2338C0 34.5132 9.95441 44.4676 22.2338 44.4676Z" transform="translate(27.15532 30.43475)" id="Oval-Copy-2" fill="#949494" stroke="#FFFFFF" stroke-width="0.575" />
    <path d="M19.5493 39.0987C30.3461 39.0987 39.0987 30.3461 39.0987 19.5493C39.0987 8.75254 30.3461 0 19.5493 0C8.75254 0 0 8.75254 0 19.5493C0 30.3461 8.75254 39.0987 19.5493 39.0987Z" transform="translate(29.83978 33.11921)" id="Oval-Copy-3" fill="#BABDBE" stroke="none" />
    <path d="M0 0C0 9.86873 8.00019 17.8689 17.8689 17.8689L17.8689 17.8689C27.7376 17.8689 35.7378 9.86873 35.7378 0" transform="translate(31.52021 52.66856)" id="Oval-Copy-5" fill="#D5D5D5" stroke="none" />
    <path d="M12.3061 24.6123C19.1026 24.6123 24.6123 19.1026 24.6123 12.3061C24.6123 5.50965 19.1026 0 12.3061 0C5.50965 0 0 5.50965 0 12.3061C0 19.1026 5.50965 24.6123 12.3061 24.6123Z" transform="translate(37.08298 40.36242)" id="Oval-Copy-4" fill="#E75B80" stroke="none" />
    <path d="M0 0C0 2.07028 1.67829 3.74857 3.74857 3.74857C5.81884 3.74857 7.49714 2.07028 7.49714 0" transform="translate(54.52946 58.09818)" id="Oval-Copy-13" fill="#E8E7E6" stroke="none" />
    <path d="M0 0C0 3.89624 3.15853 7.05477 7.05477 7.05477C10.951 7.05477 14.1095 3.89624 14.1095 0" transform="translate(31.52021 43.80368)" id="Oval-Copy-14" fill="#E8E7E6" stroke="none" />
    <path d="M3.449 0L15.4616 0Q15.6311 0 15.7997 0.0166079Q15.9683 0.0332158 16.1345 0.0662716Q16.3007 0.0993274 16.4628 0.148513Q16.625 0.197698 16.7815 0.262539Q16.9381 0.327381 17.0875 0.407254Q17.2369 0.487126 17.3778 0.581261Q17.5187 0.675396 17.6497 0.782887Q17.7806 0.890378 17.9005 1.01019Q18.0203 1.13 18.1278 1.26098Q18.2353 1.39196 18.3294 1.53284Q18.4235 1.67372 18.5034 1.82315Q18.5833 1.97258 18.6481 2.12912Q18.713 2.28567 18.7621 2.44781Q18.8113 2.60995 18.8444 2.77613Q18.8774 2.94232 18.894 3.11094Q18.9107 3.27956 18.9107 3.449L18.9107 11.0099Q18.9107 11.1793 18.894 11.348Q18.8774 11.5166 18.8444 11.6828Q18.8113 11.849 18.7621 12.0111Q18.713 12.1732 18.6481 12.3298Q18.5833 12.4863 18.5034 12.6358Q18.4235 12.7852 18.3294 12.9261Q18.2353 13.0669 18.1278 13.1979Q18.0203 13.3289 17.9005 13.4487Q17.7806 13.5685 17.6497 13.676Q17.5187 13.7835 17.3778 13.8776Q17.2369 13.9718 17.0875 14.0516Q16.9381 14.1315 16.7815 14.1964Q16.625 14.2612 16.4628 14.3104Q16.3007 14.3596 16.1345 14.3926Q15.9683 14.4257 15.7997 14.4423Q15.6311 14.4589 15.4616 14.4589L3.449 14.4589Q3.27956 14.4589 3.11094 14.4423Q2.94232 14.4257 2.77613 14.3926Q2.60995 14.3596 2.44781 14.3104Q2.28567 14.2612 2.12912 14.1964Q1.97258 14.1315 1.82315 14.0516Q1.67372 13.9718 1.53284 13.8776Q1.39196 13.7835 1.26098 13.676Q1.13 13.5685 1.01019 13.4487Q0.890378 13.3289 0.782887 13.1979Q0.675396 13.0669 0.581261 12.9261Q0.487126 12.7852 0.407254 12.6357Q0.327381 12.4863 0.262539 12.3298Q0.197698 12.1732 0.148513 12.0111Q0.0993274 11.849 0.0662716 11.6828Q0.0332158 11.5166 0.0166079 11.348Q0 11.1793 0 11.0099L0 3.449Q0 3.27956 0.0166079 3.11094Q0.0332158 2.94232 0.0662716 2.77613Q0.0993274 2.60995 0.148513 2.44781Q0.197698 2.28567 0.262539 2.12912Q0.327381 1.97258 0.407254 1.82315Q0.487126 1.67372 0.581261 1.53284Q0.675396 1.39196 0.782887 1.26098Q0.890378 1.13 1.01019 1.01019Q1.13 0.890378 1.26098 0.782887Q1.39196 0.675396 1.53284 0.581261Q1.67372 0.487126 1.82315 0.407254Q1.97258 0.327381 2.12912 0.262539Q2.28567 0.197698 2.44781 0.148513Q2.60995 0.0993274 2.77613 0.0662716Q2.94232 0.0332158 3.11094 0.0166079Q3.27956 0 3.449 0Z" transform="translate(11.69913 9.588054)" id="Rectangle-2" fill="#BABDBE" stroke="none" />
    <g id="Oval-3" transform="translate(13.16153 10.77785)">
      <path d="M3.449 0L12.6653 0Q12.8347 0 13.0034 0.0166079Q13.172 0.0332158 13.3382 0.0662716Q13.5043 0.0993274 13.6665 0.148513Q13.8286 0.197698 13.9852 0.262539Q14.1417 0.327381 14.2911 0.407254Q14.4406 0.487126 14.5815 0.581261Q14.7223 0.675396 14.8533 0.782887Q14.9843 0.890378 15.1041 1.01019Q15.2239 1.13 15.3314 1.26098Q15.4389 1.39196 15.533 1.53284Q15.6272 1.67372 15.707 1.82315Q15.7869 1.97258 15.8518 2.12912Q15.9166 2.28567 15.9658 2.44781Q16.015 2.60995 16.048 2.77613Q16.0811 2.94232 16.0977 3.11094Q16.1143 3.27956 16.1143 3.449L16.1143 8.87184Q16.1143 9.04128 16.0977 9.2099Q16.0811 9.37852 16.048 9.54471Q16.015 9.71089 15.9658 9.87303Q15.9166 10.0352 15.8518 10.1917Q15.7869 10.3483 15.707 10.4977Q15.6272 10.6471 15.533 10.788Q15.4389 10.9289 15.3314 11.0599Q15.2239 11.1908 15.1041 11.3107Q14.9843 11.4305 14.8533 11.538Q14.7223 11.6454 14.5815 11.7396Q14.4406 11.8337 14.2911 11.9136Q14.1417 11.9935 13.9852 12.0583Q13.8286 12.1231 13.6665 12.1723Q13.5043 12.2215 13.3382 12.2546Q13.172 12.2876 13.0034 12.3042Q12.8347 12.3208 12.6653 12.3208L3.449 12.3208Q3.27956 12.3208 3.11094 12.3042Q2.94232 12.2876 2.77613 12.2546Q2.60995 12.2215 2.44781 12.1723Q2.28567 12.1231 2.12912 12.0583Q1.97258 11.9935 1.82315 11.9136Q1.67372 11.8337 1.53284 11.7396Q1.39196 11.6454 1.26098 11.538Q1.13 11.4305 1.01019 11.3107Q0.890378 11.1908 0.782887 11.0599Q0.675396 10.9289 0.581261 10.788Q0.487126 10.6471 0.407254 10.4977Q0.327381 10.3483 0.262539 10.1917Q0.197698 10.0352 0.148513 9.87303Q0.0993274 9.71089 0.0662716 9.54471Q0.0332158 9.37852 0.0166079 9.2099Q0 9.04128 0 8.87184L0 3.449Q0 3.27956 0.0166079 3.11094Q0.0332158 2.94232 0.0662716 2.77613Q0.0993274 2.60995 0.148513 2.44781Q0.197698 2.28567 0.262539 2.12912Q0.327381 1.97258 0.407254 1.82315Q0.487126 1.67372 0.581261 1.53284Q0.675396 1.39196 0.782887 1.26098Q0.890378 1.13 1.01019 1.01019Q1.13 0.890378 1.26098 0.782887Q1.39196 0.675396 1.53284 0.581261Q1.67372 0.487126 1.82315 0.407254Q1.97258 0.327381 2.12912 0.262539Q2.28567 0.197698 2.44781 0.148513Q2.60995 0.0993274 2.77613 0.0662716Q2.94232 0.0332158 3.11094 0.0166079Q3.27956 0 3.449 0L3.449 0Z" id="Mask" fill="#707578" stroke="none" />
      <g clip-path="url(#mask_1)">
        <path d="M6.94636 13.8927C10.7827 13.8927 13.8927 10.7827 13.8927 6.94636C13.8927 3.10999 10.7827 0 6.94636 0C3.10999 0 0 3.10999 0 6.94636C0 10.7827 3.10999 13.8927 6.94636 13.8927Z" transform="translate(1.21866 -0.7311959)" id="Oval-3" fill="#E8E7E6" stroke="none" />
      </g>
    </g>
    <path d="M0 0C0 3.09418 2.50833 5.6025 5.6025 5.6025C8.69668 5.6025 11.205 3.09418 11.205 0" transform="translate(15.84258 17.11488)" id="Oval-Copy-15" fill="#D3D3D3" stroke="none" />
    <path d="M3.75738 7.51475C5.83252 7.51475 7.51475 5.83252 7.51475 3.75738C7.51475 1.68223 5.83252 0 3.75738 0C1.68223 0 0 1.68223 0 3.75738C0 5.83252 1.68223 7.51475 3.75738 7.51475Z" transform="translate(17.5487 13.4589)" id="Oval-4" fill="#939393" stroke="none" />
    <path d="M1.74754 3.49508C2.71268 3.49508 3.49508 2.71268 3.49508 1.74754C3.49508 0.7824 2.71268 0 1.74754 0C0.7824 0 0 0.7824 0 1.74754C0 2.71268 0.7824 3.49508 1.74754 3.49508Z" transform="translate(17.5487 12.97143)" id="Oval-4-Copy" fill="#D3D3D3" stroke="none" />
    <path d="M3.6575 1.82875C3.6575 2.83874 2.83874 3.6575 1.82875 3.6575C0.81876 3.6575 0 2.83874 0 1.82875C0 0.81876 0.81876 0 1.82875 0C2.83874 0 3.6575 0.81876 3.6575 1.82875ZM7.31501 3.6575C8.325 3.6575 9.14376 2.83874 9.14376 1.82875C9.14376 0.81876 8.325 0 7.31501 0C6.30501 0 5.48625 0.81876 5.48625 1.82875C5.48625 2.83874 6.30501 3.6575 7.31501 3.6575ZM6.29903 6.46736C6.29903 7.47735 5.48027 8.29611 4.47028 8.29611C3.46029 8.29611 2.64153 7.47735 2.64153 6.46736C2.64153 5.45737 3.46029 4.63861 4.47028 4.63861C5.48027 4.63861 6.29903 5.45737 6.29903 6.46736Z" transform="translate(9.993011 30.20896)" id="Combined-Shape" fill="#CC4C6D" fill-rule="evenodd" stroke="none" />
    <path d="M2.92478 5.84957C4.5401 5.84957 5.84957 4.5401 5.84957 2.92478C5.84957 1.30947 4.5401 0 2.92478 0C1.30947 0 0 1.30947 0 2.92478C0 4.5401 1.30947 5.84957 2.92478 5.84957Z" transform="translate(67.61991 8.384637)" id="Oval-6" fill="#E8E7E6" stroke="none" />
  </g>
</svg>