<?xml version="1.0" encoding="utf-8"?>
<svg width="107px" height="100px" viewBox="0 0 107 100" version="1.1" xmlns:xlink="http://www.w3.org/1999/xlink" xmlns="http://www.w3.org/2000/svg">
  <desc>Created with Lunacy</desc>
  <g id="headphone" transform="translate(0.2874756 0.2874756)">
    <path d="M4.96879 56.5647C1.8071 51.0383 0 44.6373 0 37.8142C0 16.93 16.93 0 37.8142 0C58.6984 0 75.6284 16.93 75.6284 37.8142C75.6284 44.6373 73.8213 51.0383 70.6596 56.5647L64.9431 56.5647C68.6296 51.2411 70.7894 44.7799 70.7894 37.8142C70.7894 19.6025 56.0259 4.83898 37.8142 4.83898C19.6025 4.83898 4.83898 19.6025 4.83898 37.8142C4.83898 44.7799 6.99879 51.2411 10.6852 56.5647L4.96879 56.5647Z" transform="translate(15.13038 2.071345)" id="Combined-Shape" fill="#FFD241" fill-rule="evenodd" stroke="none" />
    <path d="M5.32514 60.6213C1.9367 54.6985 0 47.8385 0 40.5261C0 18.1441 18.1441 0 40.5261 0C62.908 0 81.0521 18.1441 81.0521 40.5261C81.0521 47.8385 79.1154 54.6985 75.727 60.6213L69.6006 60.6213C73.5514 54.9159 75.8661 47.9913 75.8661 40.5261C75.8661 21.0083 60.0439 5.18602 40.5261 5.18602C21.0083 5.18602 5.18602 21.0083 5.18602 40.5261C5.18602 47.9913 7.50071 54.9159 11.4516 60.6213L5.32514 60.6213Z" transform="translate(12.41848 0)" id="Combined-Shape-Copy-16" fill="#5C5C5C" fill-rule="evenodd" stroke="none" />
    <g id="Group-7-Copy" transform="matrix(0.9455186 0.3255681 -0.3255681 0.9455186 79.3493 41.13708)">
      <path d="M3.48649 0L3.48849 0Q3.65977 0 3.83023 0.0167884Q4.00068 0.0335768 4.16867 0.0669919Q4.33666 0.100407 4.50057 0.150127Q4.66447 0.199847 4.82271 0.265393Q4.98095 0.330939 5.13201 0.41168Q5.28307 0.492421 5.42548 0.58758Q5.56789 0.682738 5.7003 0.791397Q5.8327 0.900056 5.95381 1.02117Q6.07493 1.14228 6.18358 1.27468Q6.29224 1.40709 6.3874 1.5495Q6.48256 1.69191 6.5633 1.84297Q6.64404 1.99403 6.70959 2.15227Q6.77513 2.31051 6.82485 2.47442Q6.87457 2.63832 6.90799 2.80631Q6.9414 2.9743 6.95819 3.14476Q6.97498 3.31521 6.97498 3.48649L6.97498 18.339Q6.97498 18.5102 6.95819 18.6807Q6.9414 18.8511 6.90799 19.0191Q6.87457 19.1871 6.82485 19.351Q6.77513 19.5149 6.70959 19.6732Q6.64404 19.8314 6.5633 19.9825Q6.48256 20.1335 6.3874 20.2759Q6.29224 20.4184 6.18358 20.5508Q6.07493 20.6832 5.95381 20.8043Q5.8327 20.9254 5.7003 21.034Q5.56789 21.1427 5.42548 21.2379Q5.28307 21.333 5.13201 21.4138Q4.98095 21.4945 4.82271 21.5601Q4.66447 21.6256 4.50057 21.6753Q4.33666 21.725 4.16867 21.7585Q4.00068 21.7919 3.83023 21.8087Q3.65977 21.8254 3.48849 21.8254L3.48649 21.8254Q3.31521 21.8254 3.14476 21.8087Q2.9743 21.7919 2.80631 21.7585Q2.63832 21.725 2.47442 21.6753Q2.31051 21.6256 2.15227 21.5601Q1.99403 21.4945 1.84297 21.4138Q1.69191 21.333 1.5495 21.2379Q1.40709 21.1427 1.27468 21.034Q1.14228 20.9254 1.02117 20.8043Q0.900056 20.6832 0.791397 20.5508Q0.682738 20.4184 0.58758 20.2759Q0.492421 20.1335 0.41168 19.9825Q0.330939 19.8314 0.265393 19.6732Q0.199847 19.5149 0.150127 19.351Q0.100407 19.1871 0.0669919 19.0191Q0.0335768 18.8511 0.0167884 18.6807Q0 18.5102 0 18.339L0 3.48649Q0 3.31521 0.0167884 3.14476Q0.0335768 2.9743 0.0669919 2.80631Q0.100407 2.63832 0.150127 2.47442Q0.199847 2.31051 0.265393 2.15227Q0.330939 1.99403 0.41168 1.84297Q0.492421 1.69191 0.58758 1.5495Q0.682738 1.40709 0.791397 1.27468Q0.900056 1.14228 1.02117 1.02117Q1.14228 0.900056 1.27468 0.791397Q1.40709 0.682738 1.5495 0.58758Q1.69191 0.492421 1.84297 0.41168Q1.99403 0.330939 2.15227 0.265393Q2.31051 0.199847 2.47442 0.150127Q2.63832 0.100407 2.80631 0.0669919Q2.9743 0.0335768 3.14476 0.0167884Q3.31521 0 3.48649 0L3.48649 0Z" transform="translate(6.079153 3.600175)" id="Rectangle-68" fill="#414242" stroke="none" />
      <path d="M5.795 0L6.70178 0Q6.84403 0 6.98612 0.00698033Q7.12821 0.0139607 7.26978 0.0279045Q7.41136 0.0418484 7.55208 0.0627221Q7.6928 0.0835959 7.83232 0.111349Q7.97185 0.139103 8.10985 0.173669Q8.24784 0.208235 8.38398 0.249531Q8.52011 0.290826 8.65405 0.338752Q8.78799 0.386678 8.91943 0.441118Q9.05086 0.495558 9.17946 0.556382Q9.30806 0.617206 9.43352 0.684266Q9.55898 0.751327 9.681 0.824463Q9.80302 0.897598 9.9213 0.976633Q10.0396 1.05567 10.1539 1.14041Q10.2681 1.22516 10.3781 1.3154Q10.4881 1.40565 10.5935 1.50119Q10.6989 1.59672 10.7995 1.69732Q10.9001 1.79791 10.9956 1.90332Q11.0911 2.00872 11.1814 2.11869Q11.2716 2.22866 11.3564 2.34292Q11.4411 2.45719 11.5201 2.57547Q11.5992 2.69375 11.6723 2.81577Q11.7455 2.93779 11.8125 3.06326Q11.8796 3.18872 11.9404 3.31732Q12.0012 3.44592 12.0557 3.57735Q12.1101 3.70878 12.158 3.84272Q12.2059 3.97667 12.2472 4.1128Q12.2885 4.24893 12.3231 4.38693Q12.3577 4.52493 12.3854 4.66445Q12.4132 4.80398 12.4341 4.9447Q12.4549 5.08542 12.4689 5.22699Q12.4828 5.36856 12.4898 5.51065Q12.4968 5.65274 12.4968 5.795L12.4968 18.3096Q12.4968 18.4518 12.4898 18.5939Q12.4828 18.736 12.4689 18.8776Q12.4549 19.0191 12.4341 19.1599Q12.4132 19.3006 12.3854 19.4401Q12.3577 19.5796 12.3231 19.7176Q12.2885 19.8556 12.2472 19.9917Q12.2059 20.1279 12.158 20.2618Q12.1101 20.3958 12.0557 20.5272Q12.0012 20.6586 11.9404 20.7872Q11.8796 20.9158 11.8125 21.0413Q11.7454 21.1668 11.6723 21.2888Q11.5992 21.4108 11.5201 21.5291Q11.4411 21.6474 11.3564 21.7616Q11.2716 21.8759 11.1814 21.9859Q11.0911 22.0958 10.9956 22.2012Q10.9001 22.3066 10.7995 22.4072Q10.6989 22.5078 10.5935 22.6034Q10.4881 22.6989 10.3781 22.7891Q10.2681 22.8794 10.1539 22.9641Q10.0396 23.0489 9.9213 23.1279Q9.80302 23.207 9.681 23.2801Q9.55898 23.3532 9.43352 23.4203Q9.30806 23.4873 9.17946 23.5482Q9.05086 23.609 8.91943 23.6634Q8.78799 23.7179 8.65405 23.7658Q8.52011 23.8137 8.38398 23.855Q8.24784 23.8963 8.10985 23.9309Q7.97185 23.9654 7.83232 23.9932Q7.6928 24.021 7.55208 24.0418Q7.41136 24.0627 7.26978 24.0766Q7.12821 24.0906 6.98612 24.0976Q6.84403 24.1046 6.70178 24.1046L5.795 24.1046Q5.65274 24.1046 5.51065 24.0976Q5.36856 24.0906 5.22699 24.0766Q5.08542 24.0627 4.9447 24.0418Q4.80398 24.021 4.66445 23.9932Q4.52493 23.9654 4.38693 23.9309Q4.24893 23.8963 4.1128 23.855Q3.97667 23.8137 3.84272 23.7658Q3.70878 23.7179 3.57735 23.6634Q3.44592 23.609 3.31732 23.5482Q3.18872 23.4873 3.06326 23.4203Q2.93779 23.3532 2.81577 23.2801Q2.69375 23.207 2.57547 23.1279Q2.45719 23.0489 2.34292 22.9641Q2.22866 22.8794 2.11869 22.7891Q2.00872 22.6989 1.90332 22.6034Q1.79791 22.5078 1.69732 22.4072Q1.59672 22.3066 1.50119 22.2012Q1.40565 22.0958 1.3154 21.9859Q1.22516 21.8759 1.14041 21.7616Q1.05567 21.6474 0.976633 21.5291Q0.897598 21.4108 0.824463 21.2888Q0.751327 21.1668 0.684266 21.0413Q0.617206 20.9158 0.556382 20.7872Q0.495558 20.6586 0.441118 20.5272Q0.386678 20.3958 0.338752 20.2618Q0.290826 20.1279 0.249531 19.9917Q0.208235 19.8556 0.173669 19.7176Q0.139103 19.5796 0.111349 19.4401Q0.0835959 19.3006 0.0627221 19.1599Q0.0418484 19.0191 0.0279045 18.8776Q0.0139607 18.736 0.00698033 18.5939Q0 18.4518 0 18.3096L0 5.795Q0 5.65274 0.00698033 5.51065Q0.0139607 5.36856 0.0279045 5.22699Q0.0418484 5.08542 0.0627221 4.9447Q0.0835959 4.80398 0.111349 4.66445Q0.139103 4.52493 0.173669 4.38693Q0.208235 4.24893 0.249531 4.1128Q0.290826 3.97667 0.338752 3.84272Q0.386678 3.70878 0.441118 3.57735Q0.495558 3.44592 0.556382 3.31732Q0.617206 3.18872 0.684266 3.06326Q0.751327 2.93779 0.824463 2.81577Q0.897598 2.69375 0.976633 2.57547Q1.05567 2.45719 1.14041 2.34292Q1.22516 2.22866 1.3154 2.11869Q1.40565 2.00872 1.50119 1.90332Q1.59672 1.79791 1.69732 1.69732Q1.79791 1.59672 1.90332 1.50119Q2.00872 1.40565 2.11869 1.3154Q2.22866 1.22516 2.34292 1.14041Q2.45719 1.05567 2.57547 0.976633Q2.69375 0.897598 2.81577 0.824463Q2.93779 0.751327 3.06326 0.684266Q3.18872 0.617206 3.31732 0.556382Q3.44592 0.495558 3.57735 0.441118Q3.70878 0.386678 3.84272 0.338752Q3.97667 0.290826 4.1128 0.249531Q4.24893 0.208235 4.38693 0.173669Q4.52493 0.139103 4.66445 0.111349Q4.80398 0.0835959 4.9447 0.0627221Q5.08542 0.0418484 5.22699 0.0279045Q5.36856 0.0139607 5.51065 0.00698033Q5.65274 0 5.795 0Z" transform="translate(14.92465 21.30231)" id="Rectangle-66-Copy" fill="#5C5C5C" stroke="none" />
      <path d="M5.795 0L16.1843 0Q16.3265 0 16.4686 0.00698033Q16.6107 0.0139607 16.7523 0.0279045Q16.8939 0.0418484 17.0346 0.0627221Q17.1753 0.0835959 17.3148 0.111349Q17.4543 0.139103 17.5923 0.173669Q17.7303 0.208235 17.8665 0.249531Q18.0026 0.290826 18.1365 0.338752Q18.2705 0.386678 18.4019 0.441118Q18.5333 0.495558 18.6619 0.556382Q18.7906 0.617206 18.916 0.684266Q19.0415 0.751327 19.1635 0.824463Q19.2855 0.897598 19.4038 0.976633Q19.5221 1.05567 19.6363 1.14041Q19.7506 1.22516 19.8606 1.3154Q19.9705 1.40565 20.076 1.50119Q20.1814 1.59672 20.282 1.69732Q20.3825 1.79791 20.4781 1.90332Q20.5736 2.00872 20.6639 2.11869Q20.7541 2.22866 20.8389 2.34292Q20.9236 2.45719 21.0026 2.57547Q21.0817 2.69375 21.1548 2.81577Q21.2279 2.93779 21.295 3.06326Q21.3621 3.18872 21.4229 3.31732Q21.4837 3.44592 21.5381 3.57735Q21.5926 3.70878 21.6405 3.84272Q21.6884 3.97667 21.7297 4.1128Q21.771 4.24893 21.8056 4.38693Q21.8402 4.52493 21.8679 4.66445Q21.8957 4.80398 21.9165 4.9447Q21.9374 5.08542 21.9514 5.22699Q21.9653 5.36856 21.9723 5.51065Q21.9793 5.65274 21.9793 5.795L21.9793 23.7792Q21.9793 23.9215 21.9723 24.0635Q21.9653 24.2056 21.9514 24.3472Q21.9374 24.4888 21.9165 24.6295Q21.8957 24.7702 21.8679 24.9097Q21.8402 25.0493 21.8056 25.1873Q21.771 25.3253 21.7297 25.4614Q21.6884 25.5975 21.6405 25.7315Q21.5926 25.8654 21.5381 25.9968Q21.4837 26.1283 21.4229 26.2569Q21.3621 26.3855 21.295 26.5109Q21.2279 26.6364 21.1548 26.7584Q21.0817 26.8804 21.0026 26.9987Q20.9236 27.117 20.8389 27.2313Q20.7541 27.3455 20.6639 27.4555Q20.5736 27.5655 20.4781 27.6709Q20.3825 27.7763 20.282 27.8769Q20.1814 27.9775 20.076 28.073Q19.9705 28.1685 19.8606 28.2588Q19.7506 28.349 19.6363 28.4338Q19.5221 28.5185 19.4038 28.5976Q19.2855 28.6766 19.1635 28.7497Q19.0415 28.8229 18.916 28.8899Q18.7906 28.957 18.6619 29.0178Q18.5333 29.0786 18.4019 29.1331Q18.2705 29.1875 18.1365 29.2354Q18.0026 29.2834 17.8665 29.3247Q17.7303 29.366 17.5923 29.4005Q17.4543 29.4351 17.3148 29.4628Q17.1753 29.4906 17.0346 29.5115Q16.8939 29.5324 16.7523 29.5463Q16.6107 29.5602 16.4686 29.5672Q16.3265 29.5742 16.1843 29.5742L5.795 29.5742Q5.65274 29.5742 5.51065 29.5672Q5.36856 29.5602 5.22699 29.5463Q5.08542 29.5324 4.9447 29.5115Q4.80398 29.4906 4.66445 29.4628Q4.52493 29.4351 4.38693 29.4005Q4.24893 29.366 4.1128 29.3247Q3.97667 29.2834 3.84272 29.2354Q3.70878 29.1875 3.57735 29.1331Q3.44592 29.0786 3.31732 29.0178Q3.18872 28.957 3.06326 28.8899Q2.93779 28.8229 2.81577 28.7497Q2.69375 28.6766 2.57547 28.5976Q2.45719 28.5185 2.34292 28.4338Q2.22866 28.349 2.11869 28.2588Q2.00872 28.1685 1.90332 28.073Q1.79791 27.9775 1.69732 27.8769Q1.59672 27.7763 1.50119 27.6709Q1.40565 27.5655 1.3154 27.4555Q1.22516 27.3455 1.14041 27.2313Q1.05567 27.117 0.976633 26.9987Q0.897598 26.8804 0.824463 26.7584Q0.751327 26.6364 0.684266 26.5109Q0.617206 26.3855 0.556382 26.2569Q0.495558 26.1283 0.441118 25.9968Q0.386678 25.8654 0.338752 25.7315Q0.290826 25.5975 0.249531 25.4614Q0.208235 25.3253 0.173669 25.1873Q0.139103 25.0493 0.111349 24.9097Q0.0835959 24.7702 0.0627221 24.6295Q0.0418484 24.4888 0.0279045 24.3472Q0.0139607 24.2056 0.00698033 24.0635Q0 23.9215 0 23.7792L0 5.795Q0 5.65274 0.00698033 5.51065Q0.0139607 5.36856 0.0279045 5.22699Q0.0418484 5.08542 0.0627221 4.9447Q0.0835959 4.80398 0.111349 4.66445Q0.139103 4.52493 0.173669 4.38693Q0.208235 4.24893 0.249531 4.1128Q0.290826 3.97667 0.338752 3.84272Q0.386678 3.70878 0.441118 3.57735Q0.495558 3.44592 0.556382 3.31732Q0.617206 3.18872 0.684266 3.06326Q0.751327 2.93779 0.824463 2.81577Q0.897598 2.69375 0.976633 2.57547Q1.05567 2.45719 1.14041 2.34292Q1.22516 2.22866 1.3154 2.11869Q1.40565 2.00872 1.50119 1.90332Q1.59672 1.79791 1.69732 1.69732Q1.79791 1.59672 1.90332 1.50119Q2.00872 1.40565 2.11869 1.3154Q2.22866 1.22516 2.34292 1.14041Q2.45719 1.05567 2.57547 0.976633Q2.69375 0.897598 2.81577 0.824463Q2.93779 0.751327 3.06326 0.684266Q3.18872 0.617206 3.31732 0.556382Q3.44592 0.495558 3.57735 0.441118Q3.70878 0.386678 3.84272 0.338752Q3.97667 0.290826 4.1128 0.249531Q4.24893 0.208235 4.38693 0.173669Q4.52493 0.139103 4.66445 0.111349Q4.80398 0.0835959 4.9447 0.0627221Q5.08542 0.0418484 5.22699 0.0279045Q5.36856 0.0139607 5.51065 0.00698033Q5.65274 0 5.795 0Z" transform="translate(0.08001288 18.54051)" id="Rectangle-66" fill="#414242" stroke="none" />
      <path d="M6.97498 5.56898Q6.39095 5.84731 5.75991 5.98999Q5.12887 6.13267 4.4819 6.13267L0 6.13267L0 3.48649Q0 3.31521 0.0167884 3.14476Q0.0335768 2.9743 0.0669919 2.80631Q0.100407 2.63832 0.150127 2.47442Q0.199847 2.31051 0.265393 2.15227Q0.330939 1.99403 0.41168 1.84297Q0.492421 1.69191 0.58758 1.5495Q0.682738 1.40709 0.791397 1.27468Q0.900056 1.14228 1.02117 1.02117Q1.14228 0.900056 1.27468 0.791397Q1.40709 0.682738 1.5495 0.58758Q1.69191 0.492421 1.84297 0.41168Q1.99403 0.330939 2.15227 0.265393Q2.31051 0.199847 2.47442 0.150127Q2.63832 0.100407 2.80631 0.0669919Q2.9743 0.0335768 3.14476 0.0167884Q3.31521 0 3.48649 0L3.48849 0Q3.65977 0 3.83023 0.0167884Q4.00068 0.0335768 4.16867 0.0669919Q4.33666 0.100407 4.50057 0.150127Q4.66447 0.199847 4.82271 0.265393Q4.98095 0.330939 5.13201 0.41168Q5.28307 0.492421 5.42548 0.58758Q5.56789 0.682738 5.7003 0.791397Q5.8327 0.900056 5.95381 1.02117Q6.07493 1.14228 6.18358 1.27468Q6.29224 1.40709 6.3874 1.5495Q6.48256 1.69191 6.5633 1.84297Q6.64404 1.99403 6.70959 2.15227Q6.77513 2.31051 6.82485 2.47442Q6.87457 2.63832 6.90799 2.80631Q6.9414 2.9743 6.95819 3.14476Q6.97498 3.31521 6.97498 3.48649L6.97498 5.56898Z" transform="translate(11.78238 41.98204)" id="Combined-Shape" fill="#FFD241" fill-rule="evenodd" stroke="none" />
      <path d="M6.97498 0.563694L6.97498 6.19822Q6.97498 6.3695 6.95819 6.53995Q6.9414 6.71041 6.90799 6.8784Q6.87457 7.04638 6.82485 7.21029Q6.77513 7.3742 6.70959 7.53244Q6.64404 7.69068 6.5633 7.84174Q6.48256 7.99279 6.3874 8.1352Q6.29224 8.27762 6.18358 8.41002Q6.07493 8.54242 5.95381 8.66354Q5.8327 8.78465 5.7003 8.89331Q5.56789 9.00197 5.42548 9.09713Q5.28307 9.19228 5.13201 9.27303Q4.98095 9.35377 4.82271 9.41931Q4.66447 9.48486 4.50057 9.53458Q4.33666 9.5843 4.16867 9.61771Q4.00068 9.65113 3.83023 9.66792Q3.65977 9.68471 3.48849 9.68471L3.48649 9.68471Q3.31521 9.68471 3.14476 9.66792Q2.9743 9.65113 2.80631 9.61771Q2.63832 9.5843 2.47442 9.53458Q2.31051 9.48486 2.15227 9.41931Q1.99403 9.35377 1.84297 9.27303Q1.69191 9.19228 1.5495 9.09713Q1.40709 9.00197 1.27468 8.89331Q1.14228 8.78465 1.02117 8.66354Q0.900056 8.54242 0.791397 8.41002Q0.682738 8.27762 0.58758 8.13521Q0.492421 7.99279 0.41168 7.84174Q0.330939 7.69068 0.265393 7.53244Q0.199847 7.3742 0.150127 7.21029Q0.100407 7.04638 0.0669919 6.8784Q0.0335768 6.71041 0.0167884 6.53995Q0 6.3695 0 6.19822L0 0L4.4819 0Q5.12887 0 5.75991 0.14268Q6.39095 0.28536 6.97498 0.563694Z" transform="translate(11.78238 18.54051)" id="Combined-Shape" fill="#FFD241" fill-rule="evenodd" stroke="none" />
      <path d="M4.71906 0L4.71706 0Q4.56447 0 4.41262 0.0149563Q4.26077 0.0299126 4.11111 0.0596812Q3.96145 0.0894498 3.81543 0.133744Q3.66942 0.178038 3.52844 0.236431Q3.38747 0.294825 3.2529 0.366755Q3.11833 0.438684 2.99145 0.523458Q2.86458 0.608232 2.74663 0.705033Q2.62867 0.801835 2.52078 0.909731Q2.41288 1.01763 2.31608 1.13558Q2.21928 1.25353 2.1345 1.38041Q2.04973 1.50728 1.9778 1.64185Q1.90587 1.77642 1.84748 1.9174Q1.78908 2.05837 1.74479 2.20439Q1.7005 2.35041 1.67073 2.50006Q1.64096 2.64972 1.626 2.80157Q1.61105 2.95343 1.61105 3.10602L1.61105 14.9669C0.623775 15.8286 0 17.0962 0 18.5096C0 21.1057 2.10455 23.2103 4.70064 23.2103C7.29674 23.2103 9.40129 21.1057 9.40129 18.5096C9.40129 17.1129 8.79216 15.8585 7.82508 14.9976L7.82508 3.10602Q7.82508 2.95343 7.81012 2.80157Q7.79517 2.64972 7.7654 2.50006Q7.73563 2.35041 7.69134 2.20439Q7.64704 2.05837 7.58865 1.9174Q7.53025 1.77642 7.45832 1.64185Q7.38639 1.50728 7.30162 1.38041Q7.21685 1.25353 7.12005 1.13558Q7.02325 1.01763 6.91535 0.909731Q6.80745 0.801835 6.6895 0.705033Q6.57155 0.608232 6.44467 0.523458Q6.3178 0.438684 6.18323 0.366755Q6.04866 0.294825 5.90768 0.236431Q5.76671 0.178038 5.62069 0.133744Q5.47467 0.0894499 5.32502 0.0596812Q5.17536 0.0299126 5.02351 0.0149563Q4.87165 0 4.71906 0Z" transform="matrix(0.9063078 0.4226183 -0.4226183 0.9063078 16.71971 0.08001316)" id="Combined-Shape" fill="#909090" fill-rule="evenodd" stroke="none" />
      <path d="M4.27302 0.00144477Q4.50118 0.0635495 4.72353 0.144037Q4.94588 0.224525 5.16093 0.322861Q5.37598 0.421197 5.5823 0.536727Q5.78862 0.652257 5.98485 0.784214Q6.18107 0.91617 6.36589 1.06367Q6.55071 1.21118 6.7229 1.37325Q6.89509 1.53532 7.0535 1.71089Q7.21191 1.88645 7.35549 2.07433Q7.49907 2.26222 7.62686 2.46118Q7.75466 2.66014 7.86582 2.86885Q7.97698 3.07756 8.07076 3.29463Q8.16455 3.5117 8.24034 3.73569Q8.31613 3.95969 8.37341 4.18911Q8.4307 4.41853 8.4691 4.65186Q8.50751 4.88518 8.52677 5.12086Q8.54604 5.35654 8.54604 5.59301L8.54604 31.6612Q8.54604 31.8977 8.52677 32.1333Q8.50751 32.369 8.4691 32.6023Q8.4307 32.8357 8.37341 33.0651Q8.31613 33.2945 8.24034 33.5185Q8.16455 33.7425 8.07076 33.9596Q7.97698 34.1767 7.86582 34.3854Q7.75466 34.5941 7.62686 34.793Q7.49907 34.992 7.35549 35.1799Q7.21191 35.3678 7.0535 35.5433Q6.89509 35.7189 6.7229 35.881Q6.55071 36.043 6.36589 36.1905Q6.18107 36.338 5.98485 36.47Q5.78862 36.602 5.5823 36.7175Q5.37598 36.833 5.16093 36.9313Q4.94588 37.0297 4.72353 37.1102Q4.50119 37.1907 4.27302 37.2528Q4.04486 37.1907 3.82251 37.1102Q3.60016 37.0297 3.38511 36.9313Q3.17007 36.833 2.96374 36.7175Q2.75742 36.602 2.5612 36.47Q2.36497 36.338 2.18015 36.1905Q1.99533 36.043 1.82314 35.881Q1.65095 35.7189 1.49254 35.5433Q1.33413 35.3678 1.19055 35.1799Q1.04697 34.992 0.919176 34.793Q0.791381 34.5941 0.680221 34.3854Q0.569061 34.1767 0.475275 33.9596Q0.381489 33.7425 0.305701 33.5185Q0.229913 33.2945 0.172626 33.0651Q0.11534 32.8357 0.076936 32.6023Q0.0385321 32.369 0.019266 32.1333Q3.12189e-17 31.8977 0 31.6612L0 5.59301Q0 5.35654 0.019266 5.12086Q0.038532 4.88518 0.076936 4.65186Q0.11534 4.41853 0.172626 4.18911Q0.229913 3.95969 0.305701 3.73569Q0.381489 3.5117 0.475275 3.29463Q0.569061 3.07756 0.680221 2.86885Q0.791381 2.66014 0.919176 2.46118Q1.04697 2.26222 1.19055 2.07433Q1.33413 1.88645 1.49254 1.71089Q1.65095 1.53532 1.82314 1.37325Q1.99533 1.21118 2.18015 1.06367Q2.36497 0.91617 2.56119 0.784214Q2.75742 0.652257 2.96374 0.536727Q3.17006 0.421197 3.38511 0.322861Q3.60016 0.224525 3.82251 0.144037Q4.04486 0.0635495 4.27302 0.00144477Z" transform="translate(1.806134 14.71489)" id="Combined-Shape" fill="#5C5C5C" fill-rule="evenodd" stroke="none" />
    </g>
    <g id="Group-7-Copy-2" transform="matrix(-0.9455186 0.3255682 0.3255682 0.9455186 26.16027 41.13708)">
      <path d="M3.48649 0L3.48849 0Q3.65977 0 3.83023 0.0167884Q4.00068 0.0335768 4.16867 0.0669919Q4.33666 0.100407 4.50057 0.150127Q4.66447 0.199847 4.82271 0.265393Q4.98095 0.330939 5.13201 0.41168Q5.28307 0.492421 5.42548 0.58758Q5.56789 0.682738 5.7003 0.791397Q5.8327 0.900056 5.95381 1.02117Q6.07493 1.14228 6.18358 1.27468Q6.29224 1.40709 6.3874 1.5495Q6.48256 1.69191 6.5633 1.84297Q6.64404 1.99403 6.70959 2.15227Q6.77513 2.31051 6.82485 2.47442Q6.87457 2.63832 6.90799 2.80631Q6.9414 2.9743 6.95819 3.14476Q6.97498 3.31521 6.97498 3.48649L6.97498 18.339Q6.97498 18.5102 6.95819 18.6807Q6.9414 18.8511 6.90799 19.0191Q6.87457 19.1871 6.82485 19.351Q6.77513 19.5149 6.70959 19.6732Q6.64404 19.8314 6.5633 19.9825Q6.48256 20.1335 6.3874 20.2759Q6.29224 20.4184 6.18358 20.5508Q6.07493 20.6832 5.95381 20.8043Q5.8327 20.9254 5.7003 21.034Q5.56789 21.1427 5.42548 21.2379Q5.28307 21.333 5.13201 21.4138Q4.98095 21.4945 4.82271 21.5601Q4.66447 21.6256 4.50057 21.6753Q4.33666 21.725 4.16867 21.7585Q4.00068 21.7919 3.83023 21.8087Q3.65977 21.8254 3.48849 21.8254L3.48649 21.8254Q3.31521 21.8254 3.14476 21.8087Q2.9743 21.7919 2.80631 21.7585Q2.63832 21.725 2.47442 21.6753Q2.31051 21.6256 2.15227 21.5601Q1.99403 21.4945 1.84297 21.4138Q1.69191 21.333 1.5495 21.2379Q1.40709 21.1427 1.27468 21.034Q1.14228 20.9254 1.02117 20.8043Q0.900056 20.6832 0.791397 20.5508Q0.682738 20.4184 0.58758 20.2759Q0.492421 20.1335 0.41168 19.9825Q0.330939 19.8314 0.265393 19.6732Q0.199847 19.5149 0.150127 19.351Q0.100407 19.1871 0.0669919 19.0191Q0.0335768 18.8511 0.0167884 18.6807Q0 18.5102 0 18.339L0 3.48649Q0 3.31521 0.0167884 3.14476Q0.0335768 2.9743 0.0669919 2.80631Q0.100407 2.63832 0.150127 2.47442Q0.199847 2.31051 0.265393 2.15227Q0.330939 1.99403 0.41168 1.84297Q0.492421 1.69191 0.58758 1.5495Q0.682738 1.40709 0.791397 1.27468Q0.900056 1.14228 1.02117 1.02117Q1.14228 0.900056 1.27468 0.791397Q1.40709 0.682738 1.5495 0.58758Q1.69191 0.492421 1.84297 0.41168Q1.99403 0.330939 2.15227 0.265393Q2.31051 0.199847 2.47442 0.150127Q2.63832 0.100407 2.80631 0.0669919Q2.9743 0.0335768 3.14476 0.0167884Q3.31521 0 3.48649 0L3.48649 0Z" transform="translate(6.079153 3.600175)" id="Rectangle-68" fill="#414242" stroke="none" />
      <path d="M5.795 0L6.70178 0Q6.84403 0 6.98612 0.00698033Q7.12821 0.0139607 7.26978 0.0279045Q7.41136 0.0418484 7.55208 0.0627221Q7.6928 0.0835959 7.83232 0.111349Q7.97185 0.139103 8.10985 0.173669Q8.24784 0.208235 8.38398 0.249531Q8.52011 0.290826 8.65405 0.338752Q8.78799 0.386678 8.91943 0.441118Q9.05086 0.495558 9.17946 0.556382Q9.30806 0.617206 9.43352 0.684266Q9.55898 0.751327 9.681 0.824463Q9.80302 0.897598 9.9213 0.976633Q10.0396 1.05567 10.1539 1.14041Q10.2681 1.22516 10.3781 1.3154Q10.4881 1.40565 10.5935 1.50119Q10.6989 1.59672 10.7995 1.69732Q10.9001 1.79791 10.9956 1.90332Q11.0911 2.00872 11.1814 2.11869Q11.2716 2.22866 11.3564 2.34292Q11.4411 2.45719 11.5201 2.57547Q11.5992 2.69375 11.6723 2.81577Q11.7455 2.93779 11.8125 3.06326Q11.8796 3.18872 11.9404 3.31732Q12.0012 3.44592 12.0557 3.57735Q12.1101 3.70878 12.158 3.84272Q12.2059 3.97667 12.2472 4.1128Q12.2885 4.24893 12.3231 4.38693Q12.3577 4.52493 12.3854 4.66445Q12.4132 4.80398 12.4341 4.9447Q12.4549 5.08542 12.4689 5.22699Q12.4828 5.36856 12.4898 5.51065Q12.4968 5.65274 12.4968 5.795L12.4968 18.3096Q12.4968 18.4518 12.4898 18.5939Q12.4828 18.736 12.4689 18.8776Q12.4549 19.0191 12.4341 19.1599Q12.4132 19.3006 12.3854 19.4401Q12.3577 19.5796 12.3231 19.7176Q12.2885 19.8556 12.2472 19.9917Q12.2059 20.1279 12.158 20.2618Q12.1101 20.3958 12.0557 20.5272Q12.0012 20.6586 11.9404 20.7872Q11.8796 20.9158 11.8125 21.0413Q11.7454 21.1668 11.6723 21.2888Q11.5992 21.4108 11.5201 21.5291Q11.4411 21.6474 11.3564 21.7616Q11.2716 21.8759 11.1814 21.9859Q11.0911 22.0958 10.9956 22.2012Q10.9001 22.3066 10.7995 22.4072Q10.6989 22.5078 10.5935 22.6034Q10.4881 22.6989 10.3781 22.7891Q10.2681 22.8794 10.1539 22.9641Q10.0396 23.0489 9.9213 23.1279Q9.80302 23.207 9.681 23.2801Q9.55898 23.3532 9.43352 23.4203Q9.30806 23.4873 9.17946 23.5482Q9.05086 23.609 8.91943 23.6634Q8.78799 23.7179 8.65405 23.7658Q8.52011 23.8137 8.38398 23.855Q8.24784 23.8963 8.10985 23.9309Q7.97185 23.9654 7.83232 23.9932Q7.6928 24.021 7.55208 24.0418Q7.41136 24.0627 7.26978 24.0766Q7.12821 24.0906 6.98612 24.0976Q6.84403 24.1046 6.70178 24.1046L5.795 24.1046Q5.65274 24.1046 5.51065 24.0976Q5.36856 24.0906 5.22699 24.0766Q5.08542 24.0627 4.9447 24.0418Q4.80398 24.021 4.66445 23.9932Q4.52493 23.9654 4.38693 23.9309Q4.24893 23.8963 4.1128 23.855Q3.97667 23.8137 3.84272 23.7658Q3.70878 23.7179 3.57735 23.6634Q3.44592 23.609 3.31732 23.5482Q3.18872 23.4873 3.06326 23.4203Q2.93779 23.3532 2.81577 23.2801Q2.69375 23.207 2.57547 23.1279Q2.45719 23.0489 2.34292 22.9641Q2.22866 22.8794 2.11869 22.7891Q2.00872 22.6989 1.90332 22.6034Q1.79791 22.5078 1.69732 22.4072Q1.59672 22.3066 1.50119 22.2012Q1.40565 22.0958 1.3154 21.9859Q1.22516 21.8759 1.14041 21.7616Q1.05567 21.6474 0.976633 21.5291Q0.897598 21.4108 0.824463 21.2888Q0.751327 21.1668 0.684266 21.0413Q0.617206 20.9158 0.556382 20.7872Q0.495558 20.6586 0.441118 20.5272Q0.386678 20.3958 0.338752 20.2618Q0.290826 20.1279 0.249531 19.9917Q0.208235 19.8556 0.173669 19.7176Q0.139103 19.5796 0.111349 19.4401Q0.0835959 19.3006 0.0627221 19.1599Q0.0418484 19.0191 0.0279045 18.8776Q0.0139607 18.736 0.00698033 18.5939Q0 18.4518 0 18.3096L0 5.795Q0 5.65274 0.00698033 5.51065Q0.0139607 5.36856 0.0279045 5.22699Q0.0418484 5.08542 0.0627221 4.9447Q0.0835959 4.80398 0.111349 4.66445Q0.139103 4.52493 0.173669 4.38693Q0.208235 4.24893 0.249531 4.1128Q0.290826 3.97667 0.338752 3.84272Q0.386678 3.70878 0.441118 3.57735Q0.495558 3.44592 0.556382 3.31732Q0.617206 3.18872 0.684266 3.06326Q0.751327 2.93779 0.824463 2.81577Q0.897598 2.69375 0.976633 2.57547Q1.05567 2.45719 1.14041 2.34292Q1.22516 2.22866 1.3154 2.11869Q1.40565 2.00872 1.50119 1.90332Q1.59672 1.79791 1.69732 1.69732Q1.79791 1.59672 1.90332 1.50119Q2.00872 1.40565 2.11869 1.3154Q2.22866 1.22516 2.34292 1.14041Q2.45719 1.05567 2.57547 0.976633Q2.69375 0.897598 2.81577 0.824463Q2.93779 0.751327 3.06326 0.684266Q3.18872 0.617206 3.31732 0.556382Q3.44592 0.495558 3.57735 0.441118Q3.70878 0.386678 3.84272 0.338752Q3.97667 0.290826 4.1128 0.249531Q4.24893 0.208235 4.38693 0.173669Q4.52493 0.139103 4.66445 0.111349Q4.80398 0.0835959 4.9447 0.0627221Q5.08542 0.0418484 5.22699 0.0279045Q5.36856 0.0139607 5.51065 0.00698033Q5.65274 0 5.795 0Z" transform="translate(14.92465 21.30231)" id="Rectangle-66-Copy" fill="#5C5C5C" stroke="none" />
      <path d="M5.795 0L16.1843 0Q16.3265 0 16.4686 0.00698033Q16.6107 0.0139607 16.7523 0.0279045Q16.8939 0.0418484 17.0346 0.0627221Q17.1753 0.0835959 17.3148 0.111349Q17.4543 0.139103 17.5923 0.173669Q17.7303 0.208235 17.8665 0.249531Q18.0026 0.290826 18.1365 0.338752Q18.2705 0.386678 18.4019 0.441118Q18.5333 0.495558 18.6619 0.556382Q18.7906 0.617206 18.916 0.684266Q19.0415 0.751327 19.1635 0.824463Q19.2855 0.897598 19.4038 0.976633Q19.5221 1.05567 19.6363 1.14041Q19.7506 1.22516 19.8606 1.3154Q19.9705 1.40565 20.076 1.50119Q20.1814 1.59672 20.282 1.69732Q20.3825 1.79791 20.4781 1.90332Q20.5736 2.00872 20.6639 2.11869Q20.7541 2.22866 20.8389 2.34292Q20.9236 2.45719 21.0026 2.57547Q21.0817 2.69375 21.1548 2.81577Q21.2279 2.93779 21.295 3.06326Q21.3621 3.18872 21.4229 3.31732Q21.4837 3.44592 21.5381 3.57735Q21.5926 3.70878 21.6405 3.84272Q21.6884 3.97667 21.7297 4.1128Q21.771 4.24893 21.8056 4.38693Q21.8402 4.52493 21.8679 4.66445Q21.8957 4.80398 21.9165 4.9447Q21.9374 5.08542 21.9514 5.22699Q21.9653 5.36856 21.9723 5.51065Q21.9793 5.65274 21.9793 5.795L21.9793 23.7792Q21.9793 23.9215 21.9723 24.0635Q21.9653 24.2056 21.9514 24.3472Q21.9374 24.4888 21.9165 24.6295Q21.8957 24.7702 21.8679 24.9097Q21.8402 25.0493 21.8056 25.1873Q21.771 25.3253 21.7297 25.4614Q21.6884 25.5975 21.6405 25.7315Q21.5926 25.8654 21.5381 25.9968Q21.4837 26.1283 21.4229 26.2569Q21.3621 26.3855 21.295 26.5109Q21.2279 26.6364 21.1548 26.7584Q21.0817 26.8804 21.0026 26.9987Q20.9236 27.117 20.8389 27.2313Q20.7541 27.3455 20.6639 27.4555Q20.5736 27.5655 20.4781 27.6709Q20.3825 27.7763 20.282 27.8769Q20.1814 27.9775 20.076 28.073Q19.9705 28.1685 19.8606 28.2588Q19.7506 28.349 19.6363 28.4338Q19.5221 28.5185 19.4038 28.5976Q19.2855 28.6766 19.1635 28.7497Q19.0415 28.8229 18.916 28.8899Q18.7906 28.957 18.6619 29.0178Q18.5333 29.0786 18.4019 29.1331Q18.2705 29.1875 18.1365 29.2354Q18.0026 29.2834 17.8665 29.3247Q17.7303 29.366 17.5923 29.4005Q17.4543 29.4351 17.3148 29.4628Q17.1753 29.4906 17.0346 29.5115Q16.8939 29.5324 16.7523 29.5463Q16.6107 29.5602 16.4686 29.5672Q16.3265 29.5742 16.1843 29.5742L5.795 29.5742Q5.65274 29.5742 5.51065 29.5672Q5.36856 29.5602 5.22699 29.5463Q5.08542 29.5324 4.9447 29.5115Q4.80398 29.4906 4.66445 29.4628Q4.52493 29.4351 4.38693 29.4005Q4.24893 29.366 4.1128 29.3247Q3.97667 29.2834 3.84272 29.2354Q3.70878 29.1875 3.57735 29.1331Q3.44592 29.0786 3.31732 29.0178Q3.18872 28.957 3.06326 28.8899Q2.93779 28.8229 2.81577 28.7497Q2.69375 28.6766 2.57547 28.5976Q2.45719 28.5185 2.34292 28.4338Q2.22866 28.349 2.11869 28.2588Q2.00872 28.1685 1.90332 28.073Q1.79791 27.9775 1.69732 27.8769Q1.59672 27.7763 1.50119 27.6709Q1.40565 27.5655 1.3154 27.4555Q1.22516 27.3455 1.14041 27.2313Q1.05567 27.117 0.976633 26.9987Q0.897598 26.8804 0.824463 26.7584Q0.751327 26.6364 0.684266 26.5109Q0.617206 26.3855 0.556382 26.2569Q0.495558 26.1283 0.441118 25.9968Q0.386678 25.8654 0.338752 25.7315Q0.290826 25.5975 0.249531 25.4614Q0.208235 25.3253 0.173669 25.1873Q0.139103 25.0493 0.111349 24.9097Q0.0835959 24.7702 0.0627221 24.6295Q0.0418484 24.4888 0.0279045 24.3472Q0.0139607 24.2056 0.00698033 24.0635Q0 23.9215 0 23.7792L0 5.795Q0 5.65274 0.00698033 5.51065Q0.0139607 5.36856 0.0279045 5.22699Q0.0418484 5.08542 0.0627221 4.9447Q0.0835959 4.80398 0.111349 4.66445Q0.139103 4.52493 0.173669 4.38693Q0.208235 4.24893 0.249531 4.1128Q0.290826 3.97667 0.338752 3.84272Q0.386678 3.70878 0.441118 3.57735Q0.495558 3.44592 0.556382 3.31732Q0.617206 3.18872 0.684266 3.06326Q0.751327 2.93779 0.824463 2.81577Q0.897598 2.69375 0.976633 2.57547Q1.05567 2.45719 1.14041 2.34292Q1.22516 2.22866 1.3154 2.11869Q1.40565 2.00872 1.50119 1.90332Q1.59672 1.79791 1.69732 1.69732Q1.79791 1.59672 1.90332 1.50119Q2.00872 1.40565 2.11869 1.3154Q2.22866 1.22516 2.34292 1.14041Q2.45719 1.05567 2.57547 0.976633Q2.69375 0.897598 2.81577 0.824463Q2.93779 0.751327 3.06326 0.684266Q3.18872 0.617206 3.31732 0.556382Q3.44592 0.495558 3.57735 0.441118Q3.70878 0.386678 3.84272 0.338752Q3.97667 0.290826 4.1128 0.249531Q4.24893 0.208235 4.38693 0.173669Q4.52493 0.139103 4.66445 0.111349Q4.80398 0.0835959 4.9447 0.0627221Q5.08542 0.0418484 5.22699 0.0279045Q5.36856 0.0139607 5.51065 0.00698033Q5.65274 0 5.795 0Z" transform="translate(0.08001288 18.54051)" id="Rectangle-66" fill="#414242" stroke="none" />
      <path d="M6.97498 5.56898Q6.39095 5.84731 5.75991 5.98999Q5.12887 6.13267 4.4819 6.13267L0 6.13267L0 3.48649Q0 3.31521 0.0167884 3.14476Q0.0335768 2.9743 0.0669919 2.80631Q0.100407 2.63832 0.150127 2.47442Q0.199847 2.31051 0.265393 2.15227Q0.330939 1.99403 0.41168 1.84297Q0.492421 1.69191 0.58758 1.5495Q0.682738 1.40709 0.791397 1.27468Q0.900056 1.14228 1.02117 1.02117Q1.14228 0.900056 1.27468 0.791397Q1.40709 0.682738 1.5495 0.58758Q1.69191 0.492421 1.84297 0.41168Q1.99403 0.330939 2.15227 0.265393Q2.31051 0.199847 2.47442 0.150127Q2.63832 0.100407 2.80631 0.0669919Q2.9743 0.0335768 3.14476 0.0167884Q3.31521 0 3.48649 0L3.48849 0Q3.65977 0 3.83023 0.0167884Q4.00068 0.0335768 4.16867 0.0669919Q4.33666 0.100407 4.50057 0.150127Q4.66447 0.199847 4.82271 0.265393Q4.98095 0.330939 5.13201 0.41168Q5.28307 0.492421 5.42548 0.58758Q5.56789 0.682738 5.7003 0.791397Q5.8327 0.900056 5.95381 1.02117Q6.07493 1.14228 6.18358 1.27468Q6.29224 1.40709 6.3874 1.5495Q6.48256 1.69191 6.5633 1.84297Q6.64404 1.99403 6.70959 2.15227Q6.77513 2.31051 6.82485 2.47442Q6.87457 2.63832 6.90799 2.80631Q6.9414 2.9743 6.95819 3.14476Q6.97498 3.31521 6.97498 3.48649L6.97498 5.56898Z" transform="translate(11.78238 41.98204)" id="Combined-Shape" fill="#FFD241" fill-rule="evenodd" stroke="none" />
      <path d="M6.97498 0.563694L6.97498 6.19822Q6.97498 6.3695 6.95819 6.53995Q6.9414 6.71041 6.90799 6.8784Q6.87457 7.04638 6.82485 7.21029Q6.77513 7.3742 6.70959 7.53244Q6.64404 7.69068 6.5633 7.84174Q6.48256 7.99279 6.3874 8.1352Q6.29224 8.27762 6.18358 8.41002Q6.07493 8.54242 5.95381 8.66354Q5.8327 8.78465 5.7003 8.89331Q5.56789 9.00197 5.42548 9.09713Q5.28307 9.19228 5.13201 9.27303Q4.98095 9.35377 4.82271 9.41931Q4.66447 9.48486 4.50057 9.53458Q4.33666 9.5843 4.16867 9.61771Q4.00068 9.65113 3.83023 9.66792Q3.65977 9.68471 3.48849 9.68471L3.48649 9.68471Q3.31521 9.68471 3.14476 9.66792Q2.9743 9.65113 2.80631 9.61771Q2.63832 9.5843 2.47442 9.53458Q2.31051 9.48486 2.15227 9.41931Q1.99403 9.35377 1.84297 9.27303Q1.69191 9.19228 1.5495 9.09713Q1.40709 9.00197 1.27468 8.89331Q1.14228 8.78465 1.02117 8.66354Q0.900056 8.54242 0.791397 8.41002Q0.682738 8.27762 0.58758 8.13521Q0.492421 7.99279 0.41168 7.84174Q0.330939 7.69068 0.265393 7.53244Q0.199847 7.3742 0.150127 7.21029Q0.100407 7.04638 0.0669919 6.8784Q0.0335768 6.71041 0.0167884 6.53995Q0 6.3695 0 6.19822L0 0L4.4819 0Q5.12887 0 5.75991 0.14268Q6.39095 0.28536 6.97498 0.563694Z" transform="translate(11.78238 18.54051)" id="Combined-Shape" fill="#FFD241" fill-rule="evenodd" stroke="none" />
      <path d="M4.71906 0L4.71706 0Q4.56447 0 4.41262 0.0149563Q4.26077 0.0299126 4.11111 0.0596812Q3.96145 0.0894498 3.81543 0.133744Q3.66942 0.178038 3.52844 0.236431Q3.38747 0.294825 3.2529 0.366755Q3.11833 0.438684 2.99145 0.523458Q2.86458 0.608232 2.74663 0.705033Q2.62867 0.801835 2.52078 0.909731Q2.41288 1.01763 2.31608 1.13558Q2.21928 1.25353 2.1345 1.38041Q2.04973 1.50728 1.9778 1.64185Q1.90587 1.77642 1.84748 1.9174Q1.78908 2.05837 1.74479 2.20439Q1.7005 2.35041 1.67073 2.50006Q1.64096 2.64972 1.626 2.80157Q1.61105 2.95343 1.61105 3.10602L1.61105 14.9669C0.623775 15.8286 0 17.0962 0 18.5096C0 21.1057 2.10455 23.2103 4.70064 23.2103C7.29674 23.2103 9.40129 21.1057 9.40129 18.5096C9.40129 17.1129 8.79216 15.8585 7.82508 14.9976L7.82508 3.10602Q7.82508 2.95343 7.81012 2.80157Q7.79517 2.64972 7.7654 2.50006Q7.73563 2.35041 7.69134 2.20439Q7.64704 2.05837 7.58865 1.9174Q7.53025 1.77642 7.45832 1.64185Q7.38639 1.50728 7.30162 1.38041Q7.21685 1.25353 7.12005 1.13558Q7.02325 1.01763 6.91535 0.909731Q6.80745 0.801835 6.6895 0.705033Q6.57155 0.608232 6.44467 0.523458Q6.3178 0.438684 6.18323 0.366755Q6.04866 0.294825 5.90768 0.236431Q5.76671 0.178038 5.62069 0.133744Q5.47467 0.0894499 5.32502 0.0596812Q5.17536 0.0299126 5.02351 0.0149563Q4.87165 0 4.71906 0Z" transform="matrix(0.9063078 0.4226183 -0.4226183 0.9063078 16.71971 0.08001316)" id="Combined-Shape" fill="#909090" fill-rule="evenodd" stroke="none" />
      <path d="M4.27302 0.00144477Q4.50118 0.0635495 4.72353 0.144037Q4.94588 0.224525 5.16093 0.322861Q5.37598 0.421197 5.5823 0.536727Q5.78862 0.652257 5.98485 0.784214Q6.18107 0.91617 6.36589 1.06367Q6.55071 1.21118 6.7229 1.37325Q6.89509 1.53532 7.0535 1.71089Q7.21191 1.88645 7.35549 2.07433Q7.49907 2.26222 7.62686 2.46118Q7.75466 2.66014 7.86582 2.86885Q7.97698 3.07756 8.07076 3.29463Q8.16455 3.5117 8.24034 3.73569Q8.31613 3.95969 8.37341 4.18911Q8.4307 4.41853 8.4691 4.65186Q8.50751 4.88518 8.52677 5.12086Q8.54604 5.35654 8.54604 5.59301L8.54604 31.6612Q8.54604 31.8977 8.52677 32.1333Q8.50751 32.369 8.4691 32.6023Q8.4307 32.8357 8.37341 33.0651Q8.31613 33.2945 8.24034 33.5185Q8.16455 33.7425 8.07076 33.9596Q7.97698 34.1767 7.86582 34.3854Q7.75466 34.5941 7.62686 34.793Q7.49907 34.992 7.35549 35.1799Q7.21191 35.3678 7.0535 35.5433Q6.89509 35.7189 6.7229 35.881Q6.55071 36.043 6.36589 36.1905Q6.18107 36.338 5.98485 36.47Q5.78862 36.602 5.5823 36.7175Q5.37598 36.833 5.16093 36.9313Q4.94588 37.0297 4.72353 37.1102Q4.50119 37.1907 4.27302 37.2528Q4.04486 37.1907 3.82251 37.1102Q3.60016 37.0297 3.38511 36.9313Q3.17007 36.833 2.96374 36.7175Q2.75742 36.602 2.5612 36.47Q2.36497 36.338 2.18015 36.1905Q1.99533 36.043 1.82314 35.881Q1.65095 35.7189 1.49254 35.5433Q1.33413 35.3678 1.19055 35.1799Q1.04697 34.992 0.919176 34.793Q0.791381 34.5941 0.680221 34.3854Q0.569061 34.1767 0.475275 33.9596Q0.381489 33.7425 0.305701 33.5185Q0.229913 33.2945 0.172626 33.0651Q0.11534 32.8357 0.076936 32.6023Q0.0385321 32.369 0.019266 32.1333Q3.12189e-17 31.8977 0 31.6612L0 5.59301Q0 5.35654 0.019266 5.12086Q0.038532 4.88518 0.076936 4.65186Q0.11534 4.41853 0.172626 4.18911Q0.229913 3.95969 0.305701 3.73569Q0.381489 3.5117 0.475275 3.29463Q0.569061 3.07756 0.680221 2.86885Q0.791381 2.66014 0.919176 2.46118Q1.04697 2.26222 1.19055 2.07433Q1.33413 1.88645 1.49254 1.71089Q1.65095 1.53532 1.82314 1.37325Q1.99533 1.21118 2.18015 1.06367Q2.36497 0.91617 2.56119 0.784214Q2.75742 0.652257 2.96374 0.536727Q3.17006 0.421197 3.38511 0.322861Q3.60016 0.224525 3.82251 0.144037Q4.04486 0.0635495 4.27302 0.00144477Z" transform="translate(1.806134 14.71489)" id="Combined-Shape" fill="#5C5C5C" fill-rule="evenodd" stroke="none" />
    </g>
  </g>
</svg>