<?xml version="1.0" encoding="utf-8"?>
<svg width="117px" height="47px" viewBox="0 0 117 47" version="1.1" xmlns:xlink="http://www.w3.org/1999/xlink" xmlns="http://www.w3.org/2000/svg">
  <desc>Created with Lunacy</desc>
  <g id="kacamata" transform="translate(0.2874756 0.2874756)">
    <path d="M0 5.64428L61.5642 6.64148C61.5642 6.64148 73.2375 6.58871 78.244 9.58167C83.2506 12.5746 91.5392 25.8644 91.5392 25.8644C91.5392 25.8644 94.0174 29.041 96.3839 26.6194C98.7504 24.1977 99.8051 21.8074 98.4466 19.4265C97.0882 17.0456 86.6473 4.59363 77.7411 3.04505C68.8348 1.49648 0 0 0 0L0 5.64428Z" transform="translate(14.87559 18.19087)" id="Path-3" fill="#8B5D3C" stroke="none" />
    <path d="M99.0475 5.64428L37.4833 6.64148C37.4833 6.64148 25.81 6.58871 20.8034 9.58167C15.7968 12.5746 7.50822 25.8644 7.50822 25.8644C7.50822 25.8644 5.03001 29.041 2.66355 26.6194C0.29709 24.1977 -0.75762 21.8074 0.600812 19.4265C1.95924 17.0456 12.4001 4.59363 21.3064 3.04505C30.2126 1.49648 99.0475 0 99.0475 0L99.0475 5.64428" transform="translate(2.967423 18.57886)" id="Path-3-Copy-2" fill="#8B5D3C" stroke="none" />
    <path d="M5.059 0L7.78775 0Q7.91194 0 8.03599 0.00609379Q8.16003 0.0121876 8.28362 0.0243605Q8.40722 0.0365334 8.53006 0.054756Q8.65291 0.0729787 8.77471 0.0972072Q8.89652 0.121436 9.01699 0.151612Q9.13746 0.181788 9.2563 0.217839Q9.37515 0.25389 9.49208 0.295729Q9.60901 0.337567 9.72375 0.385093Q9.83849 0.432619 9.95075 0.485718Q10.063 0.538817 10.1725 0.59736Q10.2821 0.655904 10.3886 0.719751Q10.4951 0.783598 10.5984 0.852595Q10.7016 0.921592 10.8014 0.995573Q10.9011 1.06955 10.9971 1.14834Q11.0931 1.22713 11.1852 1.31053Q11.2772 1.39393 11.365 1.48175Q11.4528 1.56956 11.5362 1.66158Q11.6196 1.7536 11.6984 1.8496Q11.7772 1.94561 11.8512 2.04536Q11.9252 2.14511 11.9942 2.24837Q12.0632 2.35163 12.127 2.45815Q12.1908 2.56468 12.2494 2.6742Q12.3079 2.78373 12.361 2.896Q12.4141 3.00827 12.4617 3.123Q12.5092 3.23774 12.551 3.35467Q12.5929 3.47161 12.6289 3.59045Q12.665 3.70929 12.6951 3.82976Q12.7253 3.95023 12.7495 4.07204Q12.7738 4.19384 12.792 4.31669Q12.8102 4.43954 12.8224 4.56313Q12.8346 4.68673 12.8407 4.81077Q12.8468 4.93481 12.8468 5.059L12.8468 9.66226Q12.8468 9.78645 12.8407 9.91049Q12.8346 10.0345 12.8224 10.1581Q12.8102 10.2817 12.792 10.4046Q12.7738 10.5274 12.7495 10.6492Q12.7253 10.771 12.6951 10.8915Q12.665 11.012 12.6289 11.1308Q12.5929 11.2496 12.551 11.3666Q12.5092 11.4835 12.4617 11.5982Q12.4141 11.713 12.361 11.8253Q12.3079 11.9375 12.2494 12.0471Q12.1908 12.1566 12.127 12.2631Q12.0632 12.3696 11.9942 12.4729Q11.9252 12.5761 11.8512 12.6759Q11.7772 12.7756 11.6984 12.8717Q11.6196 12.9677 11.5362 13.0597Q11.4528 13.1517 11.365 13.2395Q11.2772 13.3273 11.1852 13.4107Q11.0931 13.4941 10.9971 13.5729Q10.9011 13.6517 10.8014 13.7257Q10.7016 13.7997 10.5984 13.8687Q10.4951 13.9377 10.3886 14.0015Q10.2821 14.0653 10.1725 14.1239Q10.063 14.1824 9.95075 14.2355Q9.83849 14.2886 9.72375 14.3362Q9.60901 14.3837 9.49208 14.4255Q9.37515 14.4674 9.2563 14.5034Q9.13746 14.5395 9.01699 14.5696Q8.89652 14.5998 8.77471 14.624Q8.65291 14.6483 8.53006 14.6665Q8.40722 14.6847 8.28362 14.6969Q8.16003 14.7091 8.03599 14.7152Q7.91194 14.7213 7.78775 14.7213L5.059 14.7213Q4.93481 14.7213 4.81077 14.7152Q4.68673 14.7091 4.56313 14.6969Q4.43954 14.6847 4.31669 14.6665Q4.19384 14.6483 4.07204 14.624Q3.95023 14.5998 3.82976 14.5696Q3.70929 14.5395 3.59045 14.5034Q3.47161 14.4674 3.35467 14.4255Q3.23774 14.3837 3.123 14.3362Q3.00827 14.2886 2.896 14.2355Q2.78373 14.1824 2.6742 14.1239Q2.56468 14.0653 2.45815 14.0015Q2.35163 13.9377 2.24837 13.8687Q2.14511 13.7997 2.04536 13.7257Q1.94561 13.6517 1.8496 13.5729Q1.7536 13.4941 1.66158 13.4107Q1.56956 13.3273 1.48175 13.2395Q1.39393 13.1517 1.31053 13.0597Q1.22713 12.9677 1.14834 12.8716Q1.06955 12.7756 0.995573 12.6759Q0.921592 12.5761 0.852595 12.4729Q0.783598 12.3696 0.719751 12.2631Q0.655904 12.1566 0.59736 12.047Q0.538817 11.9375 0.485718 11.8253Q0.432619 11.713 0.385093 11.5982Q0.337567 11.4835 0.295729 11.3666Q0.25389 11.2496 0.217839 11.1308Q0.181788 11.012 0.151612 10.8915Q0.121436 10.771 0.0972072 10.6492Q0.0729787 10.5274 0.054756 10.4046Q0.0365334 10.2817 0.0243605 10.1581Q0.0121876 10.0345 0.00609379 9.91049Q0 9.78645 0 9.66226L0 5.059Q0 4.93481 0.00609379 4.81077Q0.0121876 4.68673 0.0243605 4.56313Q0.0365334 4.43954 0.054756 4.31669Q0.0729787 4.19384 0.0972072 4.07204Q0.121436 3.95023 0.151612 3.82976Q0.181788 3.70929 0.217839 3.59045Q0.25389 3.47161 0.295729 3.35467Q0.337567 3.23774 0.385093 3.123Q0.432619 3.00827 0.485718 2.896Q0.538817 2.78373 0.59736 2.6742Q0.655904 2.56468 0.719751 2.45815Q0.783598 2.35163 0.852595 2.24837Q0.921592 2.14511 0.995573 2.04536Q1.06955 1.94561 1.14834 1.8496Q1.22713 1.7536 1.31053 1.66158Q1.39393 1.56956 1.48175 1.48175Q1.56956 1.39393 1.66158 1.31053Q1.7536 1.22713 1.8496 1.14834Q1.94561 1.06955 2.04536 0.995573Q2.14511 0.921592 2.24837 0.852595Q2.35163 0.783598 2.45815 0.719751Q2.56468 0.655904 2.6742 0.59736Q2.78373 0.538817 2.896 0.485718Q3.00827 0.432619 3.123 0.385093Q3.23774 0.337567 3.35467 0.295729Q3.47161 0.25389 3.59045 0.217839Q3.70929 0.181788 3.82976 0.151612Q3.95023 0.121436 4.07204 0.0972072Q4.19384 0.0729787 4.31669 0.054756Q4.43954 0.0365334 4.56313 0.0243605Q4.68673 0.0121876 4.81077 0.00609379Q4.93481 0 5.059 0Z" transform="translate(0.1438912 10.03218)" id="Rectangle-39" fill="#63462E" stroke="none" />
    <path d="M5.059 0L7.78775 0Q7.91194 0 8.03599 0.00609379Q8.16003 0.0121876 8.28362 0.0243605Q8.40722 0.0365334 8.53006 0.054756Q8.65291 0.0729787 8.77471 0.0972072Q8.89652 0.121436 9.01699 0.151612Q9.13746 0.181788 9.2563 0.217839Q9.37515 0.25389 9.49208 0.295729Q9.60901 0.337567 9.72375 0.385093Q9.83849 0.432619 9.95075 0.485718Q10.063 0.538817 10.1725 0.59736Q10.2821 0.655904 10.3886 0.719751Q10.4951 0.783598 10.5984 0.852595Q10.7016 0.921592 10.8014 0.995573Q10.9011 1.06955 10.9971 1.14834Q11.0931 1.22713 11.1852 1.31053Q11.2772 1.39393 11.365 1.48175Q11.4528 1.56956 11.5362 1.66158Q11.6196 1.7536 11.6984 1.8496Q11.7772 1.94561 11.8512 2.04536Q11.9252 2.14511 11.9942 2.24837Q12.0632 2.35163 12.127 2.45815Q12.1908 2.56468 12.2494 2.6742Q12.3079 2.78373 12.361 2.896Q12.4141 3.00827 12.4617 3.123Q12.5092 3.23774 12.551 3.35467Q12.5929 3.47161 12.6289 3.59045Q12.665 3.70929 12.6951 3.82976Q12.7253 3.95023 12.7495 4.07204Q12.7738 4.19384 12.792 4.31669Q12.8102 4.43954 12.8224 4.56313Q12.8346 4.68673 12.8407 4.81077Q12.8468 4.93481 12.8468 5.059L12.8468 9.66226Q12.8468 9.78645 12.8407 9.91049Q12.8346 10.0345 12.8224 10.1581Q12.8102 10.2817 12.792 10.4046Q12.7738 10.5274 12.7495 10.6492Q12.7253 10.771 12.6951 10.8915Q12.665 11.012 12.6289 11.1308Q12.5929 11.2496 12.551 11.3666Q12.5092 11.4835 12.4617 11.5982Q12.4141 11.713 12.361 11.8253Q12.3079 11.9375 12.2494 12.0471Q12.1908 12.1566 12.127 12.2631Q12.0632 12.3696 11.9942 12.4729Q11.9252 12.5761 11.8512 12.6759Q11.7772 12.7756 11.6984 12.8717Q11.6196 12.9677 11.5362 13.0597Q11.4528 13.1517 11.365 13.2395Q11.2772 13.3273 11.1852 13.4107Q11.0931 13.4941 10.9971 13.5729Q10.9011 13.6517 10.8014 13.7257Q10.7016 13.7997 10.5984 13.8687Q10.4951 13.9377 10.3886 14.0015Q10.2821 14.0653 10.1725 14.1239Q10.063 14.1824 9.95075 14.2355Q9.83849 14.2886 9.72375 14.3362Q9.60901 14.3837 9.49208 14.4255Q9.37515 14.4674 9.2563 14.5034Q9.13746 14.5395 9.01699 14.5696Q8.89652 14.5998 8.77471 14.624Q8.65291 14.6483 8.53006 14.6665Q8.40722 14.6847 8.28362 14.6969Q8.16003 14.7091 8.03599 14.7152Q7.91194 14.7213 7.78775 14.7213L5.059 14.7213Q4.93481 14.7213 4.81077 14.7152Q4.68673 14.7091 4.56313 14.6969Q4.43954 14.6847 4.31669 14.6665Q4.19384 14.6483 4.07204 14.624Q3.95023 14.5998 3.82976 14.5696Q3.70929 14.5395 3.59045 14.5034Q3.47161 14.4674 3.35467 14.4255Q3.23774 14.3837 3.123 14.3362Q3.00827 14.2886 2.896 14.2355Q2.78373 14.1824 2.6742 14.1239Q2.56468 14.0653 2.45815 14.0015Q2.35163 13.9377 2.24837 13.8687Q2.14511 13.7997 2.04536 13.7257Q1.94561 13.6517 1.8496 13.5729Q1.7536 13.4941 1.66158 13.4107Q1.56956 13.3273 1.48175 13.2395Q1.39393 13.1517 1.31053 13.0597Q1.22713 12.9677 1.14834 12.8716Q1.06955 12.7756 0.995573 12.6759Q0.921592 12.5761 0.852595 12.4729Q0.783598 12.3696 0.719751 12.2631Q0.655904 12.1566 0.59736 12.047Q0.538817 11.9375 0.485718 11.8253Q0.432619 11.713 0.385093 11.5982Q0.337567 11.4835 0.295729 11.3666Q0.25389 11.2496 0.217839 11.1308Q0.181788 11.012 0.151612 10.8915Q0.121436 10.771 0.0972072 10.6492Q0.0729787 10.5274 0.054756 10.4046Q0.0365334 10.2817 0.0243605 10.1581Q0.0121876 10.0345 0.00609379 9.91049Q0 9.78645 0 9.66226L0 5.059Q0 4.93481 0.00609379 4.81077Q0.0121876 4.68673 0.0243605 4.56313Q0.0365334 4.43954 0.054756 4.31669Q0.0729787 4.19384 0.0972072 4.07204Q0.121436 3.95023 0.151612 3.82976Q0.181788 3.70929 0.217839 3.59045Q0.25389 3.47161 0.295729 3.35467Q0.337567 3.23774 0.385093 3.123Q0.432619 3.00827 0.485718 2.896Q0.538817 2.78373 0.59736 2.6742Q0.655904 2.56468 0.719751 2.45815Q0.783598 2.35163 0.852595 2.24837Q0.921592 2.14511 0.995573 2.04536Q1.06955 1.94561 1.14834 1.8496Q1.22713 1.7536 1.31053 1.66158Q1.39393 1.56956 1.48175 1.48175Q1.56956 1.39393 1.66158 1.31053Q1.7536 1.22713 1.8496 1.14834Q1.94561 1.06955 2.04536 0.995573Q2.14511 0.921592 2.24837 0.852595Q2.35163 0.783598 2.45815 0.719751Q2.56468 0.655904 2.6742 0.59736Q2.78373 0.538817 2.896 0.485718Q3.00827 0.432619 3.123 0.385093Q3.23774 0.337567 3.35467 0.295729Q3.47161 0.25389 3.59045 0.217839Q3.70929 0.181788 3.82976 0.151612Q3.95023 0.121436 4.07204 0.0972072Q4.19384 0.0729787 4.31669 0.054756Q4.43954 0.0365334 4.56313 0.0243605Q4.68673 0.0121876 4.81077 0.00609379Q4.93481 0 5.059 0Z" transform="translate(102.4433 10.03218)" id="Rectangle-39-Copy" fill="#63462E" stroke="none" />
    <path d="M1.19716 -2.88658e-14C0.421863 2.54316 0 5.27989 0 8.13086C0 21.6025 9.41951 32.5234 21.0391 32.5234C32.6586 32.5234 42.0781 21.6025 42.0781 8.13086C42.0781 5.27989 41.6563 2.54316 40.881 2.24265e-14L1.19716 0L1.19716 -2.88658e-14Z" transform="translate(9.257942 13.19704)" id="Combined-Shape" fill="#E8E7E6" fill-rule="evenodd" stroke="none" />
    <path d="M1.19716 -2.88658e-14C0.421863 2.54316 0 5.27989 0 8.13086C0 21.6025 9.41951 32.5234 21.0391 32.5234C32.6586 32.5234 42.0781 21.6025 42.0781 8.13086C42.0781 5.27989 41.6563 2.54316 40.881 2.24265e-14L1.19716 0L1.19716 -2.88658e-14Z" transform="translate(64.39931 13.19704)" id="Combined-Shape-Copy-7" fill="#E8E7E6" fill-rule="evenodd" stroke="none" />
    <path d="M41.8968 0L5.059 0Q4.93481 0 4.81077 0.00609379Q4.68673 0.0121876 4.56313 0.0243605Q4.43954 0.0365334 4.31669 0.054756Q4.19384 0.0729787 4.07204 0.0972072Q3.95023 0.121436 3.82976 0.151612Q3.70929 0.181788 3.59045 0.217839Q3.47161 0.25389 3.35467 0.295729Q3.23774 0.337567 3.123 0.385093Q3.00827 0.432619 2.896 0.485718Q2.78373 0.538817 2.6742 0.59736Q2.56468 0.655904 2.45815 0.719751Q2.35163 0.783598 2.24837 0.852595Q2.14511 0.921592 2.04536 0.995573Q1.94561 1.06955 1.8496 1.14834Q1.7536 1.22713 1.66158 1.31053Q1.56956 1.39393 1.48175 1.48175Q1.39393 1.56956 1.31053 1.66158Q1.22713 1.7536 1.14834 1.8496Q1.06955 1.94561 0.995573 2.04536Q0.921592 2.14511 0.852595 2.24837Q0.783598 2.35163 0.719751 2.45815Q0.655904 2.56468 0.59736 2.6742Q0.538817 2.78373 0.485718 2.896Q0.432619 3.00827 0.385093 3.123Q0.337567 3.23774 0.295729 3.35467Q0.25389 3.47161 0.217839 3.59045Q0.181788 3.70929 0.151612 3.82976Q0.121436 3.95023 0.0972072 4.07204Q0.0729787 4.19384 0.054756 4.31669Q0.0365334 4.43954 0.0243605 4.56313Q0.0121876 4.68673 0.00609379 4.81077Q0 4.93481 0 5.059L0 11.3833Q0 11.7198 0.0445767 12.0534Q0.0891535 12.387 0.177521 12.7117Q0.265889 13.0364 0.396491 13.3466Q0.527093 13.6567 0.697627 13.9469Q0.868161 14.237 1.07562 14.502Q1.28308 14.767 1.52382 15.0021Q1.76455 15.2373 2.03431 15.4385Q2.30407 15.6397 2.5981 15.8034L2.5981 14.2375Q2.5981 14.1133 2.6042 13.9893Q2.61029 13.8652 2.62246 13.7416Q2.63464 13.618 2.65286 13.4952Q2.67108 13.3723 2.69531 13.2505Q2.71954 13.1287 2.74972 13.0083Q2.77989 12.8878 2.81594 12.7689Q2.85199 12.6501 2.89383 12.5332Q2.93567 12.4162 2.9832 12.3015Q3.03072 12.1868 3.08382 12.0745Q3.13692 11.9622 3.19546 11.8527Q3.25401 11.7432 3.31786 11.6366Q3.3817 11.5301 3.4507 11.4269Q3.5197 11.3236 3.59368 11.2239Q3.66766 11.1241 3.74644 11.0281Q3.82523 10.9321 3.90863 10.8401Q3.99203 10.7481 4.07985 10.6602Q4.16767 10.5724 4.25969 10.489Q4.35171 10.4056 4.44771 10.3268Q4.54371 10.248 4.64346 10.1741Q4.74321 10.1001 4.84647 10.0311Q4.94974 9.96209 5.05626 9.89824Q5.16278 9.8344 5.27231 9.77586Q5.38183 9.71731 5.4941 9.66421Q5.60637 9.61111 5.72111 9.56359Q5.83585 9.51606 5.95278 9.47422Q6.06971 9.43238 6.18855 9.39633Q6.3074 9.36028 6.42787 9.33011Q6.54834 9.29993 6.67014 9.2757Q6.79195 9.25147 6.91479 9.23325Q7.03764 9.21503 7.16124 9.20286Q7.28483 9.19068 7.40887 9.18459Q7.53291 9.17849 7.6571 9.17849L39.427 9.17849Q39.5512 9.17849 39.6752 9.18459Q39.7993 9.19068 39.9229 9.20286Q40.0465 9.21503 40.1693 9.23325Q40.2922 9.25147 40.414 9.2757Q40.5358 9.29993 40.6562 9.33011Q40.7767 9.36028 40.8956 9.39633Q41.0144 9.43238 41.1313 9.47422Q41.2483 9.51606 41.363 9.56359Q41.4777 9.61111 41.59 9.66421Q41.7023 9.71731 41.8118 9.77586Q41.9213 9.8344 42.0279 9.89824Q42.1344 9.96209 42.2376 10.0311Q42.3409 10.1001 42.4406 10.1741Q42.5404 10.248 42.6364 10.3268Q42.7324 10.4056 42.8244 10.489Q42.9164 10.5724 43.0043 10.6602Q43.0921 10.7481 43.1755 10.8401Q43.2589 10.9321 43.3377 11.0281Q43.4165 11.1241 43.4904 11.2239Q43.5644 11.3236 43.6334 11.4269Q43.7024 11.5301 43.7663 11.6366Q43.8301 11.7432 43.8886 11.8527Q43.9472 11.9622 44.0003 12.0745Q44.0534 12.1868 44.1009 12.3015Q44.1484 12.4162 44.1903 12.5332Q44.2321 12.6501 44.2682 12.7689Q44.3042 12.8878 44.3344 13.0083Q44.3646 13.1287 44.3888 13.2505Q44.413 13.3723 44.4313 13.4952Q44.4495 13.618 44.4617 13.7416Q44.4738 13.8652 44.4799 13.9893Q44.486 14.1133 44.486 14.2375L44.486 15.7295Q44.7671 15.562 45.0243 15.3597Q45.2816 15.1574 45.5106 14.9236Q45.7396 14.6899 45.9365 14.4286Q46.1335 14.1673 46.2952 13.8827Q46.4569 13.5982 46.5806 13.2953Q46.7042 12.9923 46.7878 12.6759Q46.8715 12.3596 46.9136 12.035Q46.9558 11.7105 46.9558 11.3833L46.9558 5.059Q46.9558 4.93481 46.9497 4.81077Q46.9436 4.68673 46.9314 4.56313Q46.9192 4.43954 46.901 4.31669Q46.8828 4.19384 46.8586 4.07204Q46.8343 3.95023 46.8041 3.82976Q46.774 3.70929 46.7379 3.59045Q46.7019 3.47161 46.66 3.35467Q46.6182 3.23774 46.5707 3.123Q46.5231 3.00827 46.47 2.896Q46.4169 2.78373 46.3584 2.6742Q46.2999 2.56468 46.236 2.45815Q46.1722 2.35163 46.1032 2.24837Q46.0342 2.14511 45.9602 2.04536Q45.8862 1.94561 45.8074 1.8496Q45.7286 1.7536 45.6452 1.66158Q45.5618 1.56956 45.474 1.48175Q45.3862 1.39393 45.2942 1.31053Q45.2022 1.22713 45.1062 1.14834Q45.0102 1.06955 44.9104 0.995573Q44.8107 0.921592 44.7074 0.852595Q44.6041 0.783598 44.4976 0.719751Q44.3911 0.655904 44.2816 0.59736Q44.172 0.538817 44.0598 0.485718Q43.9475 0.432619 43.8328 0.385093Q43.718 0.337567 43.6011 0.295729Q43.4842 0.25389 43.3653 0.217839Q43.2465 0.181788 43.126 0.151612Q43.0055 0.121436 42.8837 0.0972072Q42.7619 0.0729787 42.6391 0.054756Q42.5162 0.0365334 42.3926 0.0243605Q42.269 0.0121876 42.145 0.00609379Q42.021 0 41.8968 0Z" transform="translate(6.769526 6.057022)" id="Combined-Shape" fill="#8B5D3C" fill-rule="evenodd" stroke="none" />
    <path d="M41.8968 0L5.059 0Q4.93481 0 4.81077 0.00609379Q4.68673 0.0121876 4.56313 0.0243605Q4.43954 0.0365334 4.31669 0.054756Q4.19384 0.0729787 4.07204 0.0972072Q3.95023 0.121436 3.82976 0.151612Q3.70929 0.181788 3.59045 0.217839Q3.47161 0.25389 3.35467 0.295729Q3.23774 0.337567 3.123 0.385093Q3.00827 0.432619 2.896 0.485718Q2.78373 0.538817 2.6742 0.59736Q2.56468 0.655904 2.45815 0.719751Q2.35163 0.783598 2.24837 0.852595Q2.14511 0.921592 2.04536 0.995573Q1.94561 1.06955 1.8496 1.14834Q1.7536 1.22713 1.66158 1.31053Q1.56956 1.39393 1.48175 1.48175Q1.39393 1.56956 1.31053 1.66158Q1.22713 1.7536 1.14834 1.8496Q1.06955 1.94561 0.995573 2.04536Q0.921592 2.14511 0.852595 2.24837Q0.783598 2.35163 0.719751 2.45815Q0.655904 2.56468 0.59736 2.6742Q0.538817 2.78373 0.485718 2.896Q0.432619 3.00827 0.385093 3.123Q0.337567 3.23774 0.295729 3.35467Q0.25389 3.47161 0.217839 3.59045Q0.181788 3.70929 0.151612 3.82976Q0.121436 3.95023 0.0972072 4.07204Q0.0729787 4.19384 0.054756 4.31669Q0.0365334 4.43954 0.0243605 4.56313Q0.0121876 4.68673 0.00609379 4.81077Q0 4.93481 0 5.059L0 11.3833Q0 11.7198 0.0445767 12.0534Q0.0891535 12.387 0.177521 12.7117Q0.265889 13.0364 0.396491 13.3466Q0.527093 13.6567 0.697627 13.9469Q0.868161 14.237 1.07562 14.502Q1.28308 14.767 1.52382 15.0021Q1.76455 15.2373 2.03431 15.4385Q2.30407 15.6397 2.5981 15.8034L2.5981 14.2375Q2.5981 14.1133 2.6042 13.9893Q2.61029 13.8652 2.62246 13.7416Q2.63464 13.618 2.65286 13.4952Q2.67108 13.3723 2.69531 13.2505Q2.71954 13.1287 2.74972 13.0083Q2.77989 12.8878 2.81594 12.7689Q2.85199 12.6501 2.89383 12.5332Q2.93567 12.4162 2.9832 12.3015Q3.03072 12.1868 3.08382 12.0745Q3.13692 11.9622 3.19546 11.8527Q3.25401 11.7432 3.31786 11.6366Q3.3817 11.5301 3.4507 11.4269Q3.5197 11.3236 3.59368 11.2239Q3.66766 11.1241 3.74644 11.0281Q3.82523 10.9321 3.90863 10.8401Q3.99203 10.7481 4.07985 10.6602Q4.16767 10.5724 4.25969 10.489Q4.35171 10.4056 4.44771 10.3268Q4.54371 10.248 4.64346 10.1741Q4.74321 10.1001 4.84647 10.0311Q4.94974 9.96209 5.05626 9.89824Q5.16278 9.8344 5.27231 9.77586Q5.38183 9.71731 5.4941 9.66421Q5.60637 9.61111 5.72111 9.56359Q5.83585 9.51606 5.95278 9.47422Q6.06971 9.43238 6.18855 9.39633Q6.3074 9.36028 6.42787 9.33011Q6.54834 9.29993 6.67014 9.2757Q6.79195 9.25147 6.91479 9.23325Q7.03764 9.21503 7.16124 9.20286Q7.28483 9.19068 7.40887 9.18459Q7.53291 9.17849 7.6571 9.17849L39.427 9.17849Q39.5512 9.17849 39.6752 9.18459Q39.7993 9.19068 39.9229 9.20286Q40.0465 9.21503 40.1693 9.23325Q40.2922 9.25147 40.414 9.2757Q40.5358 9.29993 40.6562 9.33011Q40.7767 9.36028 40.8956 9.39633Q41.0144 9.43238 41.1313 9.47422Q41.2483 9.51606 41.363 9.56359Q41.4777 9.61111 41.59 9.66421Q41.7023 9.71731 41.8118 9.77586Q41.9213 9.8344 42.0279 9.89824Q42.1344 9.96209 42.2376 10.0311Q42.3409 10.1001 42.4406 10.1741Q42.5404 10.248 42.6364 10.3268Q42.7324 10.4056 42.8244 10.489Q42.9164 10.5724 43.0043 10.6602Q43.0921 10.7481 43.1755 10.8401Q43.2589 10.9321 43.3377 11.0281Q43.4165 11.1241 43.4904 11.2239Q43.5644 11.3236 43.6334 11.4269Q43.7024 11.5301 43.7663 11.6366Q43.8301 11.7432 43.8886 11.8527Q43.9472 11.9622 44.0003 12.0745Q44.0534 12.1868 44.1009 12.3015Q44.1484 12.4162 44.1903 12.5332Q44.2321 12.6501 44.2682 12.7689Q44.3042 12.8878 44.3344 13.0083Q44.3646 13.1287 44.3888 13.2505Q44.413 13.3723 44.4313 13.4952Q44.4495 13.618 44.4617 13.7416Q44.4738 13.8652 44.4799 13.9893Q44.486 14.1133 44.486 14.2375L44.486 15.7295Q44.7671 15.562 45.0243 15.3597Q45.2816 15.1574 45.5106 14.9236Q45.7396 14.6899 45.9365 14.4286Q46.1335 14.1673 46.2952 13.8827Q46.4569 13.5982 46.5806 13.2953Q46.7042 12.9923 46.7878 12.6759Q46.8715 12.3596 46.9136 12.035Q46.9558 11.7105 46.9558 11.3833L46.9558 5.059Q46.9558 4.93481 46.9497 4.81077Q46.9436 4.68673 46.9314 4.56313Q46.9192 4.43954 46.901 4.31669Q46.8828 4.19384 46.8586 4.07204Q46.8343 3.95023 46.8041 3.82976Q46.774 3.70929 46.7379 3.59045Q46.7019 3.47161 46.66 3.35467Q46.6182 3.23774 46.5707 3.123Q46.5231 3.00827 46.47 2.896Q46.4169 2.78373 46.3584 2.6742Q46.2999 2.56468 46.236 2.45815Q46.1722 2.35163 46.1032 2.24837Q46.0342 2.14511 45.9602 2.04536Q45.8862 1.94561 45.8074 1.8496Q45.7286 1.7536 45.6452 1.66158Q45.5618 1.56956 45.474 1.48175Q45.3862 1.39393 45.2942 1.31053Q45.2022 1.22713 45.1062 1.14834Q45.0102 1.06955 44.9104 0.995573Q44.8107 0.921592 44.7074 0.852595Q44.6041 0.783598 44.4976 0.719751Q44.3911 0.655904 44.2816 0.59736Q44.172 0.538817 44.0598 0.485718Q43.9475 0.432619 43.8328 0.385093Q43.718 0.337567 43.6011 0.295729Q43.4842 0.25389 43.3653 0.217839Q43.2465 0.181788 43.126 0.151612Q43.0055 0.121436 42.8837 0.0972072Q42.7619 0.0729787 42.6391 0.054756Q42.5162 0.0365334 42.3926 0.0243605Q42.269 0.0121876 42.145 0.00609379Q42.021 0 41.8968 0Z" transform="translate(61.9109 6.057022)" id="Combined-Shape-Copy-9" fill="#8B5D3C" fill-rule="evenodd" stroke="none" />
    <path d="M0 0C0 6.2444 4.36615 11.3065 9.75206 11.3065L9.75206 11.3065C15.138 11.3065 19.5041 6.2444 19.5041 0" transform="translate(22.83964 30.52767)" id="Oval-20" fill="#D3D3D3" stroke="none" />
    <path d="M0 0C0 6.2444 4.36615 11.3065 9.75206 11.3065L9.75206 11.3065C15.138 11.3065 19.5041 6.2444 19.5041 0" transform="translate(77.98101 30.52767)" id="Oval-20-Copy-2" fill="#D3D3D3" stroke="none" />
    <path d="M0 0C0 3.9711 2.77663 7.19031 6.20179 7.19031L6.20179 7.19031C9.62694 7.19031 12.4036 3.9711 12.4036 0" transform="translate(32.7208 26.11783)" id="Oval-20-Copy" fill="#D3D3D3" stroke="none" />
    <path d="M0 0C0 3.9711 2.77663 7.19031 6.20179 7.19031L6.20179 7.19031C9.62694 7.19031 12.4036 3.9711 12.4036 0" transform="translate(87.86217 26.11783)" id="Oval-20-Copy-3" fill="#D3D3D3" stroke="none" />
    <path d="M2.94465 0L5.41061 2.46596L2.55159 5.32499L0.0856237 2.85902L2.94465 0ZM11.3208 2.46597L8.85486 0L5.99583 2.85902L8.4618 5.32499L11.3208 2.46597ZM8.34665 5.86999L5.88069 3.40403L3.02166 6.26305L5.48763 8.72901L8.34665 5.86999ZM11.7909 3.40403L14.2569 5.86999L11.3978 8.72901L8.93187 6.26305L11.7909 3.40403ZM2.85902 6.90732L5.32499 9.37329L2.46596 12.2323L0 9.76635L2.85902 6.90732ZM11.2352 9.37329L8.76923 6.90732L5.91021 9.76635L8.37617 12.2323L11.2352 9.37329Z" transform="translate(12.79411 0.0754368)" id="Combined-Shape" fill="#FFFFFF" fill-rule="evenodd" stroke="none" />
    <path d="M2.94465 0L5.41061 2.46596L2.55159 5.32499L0.0856237 2.85902L2.94465 0ZM11.3208 2.46597L8.85486 0L5.99583 2.85902L8.4618 5.32499L11.3208 2.46597ZM8.34665 5.86999L5.88069 3.40403L3.02166 6.26305L5.48763 8.72901L8.34665 5.86999ZM11.7909 3.40403L14.2569 5.86999L11.3978 8.72901L8.93187 6.26305L11.7909 3.40403ZM2.85902 6.90732L5.32499 9.37329L2.46596 12.2323L0 9.76635L2.85902 6.90732ZM11.2352 9.37329L8.76923 6.90732L5.91021 9.76635L8.37617 12.2323L11.2352 9.37329Z" transform="translate(67.93549 0.0754368)" id="Combined-Shape-Copy-10" fill="#FFFFFF" fill-rule="evenodd" stroke="none" />
    <path d="M41.8968 0L5.059 0Q4.93481 0 4.81077 0.00609379Q4.68673 0.0121876 4.56313 0.0243605Q4.43954 0.0365334 4.31669 0.054756Q4.19384 0.0729787 4.07204 0.0972072Q3.95023 0.121436 3.82976 0.151612Q3.70929 0.181788 3.59045 0.217839Q3.47161 0.25389 3.35467 0.295729Q3.23774 0.337567 3.123 0.385093Q3.00827 0.432619 2.896 0.485718Q2.78373 0.538817 2.6742 0.59736Q2.56468 0.655904 2.45815 0.719751Q2.35163 0.783598 2.24837 0.852595Q2.14511 0.921592 2.04536 0.995573Q1.94561 1.06955 1.8496 1.14834Q1.7536 1.22713 1.66158 1.31053Q1.56956 1.39393 1.48175 1.48175Q1.39393 1.56956 1.31053 1.66158Q1.22713 1.7536 1.14834 1.8496Q1.06955 1.94561 0.995573 2.04536Q0.921592 2.14511 0.852595 2.24837Q0.783598 2.35163 0.719751 2.45815Q0.655904 2.56468 0.59736 2.6742Q0.538817 2.78373 0.485718 2.896Q0.432619 3.00827 0.385093 3.123Q0.337567 3.23774 0.295729 3.35467Q0.25389 3.47161 0.217839 3.59045Q0.181788 3.70929 0.151612 3.82976Q0.121436 3.95023 0.0972072 4.07204Q0.0729787 4.19384 0.054756 4.31669Q0.0365334 4.43954 0.0243605 4.56313Q0.0121876 4.68673 0.00609379 4.81077Q0 4.93481 0 5.059L0 11.3833Q0 11.7198 0.0445767 12.0534Q0.0891535 12.387 0.177521 12.7117Q0.265889 13.0364 0.396491 13.3466Q0.527093 13.6567 0.697627 13.9469Q0.868161 14.237 1.07562 14.502Q1.28308 14.767 1.52382 15.0021Q1.76455 15.2373 2.03431 15.4385Q2.30407 15.6397 2.5981 15.8034L2.5981 14.2375Q2.5981 14.1133 2.6042 13.9893Q2.61029 13.8652 2.62246 13.7416Q2.63464 13.618 2.65286 13.4952Q2.67108 13.3723 2.69531 13.2505Q2.71954 13.1287 2.74972 13.0083Q2.77989 12.8878 2.81594 12.7689Q2.85199 12.6501 2.89383 12.5332Q2.93567 12.4162 2.9832 12.3015Q3.03072 12.1868 3.08382 12.0745Q3.13692 11.9622 3.19546 11.8527Q3.25401 11.7432 3.31786 11.6366Q3.3817 11.5301 3.4507 11.4269Q3.5197 11.3236 3.59368 11.2239Q3.66766 11.1241 3.74644 11.0281Q3.82523 10.9321 3.90863 10.8401Q3.99203 10.7481 4.07985 10.6602Q4.16767 10.5724 4.25969 10.489Q4.35171 10.4056 4.44771 10.3268Q4.54371 10.248 4.64346 10.1741Q4.74321 10.1001 4.84647 10.0311Q4.94974 9.96209 5.05626 9.89824Q5.16278 9.8344 5.27231 9.77586Q5.38183 9.71731 5.4941 9.66421Q5.60637 9.61111 5.72111 9.56359Q5.83585 9.51606 5.95278 9.47422Q6.06971 9.43238 6.18855 9.39633Q6.3074 9.36028 6.42787 9.33011Q6.54834 9.29993 6.67014 9.2757Q6.79195 9.25147 6.91479 9.23325Q7.03764 9.21503 7.16124 9.20286Q7.28483 9.19068 7.40887 9.18459Q7.53291 9.17849 7.6571 9.17849L39.427 9.17849Q39.5512 9.17849 39.6752 9.18459Q39.7993 9.19068 39.9229 9.20286Q40.0465 9.21503 40.1693 9.23325Q40.2922 9.25147 40.414 9.2757Q40.5358 9.29993 40.6562 9.33011Q40.7767 9.36028 40.8956 9.39633Q41.0144 9.43238 41.1313 9.47422Q41.2483 9.51606 41.363 9.56359Q41.4777 9.61111 41.59 9.66421Q41.7023 9.71731 41.8118 9.77586Q41.9213 9.8344 42.0279 9.89824Q42.1344 9.96209 42.2376 10.0311Q42.3409 10.1001 42.4406 10.1741Q42.5404 10.248 42.6364 10.3268Q42.7324 10.4056 42.8244 10.489Q42.9164 10.5724 43.0043 10.6602Q43.0921 10.7481 43.1755 10.8401Q43.2589 10.9321 43.3377 11.0281Q43.4165 11.1241 43.4904 11.2239Q43.5644 11.3236 43.6334 11.4269Q43.7024 11.5301 43.7663 11.6366Q43.8301 11.7432 43.8886 11.8527Q43.9472 11.9622 44.0003 12.0745Q44.0534 12.1868 44.1009 12.3015Q44.1484 12.4162 44.1903 12.5332Q44.2321 12.6501 44.2682 12.7689Q44.3042 12.8878 44.3344 13.0083Q44.3646 13.1287 44.3888 13.2505Q44.413 13.3723 44.4313 13.4952Q44.4495 13.618 44.4617 13.7416Q44.4738 13.8652 44.4799 13.9893Q44.486 14.1133 44.486 14.2375L44.486 15.7295Q44.7671 15.562 45.0243 15.3597Q45.2816 15.1574 45.5106 14.9236Q45.7396 14.6899 45.9365 14.4286Q46.1335 14.1673 46.2952 13.8827Q46.4569 13.5982 46.5806 13.2953Q46.7042 12.9923 46.7878 12.6759Q46.8715 12.3596 46.9136 12.035Q46.9558 11.7105 46.9558 11.3833L46.9558 5.059Q46.9558 4.93481 46.9497 4.81077Q46.9436 4.68673 46.9314 4.56313Q46.9192 4.43954 46.901 4.31669Q46.8828 4.19384 46.8586 4.07204Q46.8343 3.95023 46.8041 3.82976Q46.774 3.70929 46.7379 3.59045Q46.7019 3.47161 46.66 3.35467Q46.6182 3.23774 46.5707 3.123Q46.5231 3.00827 46.47 2.896Q46.4169 2.78373 46.3584 2.6742Q46.2999 2.56468 46.236 2.45815Q46.1722 2.35163 46.1032 2.24837Q46.0342 2.14511 45.9602 2.04536Q45.8862 1.94561 45.8074 1.8496Q45.7286 1.7536 45.6452 1.66158Q45.5618 1.56956 45.474 1.48175Q45.3862 1.39393 45.2942 1.31053Q45.2022 1.22713 45.1062 1.14834Q45.0102 1.06955 44.9104 0.995573Q44.8107 0.921592 44.7074 0.852595Q44.6041 0.783598 44.4976 0.719751Q44.3911 0.655904 44.2816 0.59736Q44.172 0.538817 44.0598 0.485718Q43.9475 0.432619 43.8328 0.385093Q43.718 0.337567 43.6011 0.295729Q43.4842 0.25389 43.3653 0.217839Q43.2465 0.181788 43.126 0.151612Q43.0055 0.121436 42.8837 0.0972072Q42.7619 0.0729787 42.6391 0.054756Q42.5162 0.0365334 42.3926 0.0243605Q42.269 0.0121876 42.145 0.00609379Q42.021 0 41.8968 0Z" transform="translate(6.769526 6.057022)" id="Combined-Shape-Copy-8" fill="#8B5D3C" fill-rule="evenodd" stroke="none" />
    <path d="M41.8968 0L5.059 0Q4.93481 0 4.81077 0.00609379Q4.68673 0.0121876 4.56313 0.0243605Q4.43954 0.0365334 4.31669 0.054756Q4.19384 0.0729787 4.07204 0.0972072Q3.95023 0.121436 3.82976 0.151612Q3.70929 0.181788 3.59045 0.217839Q3.47161 0.25389 3.35467 0.295729Q3.23774 0.337567 3.123 0.385093Q3.00827 0.432619 2.896 0.485718Q2.78373 0.538817 2.6742 0.59736Q2.56468 0.655904 2.45815 0.719751Q2.35163 0.783598 2.24837 0.852595Q2.14511 0.921592 2.04536 0.995573Q1.94561 1.06955 1.8496 1.14834Q1.7536 1.22713 1.66158 1.31053Q1.56956 1.39393 1.48175 1.48175Q1.39393 1.56956 1.31053 1.66158Q1.22713 1.7536 1.14834 1.8496Q1.06955 1.94561 0.995573 2.04536Q0.921592 2.14511 0.852595 2.24837Q0.783598 2.35163 0.719751 2.45815Q0.655904 2.56468 0.59736 2.6742Q0.538817 2.78373 0.485718 2.896Q0.432619 3.00827 0.385093 3.123Q0.337567 3.23774 0.295729 3.35467Q0.25389 3.47161 0.217839 3.59045Q0.181788 3.70929 0.151612 3.82976Q0.121436 3.95023 0.0972072 4.07204Q0.0729787 4.19384 0.054756 4.31669Q0.0365334 4.43954 0.0243605 4.56313Q0.0121876 4.68673 0.00609379 4.81077Q0 4.93481 0 5.059L0 11.3833Q0 11.7198 0.0445767 12.0534Q0.0891535 12.387 0.177521 12.7117Q0.265889 13.0364 0.396491 13.3466Q0.527093 13.6567 0.697627 13.9469Q0.868161 14.237 1.07562 14.502Q1.28308 14.767 1.52382 15.0021Q1.76455 15.2373 2.03431 15.4385Q2.30407 15.6397 2.5981 15.8034L2.5981 14.2375Q2.5981 14.1133 2.6042 13.9893Q2.61029 13.8652 2.62246 13.7416Q2.63464 13.618 2.65286 13.4952Q2.67108 13.3723 2.69531 13.2505Q2.71954 13.1287 2.74972 13.0083Q2.77989 12.8878 2.81594 12.7689Q2.85199 12.6501 2.89383 12.5332Q2.93567 12.4162 2.9832 12.3015Q3.03072 12.1868 3.08382 12.0745Q3.13692 11.9622 3.19546 11.8527Q3.25401 11.7432 3.31786 11.6366Q3.3817 11.5301 3.4507 11.4269Q3.5197 11.3236 3.59368 11.2239Q3.66766 11.1241 3.74644 11.0281Q3.82523 10.9321 3.90863 10.8401Q3.99203 10.7481 4.07985 10.6602Q4.16767 10.5724 4.25969 10.489Q4.35171 10.4056 4.44771 10.3268Q4.54371 10.248 4.64346 10.1741Q4.74321 10.1001 4.84647 10.0311Q4.94974 9.96209 5.05626 9.89824Q5.16278 9.8344 5.27231 9.77586Q5.38183 9.71731 5.4941 9.66421Q5.60637 9.61111 5.72111 9.56359Q5.83585 9.51606 5.95278 9.47422Q6.06971 9.43238 6.18855 9.39633Q6.3074 9.36028 6.42787 9.33011Q6.54834 9.29993 6.67014 9.2757Q6.79195 9.25147 6.91479 9.23325Q7.03764 9.21503 7.16124 9.20286Q7.28483 9.19068 7.40887 9.18459Q7.53291 9.17849 7.6571 9.17849L39.427 9.17849Q39.5512 9.17849 39.6752 9.18459Q39.7993 9.19068 39.9229 9.20286Q40.0465 9.21503 40.1693 9.23325Q40.2922 9.25147 40.414 9.2757Q40.5358 9.29993 40.6562 9.33011Q40.7767 9.36028 40.8956 9.39633Q41.0144 9.43238 41.1313 9.47422Q41.2483 9.51606 41.363 9.56359Q41.4777 9.61111 41.59 9.66421Q41.7023 9.71731 41.8118 9.77586Q41.9213 9.8344 42.0279 9.89824Q42.1344 9.96209 42.2376 10.0311Q42.3409 10.1001 42.4406 10.1741Q42.5404 10.248 42.6364 10.3268Q42.7324 10.4056 42.8244 10.489Q42.9164 10.5724 43.0043 10.6602Q43.0921 10.7481 43.1755 10.8401Q43.2589 10.9321 43.3377 11.0281Q43.4165 11.1241 43.4904 11.2239Q43.5644 11.3236 43.6334 11.4269Q43.7024 11.5301 43.7663 11.6366Q43.8301 11.7432 43.8886 11.8527Q43.9472 11.9622 44.0003 12.0745Q44.0534 12.1868 44.1009 12.3015Q44.1484 12.4162 44.1903 12.5332Q44.2321 12.6501 44.2682 12.7689Q44.3042 12.8878 44.3344 13.0083Q44.3646 13.1287 44.3888 13.2505Q44.413 13.3723 44.4313 13.4952Q44.4495 13.618 44.4617 13.7416Q44.4738 13.8652 44.4799 13.9893Q44.486 14.1133 44.486 14.2375L44.486 15.7295Q44.7671 15.562 45.0243 15.3597Q45.2816 15.1574 45.5106 14.9236Q45.7396 14.6899 45.9365 14.4286Q46.1335 14.1673 46.2952 13.8827Q46.4569 13.5982 46.5806 13.2953Q46.7042 12.9923 46.7878 12.6759Q46.8715 12.3596 46.9136 12.035Q46.9558 11.7105 46.9558 11.3833L46.9558 5.059Q46.9558 4.93481 46.9497 4.81077Q46.9436 4.68673 46.9314 4.56313Q46.9192 4.43954 46.901 4.31669Q46.8828 4.19384 46.8586 4.07204Q46.8343 3.95023 46.8041 3.82976Q46.774 3.70929 46.7379 3.59045Q46.7019 3.47161 46.66 3.35467Q46.6182 3.23774 46.5707 3.123Q46.5231 3.00827 46.47 2.896Q46.4169 2.78373 46.3584 2.6742Q46.2999 2.56468 46.236 2.45815Q46.1722 2.35163 46.1032 2.24837Q46.0342 2.14511 45.9602 2.04536Q45.8862 1.94561 45.8074 1.8496Q45.7286 1.7536 45.6452 1.66158Q45.5618 1.56956 45.474 1.48175Q45.3862 1.39393 45.2942 1.31053Q45.2022 1.22713 45.1062 1.14834Q45.0102 1.06955 44.9104 0.995573Q44.8107 0.921592 44.7074 0.852595Q44.6041 0.783598 44.4976 0.719751Q44.3911 0.655904 44.2816 0.59736Q44.172 0.538817 44.0598 0.485718Q43.9475 0.432619 43.8328 0.385093Q43.718 0.337567 43.6011 0.295729Q43.4842 0.25389 43.3653 0.217839Q43.2465 0.181788 43.126 0.151612Q43.0055 0.121436 42.8837 0.0972072Q42.7619 0.0729787 42.6391 0.054756Q42.5162 0.0365334 42.3926 0.0243605Q42.269 0.0121876 42.145 0.00609379Q42.021 0 41.8968 0Z" transform="translate(61.9109 6.057022)" id="Combined-Shape-Copy-11" fill="#8B5D3C" fill-rule="evenodd" stroke="none" />
    <path d="M3.10902 6.93889e-17L3.02166 0.0873592L5.48763 2.55332L8.04095 -1.11022e-16L3.10902 0L3.10902 6.93889e-17ZM9.01923 1.38778e-17L8.93187 0.0873592L11.3978 2.55332L13.9512 0L9.01923 0L9.01923 1.38778e-17ZM5.32499 3.1976L2.85902 0.731633L0 3.59066L2.46596 6.05662L5.32499 3.1976ZM8.76923 0.731633L11.2352 3.1976L8.37617 6.05662L5.91021 3.59066L8.76923 0.731633Z" transform="translate(12.79411 6.077936)" id="Combined-Shape" fill="#63462E" fill-rule="evenodd" stroke="none" />
    <path d="M3.10902 6.93889e-17L3.02166 0.0873592L5.48763 2.55332L8.04095 -1.11022e-16L3.10902 0L3.10902 6.93889e-17ZM9.01923 1.38778e-17L8.93187 0.0873592L11.3978 2.55332L13.9512 0L9.01923 0L9.01923 1.38778e-17ZM5.32499 3.1976L2.85902 0.731633L0 3.59066L2.46596 6.05662L5.32499 3.1976ZM8.76923 0.731633L11.2352 3.1976L8.37617 6.05662L5.91021 3.59066L8.76923 0.731633Z" transform="translate(67.93549 6.077936)" id="Combined-Shape-Copy-12" fill="#63462E" fill-rule="evenodd" stroke="none" />
    <path d="M2.51077 5.82194C3.89743 5.82194 5.02154 4.51866 5.02154 2.91097C5.02154 1.30329 3.89743 0 2.51077 0C1.12411 0 0 1.30329 0 2.91097C0 4.51866 1.12411 5.82194 2.51077 5.82194Z" transform="translate(12.99064 17.91239)" id="Oval-21" fill="#FFFFFF" stroke="none" />
    <path d="M2.51077 5.82194C3.89743 5.82194 5.02154 4.51866 5.02154 2.91097C5.02154 1.30329 3.89743 0 2.51077 0C1.12411 0 0 1.30329 0 2.91097C0 4.51866 1.12411 5.82194 2.51077 5.82194Z" transform="translate(68.13201 17.91239)" id="Oval-21-Copy-2" fill="#FFFFFF" stroke="none" />
    <path d="M6.03337 13.9901C9.36552 13.9901 12.0667 10.8583 12.0667 6.99506C12.0667 3.13179 9.36552 0 6.03337 0C2.70123 0 0 3.13179 0 6.99506C0 10.8583 2.70123 13.9901 6.03337 13.9901Z" transform="translate(16.80626 23.53261)" id="Oval-21-Copy" fill="#FFFFFF" stroke="none" />
    <path d="M6.03337 13.9901C9.36552 13.9901 12.0667 10.8583 12.0667 6.99506C12.0667 3.13179 9.36552 0 6.03337 0C2.70123 0 0 3.13179 0 6.99506C0 10.8583 2.70123 13.9901 6.03337 13.9901Z" transform="translate(71.94763 23.53261)" id="Oval-21-Copy-3" fill="#FFFFFF" stroke="none" />
    <path d="M1.81795 4.21545C2.82198 4.21545 3.63591 3.27179 3.63591 2.10772C3.63591 0.94366 2.82198 0 1.81795 0C0.813925 0 0 0.94366 0 2.10772C0 3.27179 0.813925 4.21545 1.81795 4.21545Z" transform="translate(1.338938 11.37853)" id="Oval-22" fill="#8B5D3C" stroke="none" />
    <path d="M1.81795 4.21545C2.82198 4.21545 3.63591 3.27179 3.63591 2.10772C3.63591 0.94366 2.82198 0 1.81795 0C0.813925 0 0 0.94366 0 2.10772C0 3.27179 0.813925 4.21545 1.81795 4.21545Z" transform="translate(110.3097 11.37853)" id="Oval-22-Copy" fill="#8B5D3C" stroke="none" />
    <path d="M6.9329 0L6.9309 0Q6.76076 0 6.59082 0.00834857Q6.42088 0.0166971 6.25155 0.0333742Q6.08223 0.0500512 5.91393 0.0750165Q5.74562 0.0999818 5.57875 0.133175Q5.41187 0.166369 5.24683 0.20771Q5.08178 0.249052 4.91897 0.298442Q4.75615 0.347832 4.59595 0.405152Q4.43575 0.462472 4.27856 0.527583Q4.12137 0.592695 3.96756 0.665441Q3.81375 0.738187 3.6637 0.818392Q3.51364 0.898597 3.36771 0.986069Q3.22177 1.07354 3.0803 1.16807Q2.93883 1.26259 2.80217 1.36395Q2.66551 1.4653 2.53398 1.57324Q2.40246 1.68118 2.27639 1.79544Q2.15032 1.9097 2.03001 2.03001Q1.9097 2.15032 1.79544 2.27639Q1.68118 2.40246 1.57324 2.53398Q1.4653 2.66551 1.36395 2.80217Q1.26259 2.93883 1.16807 3.0803Q1.07354 3.22177 0.986069 3.36771Q0.898597 3.51364 0.818392 3.6637Q0.738187 3.81375 0.665441 3.96756Q0.592695 4.12137 0.527583 4.27856Q0.462472 4.43575 0.405152 4.59595Q0.347832 4.75615 0.298442 4.91897Q0.249052 5.08178 0.20771 5.24683Q0.166369 5.41187 0.133175 5.57875Q0.0999818 5.74562 0.0750165 5.91393Q0.0500512 6.08223 0.0333742 6.25155Q0.0166971 6.42088 0.00834857 6.59082Q0 6.76076 0 6.9309L0 10.0418Q-7.1461e-16 10.7342 0.136941 11.4128Q0.273881 12.0914 0.542352 12.7296Q0.640881 12.4954 0.756294 12.269Q0.871706 12.0426 1.00338 11.8254Q1.13506 11.6081 1.28229 11.401Q1.42953 11.1939 1.59153 10.9982Q1.75353 10.8024 1.92943 10.6191Q2.10532 10.4357 2.29417 10.2658Q2.48302 10.0958 2.68381 9.94008Q2.8846 9.78439 3.09625 9.64381Q3.3079 9.50324 3.52927 9.37854Q3.75065 9.25384 3.98056 9.14568Q4.21047 9.03752 4.44768 8.94649Q4.6849 8.85546 4.92814 8.78204Q5.17138 8.70862 5.41935 8.65321Q5.66731 8.59779 5.91867 8.56069Q6.17002 8.52358 6.42342 8.50497Q6.67682 8.48637 6.9309 8.48637L6.9329 8.48637Q7.18698 8.48637 7.44038 8.50497Q7.69378 8.52358 7.94513 8.56069Q8.19649 8.59779 8.44446 8.6532Q8.69242 8.70862 8.93566 8.78204Q9.1789 8.85546 9.41612 8.94649Q9.65333 9.03752 9.88324 9.14568Q10.1132 9.25383 10.3345 9.37854Q10.5559 9.50324 10.7676 9.64381Q10.9792 9.78439 11.18 9.94008Q11.3808 10.0958 11.5696 10.2658Q11.7585 10.4357 11.9344 10.6191Q12.1103 10.8024 12.2723 10.9982Q12.4343 11.1939 12.5815 11.401Q12.7287 11.6081 12.8604 11.8253Q12.9921 12.0426 13.1075 12.269Q13.2229 12.4954 13.3214 12.7296Q13.5899 12.0914 13.7269 11.4128Q13.8638 10.7342 13.8638 10.0418L13.8638 6.9309Q13.8638 6.76076 13.8555 6.59082Q13.8471 6.42088 13.8304 6.25155Q13.8137 6.08223 13.7888 5.91393Q13.7638 5.74562 13.7306 5.57875Q13.6974 5.41187 13.6561 5.24683Q13.6147 5.08178 13.5654 4.91897Q13.516 4.75615 13.4586 4.59595Q13.4013 4.43575 13.3362 4.27856Q13.2711 4.12137 13.1984 3.96756Q13.1256 3.81375 13.0454 3.6637Q12.9652 3.51364 12.8777 3.36771Q12.7903 3.22177 12.6957 3.0803Q12.6012 2.93883 12.4999 2.80217Q12.3985 2.66551 12.2906 2.53398Q12.1826 2.40246 12.0684 2.27639Q11.9541 2.15032 11.8338 2.03001Q11.7135 1.9097 11.5874 1.79544Q11.4613 1.68118 11.3298 1.57324Q11.1983 1.4653 11.0616 1.36395Q10.925 1.26259 10.7835 1.16807Q10.642 1.07354 10.4961 0.986069Q10.3502 0.898597 10.2001 0.818392Q10.05 0.738187 9.89624 0.665441Q9.74243 0.592695 9.58524 0.527583Q9.42805 0.462472 9.26785 0.405152Q9.10765 0.347832 8.94483 0.298442Q8.78202 0.249052 8.61697 0.20771Q8.45193 0.166369 8.28505 0.133175Q8.11818 0.0999818 7.94987 0.0750165Q7.78157 0.0500512 7.61225 0.0333742Q7.44292 0.0166971 7.27298 0.00834857Q7.10304 0 6.9329 0Z" transform="translate(50.76299 12.0237)" id="Combined-Shape" fill="#63462E" fill-rule="evenodd" stroke="none" />
  </g>
</svg>