<?xml version="1.0" encoding="utf-8"?>
<svg width="81px" height="95px" viewBox="0 0 81 95" version="1.1" xmlns:xlink="http://www.w3.org/1999/xlink" xmlns="http://www.w3.org/2000/svg">
  <desc>Created with Lunacy</desc>
  <defs>
    <path d="M35.1653 70.3306C54.5865 70.3306 70.3306 54.5865 70.3306 35.1653C70.3306 15.744 54.5865 0 35.1653 0C15.744 0 0 15.744 0 35.1653C0 54.5865 15.744 70.3306 35.1653 70.3306Z" transform="translate(0.1643224 0.04441847)" id="path_1" />
    <clipPath id="mask_1">
      <use xlink:href="#path_1" />
    </clipPath>
  </defs>
  <g id="kompas" transform="translate(0.2874756 0.2874756)">
    <path d="M16.8672 8.43361C16.8672 13.0914 13.0914 16.8672 8.43361 16.8672C3.77586 16.8672 0 13.0914 0 8.43361C0 3.77586 3.77586 0 8.43361 0C13.0914 0 16.8672 3.77586 16.8672 8.43361ZM14.0124 8.43361C14.0124 11.5147 11.5147 14.0124 8.43361 14.0124C5.35251 14.0124 2.85478 11.5147 2.85478 8.43361C2.85478 5.35251 5.35251 2.85478 8.43361 2.85478C11.5147 2.85478 14.0124 5.35251 14.0124 8.43361Z" transform="translate(29.90583 0.140338)" id="Combined-Shape" fill="#D73316" fill-rule="evenodd" stroke="none" />
    <path d="M38.1043 76.2086C59.1487 76.2086 76.2086 59.1487 76.2086 38.1043C76.2086 17.0599 59.1487 0 38.1043 0C17.0599 0 0 17.0599 0 38.1043C0 59.1487 17.0599 76.2086 38.1043 76.2086Z" transform="translate(0.1464418 17.53219)" id="Oval-16" fill="#8EC63E" stroke="none" />
    <g id="Oval-16-Copy-7" transform="translate(3.045083 20.23759)">
      <path d="M35.1653 70.3306C54.5865 70.3306 70.3306 54.5865 70.3306 35.1653C70.3306 15.744 54.5865 0 35.1653 0C15.744 0 0 15.744 0 35.1653C0 54.5865 15.744 70.3306 35.1653 70.3306Z" transform="translate(0.1643224 0.04441847)" id="Mask" fill="#75A83E" stroke="none" />
      <g clip-path="url(#mask_1)">
        <path d="M14.9911 29.9822C23.2705 29.9822 29.9822 23.2705 29.9822 14.9911C29.9822 6.71175 23.2705 0 14.9911 0C6.71175 0 0 6.71175 0 14.9911C0 23.2705 6.71175 29.9822 14.9911 29.9822Z" transform="translate(-23.76886 20.29049)" id="Oval-16-Copy-7" fill="#8EC63E" stroke="none" />
      </g>
    </g>
    <path d="M2.89864 5.79728C4.49952 5.79728 5.79728 4.49952 5.79728 2.89864C5.79728 1.29777 4.49952 0 2.89864 0C1.29777 0 0 1.29777 0 2.89864C0 4.49952 1.29777 5.79728 2.89864 5.79728Z" transform="translate(59.50289 76.1775)" id="Oval-17" fill="#FFFFFF" stroke="none" />
    <path d="M2.1678 4.33561C3.36505 4.33561 4.33561 3.36505 4.33561 2.1678C4.33561 0.970558 3.36505 0 2.1678 0C0.970558 0 0 0.970558 0 2.1678C0 3.36505 0.970558 4.33561 2.1678 4.33561Z" transform="translate(64.76067 72.17776)" id="Oval-17-Copy" fill="#FFFFFF" stroke="none" />
    <path d="M27.5641 55.1282C42.7873 55.1282 55.1282 42.7873 55.1282 27.5641C55.1282 12.3409 42.7873 0 27.5641 0C12.3409 0 0 12.3409 0 27.5641C0 42.7873 12.3409 55.1282 27.5641 55.1282Z" transform="translate(10.77479 28.16054)" id="Oval-16-Copy-2" fill="#D3D3D3" stroke="none" />
    <path d="M25.6675 51.3349C39.8432 51.3349 51.3349 39.8432 51.3349 25.6675C51.3349 11.4917 39.8432 0 25.6675 0C11.4917 0 0 11.4917 0 25.6675C0 39.8432 11.4917 51.3349 25.6675 51.3349Z" transform="translate(12.51398 29.89972)" id="Oval-16-Copy-3" fill="#FFFFFF" stroke="none" />
    <path d="M0 0C0 13.0038 10.5417 23.5455 23.5455 23.5455L23.5455 23.5455C36.5493 23.5455 47.091 13.0038 47.091 0" transform="translate(14.75585 55.44728)" id="Oval-16-Copy-4" fill="#D3D3D3" fill-opacity="0.4" stroke="none" />
    <path d="M4.5819 0C2.05138 0 0 2.05138 0 4.5819L16.4368 4.5819C16.4368 2.05138 14.3854 0 11.8549 0C10.3733 0 9.05594 0.703233 8.21841 1.79412C7.38087 0.703233 6.06351 0 4.5819 0Z" transform="translate(17.75235 41.14373)" id="Combined-Shape" fill="#EDEDED" fill-rule="evenodd" stroke="none" />
    <g id="Group-5" transform="matrix(0.8660253 0.5000002 -0.5000002 0.8660253 44.7504 33.43434)">
      <path d="M10.7483 5.61941L5.37414 0L0 5.61941L5.34624 27.8686L10.7483 5.61941" transform="translate(0.1575416 16.77446)" id="Rectangle-30-Copy-4" fill="#5A70DE" stroke="none" />
      <path d="M10.7483 22.2492L5.37414 27.8686L0 22.2492L5.34624 0L10.7483 22.2492Z" transform="translate(0.1575416 0.124543)" id="Rectangle-30" fill="#D73316" stroke="none" />
      <path d="M0 27.7903L0 0.0092904L0.00888491 0L5.38303 5.61941L0 27.7903Z" transform="translate(5.522798 16.77446)" id="Combined-Shape" fill="#4559BD" fill-rule="evenodd" stroke="none" />
      <path d="M0 27.781L0 1.5271e-06L5.38303 22.1709L0.00888491 27.7903L0 27.781Z" transform="translate(5.522798 0.2028572)" id="Combined-Shape" fill="#B82D14" fill-rule="evenodd" stroke="none" />
    </g>
    <path d="M2.64356 0C2.76415 0 2.86386 0.0394211 2.9427 0.118265C3.02154 0.197108 3.06097 0.29682 3.06097 0.417404L3.06097 4.31318C3.06097 4.43376 3.02154 4.53347 2.9427 4.61232C2.86386 4.69116 2.76415 4.73058 2.64356 4.73058C2.4766 4.73058 2.35602 4.66102 2.28181 4.52188L0.834809 1.98963L0.834809 4.31318C0.834809 4.43376 0.795388 4.53347 0.716544 4.61232C0.637701 4.69116 0.537988 4.73058 0.417404 4.73058C0.29682 4.73058 0.197108 4.69116 0.118265 4.61232C0.0394211 4.53347 0 4.43376 0 4.31318L0 0.417404C0 0.29682 0.0394211 0.197108 0.118265 0.118265C0.197108 0.0394211 0.29682 0 0.417404 0C0.584367 0 0.704949 0.0695667 0.779155 0.208702L2.22616 2.74096L2.22616 0.417404C2.22616 0.29682 2.26558 0.197108 2.34442 0.118265C2.42326 0.0394211 2.52298 0 2.64356 0L2.64356 0Z" transform="translate(36.28284 32.02539)" id="N" fill="#D73316" stroke="none" />
    <path d="M2.60182 2.21224C2.90792 2.46269 3.06097 2.79197 3.06097 3.2001C3.06097 3.41344 3.02154 3.61287 2.9427 3.79838C2.86386 3.98389 2.75487 4.14622 2.61573 4.28535C2.4766 4.42449 2.31428 4.53347 2.12876 4.61232C1.94325 4.69116 1.74382 4.73058 1.53048 4.73058C1.31714 4.73058 1.11772 4.69116 0.932203 4.61232C0.746689 4.53347 0.584367 4.42449 0.445231 4.28535C0.306096 4.14622 0.197108 3.98389 0.118265 3.79838C0.0394211 3.61287 0 3.41344 0 3.2001C0 3.07952 0.0394211 2.9798 0.118265 2.90096C0.197108 2.82212 0.29682 2.7827 0.417404 2.7827C0.537988 2.7827 0.637701 2.82212 0.716544 2.90096C0.795388 2.9798 0.834809 3.07952 0.834809 3.2001C0.834809 3.39489 0.902057 3.55953 1.03655 3.69403C1.17105 3.82853 1.33569 3.89577 1.53048 3.89577C1.72527 3.89577 1.88991 3.82853 2.02441 3.69403C2.15891 3.55953 2.22616 3.39489 2.22616 3.2001C2.22616 3.05169 2.17746 2.9427 2.08007 2.87313C1.98267 2.80357 1.79948 2.71777 1.53048 2.61573C1.39135 2.56936 1.25453 2.51834 1.12004 2.46269C0.985537 2.40703 0.857998 2.33283 0.737414 2.24007C0.431316 1.98963 0.27827 1.66034 0.27827 1.25221C0.27827 0.899737 0.398852 0.602919 0.64002 0.36175C0.881188 0.120582 1.17801 0 1.53048 0C1.88296 0 2.17978 0.120582 2.42095 0.36175C2.66211 0.602919 2.7827 0.899737 2.7827 1.25221C2.7827 1.3728 2.74327 1.47251 2.66443 1.55135C2.58559 1.6302 2.48588 1.66962 2.36529 1.66962C2.24471 1.66962 2.14499 1.6302 2.06615 1.55135C1.98731 1.47251 1.94789 1.3728 1.94789 1.25221C1.94789 1.1409 1.90615 1.04351 1.82267 0.96003C1.73918 0.876549 1.64179 0.834809 1.53048 0.834809C1.4099 0.834809 1.31019 0.876549 1.23134 0.96003C1.1525 1.04351 1.11308 1.1409 1.11308 1.25221C1.11308 1.40062 1.16177 1.50961 1.25917 1.57918C1.35656 1.64875 1.53976 1.73455 1.80875 1.83658C1.94789 1.88296 2.0847 1.93397 2.2192 1.98963C2.3537 2.04528 2.48124 2.11949 2.60182 2.21224L2.60182 2.21224Z" transform="translate(36.28284 74.34556)" id="s" fill="#5A70DE" stroke="none" />
    <path d="M4.98103 0.0139136C5.09233 0.0510164 5.17581 0.118264 5.23147 0.215659C5.28712 0.313054 5.30104 0.417404 5.27321 0.528712L4.16013 4.42449C4.0952 4.62855 3.9607 4.73058 3.75664 4.73058C3.70099 4.73058 3.66388 4.72594 3.64533 4.71667C3.5062 4.67957 3.4088 4.58217 3.35315 4.42449L2.64356 1.93397L1.93397 4.42449C1.86904 4.62855 1.73455 4.73058 1.53048 4.73058C1.47483 4.73058 1.43773 4.72594 1.41917 4.71667C1.28004 4.67957 1.18265 4.58217 1.12699 4.42449L0.0139136 0.528712C-0.0139135 0.417404 -1.54594e-07 0.313054 0.055654 0.215659C0.111308 0.118264 0.194788 0.0510164 0.306097 0.0139136C0.417405 -0.0139135 0.521755 -1.54594e-07 0.61915 0.055654C0.716545 0.111308 0.783793 0.194788 0.820895 0.306097L1.53048 2.79661L2.24007 0.306097C2.27717 0.194788 2.34442 0.111308 2.44182 0.055654C2.53921 -1.54594e-07 2.64356 -0.0139135 2.75487 0.0139136C2.88473 0.0510164 2.98212 0.14841 3.04705 0.306097L3.75664 2.79661L4.46623 0.306097C4.50333 0.194788 4.57058 0.111308 4.66797 0.055654C4.76537 -1.54594e-07 4.86972 -0.0139135 4.98103 0.0139136L4.98103 0.0139136Z" transform="translate(14.44641 53.2821)" id="w" fill="#5A70DE" stroke="none" />
    <path d="M2.64356 3.89577C2.76415 3.89577 2.86386 3.9352 2.9427 4.01404C3.02154 4.09288 3.06097 4.19259 3.06097 4.31318C3.06097 4.43376 3.02154 4.53347 2.9427 4.61232C2.86386 4.69116 2.76415 4.73058 2.64356 4.73058L0.417404 4.73058C0.29682 4.73058 0.197108 4.69116 0.118265 4.61232C0.0394211 4.53347 0 4.43376 0 4.31318L0 0.417404C0 0.29682 0.0394211 0.197108 0.118265 0.118265C0.197108 0.0394211 0.29682 0 0.417404 0L2.64356 0C2.76415 0 2.86386 0.0394211 2.9427 0.118265C3.02154 0.197108 3.06097 0.29682 3.06097 0.417404C3.06097 0.537988 3.02154 0.637701 2.9427 0.716544C2.86386 0.795388 2.76415 0.834809 2.64356 0.834809L0.834809 0.834809L0.834809 1.94789L1.80875 1.94789C1.92934 1.94789 2.02905 1.98731 2.10789 2.06615C2.18674 2.14499 2.22616 2.24471 2.22616 2.36529C2.22616 2.48588 2.18674 2.58559 2.10789 2.66443C2.02905 2.74327 1.92934 2.7827 1.80875 2.7827L0.834809 2.7827L0.834809 3.89577L2.64356 3.89577Z" transform="translate(58.50576 53.2821)" id="e" fill="#5A70DE" stroke="none" />
    <path d="M3.41148 0L3.41348 0Q3.58107 0 3.74786 0.0164272Q3.91465 0.0328544 4.07902 0.0655506Q4.2434 0.0982468 4.40378 0.146897Q4.56416 0.195547 4.71899 0.259683Q4.87383 0.323819 5.02164 0.402823Q5.16944 0.481827 5.30879 0.574938Q5.44814 0.668049 5.5777 0.77437Q5.70725 0.880691 5.82576 0.999199Q5.94427 1.11771 6.05059 1.24726Q6.15691 1.37681 6.25002 1.51616Q6.34313 1.65551 6.42213 1.80332Q6.50114 1.95112 6.56527 2.10596Q6.62941 2.2608 6.67806 2.42118Q6.72671 2.58156 6.75941 2.74593Q6.7921 2.91031 6.80853 3.0771Q6.82496 3.24388 6.82496 3.41148L6.82496 9.47427Q6.82496 9.64186 6.80853 9.80865Q6.7921 9.97544 6.75941 10.1398Q6.72671 10.3042 6.67806 10.4646Q6.62941 10.6249 6.56527 10.7798Q6.50114 10.9346 6.42213 11.0824Q6.34313 11.2302 6.25002 11.3696Q6.15691 11.5089 6.05059 11.6385Q5.94427 11.768 5.82576 11.8865Q5.70725 12.0051 5.5777 12.1114Q5.44814 12.2177 5.30879 12.3108Q5.16944 12.4039 5.02164 12.4829Q4.87383 12.5619 4.71899 12.6261Q4.56416 12.6902 4.40378 12.7388Q4.2434 12.7875 4.07902 12.8202Q3.91465 12.8529 3.74786 12.8693Q3.58107 12.8857 3.41348 12.8857L3.41148 12.8857Q3.24388 12.8857 3.0771 12.8693Q2.91031 12.8529 2.74593 12.8202Q2.58156 12.7875 2.42118 12.7388Q2.2608 12.6902 2.10596 12.6261Q1.95112 12.5619 1.80332 12.4829Q1.65551 12.4039 1.51616 12.3108Q1.37681 12.2177 1.24726 12.1114Q1.11771 12.0051 0.999199 11.8865Q0.880691 11.768 0.77437 11.6385Q0.668049 11.5089 0.574938 11.3696Q0.481827 11.2302 0.402823 11.0824Q0.323819 10.9346 0.259683 10.7798Q0.195547 10.6249 0.146897 10.4646Q0.0982468 10.3042 0.0655506 10.1398Q0.0328544 9.97544 0.0164272 9.80865Q0 9.64186 0 9.47427L0 3.41148Q0 3.24388 0.0164272 3.0771Q0.0328544 2.91031 0.0655506 2.74593Q0.0982468 2.58156 0.146897 2.42118Q0.195547 2.2608 0.259683 2.10596Q0.323819 1.95112 0.402823 1.80332Q0.481827 1.65551 0.574938 1.51616Q0.668049 1.37681 0.77437 1.24726Q0.880691 1.11771 0.999199 0.999199Q1.11771 0.880691 1.24726 0.77437Q1.37681 0.668049 1.51616 0.574938Q1.65551 0.481827 1.80332 0.402823Q1.95112 0.323819 2.10596 0.259683Q2.2608 0.195547 2.42118 0.146897Q2.58156 0.0982468 2.74593 0.0655506Q2.91031 0.0328544 3.0771 0.0164272Q3.24388 0 3.41148 0Z" transform="translate(34.93014 10.57545)" id="Rectangle-34" fill="#75A83E" stroke="none" />
    <path d="M1.839 0L14.5978 0Q14.6882 0 14.7781 0.00885529Q14.868 0.0177106 14.9566 0.0353359Q15.0452 0.0529612 15.1316 0.0791867Q15.2181 0.105412 15.3016 0.139986Q15.385 0.174559 15.4647 0.217147Q15.5444 0.259735 15.6195 0.309927Q15.6946 0.36012 15.7645 0.417434Q15.8343 0.474748 15.8982 0.538631Q15.9621 0.602514 16.0194 0.672351Q16.0767 0.742188 16.1269 0.817306Q16.1771 0.892425 16.2197 0.972101Q16.2623 1.05178 16.2968 1.13525Q16.3314 1.21871 16.3576 1.30517Q16.3839 1.39162 16.4015 1.48023Q16.4191 1.56884 16.428 1.65875Q16.4368 1.74866 16.4368 1.839L16.4368 11.0467Q16.4368 11.1371 16.428 11.227Q16.4191 11.3169 16.4015 11.4055Q16.3839 11.4941 16.3576 11.5806Q16.3314 11.667 16.2968 11.7505Q16.2623 11.834 16.2197 11.9136Q16.1771 11.9933 16.1269 12.0684Q16.0767 12.1436 16.0194 12.2134Q15.9621 12.2832 15.8982 12.3471Q15.8343 12.411 15.7645 12.4683Q15.6946 12.5256 15.6195 12.5758Q15.5444 12.626 15.4647 12.6686Q15.385 12.7112 15.3016 12.7458Q15.2181 12.7803 15.1316 12.8066Q15.0452 12.8328 14.9566 12.8504Q14.868 12.868 14.7781 12.8769Q14.6882 12.8857 14.5978 12.8857L1.839 12.8857Q1.74866 12.8857 1.65875 12.8769Q1.56884 12.868 1.48023 12.8504Q1.39162 12.8328 1.30517 12.8066Q1.21871 12.7803 1.13525 12.7458Q1.05178 12.7112 0.972101 12.6686Q0.892425 12.626 0.817306 12.5758Q0.742188 12.5256 0.672351 12.4683Q0.602514 12.411 0.538631 12.3471Q0.474748 12.2832 0.417434 12.2134Q0.36012 12.1436 0.309927 12.0684Q0.259735 11.9933 0.217147 11.9136Q0.174559 11.834 0.139986 11.7505Q0.105412 11.667 0.0791867 11.5806Q0.0529612 11.4941 0.0353359 11.4055Q0.0177106 11.3169 0.00885529 11.227Q0 11.1371 0 11.0467L0 1.839Q0 1.74866 0.00885529 1.65875Q0.0177106 1.56884 0.0353359 1.48023Q0.0529612 1.39162 0.0791867 1.30517Q0.105412 1.21871 0.139986 1.13525Q0.174559 1.05178 0.217147 0.972101Q0.259735 0.892425 0.309927 0.817306Q0.36012 0.742188 0.417434 0.672351Q0.474748 0.602514 0.538631 0.538631Q0.602514 0.474748 0.672351 0.417434Q0.742188 0.36012 0.817306 0.309927Q0.892425 0.259735 0.972101 0.217147Q1.05178 0.174559 1.13525 0.139986Q1.21871 0.105412 1.30517 0.0791867Q1.39162 0.0529612 1.48023 0.0353359Q1.56884 0.0177106 1.65875 0.00885529Q1.74866 0 1.839 0L1.839 0Z" transform="translate(62.95034 49.03075)" id="Rectangle-35" fill="#D3D3D3" stroke="none" />
  </g>
</svg>