<?xml version="1.0" encoding="utf-8"?>
<svg width="109px" height="93px" viewBox="0 0 109 93" version="1.1" xmlns:xlink="http://www.w3.org/1999/xlink" xmlns="http://www.w3.org/2000/svg">
  <desc>Created with Lunacy</desc>
  <g id="koper" transform="translate(0.4599609 0.4599609)">
    <path d="M25.4526 0L2.759 0Q2.62346 0 2.48857 0.0132853Q2.35368 0.0265707 2.22075 0.0530134Q2.08781 0.0794561 1.9581 0.118802Q1.8284 0.158147 1.70318 0.210016Q1.57795 0.261886 1.45842 0.325779Q1.33888 0.389673 1.22618 0.464975Q1.11348 0.540278 1.00871 0.626264Q0.903934 0.71225 0.808092 0.808092Q0.71225 0.903934 0.626264 1.00871Q0.540278 1.11348 0.464975 1.22618Q0.389673 1.33888 0.325779 1.45842Q0.261886 1.57795 0.210016 1.70318Q0.158147 1.8284 0.118802 1.9581Q0.0794561 2.08781 0.0530134 2.22075Q0.0265707 2.35368 0.0132853 2.48857Q0 2.62346 0 2.759L0 13.5169Q0 13.6525 0.0132853 13.7874Q0.0265707 13.9222 0.0530134 14.0552Q0.0794561 14.1881 0.118802 14.3178Q0.158147 14.4475 0.210016 14.5727Q0.261886 14.698 0.325779 14.8175Q0.389673 14.937 0.464975 15.0497Q0.540278 15.1624 0.626264 15.2672Q0.71225 15.372 0.808092 15.4678Q0.903934 15.5637 1.00871 15.6497Q1.11348 15.7357 1.22618 15.811Q1.33888 15.8863 1.45842 15.9501Q1.57795 16.014 1.70318 16.0659Q1.8284 16.1178 1.9581 16.1571Q2.08781 16.1965 2.22075 16.2229Q2.35368 16.2494 2.48857 16.2626Q2.62346 16.2759 2.759 16.2759L25.4526 16.2759Q25.5882 16.2759 25.723 16.2626Q25.8579 16.2494 25.9909 16.2229Q26.1238 16.1965 26.2535 16.1571Q26.3832 16.1178 26.5084 16.0659Q26.6337 16.014 26.7532 15.9501Q26.8727 15.8863 26.9854 15.811Q27.0981 15.7357 27.2029 15.6497Q27.3077 15.5637 27.4035 15.4678Q27.4994 15.372 27.5853 15.2672Q27.6713 15.1624 27.7466 15.0497Q27.8219 14.937 27.8858 14.8175Q27.9497 14.698 28.0016 14.5728Q28.0535 14.4475 28.0928 14.3178Q28.1322 14.1881 28.1586 14.0552Q28.185 13.9222 28.1983 13.7874Q28.2116 13.6525 28.2116 13.5169L28.2116 2.759Q28.2116 2.62346 28.1983 2.48857Q28.185 2.35368 28.1586 2.22075Q28.1321 2.08781 28.0928 1.9581Q28.0535 1.8284 28.0016 1.70318Q27.9497 1.57795 27.8858 1.45842Q27.8219 1.33888 27.7466 1.22618Q27.6713 1.11348 27.5853 1.00871Q27.4994 0.903934 27.4035 0.808092Q27.3077 0.712251 27.2029 0.626264Q27.0981 0.540278 26.9854 0.464975Q26.8727 0.389673 26.7532 0.325779Q26.6337 0.261886 26.5084 0.210016Q26.3832 0.158147 26.2535 0.118802Q26.1238 0.0794561 25.9909 0.0530134Q25.8579 0.0265707 25.723 0.0132853Q25.5882 0 25.4526 0ZM22.0295 1.97488L6.18213 1.97488Q6.04659 1.97488 5.9117 1.98817Q5.77682 2.00146 5.64388 2.0279Q5.51094 2.05434 5.38124 2.09369Q5.25153 2.13303 5.12631 2.1849Q5.00109 2.23677 4.88155 2.30066Q4.76201 2.36456 4.64931 2.43986Q4.53662 2.51516 4.43184 2.60115Q4.32707 2.68714 4.23123 2.78298Q4.13538 2.87882 4.0494 2.98359Q3.96341 3.08837 3.88811 3.20107Q3.81281 3.31376 3.74891 3.4333Q3.68502 3.55284 3.63315 3.67806Q3.58128 3.80328 3.54193 3.93299Q3.50259 4.06269 3.47615 4.19563Q3.4497 4.32857 3.43642 4.46346Q3.42313 4.59834 3.42313 4.73388L3.42313 11.542Q3.42313 11.6776 3.43642 11.8125Q3.4497 11.9474 3.47615 12.0803Q3.50259 12.2132 3.54193 12.3429Q3.58128 12.4726 3.63315 12.5979Q3.68502 12.7231 3.74891 12.8426Q3.81281 12.9622 3.88811 13.0749Q3.96341 13.1876 4.0494 13.2923Q4.13538 13.3971 4.23123 13.493Q4.32707 13.5888 4.43184 13.6748Q4.53662 13.7608 4.64931 13.8361Q4.76201 13.9114 4.88155 13.9753Q5.00109 14.0392 5.12631 14.091Q5.25153 14.1429 5.38124 14.1822Q5.51094 14.2216 5.64388 14.248Q5.77682 14.2745 5.9117 14.2878Q6.04659 14.301 6.18213 14.301L22.0295 14.301Q22.165 14.301 22.2999 14.2878Q22.4348 14.2745 22.5677 14.248Q22.7007 14.2216 22.8304 14.1822Q22.9601 14.1429 23.0853 14.091Q23.2105 14.0392 23.3301 13.9753Q23.4496 13.9114 23.5623 13.8361Q23.675 13.7608 23.7798 13.6748Q23.8845 13.5888 23.9804 13.493Q24.0762 13.3971 24.1622 13.2923Q24.2482 13.1876 24.3235 13.0749Q24.3988 12.9622 24.4627 12.8426Q24.5266 12.7231 24.5785 12.5979Q24.6303 12.4726 24.6697 12.3429Q24.709 12.2132 24.7355 12.0803Q24.7619 11.9474 24.7752 11.8125Q24.7885 11.6776 24.7885 11.542L24.7885 4.73388Q24.7885 4.59834 24.7752 4.46346Q24.7619 4.32857 24.7355 4.19563Q24.709 4.06269 24.6697 3.93299Q24.6303 3.80328 24.5785 3.67806Q24.5266 3.55284 24.4627 3.4333Q24.3988 3.31376 24.3235 3.20107Q24.2482 3.08837 24.1622 2.98359Q24.0762 2.87882 23.9804 2.78298Q23.8845 2.68714 23.7798 2.60115Q23.675 2.51516 23.5623 2.43986Q23.4496 2.36456 23.3301 2.30066Q23.2105 2.23677 23.0853 2.1849Q22.9601 2.13303 22.8304 2.09369Q22.7007 2.05434 22.5677 2.0279Q22.4348 2.00146 22.2999 1.98817Q22.165 1.97488 22.0295 1.97488Z" transform="translate(39.56045 1.675575)" id="Combined-Shape" fill="#4E65D9" fill-rule="evenodd" stroke="none" />
    <path d="M2.759 0L27.5528 0Q27.6883 0 27.8232 0.0132853Q27.9581 0.0265707 28.091 0.0530134Q28.224 0.0794561 28.3537 0.118802Q28.4834 0.158147 28.6086 0.210016Q28.7338 0.261886 28.8534 0.325779Q28.9729 0.389673 29.0856 0.464975Q29.1983 0.540278 29.3031 0.626264Q29.4079 0.71225 29.5037 0.808092Q29.5995 0.903934 29.6855 1.00871Q29.7715 1.11348 29.8468 1.22618Q29.9221 1.33888 29.986 1.45842Q30.0499 1.57795 30.1018 1.70318Q30.1536 1.8284 30.193 1.9581Q30.2323 2.08781 30.2588 2.22075Q30.2852 2.35368 30.2985 2.48857Q30.3118 2.62346 30.3118 2.759L30.3118 5.17141Q30.3118 5.30695 30.2985 5.44184Q30.2852 5.57673 30.2588 5.70966Q30.2323 5.8426 30.193 5.97231Q30.1536 6.10201 30.1018 6.22723Q30.0499 6.35246 29.986 6.47199Q29.9221 6.59153 29.8468 6.70423Q29.7715 6.81693 29.6855 6.9217Q29.5995 7.02648 29.5037 7.12232Q29.4079 7.21816 29.3031 7.30415Q29.1983 7.39013 29.0856 7.46544Q28.9729 7.54074 28.8534 7.60463Q28.7338 7.66853 28.6086 7.72039Q28.4834 7.77226 28.3537 7.81161Q28.224 7.85095 28.091 7.8774Q27.9581 7.90384 27.8232 7.91713Q27.6883 7.93041 27.5528 7.93041L2.759 7.93041Q2.62346 7.93041 2.48857 7.91713Q2.35368 7.90384 2.22075 7.8774Q2.08781 7.85095 1.9581 7.81161Q1.8284 7.77226 1.70318 7.72039Q1.57795 7.66853 1.45842 7.60463Q1.33888 7.54074 1.22618 7.46544Q1.11348 7.39013 1.00871 7.30415Q0.903934 7.21816 0.808092 7.12232Q0.71225 7.02648 0.626264 6.9217Q0.540278 6.81693 0.464975 6.70423Q0.389673 6.59153 0.325779 6.47199Q0.261886 6.35246 0.210016 6.22723Q0.158147 6.10201 0.118802 5.97231Q0.0794561 5.8426 0.0530134 5.70966Q0.0265707 5.57673 0.0132853 5.44184Q0 5.30695 0 5.17141L0 2.759Q0 2.62346 0.0132853 2.48857Q0.0265707 2.35368 0.0530134 2.22075Q0.0794561 2.08781 0.118802 1.9581Q0.158147 1.8284 0.210016 1.70318Q0.261886 1.57795 0.325779 1.45842Q0.389673 1.33888 0.464975 1.22618Q0.540278 1.11348 0.626264 1.00871Q0.712251 0.903934 0.808092 0.808092Q0.903934 0.712251 1.00871 0.626264Q1.11348 0.540278 1.22618 0.464975Q1.33888 0.389673 1.45842 0.325779Q1.57795 0.261886 1.70318 0.210016Q1.8284 0.158147 1.9581 0.118802Q2.08781 0.0794561 2.22075 0.0530134Q2.35368 0.0265707 2.48857 0.0132853Q2.62346 0 2.759 0L2.759 0Z" transform="translate(38.2422 0.1208149)" id="Rectangle-26" fill="#7C92FF" stroke="none" />
    <path d="M30.0894 1.98261Q30.0582 2.08902 30.0186 2.19259Q29.9789 2.29616 29.9311 2.39621Q29.8832 2.49626 29.8275 2.59215Q29.7718 2.68804 29.7086 2.77915Q29.6454 2.87026 29.575 2.956Q29.5047 3.04174 29.4277 3.12156Q29.3507 3.20138 29.2676 3.27476Q29.1845 3.34814 29.0957 3.41462Q29.0069 3.48109 28.9131 3.54023Q28.8193 3.59936 28.721 3.65077Q28.6228 3.70219 28.5207 3.74555Q28.4186 3.78891 28.3134 3.82394Q28.2082 3.85897 28.1005 3.88544Q27.9928 3.91192 27.8833 3.92966Q27.7739 3.9474 27.6633 3.9563Q27.5528 3.96521 27.4419 3.96521L2.64811 3.96521Q2.53721 3.96521 2.42667 3.9563Q2.31613 3.9474 2.20667 3.92966Q2.0972 3.91192 1.98951 3.88544Q1.88181 3.85897 1.7766 3.82394Q1.67138 3.78891 1.56931 3.74555Q1.46724 3.70219 1.36898 3.65077Q1.27072 3.59936 1.17691 3.54022Q1.08309 3.48109 0.994326 3.41462Q0.90556 3.34814 0.822415 3.27476Q0.73927 3.20138 0.662283 3.12156Q0.585296 3.04174 0.514964 2.956Q0.444631 2.87026 0.381407 2.77915Q0.318184 2.68804 0.262476 2.59215Q0.206769 2.49626 0.158937 2.39621Q0.111105 2.29615 0.071458 2.19259Q0.0318107 2.08902 0.000603693 1.9826Q0.0318107 1.87619 0.071458 1.77262Q0.111105 1.66905 0.158937 1.569Q0.206769 1.46895 0.262476 1.37306Q0.318184 1.27717 0.381407 1.18606Q0.444631 1.09495 0.514964 1.00921Q0.585296 0.923468 0.662283 0.843648Q0.73927 0.763828 0.822415 0.690445Q0.90556 0.617062 0.994326 0.550589Q1.08309 0.484115 1.17691 0.424981Q1.27072 0.365846 1.36898 0.314432Q1.46724 0.263018 1.56931 0.219656Q1.67138 0.176294 1.7766 0.141264Q1.88181 0.106233 1.98951 0.079761Q2.0972 0.0532886 2.20667 0.0355449Q2.31613 0.0178011 2.42667 0.00890057Q2.53721 -2.34226e-17 2.64811 0L27.4419 0Q27.5528 0 27.6633 0.00890056Q27.7739 0.0178011 27.8833 0.0355448Q27.9928 0.0532885 28.1005 0.0797608Q28.2082 0.106233 28.3134 0.141263Q28.4186 0.176294 28.5207 0.219656Q28.6228 0.263018 28.721 0.314432Q28.8193 0.365846 28.9131 0.42498Q29.0069 0.484115 29.0957 0.550588Q29.1845 0.617061 29.2676 0.690444Q29.3507 0.763827 29.4277 0.843647Q29.5047 0.923466 29.575 1.00921Q29.6454 1.09495 29.7086 1.18606Q29.7718 1.27717 29.8275 1.37306Q29.8832 1.46895 29.9311 1.569Q29.9789 1.66905 30.0186 1.77262Q30.0582 1.87618 30.0894 1.9826L30.0894 1.98261Z" transform="translate(38.35309 4.08602)" id="Combined-Shape" fill="#5E75E7" fill-rule="evenodd" stroke="none" />
    <path d="M7.819 0L96.8491 0Q97.041 0 97.2327 0.00941833Q97.4245 0.0188367 97.6155 0.0376506Q97.8065 0.0564646 97.9964 0.0846289Q98.1862 0.112793 98.3745 0.15024Q98.5627 0.187687 98.7489 0.234326Q98.9351 0.280965 99.1188 0.336683Q99.3025 0.392402 99.4832 0.457067Q99.6639 0.521731 99.8413 0.595186Q100.019 0.66864 100.192 0.750708Q100.366 0.832775 100.535 0.923258Q100.704 1.01374 100.869 1.11242Q101.033 1.2111 101.193 1.31774Q101.353 1.42438 101.507 1.53872Q101.661 1.65306 101.809 1.77483Q101.958 1.8966 102.1 2.0255Q102.242 2.15441 102.378 2.29013Q102.514 2.42586 102.643 2.56808Q102.771 2.7103 102.893 2.85868Q103.015 3.00705 103.129 3.16123Q103.244 3.3154 103.35 3.475Q103.457 3.63459 103.556 3.79923Q103.654 3.96387 103.745 4.13315Q103.835 4.30243 103.917 4.47595Q103.999 4.64946 104.073 4.8268Q104.146 5.00413 104.211 5.18486Q104.276 5.36558 104.331 5.54926Q104.387 5.73294 104.434 5.91914Q104.48 6.10533 104.518 6.29359Q104.555 6.48185 104.583 6.67171Q104.612 6.86158 104.63 7.0526Q104.649 7.24363 104.659 7.43534Q104.668 7.62705 104.668 7.819L104.668 65.0616Q104.668 65.2536 104.659 65.4453Q104.649 65.637 104.63 65.828Q104.612 66.019 104.583 66.2089Q104.555 66.3988 104.518 66.587Q104.48 66.7753 104.434 66.9615Q104.387 67.1477 104.331 67.3314Q104.276 67.515 104.211 67.6958Q104.146 67.8765 104.073 68.0538Q103.999 68.2311 103.917 68.4047Q103.835 68.5782 103.745 68.7475Q103.654 68.9167 103.556 69.0814Q103.457 69.246 103.35 69.4056Q103.244 69.5652 103.129 69.7194Q103.015 69.8736 102.893 70.0219Q102.771 70.1703 102.643 70.3125Q102.514 70.4548 102.378 70.5905Q102.242 70.7262 102.1 70.8551Q101.958 70.984 101.809 71.1058Q101.661 71.2275 101.507 71.3419Q101.353 71.4562 101.193 71.5629Q101.033 71.6695 100.869 71.7682Q100.704 71.8669 100.535 71.9574Q100.366 72.0478 100.192 72.1299Q100.019 72.212 99.8413 72.2854Q99.6639 72.3589 99.4832 72.4235Q99.3025 72.4882 99.1188 72.5439Q98.9351 72.5996 98.7489 72.6463Q98.5627 72.6929 98.3745 72.7304Q98.1862 72.7678 97.9964 72.796Q97.8065 72.8242 97.6155 72.843Q97.4245 72.8618 97.2327 72.8712Q97.041 72.8806 96.8491 72.8806L7.819 72.8806Q7.62705 72.8806 7.43534 72.8712Q7.24363 72.8618 7.0526 72.843Q6.86158 72.8242 6.67171 72.796Q6.48185 72.7678 6.29359 72.7304Q6.10533 72.6929 5.91914 72.6463Q5.73294 72.5996 5.54926 72.5439Q5.36558 72.4882 5.18486 72.4235Q5.00413 72.3589 4.8268 72.2854Q4.64946 72.212 4.47595 72.1299Q4.30243 72.0478 4.13315 71.9574Q3.96387 71.8669 3.79923 71.7682Q3.63459 71.6695 3.475 71.5629Q3.3154 71.4562 3.16123 71.3419Q3.00705 71.2275 2.85868 71.1058Q2.7103 70.984 2.56808 70.8551Q2.42586 70.7262 2.29013 70.5905Q2.15441 70.4548 2.0255 70.3125Q1.8966 70.1703 1.77483 70.0219Q1.65306 69.8736 1.53872 69.7194Q1.42438 69.5652 1.31774 69.4056Q1.2111 69.246 1.11242 69.0814Q1.01374 68.9167 0.923258 68.7475Q0.832775 68.5782 0.750708 68.4047Q0.66864 68.2311 0.595186 68.0538Q0.521731 67.8765 0.457067 67.6958Q0.392402 67.515 0.336683 67.3314Q0.280965 67.1477 0.234326 66.9615Q0.187687 66.7753 0.15024 66.587Q0.112793 66.3988 0.0846289 66.2089Q0.0564646 66.019 0.0376506 65.828Q0.0188367 65.637 0.00941833 65.4453Q0 65.2536 0 65.0616L0 7.819Q0 7.62705 0.00941833 7.43534Q0.0188367 7.24363 0.0376506 7.0526Q0.0564646 6.86158 0.0846289 6.67171Q0.112793 6.48185 0.15024 6.29359Q0.187687 6.10533 0.234326 5.91914Q0.280965 5.73294 0.336683 5.54926Q0.392402 5.36558 0.457067 5.18486Q0.521731 5.00413 0.595186 4.8268Q0.66864 4.64946 0.750708 4.47595Q0.832775 4.30243 0.923258 4.13315Q1.01374 3.96387 1.11242 3.79923Q1.2111 3.63459 1.31774 3.475Q1.42438 3.3154 1.53872 3.16123Q1.65306 3.00705 1.77483 2.85868Q1.8966 2.7103 2.0255 2.56808Q2.15441 2.42586 2.29013 2.29013Q2.42586 2.15441 2.56808 2.0255Q2.7103 1.8966 2.85868 1.77483Q3.00705 1.65306 3.16123 1.53872Q3.3154 1.42438 3.475 1.31774Q3.63459 1.2111 3.79923 1.11242Q3.96387 1.01374 4.13315 0.923258Q4.30243 0.832775 4.47595 0.750708Q4.64946 0.66864 4.8268 0.595186Q5.00413 0.521731 5.18486 0.457067Q5.36558 0.392402 5.54926 0.336683Q5.73294 0.280965 5.91914 0.234326Q6.10533 0.187687 6.29359 0.15024Q6.48185 0.112793 6.67171 0.0846289Q6.86158 0.0564646 7.0526 0.0376506Q7.24363 0.0188367 7.43534 0.00941833Q7.62705 0 7.819 0Z" transform="translate(1.409851 11.98373)" id="Rectangle-10" fill="#7C92FF" stroke="none" />
    <path d="M7.819 0L12.6887 0L12.6887 10.7301L0 10.7301L0 7.819Q0 7.62705 0.00941833 7.43534Q0.0188367 7.24363 0.0376506 7.0526Q0.0564646 6.86158 0.0846289 6.67171Q0.112793 6.48185 0.15024 6.29359Q0.187687 6.10533 0.234326 5.91914Q0.280965 5.73294 0.336683 5.54926Q0.392402 5.36558 0.457067 5.18486Q0.521731 5.00413 0.595186 4.8268Q0.66864 4.64946 0.750708 4.47595Q0.832775 4.30243 0.923258 4.13315Q1.01374 3.96387 1.11242 3.79923Q1.2111 3.63459 1.31774 3.475Q1.42438 3.3154 1.53872 3.16123Q1.65306 3.00705 1.77483 2.85868Q1.8966 2.7103 2.0255 2.56808Q2.15441 2.42586 2.29013 2.29013Q2.42586 2.15441 2.56808 2.0255Q2.7103 1.8966 2.85868 1.77483Q3.00705 1.65306 3.16123 1.53872Q3.3154 1.42438 3.475 1.31774Q3.63459 1.2111 3.79923 1.11242Q3.96387 1.01374 4.13315 0.923258Q4.30243 0.832775 4.47595 0.750708Q4.64946 0.66864 4.8268 0.595186Q5.00413 0.521731 5.18486 0.457067Q5.36558 0.392402 5.54926 0.336683Q5.73294 0.280965 5.91914 0.234326Q6.10533 0.187687 6.29359 0.15024Q6.48185 0.112793 6.67171 0.0846289Q6.86158 0.0564646 7.05261 0.0376506Q7.24363 0.0188367 7.43534 0.00941833Q7.62706 0 7.819 0ZM0 64.3444L0 67.0793Q0 67.2713 0.00941833 67.463Q0.0188367 67.6547 0.0376506 67.8457Q0.0564646 68.0368 0.0846289 68.2266Q0.112793 68.4165 0.15024 68.6047Q0.187687 68.793 0.234326 68.9792Q0.280965 69.1654 0.336683 69.3491Q0.392402 69.5327 0.457067 69.7135Q0.521731 69.8942 0.595186 70.0715Q0.66864 70.2488 0.750708 70.4224Q0.832775 70.5959 0.923258 70.7652Q1.01374 70.9344 1.11242 71.0991Q1.2111 71.2637 1.31774 71.4233Q1.42438 71.5829 1.53872 71.7371Q1.65306 71.8913 1.77483 72.0396Q1.8966 72.188 2.0255 72.3302Q2.15441 72.4725 2.29013 72.6082Q2.42586 72.7439 2.56808 72.8728Q2.7103 73.0017 2.85868 73.1235Q3.00705 73.2453 3.16123 73.3596Q3.3154 73.4739 3.475 73.5806Q3.63459 73.6872 3.79923 73.7859Q3.96387 73.8846 4.13315 73.9751Q4.30243 74.0655 4.47595 74.1476Q4.64946 74.2297 4.8268 74.3031Q5.00413 74.3766 5.18486 74.4412Q5.36558 74.5059 5.54926 74.5616Q5.73294 74.6173 5.91914 74.664Q6.10533 74.7106 6.29359 74.7481Q6.48185 74.7855 6.67171 74.8137Q6.86158 74.8419 7.0526 74.8607Q7.24363 74.8795 7.43534 74.8889Q7.62705 74.8983 7.819 74.8983L12.6887 74.8983L12.6887 64.3444L6.21725e-15 64.3444L0 64.3444ZM94.8125 64.3444L94.8125 74.8983L99.7468 74.8983Q99.9388 74.8983 100.13 74.8889Q100.322 74.8795 100.513 74.8607Q100.704 74.8419 100.894 74.8137Q101.084 74.7855 101.272 74.7481Q101.46 74.7106 101.647 74.664Q101.833 74.6173 102.017 74.5616Q102.2 74.5059 102.381 74.4412Q102.562 74.3766 102.739 74.3031Q102.916 74.2297 103.09 74.1476Q103.263 74.0655 103.433 73.9751Q103.602 73.8846 103.767 73.7859Q103.931 73.6872 104.091 73.5806Q104.25 73.4739 104.405 73.3596Q104.559 73.2453 104.707 73.1235Q104.856 73.0017 104.998 72.8728Q105.14 72.7439 105.276 72.6082Q105.411 72.4725 105.54 72.3302Q105.669 72.188 105.791 72.0396Q105.913 71.8913 106.027 71.7371Q106.141 71.5829 106.248 71.4233Q106.355 71.2637 106.453 71.0991Q106.552 70.9344 106.643 70.7652Q106.733 70.5959 106.815 70.4224Q106.897 70.2488 106.971 70.0715Q107.044 69.8942 107.109 69.7135Q107.173 69.5327 107.229 69.3491Q107.285 69.1654 107.331 68.9792Q107.378 68.793 107.416 68.6047Q107.453 68.4165 107.481 68.2266Q107.509 68.0367 107.528 67.8457Q107.547 67.6547 107.556 67.463Q107.566 67.2713 107.566 67.0793L107.566 64.3444L94.8125 64.3444ZM107.566 10.7301L107.566 7.819Q107.566 7.62705 107.556 7.43534Q107.547 7.24363 107.528 7.0526Q107.509 6.86158 107.481 6.67171Q107.453 6.48185 107.416 6.29359Q107.378 6.10533 107.332 5.91914Q107.285 5.73294 107.229 5.54926Q107.173 5.36558 107.109 5.18486Q107.044 5.00413 106.971 4.8268Q106.897 4.64946 106.815 4.47595Q106.733 4.30243 106.643 4.13315Q106.552 3.96387 106.453 3.79923Q106.355 3.63459 106.248 3.475Q106.141 3.3154 106.027 3.16123Q105.913 3.00705 105.791 2.85868Q105.669 2.7103 105.54 2.56808Q105.411 2.42586 105.276 2.29013Q105.14 2.15441 104.998 2.0255Q104.856 1.8966 104.707 1.77483Q104.559 1.65306 104.405 1.53872Q104.25 1.42438 104.091 1.31774Q103.931 1.2111 103.767 1.11242Q103.602 1.01374 103.433 0.923258Q103.263 0.832775 103.09 0.750708Q102.916 0.66864 102.739 0.595186Q102.562 0.521731 102.381 0.457067Q102.2 0.392402 102.017 0.336683Q101.833 0.280965 101.647 0.234326Q101.46 0.187687 101.272 0.15024Q101.084 0.112793 100.894 0.0846289Q100.704 0.0564646 100.513 0.0376506Q100.322 0.0188367 100.13 0.00941833Q99.9388 0 99.7468 0L94.8125 0L94.8125 10.7301L107.566 10.7301Z" transform="translate(0 10.92634)" id="Combined-Shape" fill="#8DC657" fill-rule="evenodd" stroke="none" />
    <path d="M2.529 0L93.3059 0Q93.4302 0 93.5538 0.0121778Q93.6775 0.0243557 93.7993 0.048594Q93.9212 0.0728324 94.0401 0.108898Q94.159 0.144963 94.2737 0.192509Q94.3885 0.240054 94.4981 0.298621Q94.6077 0.357188 94.7109 0.426213Q94.8143 0.495238 94.9103 0.574057Q95.0063 0.652875 95.0942 0.740727Q95.1821 0.828579 95.2609 0.924619Q95.3397 1.02066 95.4087 1.12396Q95.4777 1.22727 95.5363 1.33684Q95.5949 1.44641 95.6424 1.56119Q95.69 1.67598 95.726 1.79487Q95.7621 1.91376 95.7863 2.03562Q95.8106 2.15747 95.8228 2.28111Q95.8349 2.40476 95.8349 2.529L95.8349 62.3307Q95.8349 62.4549 95.8228 62.5786Q95.8106 62.7022 95.7863 62.8241Q95.7621 62.9459 95.726 63.0648Q95.69 63.1837 95.6424 63.2985Q95.5949 63.4133 95.5363 63.5228Q95.4777 63.6324 95.4087 63.7357Q95.3397 63.839 95.2609 63.9351Q95.1821 64.0311 95.0942 64.1189Q95.0063 64.2068 94.9103 64.2856Q94.8143 64.3644 94.711 64.4335Q94.6077 64.5025 94.4981 64.5611Q94.3885 64.6196 94.2737 64.6672Q94.159 64.7147 94.0401 64.7508Q93.9212 64.7868 93.7993 64.8111Q93.6775 64.8353 93.5538 64.8475Q93.4302 64.8597 93.3059 64.8597L2.529 64.8597Q2.40476 64.8597 2.28111 64.8475Q2.15747 64.8353 2.03562 64.8111Q1.91376 64.7868 1.79487 64.7508Q1.67598 64.7147 1.56119 64.6672Q1.44641 64.6196 1.33684 64.5611Q1.22727 64.5025 1.12396 64.4335Q1.02066 64.3644 0.924619 64.2856Q0.828579 64.2068 0.740727 64.1189Q0.652875 64.0311 0.574057 63.9351Q0.495238 63.839 0.426213 63.7357Q0.357188 63.6324 0.298621 63.5228Q0.240054 63.4133 0.192509 63.2985Q0.144963 63.1837 0.108898 63.0648Q0.0728324 62.9459 0.048594 62.8241Q0.0243557 62.7022 0.0121778 62.5786Q0 62.4549 0 62.3307L0 2.529Q0 2.40476 0.0121778 2.28111Q0.0243557 2.15747 0.048594 2.03562Q0.0728324 1.91376 0.108898 1.79487Q0.144963 1.67598 0.192509 1.56119Q0.240054 1.44641 0.298621 1.33684Q0.357188 1.22727 0.426213 1.12396Q0.495238 1.02066 0.574057 0.924619Q0.652875 0.828579 0.740727 0.740727Q0.828579 0.652875 0.924619 0.574057Q1.02066 0.495238 1.12396 0.426213Q1.22727 0.357188 1.33684 0.298621Q1.44641 0.240054 1.56119 0.192509Q1.67598 0.144963 1.79487 0.108898Q1.91376 0.0728324 2.03562 0.048594Q2.15747 0.0243557 2.28111 0.0121778Q2.40476 0 2.529 0Z" transform="translate(5.815634 16.03705)" id="Rectangle-10-Copy-2" fill="#5A70DE" stroke="none" />
    <path d="M0 64.8597L0 0L45.3311 0Q45.4553 0 45.579 0.0121778Q45.7026 0.0243557 45.8245 0.048594Q45.9463 0.0728324 46.0652 0.108898Q46.1841 0.144963 46.2989 0.192509Q46.4137 0.240054 46.5232 0.298621Q46.6328 0.357188 46.7361 0.426213Q46.8394 0.495238 46.9355 0.574057Q47.0315 0.652875 47.1193 0.740727Q47.2072 0.828579 47.286 0.924619Q47.3648 1.02066 47.4339 1.12396Q47.5029 1.22727 47.5614 1.33684Q47.62 1.44641 47.6676 1.56119Q47.7151 1.67598 47.7512 1.79487Q47.7872 1.91376 47.8115 2.03562Q47.8357 2.15747 47.8479 2.28111Q47.8601 2.40476 47.8601 2.529L47.8601 62.3307Q47.8601 62.4549 47.8479 62.5786Q47.8357 62.7022 47.8115 62.8241Q47.7872 62.9459 47.7512 63.0648Q47.7151 63.1837 47.6676 63.2985Q47.62 63.4133 47.5615 63.5228Q47.5029 63.6324 47.4339 63.7357Q47.3648 63.839 47.286 63.9351Q47.2072 64.0311 47.1193 64.1189Q47.0315 64.2068 46.9355 64.2856Q46.8394 64.3644 46.7361 64.4335Q46.6328 64.5025 46.5232 64.5611Q46.4137 64.6196 46.2989 64.6672Q46.1841 64.7147 46.0652 64.7508Q45.9463 64.7868 45.8245 64.8111Q45.7026 64.8353 45.579 64.8475Q45.4553 64.8597 45.3311 64.8597L0 64.8597Z" transform="translate(53.79049 16.03705)" id="Combined-Shape" fill="#4E65D9" fill-rule="evenodd" stroke="none" />
    <path d="M1.76131 0L85.7293 0Q85.8158 0 85.9019 0.0084812Q85.988 0.0169624 86.0729 0.0338431Q86.1578 0.0507239 86.2406 0.0758416Q86.3234 0.100959 86.4033 0.134072Q86.4833 0.167185 86.5596 0.207974Q86.6359 0.248763 86.7078 0.296835Q86.7798 0.344907 86.8467 0.3998Q86.9135 0.454692 86.9747 0.515877Q87.0359 0.577061 87.0908 0.643948Q87.1457 0.710835 87.1938 0.78278Q87.2419 0.854725 87.2826 0.931036Q87.3234 1.00735 87.3565 1.08729Q87.3896 1.16723 87.4148 1.25003Q87.4399 1.33283 87.4567 1.4177Q87.4736 1.50256 87.4821 1.58867Q87.4906 1.67479 87.4906 1.76131L87.4906 1.76331Q87.4906 1.84984 87.4821 1.93595Q87.4736 2.02206 87.4567 2.10693Q87.4399 2.19179 87.4148 2.2746Q87.3896 2.3574 87.3565 2.43734Q87.3234 2.51728 87.2826 2.59359Q87.2419 2.6699 87.1938 2.74185Q87.1457 2.81379 87.0908 2.88068Q87.0359 2.94757 86.9747 3.00875Q86.9135 3.06993 86.8467 3.12483Q86.7798 3.17972 86.7078 3.22779Q86.6359 3.27586 86.5596 3.31665Q86.4832 3.35744 86.4033 3.39055Q86.3234 3.42367 86.2406 3.44878Q86.1578 3.4739 86.0729 3.49078Q85.988 3.50766 85.9019 3.51615Q85.8158 3.52463 85.7293 3.52463L1.76131 3.52463Q1.67479 3.52463 1.58867 3.51615Q1.50256 3.50766 1.4177 3.49078Q1.33283 3.4739 1.25003 3.44879Q1.16723 3.42367 1.08729 3.39055Q1.00735 3.35744 0.931036 3.31665Q0.854725 3.27586 0.78278 3.22779Q0.710835 3.17972 0.643948 3.12483Q0.577061 3.06993 0.515877 3.00875Q0.454692 2.94757 0.3998 2.88068Q0.344907 2.81379 0.296835 2.74185Q0.248763 2.6699 0.207974 2.59359Q0.167185 2.51728 0.134072 2.43734Q0.100959 2.3574 0.0758416 2.2746Q0.0507239 2.19179 0.0338431 2.10693Q0.0169624 2.02206 0.0084812 1.93595Q0 1.84984 0 1.76331L0 1.76131Q0 1.67479 0.0084812 1.58867Q0.0169624 1.50256 0.0338431 1.4177Q0.0507239 1.33283 0.0758416 1.25003Q0.100959 1.16723 0.134072 1.08729Q0.167185 1.00735 0.207974 0.931036Q0.248763 0.854725 0.296835 0.78278Q0.344907 0.710835 0.3998 0.643948Q0.454692 0.577061 0.515877 0.515877Q0.577061 0.454692 0.643948 0.3998Q0.710835 0.344907 0.78278 0.296835Q0.854725 0.248763 0.931036 0.207974Q1.00735 0.167185 1.08729 0.134072Q1.16723 0.100959 1.25003 0.0758416Q1.33283 0.0507239 1.4177 0.0338431Q1.50256 0.0169624 1.58867 0.00848121Q1.67479 0 1.76131 0ZM1.76131 6.51781L85.7293 6.51781Q85.8158 6.51781 85.9019 6.52629Q85.988 6.53477 86.0729 6.55165Q86.1578 6.56853 86.2406 6.59365Q86.3234 6.61876 86.4033 6.65188Q86.4833 6.68499 86.5596 6.72578Q86.6359 6.76657 86.7078 6.81464Q86.7798 6.86271 86.8467 6.91761Q86.9135 6.9725 86.9747 7.03368Q87.0359 7.09487 87.0908 7.16175Q87.1457 7.22864 87.1938 7.30059Q87.2419 7.37253 87.2826 7.44884Q87.3234 7.52515 87.3565 7.60509Q87.3896 7.68503 87.4148 7.76784Q87.4399 7.85064 87.4567 7.9355Q87.4736 8.02037 87.4821 8.10648Q87.4906 8.19259 87.4906 8.27912L87.4906 8.28112Q87.4906 8.36765 87.4821 8.45376Q87.4736 8.53987 87.4567 8.62473Q87.4399 8.7096 87.4148 8.7924Q87.3896 8.8752 87.3565 8.95514Q87.3234 9.03508 87.2826 9.1114Q87.2419 9.18771 87.1938 9.25965Q87.1457 9.3316 87.0908 9.39848Q87.0359 9.46537 86.9747 9.52656Q86.9135 9.58774 86.8467 9.64263Q86.7798 9.69753 86.7078 9.7456Q86.6359 9.79367 86.5596 9.83446Q86.4832 9.87525 86.4033 9.90836Q86.3234 9.94147 86.2406 9.96659Q86.1578 9.99171 86.0729 10.0086Q85.988 10.0255 85.9019 10.034Q85.8158 10.0424 85.7293 10.0424L1.76131 10.0424Q1.67479 10.0424 1.58867 10.034Q1.50256 10.0255 1.4177 10.0086Q1.33283 9.99171 1.25003 9.96659Q1.16723 9.94147 1.08729 9.90836Q1.00735 9.87525 0.931036 9.83446Q0.854725 9.79367 0.78278 9.7456Q0.710835 9.69753 0.643948 9.64263Q0.577061 9.58774 0.515877 9.52656Q0.454692 9.46537 0.3998 9.39848Q0.344907 9.3316 0.296835 9.25965Q0.248763 9.18771 0.207974 9.1114Q0.167185 9.03508 0.134072 8.95514Q0.100959 8.8752 0.0758416 8.7924Q0.0507239 8.7096 0.0338431 8.62473Q0.0169624 8.53987 0.0084812 8.45376Q0 8.36765 0 8.28112L0 8.27912Q0 8.19259 0.0084812 8.10648Q0.0169624 8.02037 0.0338431 7.9355Q0.0507239 7.85064 0.0758416 7.76784Q0.100959 7.68503 0.134072 7.60509Q0.167185 7.52515 0.207974 7.44884Q0.248763 7.37253 0.296835 7.30059Q0.344907 7.22864 0.3998 7.16175Q0.454692 7.09487 0.515877 7.03368Q0.577061 6.9725 0.643948 6.91761Q0.710835 6.86271 0.78278 6.81464Q0.854725 6.76657 0.931036 6.72578Q1.00735 6.68499 1.08729 6.65188Q1.16723 6.61877 1.25003 6.59365Q1.33283 6.56853 1.4177 6.55165Q1.50256 6.53477 1.58867 6.52629Q1.67479 6.51781 1.76131 6.51781ZM85.7293 13.0356L1.76131 13.0356Q1.67479 13.0356 1.58867 13.0441Q1.50256 13.0526 1.4177 13.0695Q1.33283 13.0863 1.25003 13.1115Q1.16723 13.1366 1.08729 13.1697Q1.00735 13.2028 0.931036 13.2436Q0.854725 13.2844 0.78278 13.3324Q0.710835 13.3805 0.643948 13.4354Q0.577061 13.4903 0.515877 13.5515Q0.454692 13.6127 0.3998 13.6796Q0.344907 13.7464 0.296835 13.8184Q0.248763 13.8903 0.207974 13.9666Q0.167185 14.043 0.134072 14.1229Q0.100959 14.2028 0.0758416 14.2856Q0.0507239 14.3684 0.0338431 14.4533Q0.0169624 14.5382 0.00848121 14.6243Q0 14.7104 0 14.7969L0 14.7989Q0 14.8855 0.00848121 14.9716Q0.0169624 15.0577 0.0338431 15.1425Q0.0507239 15.2274 0.0758416 15.3102Q0.100959 15.393 0.134072 15.4729Q0.167185 15.5529 0.207974 15.6292Q0.248763 15.7055 0.296835 15.7775Q0.344907 15.8494 0.3998 15.9163Q0.454692 15.9832 0.515877 16.0444Q0.577061 16.1055 0.643948 16.1604Q0.710835 16.2153 0.78278 16.2634Q0.854725 16.3115 0.931036 16.3523Q1.00735 16.3931 1.08729 16.4262Q1.16723 16.4593 1.25003 16.4844Q1.33283 16.5095 1.4177 16.5264Q1.50256 16.5433 1.58868 16.5518Q1.67479 16.5602 1.76131 16.5602L85.7293 16.5602Q85.8158 16.5602 85.9019 16.5518Q85.988 16.5433 86.0729 16.5264Q86.1578 16.5095 86.2406 16.4844Q86.3234 16.4593 86.4033 16.4262Q86.4833 16.3931 86.5596 16.3523Q86.6359 16.3115 86.7078 16.2634Q86.7798 16.2153 86.8467 16.1604Q86.9135 16.1055 86.9747 16.0444Q87.0359 15.9832 87.0908 15.9163Q87.1457 15.8494 87.1938 15.7775Q87.2419 15.7055 87.2826 15.6292Q87.3234 15.5529 87.3565 15.4729Q87.3896 15.393 87.4148 15.3102Q87.4399 15.2274 87.4567 15.1425Q87.4736 15.0577 87.4821 14.9716Q87.4906 14.8855 87.4906 14.7989L87.4906 14.7969Q87.4906 14.7104 87.4821 14.6243Q87.4736 14.5382 87.4567 14.4533Q87.4399 14.3684 87.4148 14.2856Q87.3896 14.2028 87.3565 14.1229Q87.3234 14.043 87.2826 13.9666Q87.2419 13.8903 87.1938 13.8184Q87.1457 13.7464 87.0908 13.6796Q87.0359 13.6127 86.9747 13.5515Q86.9135 13.4903 86.8467 13.4354Q86.7798 13.3805 86.7078 13.3324Q86.6359 13.2844 86.5596 13.2436Q86.4832 13.2028 86.4033 13.1697Q86.3234 13.1366 86.2406 13.1115Q86.1578 13.0863 86.0729 13.0695Q85.988 13.0526 85.9019 13.0441Q85.8158 13.0356 85.7293 13.0356ZM85.7293 19.5534L1.76131 19.5534Q1.67479 19.5534 1.58867 19.5619Q1.50256 19.5704 1.4177 19.5873Q1.33283 19.6041 1.25003 19.6293Q1.16723 19.6544 1.08729 19.6875Q1.00735 19.7206 0.931036 19.7614Q0.854725 19.8022 0.78278 19.8503Q0.710835 19.8983 0.643948 19.9532Q0.577061 20.0081 0.515877 20.0693Q0.454692 20.1305 0.3998 20.1974Q0.344907 20.2643 0.296835 20.3362Q0.248763 20.4081 0.207974 20.4845Q0.167185 20.5608 0.134072 20.6407Q0.100959 20.7206 0.0758416 20.8035Q0.0507239 20.8863 0.0338431 20.9711Q0.0169624 21.056 0.00848121 21.1421Q0 21.2282 0 21.3147L0 21.3167Q0 21.4033 0.00848121 21.4894Q0.0169624 21.5755 0.0338431 21.6603Q0.0507239 21.7452 0.0758416 21.828Q0.100959 21.9108 0.134072 21.9908Q0.167185 22.0707 0.207974 22.147Q0.248763 22.2233 0.296835 22.2953Q0.344907 22.3672 0.3998 22.4341Q0.454692 22.501 0.515877 22.5622Q0.577061 22.6234 0.643948 22.6782Q0.710835 22.7331 0.78278 22.7812Q0.854725 22.8293 0.931036 22.8701Q1.00735 22.9109 1.08729 22.944Q1.16723 22.9771 1.25003 23.0022Q1.33283 23.0273 1.4177 23.0442Q1.50256 23.0611 1.58868 23.0696Q1.67479 23.078 1.76131 23.078L85.7293 23.078Q85.8158 23.078 85.9019 23.0696Q85.988 23.0611 86.0729 23.0442Q86.1578 23.0273 86.2406 23.0022Q86.3234 22.9771 86.4033 22.944Q86.4833 22.9109 86.5596 22.8701Q86.6359 22.8293 86.7078 22.7812Q86.7798 22.7331 86.8467 22.6782Q86.9135 22.6234 86.9747 22.5622Q87.0359 22.501 87.0908 22.4341Q87.1457 22.3672 87.1938 22.2953Q87.2419 22.2233 87.2826 22.147Q87.3234 22.0707 87.3565 21.9908Q87.3896 21.9108 87.4148 21.828Q87.4399 21.7452 87.4567 21.6603Q87.4736 21.5755 87.4821 21.4894Q87.4906 21.4033 87.4906 21.3167L87.4906 21.3147Q87.4906 21.2282 87.4821 21.1421Q87.4736 21.056 87.4567 20.9711Q87.4399 20.8863 87.4148 20.8035Q87.3896 20.7206 87.3565 20.6407Q87.3234 20.5608 87.2826 20.4845Q87.2419 20.4081 87.1938 20.3362Q87.1457 20.2643 87.0908 20.1974Q87.0359 20.1305 86.9747 20.0693Q86.9135 20.0081 86.8467 19.9532Q86.7798 19.8983 86.7078 19.8503Q86.6359 19.8022 86.5596 19.7614Q86.4832 19.7206 86.4033 19.6875Q86.3234 19.6544 86.2406 19.6293Q86.1578 19.6041 86.0729 19.5873Q85.988 19.5704 85.9019 19.5619Q85.8158 19.5534 85.7293 19.5534ZM1.76131 26.0712L85.7293 26.0712Q85.8158 26.0712 85.9019 26.0797Q85.988 26.0882 86.0729 26.1051Q86.1578 26.1219 86.2406 26.1471Q86.3234 26.1722 86.4033 26.2053Q86.4833 26.2384 86.5596 26.2792Q86.6359 26.32 86.7078 26.3681Q86.7798 26.4161 86.8467 26.471Q86.9135 26.5259 86.9747 26.5871Q87.0359 26.6483 87.0908 26.7152Q87.1457 26.7821 87.1938 26.854Q87.2419 26.9259 87.2826 27.0023Q87.3234 27.0786 87.3565 27.1585Q87.3896 27.2385 87.4148 27.3213Q87.4399 27.4041 87.4567 27.4889Q87.4736 27.5738 87.4821 27.6599Q87.4906 27.746 87.4906 27.8325L87.4906 27.8345Q87.4906 27.9211 87.4821 28.0072Q87.4736 28.0933 87.4567 28.1782Q87.4399 28.263 87.4148 28.3458Q87.3896 28.4286 87.3565 28.5086Q87.3234 28.5885 87.2826 28.6648Q87.2419 28.7411 87.1938 28.8131Q87.1457 28.885 87.0908 28.9519Q87.0359 29.0188 86.9747 29.08Q86.9135 29.1412 86.8467 29.1961Q86.7798 29.2509 86.7078 29.299Q86.6359 29.3471 86.5596 29.3879Q86.4832 29.4287 86.4033 29.4618Q86.3234 29.4949 86.2406 29.52Q86.1578 29.5451 86.0729 29.562Q85.988 29.5789 85.9019 29.5874Q85.8158 29.5959 85.7293 29.5959L1.76131 29.5959Q1.67479 29.5959 1.58868 29.5874Q1.50256 29.5789 1.4177 29.562Q1.33283 29.5451 1.25003 29.52Q1.16723 29.4949 1.08729 29.4618Q1.00735 29.4287 0.931036 29.3879Q0.854726 29.3471 0.78278 29.299Q0.710835 29.2509 0.643948 29.1961Q0.577061 29.1412 0.515877 29.08Q0.454692 29.0188 0.3998 28.9519Q0.344907 28.885 0.296835 28.8131Q0.248763 28.7411 0.207974 28.6648Q0.167185 28.5885 0.134072 28.5086Q0.100959 28.4286 0.0758416 28.3458Q0.0507239 28.263 0.0338431 28.1782Q0.0169624 28.0933 0.00848121 28.0072Q0 27.9211 0 27.8345L0 27.8325Q0 27.746 0.00848121 27.6599Q0.0169624 27.5738 0.0338431 27.4889Q0.0507239 27.4041 0.0758416 27.3213Q0.100959 27.2385 0.134072 27.1585Q0.167185 27.0786 0.207974 27.0023Q0.248763 26.9259 0.296835 26.854Q0.344907 26.7821 0.3998 26.7152Q0.454692 26.6483 0.515877 26.5871Q0.577061 26.5259 0.643948 26.471Q0.710835 26.4161 0.78278 26.3681Q0.854725 26.32 0.931036 26.2792Q1.00735 26.2384 1.08729 26.2053Q1.16723 26.1722 1.25003 26.1471Q1.33283 26.1219 1.4177 26.1051Q1.50256 26.0882 1.58867 26.0797Q1.67479 26.0712 1.76131 26.0712ZM1.76131 32.589L85.7293 32.589Q85.8158 32.589 85.9019 32.5975Q85.988 32.606 86.0729 32.6229Q86.1578 32.6398 86.2406 32.6649Q86.3234 32.69 86.4033 32.7231Q86.4833 32.7562 86.5596 32.797Q86.6359 32.8378 86.7078 32.8859Q86.7798 32.9339 86.8467 32.9888Q86.9135 33.0437 86.9747 33.1049Q87.0359 33.1661 87.0908 33.233Q87.1457 33.2999 87.1938 33.3718Q87.2419 33.4438 87.2826 33.5201Q87.3234 33.5964 87.3565 33.6763Q87.3896 33.7563 87.4148 33.8391Q87.4399 33.9219 87.4567 34.0067Q87.4736 34.0916 87.4821 34.1777Q87.4906 34.2638 87.4906 34.3503L87.4906 34.3523Q87.4906 34.4389 87.4821 34.525Q87.4736 34.6111 87.4567 34.696Q87.4399 34.7808 87.4148 34.8636Q87.3896 34.9464 87.3565 35.0264Q87.3234 35.1063 87.2826 35.1826Q87.2419 35.2589 87.1938 35.3309Q87.1457 35.4028 87.0908 35.4697Q87.0359 35.5366 86.9747 35.5978Q86.9135 35.659 86.8467 35.7139Q86.7798 35.7688 86.7078 35.8168Q86.6359 35.8649 86.5596 35.9057Q86.4832 35.9465 86.4033 35.9796Q86.3234 36.0127 86.2406 36.0378Q86.1578 36.0629 86.0729 36.0798Q85.988 36.0967 85.9019 36.1052Q85.8158 36.1137 85.7293 36.1137L1.76131 36.1137Q1.67479 36.1137 1.58868 36.1052Q1.50256 36.0967 1.4177 36.0798Q1.33283 36.0629 1.25003 36.0378Q1.16723 36.0127 1.08729 35.9796Q1.00735 35.9465 0.931036 35.9057Q0.854726 35.8649 0.78278 35.8168Q0.710835 35.7688 0.643948 35.7139Q0.577061 35.659 0.515877 35.5978Q0.454692 35.5366 0.3998 35.4697Q0.344907 35.4028 0.296835 35.3309Q0.248763 35.2589 0.207974 35.1826Q0.167185 35.1063 0.134072 35.0264Q0.100959 34.9464 0.0758416 34.8636Q0.0507239 34.7808 0.0338431 34.696Q0.0169624 34.6111 0.00848121 34.525Q0 34.4389 0 34.3523L0 34.3503Q0 34.2638 0.00848121 34.1777Q0.0169624 34.0916 0.0338431 34.0067Q0.0507239 33.9219 0.0758416 33.8391Q0.100959 33.7563 0.134072 33.6763Q0.167185 33.5964 0.207974 33.5201Q0.248763 33.4438 0.296835 33.3718Q0.344907 33.2999 0.3998 33.233Q0.454692 33.1661 0.515877 33.1049Q0.577061 33.0437 0.643948 32.9888Q0.710835 32.9339 0.78278 32.8859Q0.854725 32.8378 0.931036 32.797Q1.00735 32.7562 1.08729 32.7231Q1.16723 32.69 1.25003 32.6649Q1.33283 32.6398 1.4177 32.6229Q1.50256 32.606 1.58867 32.5975Q1.67479 32.589 1.76131 32.589ZM85.7293 39.1068L1.76131 39.1068Q1.67479 39.1068 1.58867 39.1153Q1.50256 39.1238 1.4177 39.1407Q1.33283 39.1576 1.25003 39.1827Q1.16723 39.2078 1.08729 39.2409Q1.00735 39.274 0.931036 39.3148Q0.854725 39.3556 0.78278 39.4037Q0.710835 39.4517 0.643948 39.5066Q0.577061 39.5615 0.515877 39.6227Q0.454692 39.6839 0.3998 39.7508Q0.344907 39.8177 0.296835 39.8896Q0.248763 39.9616 0.207974 40.0379Q0.167185 40.1142 0.134072 40.1941Q0.100959 40.2741 0.0758416 40.3569Q0.0507239 40.4397 0.0338431 40.5245Q0.0169624 40.6094 0.00848121 40.6955Q0 40.7816 0 40.8682L0 40.8702Q0 40.9567 0.00848121 41.0428Q0.0169624 41.1289 0.0338431 41.2138Q0.0507239 41.2986 0.0758416 41.3814Q0.100959 41.4642 0.134072 41.5442Q0.167185 41.6241 0.207974 41.7004Q0.248763 41.7767 0.296835 41.8487Q0.344907 41.9206 0.3998 41.9875Q0.454692 42.0544 0.515877 42.1156Q0.577061 42.1768 0.643948 42.2317Q0.710835 42.2866 0.78278 42.3346Q0.854725 42.3827 0.931036 42.4235Q1.00735 42.4643 1.08729 42.4974Q1.16723 42.5305 1.25003 42.5556Q1.33283 42.5807 1.4177 42.5976Q1.50256 42.6145 1.58868 42.623Q1.67479 42.6315 1.76131 42.6315L85.7293 42.6315Q85.8158 42.6315 85.9019 42.623Q85.988 42.6145 86.0729 42.5976Q86.1578 42.5807 86.2406 42.5556Q86.3234 42.5305 86.4033 42.4974Q86.4833 42.4643 86.5596 42.4235Q86.6359 42.3827 86.7078 42.3346Q86.7798 42.2866 86.8467 42.2317Q86.9135 42.1768 86.9747 42.1156Q87.0359 42.0544 87.0908 41.9875Q87.1457 41.9206 87.1938 41.8487Q87.2419 41.7767 87.2826 41.7004Q87.3234 41.6241 87.3565 41.5442Q87.3896 41.4642 87.4148 41.3814Q87.4399 41.2986 87.4567 41.2138Q87.4736 41.1289 87.4821 41.0428Q87.4906 40.9567 87.4906 40.8702L87.4906 40.8682Q87.4906 40.7816 87.4821 40.6955Q87.4736 40.6094 87.4567 40.5245Q87.4399 40.4397 87.4148 40.3569Q87.3896 40.2741 87.3565 40.1941Q87.3234 40.1142 87.2826 40.0379Q87.2419 39.9616 87.1938 39.8896Q87.1457 39.8177 87.0908 39.7508Q87.0359 39.6839 86.9747 39.6227Q86.9135 39.5615 86.8467 39.5066Q86.7798 39.4517 86.7078 39.4037Q86.6359 39.3556 86.5596 39.3148Q86.4832 39.274 86.4033 39.2409Q86.3234 39.2078 86.2406 39.1827Q86.1578 39.1576 86.0729 39.1407Q85.988 39.1238 85.9019 39.1153Q85.8158 39.1068 85.7293 39.1068ZM85.7293 45.6246L1.76131 45.6246Q1.67479 45.6246 1.58867 45.6331Q1.50256 45.6416 1.4177 45.6585Q1.33283 45.6754 1.25003 45.7005Q1.16723 45.7256 1.08729 45.7587Q1.00735 45.7918 0.931036 45.8326Q0.854725 45.8734 0.78278 45.9215Q0.710835 45.9695 0.643948 46.0244Q0.577061 46.0793 0.515877 46.1405Q0.454692 46.2017 0.3998 46.2686Q0.344907 46.3355 0.296835 46.4074Q0.248763 46.4794 0.207974 46.5557Q0.167185 46.632 0.134072 46.7119Q0.100959 46.7919 0.0758416 46.8747Q0.0507239 46.9575 0.0338431 47.0423Q0.0169624 47.1272 0.00848121 47.2133Q0 47.2994 0 47.386L0 47.388Q0 47.4745 0.00848121 47.5606Q0.0169624 47.6467 0.0338431 47.7316Q0.0507239 47.8164 0.0758416 47.8992Q0.100959 47.982 0.134072 48.062Q0.167185 48.1419 0.207974 48.2182Q0.248763 48.2945 0.296835 48.3665Q0.344907 48.4384 0.3998 48.5053Q0.454692 48.5722 0.515877 48.6334Q0.577061 48.6946 0.643948 48.7495Q0.710835 48.8044 0.78278 48.8524Q0.854725 48.9005 0.931036 48.9413Q1.00735 48.9821 1.08729 49.0152Q1.16723 49.0483 1.25003 49.0734Q1.33283 49.0985 1.4177 49.1154Q1.50256 49.1323 1.58868 49.1408Q1.67479 49.1493 1.76131 49.1493L85.7293 49.1493Q85.8158 49.1493 85.9019 49.1408Q85.988 49.1323 86.0729 49.1154Q86.1578 49.0985 86.2406 49.0734Q86.3234 49.0483 86.4033 49.0152Q86.4833 48.9821 86.5596 48.9413Q86.6359 48.9005 86.7078 48.8524Q86.7798 48.8044 86.8467 48.7495Q86.9135 48.6946 86.9747 48.6334Q87.0359 48.5722 87.0908 48.5053Q87.1457 48.4384 87.1938 48.3665Q87.2419 48.2945 87.2826 48.2182Q87.3234 48.1419 87.3565 48.062Q87.3896 47.982 87.4148 47.8992Q87.4399 47.8164 87.4567 47.7316Q87.4736 47.6467 87.4821 47.5606Q87.4906 47.4745 87.4906 47.388L87.4906 47.386Q87.4906 47.2994 87.4821 47.2133Q87.4736 47.1272 87.4567 47.0423Q87.4399 46.9575 87.4148 46.8747Q87.3896 46.7919 87.3565 46.7119Q87.3234 46.632 87.2826 46.5557Q87.2419 46.4794 87.1938 46.4074Q87.1457 46.3355 87.0908 46.2686Q87.0359 46.2017 86.9747 46.1405Q86.9135 46.0793 86.8467 46.0244Q86.7798 45.9696 86.7078 45.9215Q86.6359 45.8734 86.5596 45.8326Q86.4832 45.7918 86.4033 45.7587Q86.3234 45.7256 86.2406 45.7005Q86.1578 45.6754 86.0729 45.6585Q85.988 45.6416 85.9019 45.6331Q85.8158 45.6246 85.7293 45.6246Z" transform="translate(10.04519 23.96746)" id="Combined-Shape" fill="#7C92FF" fill-rule="evenodd" stroke="none" />
    <path d="M2.529 0L21.8708 0Q21.995 0 22.1187 0.0121778Q22.2423 0.0243557 22.3642 0.048594Q22.486 0.0728324 22.6049 0.108898Q22.7238 0.144963 22.8386 0.192509Q22.9534 0.240054 23.0629 0.298621Q23.1725 0.357188 23.2758 0.426213Q23.3791 0.495238 23.4752 0.574057Q23.5712 0.652875 23.6591 0.740727Q23.7469 0.828579 23.8257 0.924619Q23.9045 1.02066 23.9736 1.12396Q24.0426 1.22727 24.1012 1.33684Q24.1597 1.44641 24.2073 1.56119Q24.2548 1.67598 24.2909 1.79487Q24.3269 1.91376 24.3512 2.03562Q24.3754 2.15747 24.3876 2.28111Q24.3998 2.40476 24.3998 2.529L24.3998 11.8613Q24.3998 11.9856 24.3876 12.1092Q24.3754 12.2329 24.3512 12.3547Q24.3269 12.4766 24.2909 12.5955Q24.2548 12.7144 24.2073 12.8291Q24.1597 12.9439 24.1012 13.0535Q24.0426 13.1631 23.9736 13.2664Q23.9045 13.3697 23.8257 13.4657Q23.7469 13.5618 23.6591 13.6496Q23.5712 13.7375 23.4752 13.8163Q23.3791 13.8951 23.2758 13.9641Q23.1725 14.0331 23.0629 14.0917Q22.9534 14.1503 22.8386 14.1978Q22.7238 14.2454 22.6049 14.2814Q22.486 14.3175 22.3642 14.3417Q22.2423 14.366 22.1187 14.3782Q21.995 14.3903 21.8708 14.3903L2.529 14.3903Q2.40476 14.3903 2.28111 14.3782Q2.15747 14.366 2.03562 14.3417Q1.91376 14.3175 1.79487 14.2814Q1.67598 14.2454 1.56119 14.1978Q1.44641 14.1503 1.33684 14.0917Q1.22727 14.0331 1.12396 13.9641Q1.02066 13.8951 0.924619 13.8163Q0.828579 13.7375 0.740727 13.6496Q0.652875 13.5618 0.574057 13.4657Q0.495238 13.3697 0.426213 13.2664Q0.357188 13.1631 0.298621 13.0535Q0.240054 12.9439 0.192509 12.8291Q0.144963 12.7144 0.108898 12.5955Q0.0728324 12.4766 0.048594 12.3547Q0.0243557 12.2329 0.0121778 12.1092Q0 11.9856 0 11.8613L0 2.529Q0 2.40476 0.0121778 2.28111Q0.0243557 2.15747 0.048594 2.03562Q0.0728324 1.91376 0.108898 1.79487Q0.144963 1.67598 0.192509 1.56119Q0.240054 1.44641 0.298621 1.33684Q0.357188 1.22727 0.426213 1.12396Q0.495238 1.02066 0.574057 0.924619Q0.652875 0.828579 0.740727 0.740727Q0.828579 0.652875 0.924619 0.574057Q1.02066 0.495238 1.12396 0.426213Q1.22727 0.357188 1.33684 0.298621Q1.44641 0.240054 1.56119 0.192509Q1.67598 0.144963 1.79487 0.108898Q1.91376 0.0728324 2.03562 0.048594Q2.15747 0.0243557 2.28111 0.0121778Q2.40476 0 2.529 0Z" transform="translate(73.13601 62.01209)" id="Rectangle-19" fill="#FEF7F1" stroke="none" />
    <path d="M2.529 0L17.8905 0Q18.0148 0 18.1384 0.0121778Q18.262 0.0243557 18.3839 0.048594Q18.5057 0.0728324 18.6246 0.108898Q18.7435 0.144963 18.8583 0.192509Q18.9731 0.240054 19.0827 0.298621Q19.1922 0.357188 19.2955 0.426213Q19.3988 0.495238 19.4949 0.574057Q19.5909 0.652875 19.6788 0.740727Q19.7666 0.828579 19.8455 0.924619Q19.9243 1.02066 19.9933 1.12396Q20.0623 1.22727 20.1209 1.33684Q20.1795 1.44641 20.227 1.56119Q20.2745 1.67598 20.3106 1.79487Q20.3467 1.91376 20.3709 2.03562Q20.3952 2.15747 20.4073 2.28111Q20.4195 2.40476 20.4195 2.529L20.4195 9.51388Q20.4195 9.63812 20.4073 9.76176Q20.3952 9.8854 20.3709 10.0073Q20.3467 10.1291 20.3106 10.248Q20.2745 10.3669 20.227 10.4817Q20.1795 10.5965 20.1209 10.706Q20.0623 10.8156 19.9933 10.9189Q19.9243 11.0222 19.8454 11.1183Q19.7666 11.2143 19.6788 11.3021Q19.5909 11.39 19.4949 11.4688Q19.3988 11.5476 19.2955 11.6167Q19.1922 11.6857 19.0827 11.7443Q18.9731 11.8028 18.8583 11.8504Q18.7435 11.8979 18.6246 11.934Q18.5057 11.97 18.3839 11.9943Q18.262 12.0185 18.1384 12.0307Q18.0148 12.0429 17.8905 12.0429L2.529 12.0429Q2.40476 12.0429 2.28111 12.0307Q2.15747 12.0185 2.03562 11.9943Q1.91376 11.97 1.79487 11.934Q1.67598 11.8979 1.56119 11.8504Q1.44641 11.8028 1.33684 11.7443Q1.22727 11.6857 1.12396 11.6167Q1.02066 11.5476 0.924619 11.4688Q0.828579 11.39 0.740727 11.3021Q0.652875 11.2143 0.574057 11.1183Q0.495238 11.0222 0.426213 10.9189Q0.357188 10.8156 0.298621 10.706Q0.240054 10.5965 0.192509 10.4817Q0.144963 10.3669 0.108898 10.248Q0.0728324 10.1291 0.048594 10.0073Q0.0243557 9.8854 0.0121778 9.76176Q0 9.63812 0 9.51388L0 2.529Q0 2.40476 0.0121778 2.28111Q0.0243557 2.15747 0.048594 2.03562Q0.0728324 1.91376 0.108898 1.79487Q0.144963 1.67598 0.192509 1.56119Q0.240054 1.44641 0.298621 1.33684Q0.357188 1.22727 0.426213 1.12396Q0.495238 1.02066 0.574057 0.924619Q0.652875 0.828579 0.740727 0.740727Q0.828579 0.652875 0.924619 0.574057Q1.02066 0.495238 1.12396 0.426213Q1.22727 0.357188 1.33684 0.298621Q1.44641 0.240054 1.56119 0.192509Q1.67598 0.144963 1.79487 0.108898Q1.91376 0.0728324 2.03562 0.048594Q2.15747 0.0243557 2.28111 0.0121778Q2.40476 0 2.529 0Z" transform="translate(75.07455 63.26706)" id="Rectangle-19-Copy" fill="#D3D3D3" stroke="none" />
    <path d="M0 0C0 1.89793 1.53858 3.43651 3.43651 3.43651L3.43651 3.43651C5.33444 3.43651 6.87302 1.89793 6.87302 0" transform="translate(81.94758 69.78761)" id="Oval-14" fill="#FFFFFF" stroke="none" />
    <path d="M0 0C0 0.863898 0.700328 1.56423 1.56423 1.56423C2.42812 1.56423 3.12845 0.863898 3.12845 0" transform="matrix(1 0 0 -1 78.81912 67.44495)" id="Oval-14-Copy" fill="none" stroke="#FEF7F1" stroke-width="0.92" stroke-linecap="round" />
    <path d="M0 0C0 0.863898 0.700328 1.56423 1.56423 1.56423C2.42812 1.56423 3.12845 0.863898 3.12845 0" transform="matrix(1 0 0 -1 88.8206 67.44495)" id="Oval-14-Copy-2" fill="none" stroke="#FEF7F1" stroke-width="0.92" stroke-linecap="round" />
    <path d="M1.149 0L28.8143 0Q28.8708 0 28.9269 0.00553275Q28.9831 0.0110655 29.0385 0.0220777Q29.0938 0.0330899 29.1478 0.0494756Q29.2019 0.0658612 29.254 0.0874624Q29.3062 0.109064 29.3559 0.135672Q29.4057 0.162281 29.4527 0.193641Q29.4996 0.225002 29.5432 0.260811Q29.5869 0.29662 29.6268 0.336534Q29.6667 0.376448 29.7025 0.420082Q29.7383 0.463716 29.7697 0.51065Q29.801 0.557584 29.8276 0.607365Q29.8542 0.657147 29.8758 0.709297Q29.8974 0.761447 29.9138 0.815463Q29.9302 0.869479 29.9412 0.924841Q29.9522 0.980203 29.9578 1.03638Q29.9633 1.09255 29.9633 1.149L29.9633 10.1705Q29.9633 10.2269 29.9578 10.2831Q29.9522 10.3393 29.9412 10.3946Q29.9302 10.45 29.9138 10.504Q29.8974 10.558 29.8758 10.6102Q29.8542 10.6623 29.8276 10.7121Q29.801 10.7619 29.7697 10.8088Q29.7383 10.8558 29.7025 10.8994Q29.6667 10.943 29.6268 10.9829Q29.5869 11.0228 29.5432 11.0587Q29.4996 11.0945 29.4526 11.1258Q29.4057 11.1572 29.3559 11.1838Q29.3062 11.2104 29.254 11.232Q29.2019 11.2536 29.1478 11.27Q29.0938 11.2864 29.0385 11.2974Q28.9831 11.3084 28.9269 11.3139Q28.8708 11.3195 28.8143 11.3195L1.149 11.3195Q1.09255 11.3195 1.03638 11.3139Q0.980203 11.3084 0.924841 11.2974Q0.869479 11.2864 0.815463 11.27Q0.761447 11.2536 0.709297 11.232Q0.657147 11.2104 0.607365 11.1838Q0.557584 11.1572 0.51065 11.1258Q0.463716 11.0945 0.420082 11.0587Q0.376448 11.0228 0.336534 10.9829Q0.29662 10.943 0.260811 10.8994Q0.225002 10.8558 0.193641 10.8088Q0.162281 10.7619 0.135672 10.7121Q0.109064 10.6623 0.0874624 10.6102Q0.0658612 10.558 0.0494756 10.504Q0.0330899 10.45 0.0220777 10.3946Q0.0110655 10.3393 0.00553275 10.2831Q0 10.2269 0 10.1705L0 1.149Q0 1.09255 0.00553275 1.03638Q0.0110655 0.980203 0.0220777 0.924841Q0.0330899 0.869479 0.0494756 0.815463Q0.0658612 0.761447 0.0874624 0.709297Q0.109064 0.657147 0.135672 0.607365Q0.162281 0.557584 0.193641 0.51065Q0.225002 0.463716 0.260811 0.420082Q0.29662 0.376448 0.336534 0.336534Q0.376448 0.29662 0.420082 0.260811Q0.463716 0.225002 0.51065 0.193641Q0.557584 0.162281 0.607365 0.135672Q0.657147 0.109064 0.709297 0.0874624Q0.761447 0.0658612 0.815463 0.0494756Q0.869479 0.0330899 0.924841 0.0220777Q0.980203 0.0110655 1.03638 0.00553275Q1.09255 0 1.149 0L1.149 0Z" transform="matrix(0.9396926 -0.3420201 0.3420201 0.9396926 13.88125 37.73868)" id="Rectangle-20" fill="#FFF762" stroke="none" />
    <path d="M9.07591 18.1518C14.0884 18.1518 18.1518 14.0884 18.1518 9.07591C18.1518 4.06343 14.0884 0 9.07591 0C4.06343 0 0 4.06343 0 9.07591C0 14.0884 4.06343 18.1518 9.07591 18.1518Z" transform="translate(59.5662 34.54134)" id="Oval-12" fill="#F15A29" stroke="none" />
    <path d="M7.12291 14.2458C11.0568 14.2458 14.2458 11.0568 14.2458 7.12291C14.2458 3.18904 11.0568 0 7.12291 0C3.18904 0 0 3.18904 0 7.12291C0 11.0568 3.18904 14.2458 7.12291 14.2458Z" transform="translate(61.50474 36.47989)" id="Oval-12-Copy" fill="#FF7548" stroke="none" />
    <path d="M5.0191 0L1.149 0Q1.09255 0 1.03638 0.00553275Q0.980203 0.0110655 0.924841 0.0220777Q0.869479 0.0330899 0.815463 0.0494755Q0.761447 0.0658612 0.709297 0.0874624Q0.657147 0.109064 0.607365 0.135672Q0.557584 0.162281 0.51065 0.193641Q0.463716 0.225002 0.420082 0.260811Q0.376448 0.29662 0.336534 0.336534Q0.29662 0.376448 0.260811 0.420082Q0.225002 0.463716 0.193641 0.51065Q0.162281 0.557584 0.135672 0.607365Q0.109064 0.657147 0.0874624 0.709297Q0.0658612 0.761447 0.0494755 0.815463Q0.0330899 0.869479 0.0220777 0.924841Q0.0110655 0.980203 0.00553275 1.03638Q0 1.09255 0 1.149L0 6.78141Q0 6.83786 0.00553275 6.89403Q0.0110655 6.95021 0.0220777 7.00557Q0.0330899 7.06093 0.0494755 7.11495Q0.0658612 7.16896 0.0874624 7.22111Q0.109064 7.27326 0.135672 7.32305Q0.162281 7.37283 0.193641 7.41976Q0.225002 7.46669 0.260811 7.51033Q0.29662 7.55396 0.336534 7.59388Q0.376448 7.63379 0.420082 7.6696Q0.463716 7.70541 0.51065 7.73677Q0.557584 7.76813 0.607365 7.79474Q0.657147 7.82135 0.709297 7.84295Q0.761447 7.86455 0.815463 7.88094Q0.869479 7.89732 0.924841 7.90833Q0.980203 7.91934 1.03638 7.92488Q1.09255 7.93041 1.149 7.93041L5.0191 7.93041Q5.07554 7.93041 5.13172 7.92488Q5.18789 7.91934 5.24326 7.90833Q5.29862 7.89732 5.35263 7.88093Q5.40665 7.86455 5.4588 7.84295Q5.51095 7.82135 5.56073 7.79474Q5.61051 7.76813 5.65745 7.73677Q5.70438 7.70541 5.74801 7.6696Q5.79165 7.63379 5.83156 7.59388Q5.87148 7.55396 5.90729 7.51033Q5.94309 7.46669 5.97445 7.41976Q6.00581 7.37283 6.03242 7.32305Q6.05903 7.27326 6.08063 7.22111Q6.10224 7.16896 6.11862 7.11495Q6.13501 7.06093 6.14602 7.00557Q6.15703 6.95021 6.16256 6.89403Q6.1681 6.83786 6.1681 6.78141L6.1681 1.149Q6.1681 1.09255 6.16256 1.03638Q6.15703 0.980203 6.14602 0.924841Q6.13501 0.869479 6.11862 0.815463Q6.10224 0.761447 6.08063 0.709297Q6.05903 0.657147 6.03242 0.607365Q6.00582 0.557584 5.97446 0.51065Q5.9431 0.463716 5.90729 0.420082Q5.87148 0.376448 5.83156 0.336534Q5.79165 0.29662 5.74802 0.260811Q5.70438 0.225002 5.65745 0.193641Q5.61051 0.162281 5.56073 0.135672Q5.51095 0.109064 5.4588 0.0874624Q5.40665 0.0658612 5.35263 0.0494755Q5.29862 0.0330899 5.24326 0.0220777Q5.18789 0.0110655 5.13172 0.00553275Q5.07554 0 5.0191 0ZM78.4199 0L74.5498 0Q74.4933 0 74.4371 0.00553275Q74.381 0.0110655 74.3256 0.0220777Q74.2702 0.0330899 74.2162 0.0494756Q74.1622 0.0658612 74.1101 0.0874624Q74.0579 0.109064 74.0081 0.135672Q73.9584 0.162281 73.9114 0.193641Q73.8645 0.225002 73.8208 0.260811Q73.7772 0.29662 73.7373 0.336534Q73.6974 0.376448 73.6616 0.420082Q73.6258 0.463716 73.5944 0.51065Q73.563 0.557584 73.5364 0.607365Q73.5098 0.657147 73.4882 0.709297Q73.4666 0.761447 73.4502 0.815463Q73.4339 0.869479 73.4228 0.924841Q73.4118 0.980203 73.4063 1.03638Q73.4008 1.09255 73.4008 1.149L73.4008 6.78141Q73.4008 6.83786 73.4063 6.89403Q73.4118 6.95021 73.4228 7.00557Q73.4339 7.06093 73.4502 7.11495Q73.4666 7.16896 73.4882 7.22111Q73.5098 7.27326 73.5364 7.32305Q73.563 7.37283 73.5944 7.41976Q73.6258 7.46669 73.6616 7.51033Q73.6974 7.55396 73.7373 7.59388Q73.7772 7.63379 73.8208 7.6696Q73.8645 7.70541 73.9114 7.73677Q73.9584 7.76813 74.0081 7.79474Q74.0579 7.82135 74.1101 7.84295Q74.1622 7.86455 74.2162 7.88094Q74.2702 7.89732 74.3256 7.90833Q74.381 7.91934 74.4371 7.92488Q74.4933 7.93041 74.5498 7.93041L78.4199 7.93041Q78.4763 7.93041 78.5325 7.92488Q78.5887 7.91934 78.644 7.90833Q78.6994 7.89732 78.7534 7.88093Q78.8074 7.86455 78.8596 7.84295Q78.9117 7.82135 78.9615 7.79474Q79.0113 7.76813 79.0582 7.73677Q79.1051 7.70541 79.1488 7.6696Q79.1924 7.63379 79.2323 7.59388Q79.2722 7.55396 79.3081 7.51033Q79.3439 7.46669 79.3752 7.41976Q79.4066 7.37283 79.4332 7.32305Q79.4598 7.27326 79.4814 7.22111Q79.503 7.16896 79.5194 7.11495Q79.5358 7.06093 79.5468 7.00557Q79.5578 6.95021 79.5633 6.89403Q79.5689 6.83786 79.5689 6.78141L79.5689 1.149Q79.5689 1.09255 79.5633 1.03638Q79.5578 0.980203 79.5468 0.924841Q79.5358 0.869479 79.5194 0.815463Q79.503 0.761447 79.4814 0.709297Q79.4598 0.657147 79.4332 0.607365Q79.4066 0.557584 79.3752 0.51065Q79.3439 0.463716 79.3081 0.420082Q79.2722 0.376448 79.2323 0.336534Q79.1924 0.29662 79.1488 0.260811Q79.1051 0.225002 79.0582 0.193641Q79.0113 0.162281 78.9615 0.135672Q78.9117 0.109064 78.8596 0.0874624Q78.8074 0.0658612 78.7534 0.0494755Q78.6994 0.0330899 78.644 0.0220777Q78.5887 0.0110655 78.5325 0.00553275Q78.4763 0 78.4199 0Z" transform="translate(13.92228 83.53366)" id="Combined-Shape" fill="#4E65D9" fill-rule="evenodd" stroke="none" />
    <g id="Group-3" transform="translate(77.18933 7.049254)">
      <path d="M1.149 0L13.0968 0Q13.1533 0 13.2094 0.00553275Q13.2656 0.0110655 13.321 0.0220777Q13.3763 0.0330899 13.4304 0.0494756Q13.4844 0.0658612 13.5365 0.0874624Q13.5887 0.109064 13.6385 0.135672Q13.6882 0.162281 13.7352 0.193641Q13.7821 0.225002 13.8257 0.260811Q13.8694 0.29662 13.9093 0.336534Q13.9492 0.376448 13.985 0.420082Q14.0208 0.463716 14.0522 0.51065Q14.0835 0.557584 14.1102 0.607365Q14.1368 0.657147 14.1584 0.709297Q14.18 0.761447 14.1964 0.815463Q14.2127 0.869479 14.2237 0.924841Q14.2348 0.980203 14.2403 1.03638Q14.2458 1.09255 14.2458 1.149L14.2458 3.87153Q14.2458 3.92798 14.2403 3.98415Q14.2348 4.04033 14.2237 4.09569Q14.2127 4.15105 14.1964 4.20507Q14.18 4.25908 14.1584 4.31123Q14.1368 4.36338 14.1102 4.41316Q14.0835 4.46294 14.0522 4.50988Q14.0208 4.55681 13.985 4.60045Q13.9492 4.64408 13.9093 4.68399Q13.8694 4.72391 13.8257 4.75972Q13.7821 4.79553 13.7352 4.82689Q13.6882 4.85825 13.6385 4.88485Q13.5887 4.91146 13.5365 4.93306Q13.4844 4.95467 13.4304 4.97105Q13.3763 4.98744 13.321 4.99845Q13.2656 5.00946 13.2094 5.015Q13.1533 5.02053 13.0968 5.02053L1.149 5.02053Q1.09255 5.02053 1.03638 5.015Q0.980203 5.00946 0.924841 4.99845Q0.869479 4.98744 0.815463 4.97105Q0.761447 4.95467 0.709297 4.93306Q0.657147 4.91146 0.607365 4.88485Q0.557584 4.85825 0.51065 4.82689Q0.463716 4.79553 0.420082 4.75972Q0.376448 4.72391 0.336534 4.68399Q0.29662 4.64408 0.260811 4.60045Q0.225002 4.55681 0.193641 4.50988Q0.162281 4.46294 0.135672 4.41316Q0.109064 4.36338 0.0874624 4.31123Q0.0658612 4.25908 0.0494755 4.20506Q0.0330899 4.15105 0.0220777 4.09569Q0.0110655 4.04032 0.00553275 3.98415Q0 3.92797 0 3.87153L0 1.149Q0 1.09255 0.00553275 1.03638Q0.0110655 0.980203 0.0220777 0.924841Q0.0330899 0.869479 0.0494755 0.815463Q0.0658612 0.761447 0.0874624 0.709297Q0.109064 0.657147 0.135672 0.607365Q0.162281 0.557584 0.193641 0.51065Q0.225002 0.463716 0.260811 0.420082Q0.29662 0.376448 0.336534 0.336534Q0.376448 0.29662 0.420082 0.260811Q0.463716 0.225002 0.51065 0.193641Q0.557584 0.162281 0.607365 0.135672Q0.657147 0.109064 0.709297 0.0874624Q0.761447 0.0658612 0.815463 0.0494755Q0.869479 0.0330899 0.924841 0.0220777Q0.980203 0.0110655 1.03638 0.00553275Q1.09255 0 1.149 0L1.149 0Z" transform="translate(0 1.409851)" id="Rectangle-22" fill="#FFA22E" stroke="none" />
      <path d="M1.1465 0L1.1445 0Q1.08828 0 1.03232 0.0055111Q0.976368 0.0110222 0.921222 0.0219913Q0.866077 0.0329604 0.812272 0.0492819Q0.758467 0.0656034 0.706521 0.0871201Q0.654575 0.108637 0.604988 0.135142Q0.555402 0.161646 0.508651 0.192884Q0.461901 0.224121 0.418438 0.25979Q0.374975 0.29546 0.335217 0.335217Q0.29546 0.374975 0.25979 0.418438Q0.224121 0.461901 0.192884 0.508651Q0.161646 0.555402 0.135142 0.604988Q0.108637 0.654575 0.0871201 0.706521Q0.0656034 0.758467 0.0492819 0.812272Q0.0329604 0.866077 0.0219913 0.921222Q0.0110222 0.976368 0.0055111 1.03232Q0 1.08828 0 1.1445L0 1.85143Q0 1.90765 0.0055111 1.96361Q0.0110222 2.01957 0.0219913 2.07471Q0.0329604 2.12986 0.0492819 2.18366Q0.0656034 2.23747 0.0871201 2.28941Q0.108637 2.34136 0.135142 2.39094Q0.161646 2.44053 0.192884 2.48728Q0.224121 2.53403 0.25979 2.57749Q0.29546 2.62096 0.335217 2.66072Q0.374975 2.70047 0.418438 2.73614Q0.461901 2.77181 0.508651 2.80305Q0.555402 2.83429 0.604988 2.86079Q0.654575 2.8873 0.706521 2.90881Q0.758467 2.93033 0.812272 2.94665Q0.866077 2.96297 0.921222 2.97394Q0.976368 2.98491 1.03232 2.99042Q1.08828 2.99593 1.1445 2.99593L1.1465 2.99593Q1.20273 2.99593 1.25868 2.99042Q1.31464 2.98491 1.36979 2.97394Q1.42493 2.96297 1.47874 2.94665Q1.53254 2.93033 1.58449 2.90881Q1.63643 2.8873 1.68602 2.86079Q1.73561 2.83429 1.78236 2.80305Q1.82911 2.77181 1.87257 2.73614Q1.91603 2.70047 1.95579 2.66072Q1.99555 2.62096 2.03122 2.57749Q2.06689 2.53403 2.09812 2.48728Q2.12936 2.44053 2.15587 2.39094Q2.18237 2.34136 2.20389 2.28941Q2.2254 2.23747 2.24173 2.18366Q2.25805 2.12986 2.26902 2.07471Q2.27999 2.01957 2.2855 1.96361Q2.29101 1.90765 2.29101 1.85143L2.29101 1.1445Q2.29101 1.08828 2.2855 1.03232Q2.27999 0.976368 2.26902 0.921222Q2.25805 0.866077 2.24173 0.812272Q2.2254 0.758467 2.20389 0.706521Q2.18237 0.654575 2.15587 0.604988Q2.12936 0.555402 2.09812 0.508651Q2.06689 0.461901 2.03122 0.418438Q1.99555 0.374975 1.95579 0.335217Q1.91603 0.29546 1.87257 0.25979Q1.82911 0.224121 1.78236 0.192884Q1.73561 0.161646 1.68602 0.135142Q1.63643 0.108637 1.58449 0.0871201Q1.53254 0.0656034 1.47874 0.0492819Q1.42493 0.0329604 1.36979 0.0219913Q1.31464 0.0110222 1.25868 0.0055111Q1.20273 0 1.1465 0ZM10.3863 0L10.3843 0Q10.3281 0 10.2721 0.0055111Q10.2162 0.0110222 10.161 0.0219913Q10.1059 0.0329604 10.0521 0.049282Q9.99826 0.0656035 9.94631 0.0871202Q9.89437 0.108637 9.84478 0.135142Q9.79519 0.161646 9.74844 0.192884Q9.70169 0.224121 9.65823 0.25979Q9.61477 0.29546 9.57501 0.335217Q9.53525 0.374975 9.49958 0.418438Q9.46391 0.461902 9.43268 0.508652Q9.40144 0.555402 9.37493 0.604988Q9.34843 0.654575 9.32691 0.706521Q9.3054 0.758467 9.28907 0.812272Q9.27275 0.866077 9.26178 0.921222Q9.25082 0.976368 9.24531 1.03232Q9.23979 1.08828 9.23979 1.1445L9.23979 1.85143Q9.23979 1.90765 9.24531 1.96361Q9.25082 2.01956 9.26178 2.07471Q9.27275 2.12986 9.28907 2.18366Q9.3054 2.23747 9.32691 2.28941Q9.34843 2.34136 9.37493 2.39094Q9.40144 2.44053 9.43268 2.48728Q9.46391 2.53403 9.49958 2.57749Q9.53525 2.62096 9.57501 2.66072Q9.61477 2.70047 9.65823 2.73614Q9.70169 2.77181 9.74844 2.80305Q9.79519 2.83429 9.84478 2.86079Q9.89437 2.8873 9.94631 2.90881Q9.99826 2.93033 10.0521 2.94665Q10.1059 2.96297 10.161 2.97394Q10.2162 2.98491 10.2721 2.99042Q10.3281 2.99593 10.3843 2.99593L10.3863 2.99593Q10.4425 2.99593 10.4985 2.99042Q10.5544 2.98491 10.6096 2.97394Q10.6647 2.96297 10.7185 2.94665Q10.7723 2.93033 10.8243 2.90881Q10.8762 2.8873 10.9258 2.86079Q10.9754 2.83429 11.0221 2.80305Q11.0689 2.77181 11.1124 2.73614Q11.1558 2.70047 11.1956 2.66072Q11.2353 2.62096 11.271 2.57749Q11.3067 2.53403 11.3379 2.48728Q11.3692 2.44053 11.3957 2.39094Q11.4222 2.34136 11.4437 2.28941Q11.4652 2.23747 11.4815 2.18366Q11.4978 2.12986 11.5088 2.07471Q11.5198 2.01956 11.5253 1.96361Q11.5308 1.90765 11.5308 1.85143L11.5308 1.1445Q11.5308 1.08828 11.5253 1.03232Q11.5198 0.976368 11.5088 0.921222Q11.4978 0.866077 11.4815 0.812272Q11.4652 0.758467 11.4437 0.706521Q11.4222 0.654575 11.3957 0.604988Q11.3692 0.555402 11.3379 0.508652Q11.3067 0.461902 11.271 0.418438Q11.2353 0.374975 11.1956 0.335217Q11.1558 0.29546 11.1124 0.25979Q11.0689 0.224121 11.0221 0.192884Q10.9754 0.161646 10.9258 0.135142Q10.8762 0.108637 10.8243 0.0871202Q10.7723 0.0656035 10.7185 0.0492819Q10.6647 0.0329604 10.6096 0.0219913Q10.5544 0.0110222 10.4985 0.0055111Q10.4425 0 10.3863 0Z" transform="translate(1.409851 0)" id="Combined-Shape" fill="#FF7C2E" fill-rule="evenodd" stroke="none" />
      <path d="M1.149 0L6.15225 0Q6.2087 0 6.26487 0.00553275Q6.32105 0.0110655 6.37641 0.0220777Q6.43177 0.0330899 6.48579 0.0494755Q6.5398 0.0658612 6.59195 0.0874624Q6.6441 0.109064 6.69388 0.135672Q6.74367 0.162281 6.7906 0.193641Q6.83753 0.225002 6.88117 0.260811Q6.9248 0.29662 6.96471 0.336534Q7.00463 0.376448 7.04044 0.420082Q7.07625 0.463716 7.10761 0.51065Q7.13897 0.557584 7.16558 0.607365Q7.19219 0.657147 7.21379 0.709297Q7.23539 0.761447 7.25177 0.815463Q7.26816 0.869479 7.27917 0.924841Q7.29018 0.980203 7.29572 1.03638Q7.30125 1.09255 7.30125 1.149L7.30125 9.24865Q7.30125 9.3051 7.29572 9.36127Q7.29018 9.41745 7.27917 9.47281Q7.26816 9.52817 7.25177 9.58219Q7.23539 9.6362 7.21379 9.68835Q7.19218 9.7405 7.16558 9.79028Q7.13897 9.84007 7.10761 9.887Q7.07625 9.93393 7.04044 9.97757Q7.00463 10.0212 6.96471 10.0611Q6.9248 10.101 6.88117 10.1368Q6.83753 10.1726 6.7906 10.204Q6.74366 10.2354 6.69388 10.262Q6.6441 10.2886 6.59195 10.3102Q6.5398 10.3318 6.48579 10.3482Q6.43177 10.3646 6.37641 10.3756Q6.32105 10.3866 6.26487 10.3921Q6.2087 10.3976 6.15225 10.3976L1.149 10.3976Q1.09255 10.3976 1.03638 10.3921Q0.980203 10.3866 0.924841 10.3756Q0.869479 10.3646 0.815463 10.3482Q0.761447 10.3318 0.709297 10.3102Q0.657147 10.2886 0.607365 10.262Q0.557584 10.2354 0.51065 10.204Q0.463716 10.1726 0.420082 10.1368Q0.376448 10.101 0.336534 10.0611Q0.29662 10.0212 0.260811 9.97757Q0.225002 9.93393 0.193641 9.887Q0.162281 9.84007 0.135672 9.79028Q0.109064 9.7405 0.0874624 9.68835Q0.0658612 9.6362 0.0494755 9.58219Q0.0330899 9.52817 0.0220777 9.47281Q0.0110655 9.41745 0.00553275 9.36127Q0 9.3051 0 9.24865L0 1.149Q0 1.09255 0.00553275 1.03638Q0.0110655 0.980203 0.0220777 0.924841Q0.0330899 0.869479 0.0494756 0.815463Q0.0658612 0.761447 0.0874624 0.709297Q0.109064 0.657147 0.135672 0.607365Q0.162281 0.557584 0.193641 0.51065Q0.225002 0.463716 0.260811 0.420082Q0.29662 0.376448 0.336534 0.336534Q0.376448 0.29662 0.420082 0.260811Q0.463716 0.225002 0.51065 0.193641Q0.557584 0.162281 0.607365 0.135672Q0.657147 0.109064 0.709297 0.0874624Q0.761447 0.0658612 0.815463 0.0494756Q0.869479 0.0330899 0.924841 0.0220777Q0.980203 0.0110655 1.03638 0.00553275Q1.09255 0 1.149 0L1.149 0Z" transform="translate(3.524627 3.87709)" id="Rectangle-23" fill="#FF7C2E" stroke="none" />
      <path d="M1.04431 2.08862C1.62106 2.08862 2.08862 1.62106 2.08862 1.04431C2.08862 0.467553 1.62106 0 1.04431 0C0.467553 0 0 0.467553 0 1.04431C0 1.62106 0.467553 2.08862 1.04431 2.08862Z" transform="translate(4.582015 11.45504)" id="Oval-13" fill="#FFFFFF" stroke="none" />
    </g>
    <g id="Group-3-Copy" transform="translate(15.6204 7.049254)">
      <path d="M1.149 0L13.0968 0Q13.1533 0 13.2094 0.00553275Q13.2656 0.0110655 13.321 0.0220777Q13.3763 0.0330899 13.4304 0.0494756Q13.4844 0.0658612 13.5365 0.0874624Q13.5887 0.109064 13.6385 0.135672Q13.6882 0.162281 13.7352 0.193641Q13.7821 0.225002 13.8257 0.260811Q13.8694 0.29662 13.9093 0.336534Q13.9492 0.376448 13.985 0.420082Q14.0208 0.463716 14.0522 0.51065Q14.0835 0.557584 14.1102 0.607365Q14.1368 0.657147 14.1584 0.709297Q14.18 0.761447 14.1964 0.815463Q14.2127 0.869479 14.2237 0.924841Q14.2348 0.980203 14.2403 1.03638Q14.2458 1.09255 14.2458 1.149L14.2458 3.87153Q14.2458 3.92798 14.2403 3.98415Q14.2348 4.04033 14.2237 4.09569Q14.2127 4.15105 14.1964 4.20507Q14.18 4.25908 14.1584 4.31123Q14.1368 4.36338 14.1102 4.41316Q14.0835 4.46294 14.0522 4.50988Q14.0208 4.55681 13.985 4.60045Q13.9492 4.64408 13.9093 4.68399Q13.8694 4.72391 13.8257 4.75972Q13.7821 4.79553 13.7352 4.82689Q13.6882 4.85825 13.6385 4.88485Q13.5887 4.91146 13.5365 4.93306Q13.4844 4.95467 13.4304 4.97105Q13.3763 4.98744 13.321 4.99845Q13.2656 5.00946 13.2094 5.015Q13.1533 5.02053 13.0968 5.02053L1.149 5.02053Q1.09255 5.02053 1.03638 5.015Q0.980203 5.00946 0.924841 4.99845Q0.869479 4.98744 0.815463 4.97105Q0.761447 4.95467 0.709297 4.93306Q0.657147 4.91146 0.607365 4.88485Q0.557584 4.85825 0.51065 4.82689Q0.463716 4.79553 0.420082 4.75972Q0.376448 4.72391 0.336534 4.68399Q0.29662 4.64408 0.260811 4.60045Q0.225002 4.55681 0.193641 4.50988Q0.162281 4.46294 0.135672 4.41316Q0.109064 4.36338 0.0874624 4.31123Q0.0658612 4.25908 0.0494755 4.20506Q0.0330899 4.15105 0.0220777 4.09569Q0.0110655 4.04032 0.00553275 3.98415Q0 3.92797 0 3.87153L0 1.149Q0 1.09255 0.00553275 1.03638Q0.0110655 0.980203 0.0220777 0.924841Q0.0330899 0.869479 0.0494755 0.815463Q0.0658612 0.761447 0.0874624 0.709297Q0.109064 0.657147 0.135672 0.607365Q0.162281 0.557584 0.193641 0.51065Q0.225002 0.463716 0.260811 0.420082Q0.29662 0.376448 0.336534 0.336534Q0.376448 0.29662 0.420082 0.260811Q0.463716 0.225002 0.51065 0.193641Q0.557584 0.162281 0.607365 0.135672Q0.657147 0.109064 0.709297 0.0874624Q0.761447 0.0658612 0.815463 0.0494755Q0.869479 0.0330899 0.924841 0.0220777Q0.980203 0.0110655 1.03638 0.00553275Q1.09255 0 1.149 0L1.149 0Z" transform="translate(0 1.409851)" id="Rectangle-22" fill="#FFA22E" stroke="none" />
      <path d="M1.1465 0L1.1445 0Q1.08828 0 1.03232 0.0055111Q0.976368 0.0110222 0.921222 0.0219913Q0.866077 0.0329604 0.812272 0.0492819Q0.758467 0.0656034 0.706521 0.0871201Q0.654575 0.108637 0.604988 0.135142Q0.555402 0.161646 0.508651 0.192884Q0.461901 0.224121 0.418438 0.25979Q0.374975 0.29546 0.335217 0.335217Q0.29546 0.374975 0.25979 0.418438Q0.224121 0.461901 0.192884 0.508651Q0.161646 0.555402 0.135142 0.604988Q0.108637 0.654575 0.0871201 0.706521Q0.0656034 0.758467 0.0492819 0.812272Q0.0329604 0.866077 0.0219913 0.921222Q0.0110222 0.976368 0.0055111 1.03232Q0 1.08828 0 1.1445L0 1.85143Q0 1.90765 0.0055111 1.96361Q0.0110222 2.01957 0.0219913 2.07471Q0.0329604 2.12986 0.0492819 2.18366Q0.0656034 2.23747 0.0871201 2.28941Q0.108637 2.34136 0.135142 2.39094Q0.161646 2.44053 0.192884 2.48728Q0.224121 2.53403 0.25979 2.57749Q0.29546 2.62096 0.335217 2.66072Q0.374975 2.70047 0.418438 2.73614Q0.461901 2.77181 0.508651 2.80305Q0.555402 2.83429 0.604988 2.86079Q0.654575 2.8873 0.706521 2.90881Q0.758467 2.93033 0.812272 2.94665Q0.866077 2.96297 0.921222 2.97394Q0.976368 2.98491 1.03232 2.99042Q1.08828 2.99593 1.1445 2.99593L1.1465 2.99593Q1.20273 2.99593 1.25868 2.99042Q1.31464 2.98491 1.36979 2.97394Q1.42493 2.96297 1.47874 2.94665Q1.53254 2.93033 1.58449 2.90881Q1.63643 2.8873 1.68602 2.86079Q1.73561 2.83429 1.78236 2.80305Q1.82911 2.77181 1.87257 2.73614Q1.91603 2.70047 1.95579 2.66072Q1.99555 2.62096 2.03122 2.57749Q2.06689 2.53403 2.09812 2.48728Q2.12936 2.44053 2.15587 2.39094Q2.18237 2.34136 2.20389 2.28941Q2.2254 2.23747 2.24173 2.18366Q2.25805 2.12986 2.26902 2.07471Q2.27999 2.01957 2.2855 1.96361Q2.29101 1.90765 2.29101 1.85143L2.29101 1.1445Q2.29101 1.08828 2.2855 1.03232Q2.27999 0.976368 2.26902 0.921222Q2.25805 0.866077 2.24173 0.812272Q2.2254 0.758467 2.20389 0.706521Q2.18237 0.654575 2.15587 0.604988Q2.12936 0.555402 2.09812 0.508651Q2.06689 0.461901 2.03122 0.418438Q1.99555 0.374975 1.95579 0.335217Q1.91603 0.29546 1.87257 0.25979Q1.82911 0.224121 1.78236 0.192884Q1.73561 0.161646 1.68602 0.135142Q1.63643 0.108637 1.58449 0.0871201Q1.53254 0.0656034 1.47874 0.0492819Q1.42493 0.0329604 1.36979 0.0219913Q1.31464 0.0110222 1.25868 0.0055111Q1.20273 0 1.1465 0ZM10.3863 0L10.3843 0Q10.3281 0 10.2721 0.0055111Q10.2162 0.0110222 10.161 0.0219913Q10.1059 0.0329604 10.0521 0.049282Q9.99826 0.0656035 9.94631 0.0871202Q9.89437 0.108637 9.84478 0.135142Q9.79519 0.161646 9.74844 0.192884Q9.70169 0.224121 9.65823 0.25979Q9.61477 0.29546 9.57501 0.335217Q9.53525 0.374975 9.49958 0.418438Q9.46391 0.461902 9.43268 0.508652Q9.40144 0.555402 9.37493 0.604988Q9.34843 0.654575 9.32691 0.706521Q9.3054 0.758467 9.28907 0.812272Q9.27275 0.866077 9.26178 0.921222Q9.25082 0.976368 9.24531 1.03232Q9.23979 1.08828 9.23979 1.1445L9.23979 1.85143Q9.23979 1.90765 9.24531 1.96361Q9.25082 2.01956 9.26178 2.07471Q9.27275 2.12986 9.28907 2.18366Q9.3054 2.23747 9.32691 2.28941Q9.34843 2.34136 9.37493 2.39094Q9.40144 2.44053 9.43268 2.48728Q9.46391 2.53403 9.49958 2.57749Q9.53525 2.62096 9.57501 2.66072Q9.61477 2.70047 9.65823 2.73614Q9.70169 2.77181 9.74844 2.80305Q9.79519 2.83429 9.84478 2.86079Q9.89437 2.8873 9.94631 2.90881Q9.99826 2.93033 10.0521 2.94665Q10.1059 2.96297 10.161 2.97394Q10.2162 2.98491 10.2721 2.99042Q10.3281 2.99593 10.3843 2.99593L10.3863 2.99593Q10.4425 2.99593 10.4985 2.99042Q10.5544 2.98491 10.6096 2.97394Q10.6647 2.96297 10.7185 2.94665Q10.7723 2.93033 10.8243 2.90881Q10.8762 2.8873 10.9258 2.86079Q10.9754 2.83429 11.0221 2.80305Q11.0689 2.77181 11.1124 2.73614Q11.1558 2.70047 11.1956 2.66072Q11.2353 2.62096 11.271 2.57749Q11.3067 2.53403 11.3379 2.48728Q11.3692 2.44053 11.3957 2.39094Q11.4222 2.34136 11.4437 2.28941Q11.4652 2.23747 11.4815 2.18366Q11.4978 2.12986 11.5088 2.07471Q11.5198 2.01956 11.5253 1.96361Q11.5308 1.90765 11.5308 1.85143L11.5308 1.1445Q11.5308 1.08828 11.5253 1.03232Q11.5198 0.976368 11.5088 0.921222Q11.4978 0.866077 11.4815 0.812272Q11.4652 0.758467 11.4437 0.706521Q11.4222 0.654575 11.3957 0.604988Q11.3692 0.555402 11.3379 0.508652Q11.3067 0.461902 11.271 0.418438Q11.2353 0.374975 11.1956 0.335217Q11.1558 0.29546 11.1124 0.25979Q11.0689 0.224121 11.0221 0.192884Q10.9754 0.161646 10.9258 0.135142Q10.8762 0.108637 10.8243 0.0871202Q10.7723 0.0656035 10.7185 0.0492819Q10.6647 0.0329604 10.6096 0.0219913Q10.5544 0.0110222 10.4985 0.0055111Q10.4425 0 10.3863 0Z" transform="translate(1.409851 0)" id="Combined-Shape" fill="#FF7C2E" fill-rule="evenodd" stroke="none" />
      <path d="M1.149 0L6.15225 0Q6.2087 0 6.26487 0.00553275Q6.32105 0.0110655 6.37641 0.0220777Q6.43177 0.0330899 6.48579 0.0494755Q6.5398 0.0658612 6.59195 0.0874624Q6.6441 0.109064 6.69388 0.135672Q6.74367 0.162281 6.7906 0.193641Q6.83753 0.225002 6.88117 0.260811Q6.9248 0.29662 6.96471 0.336534Q7.00463 0.376448 7.04044 0.420082Q7.07625 0.463716 7.10761 0.51065Q7.13897 0.557584 7.16558 0.607365Q7.19219 0.657147 7.21379 0.709297Q7.23539 0.761447 7.25177 0.815463Q7.26816 0.869479 7.27917 0.924841Q7.29018 0.980203 7.29572 1.03638Q7.30125 1.09255 7.30125 1.149L7.30125 9.24865Q7.30125 9.3051 7.29572 9.36127Q7.29018 9.41745 7.27917 9.47281Q7.26816 9.52817 7.25177 9.58219Q7.23539 9.6362 7.21379 9.68835Q7.19218 9.7405 7.16558 9.79028Q7.13897 9.84007 7.10761 9.887Q7.07625 9.93393 7.04044 9.97757Q7.00463 10.0212 6.96471 10.0611Q6.9248 10.101 6.88117 10.1368Q6.83753 10.1726 6.7906 10.204Q6.74366 10.2354 6.69388 10.262Q6.6441 10.2886 6.59195 10.3102Q6.5398 10.3318 6.48579 10.3482Q6.43177 10.3646 6.37641 10.3756Q6.32105 10.3866 6.26487 10.3921Q6.2087 10.3976 6.15225 10.3976L1.149 10.3976Q1.09255 10.3976 1.03638 10.3921Q0.980203 10.3866 0.924841 10.3756Q0.869479 10.3646 0.815463 10.3482Q0.761447 10.3318 0.709297 10.3102Q0.657147 10.2886 0.607365 10.262Q0.557584 10.2354 0.51065 10.204Q0.463716 10.1726 0.420082 10.1368Q0.376448 10.101 0.336534 10.0611Q0.29662 10.0212 0.260811 9.97757Q0.225002 9.93393 0.193641 9.887Q0.162281 9.84007 0.135672 9.79028Q0.109064 9.7405 0.0874624 9.68835Q0.0658612 9.6362 0.0494755 9.58219Q0.0330899 9.52817 0.0220777 9.47281Q0.0110655 9.41745 0.00553275 9.36127Q0 9.3051 0 9.24865L0 1.149Q0 1.09255 0.00553275 1.03638Q0.0110655 0.980203 0.0220777 0.924841Q0.0330899 0.869479 0.0494756 0.815463Q0.0658612 0.761447 0.0874624 0.709297Q0.109064 0.657147 0.135672 0.607365Q0.162281 0.557584 0.193641 0.51065Q0.225002 0.463716 0.260811 0.420082Q0.29662 0.376448 0.336534 0.336534Q0.376448 0.29662 0.420082 0.260811Q0.463716 0.225002 0.51065 0.193641Q0.557584 0.162281 0.607365 0.135672Q0.657147 0.109064 0.709297 0.0874624Q0.761447 0.0658612 0.815463 0.0494756Q0.869479 0.0330899 0.924841 0.0220777Q0.980203 0.0110655 1.03638 0.00553275Q1.09255 0 1.149 0L1.149 0Z" transform="translate(3.524627 3.87709)" id="Rectangle-23" fill="#FF7C2E" stroke="none" />
      <path d="M1.04431 2.08862C1.62106 2.08862 2.08862 1.62106 2.08862 1.04431C2.08862 0.467553 1.62106 0 1.04431 0C0.467553 0 0 0.467553 0 1.04431C0 1.62106 0.467553 2.08862 1.04431 2.08862Z" transform="translate(4.582015 11.45504)" id="Oval-13" fill="#FFFFFF" stroke="none" />
    </g>
    <path d="M4.2208e-07 17.5863L0.379851 18.63Q0.399157 18.683 0.423569 18.7339Q0.447981 18.7848 0.477264 18.8331Q0.506547 18.8813 0.540419 18.9265Q0.574291 18.9716 0.612426 19.0133Q0.650561 19.0549 0.692592 19.0925Q0.734622 19.1302 0.780143 19.1636Q0.825664 19.197 0.874238 19.2257Q0.922812 19.2545 0.97397 19.2783Q1.02513 19.3022 1.07838 19.3209Q1.13163 19.3397 1.18646 19.3531Q1.24129 19.3665 1.29717 19.3745Q1.35305 19.3824 1.40944 19.3849Q1.46583 19.3874 1.5222 19.3843Q1.57856 19.3812 1.63435 19.3726Q1.69014 19.364 1.74482 19.35Q1.7995 19.336 1.85254 19.3167L27.8494 9.85462Q27.9025 9.83531 27.9534 9.8109Q28.0043 9.78649 28.0525 9.7572Q28.1008 9.72792 28.1459 9.69405Q28.1911 9.66018 28.2327 9.62204Q28.2743 9.58391 28.312 9.54188Q28.3497 9.49985 28.383 9.45432Q28.4164 9.4088 28.4452 9.36023Q28.4739 9.31166 28.4978 9.2605Q28.5216 9.20934 28.5404 9.15609Q28.5591 9.10284 28.5725 9.04801Q28.5859 8.99318 28.5939 8.9373Q28.6019 8.88142 28.6043 8.82503Q28.6068 8.76863 28.6037 8.71227Q28.6007 8.65591 28.5921 8.60012Q28.5835 8.54433 28.5695 8.48965Q28.5555 8.43497 28.5361 8.38193L25.4854 8.91424e-07L4.2208e-07 17.5863Z" transform="translate(16.9799 28.66582)" id="Combined-Shape" fill="#E8DF3E" fill-rule="evenodd" stroke="none" />
    <path d="M0 0L5.95366 0L5.95366 14.3903L0 14.3903L0 0Z" transform="translate(13.92228 63.06463)" id="Rectangle-27" fill="#FFFFFF" stroke="none" />
    <path d="M0 0L5.95366 0L5.95366 5.5006L0 5.5006L0 0Z" transform="translate(13.92228 55.42992)" id="Rectangle-27-Copy" fill="#FFFFFF" stroke="none" />
  </g>
</svg>