<?xml version="1.0" encoding="utf-8"?>
<svg width="109px" height="76px" viewBox="0 0 109 76" version="1.1" xmlns:xlink="http://www.w3.org/1999/xlink" xmlns="http://www.w3.org/2000/svg">
  <desc>Created with Lunacy</desc>
  <defs>
    <path d="M8.509 0L99.7894 0Q99.9983 0 100.207 0.0102495Q100.416 0.0204989 100.623 0.0409732Q100.831 0.0614474 101.038 0.0920971Q101.245 0.122747 101.449 0.163498Q101.654 0.204249 101.857 0.255004Q102.06 0.305759 102.259 0.366395Q102.459 0.427031 102.656 0.497402Q102.853 0.567773 103.046 0.647709Q103.239 0.727646 103.427 0.816955Q103.616 0.906265 103.801 1.00473Q103.985 1.1032 104.164 1.21059Q104.343 1.31798 104.517 1.43403Q104.69 1.55007 104.858 1.67451Q105.026 1.79894 105.187 1.93145Q105.349 2.06397 105.504 2.20425Q105.658 2.34452 105.806 2.49223Q105.954 2.63993 106.094 2.7947Q106.234 2.94948 106.367 3.11095Q106.499 3.27242 106.624 3.44019Q106.748 3.60797 106.864 3.78165Q106.98 3.95533 107.088 4.1345Q107.195 4.31367 107.294 4.49789Q107.392 4.6821 107.481 4.87093Q107.571 5.05976 107.651 5.25275Q107.731 5.44573 107.801 5.6424Q107.871 5.83908 107.932 6.03897Q107.993 6.23886 108.043 6.44148Q108.094 6.64411 108.135 6.84898Q108.176 7.05385 108.206 7.26047Q108.237 7.46709 108.257 7.67497Q108.278 7.88285 108.288 8.09148Q108.298 8.30012 108.298 8.509L108.298 64.7675Q108.298 64.9764 108.288 65.185Q108.278 65.3937 108.257 65.6016Q108.237 65.8094 108.206 66.0161Q108.176 66.2227 108.135 66.4276Q108.094 66.6324 108.043 66.8351Q107.993 67.0377 107.932 67.2376Q107.871 67.4374 107.801 67.6341Q107.731 67.8308 107.651 68.0238Q107.571 68.2168 107.481 68.4056Q107.392 68.5944 107.294 68.7786Q107.195 68.9629 107.088 69.142Q106.98 69.3212 106.864 69.4949Q106.748 69.6685 106.624 69.8363Q106.499 70.0041 106.367 70.1656Q106.234 70.327 106.094 70.4818Q105.954 70.6366 105.806 70.7843Q105.658 70.932 105.504 71.0723Q105.349 71.2126 105.187 71.3451Q105.026 71.4776 104.858 71.602Q104.69 71.7265 104.517 71.8425Q104.343 71.9585 104.164 72.0659Q103.985 72.1733 103.801 72.2718Q103.616 72.3703 103.427 72.4596Q103.239 72.5489 103.046 72.6288Q102.853 72.7087 102.656 72.7791Q102.459 72.8495 102.259 72.9101Q102.06 72.9708 101.857 73.0215Q101.654 73.0723 101.449 73.113Q101.245 73.1538 101.038 73.1844Q100.831 73.2151 100.623 73.2356Q100.416 73.256 100.207 73.2663Q99.9983 73.2765 99.7894 73.2765L8.509 73.2765Q8.30011 73.2765 8.09148 73.2663Q7.88285 73.256 7.67497 73.2356Q7.46709 73.2151 7.26047 73.1844Q7.05385 73.1538 6.84898 73.113Q6.6441 73.0723 6.44148 73.0215Q6.23886 72.9708 6.03897 72.9101Q5.83908 72.8495 5.6424 72.7791Q5.44573 72.7087 5.25275 72.6288Q5.05976 72.5489 4.87093 72.4596Q4.6821 72.3703 4.49788 72.2718Q4.31367 72.1733 4.1345 72.0659Q3.95533 71.9585 3.78165 71.8425Q3.60797 71.7265 3.44019 71.602Q3.27242 71.4776 3.11095 71.3451Q2.94948 71.2126 2.7947 71.0723Q2.63993 70.932 2.49223 70.7843Q2.34452 70.6366 2.20425 70.4818Q2.06397 70.327 1.93145 70.1656Q1.79894 70.0041 1.67451 69.8363Q1.55007 69.6685 1.43402 69.4949Q1.31798 69.3212 1.21059 69.142Q1.1032 68.9629 1.00473 68.7786Q0.906265 68.5944 0.816955 68.4056Q0.727646 68.2168 0.647709 68.0238Q0.567772 67.8308 0.497401 67.6341Q0.427031 67.4374 0.366395 67.2376Q0.305759 67.0377 0.255004 66.8351Q0.204249 66.6324 0.163498 66.4275Q0.122747 66.2227 0.0920971 66.0161Q0.0614474 65.8094 0.0409732 65.6016Q0.0204989 65.3937 0.0102495 65.185Q0 64.9764 0 64.7675L0 8.509Q0 8.30012 0.0102495 8.09148Q0.0204989 7.88285 0.0409732 7.67497Q0.0614474 7.46709 0.0920971 7.26047Q0.122747 7.05385 0.163498 6.84898Q0.204249 6.64411 0.255004 6.44148Q0.305759 6.23886 0.366395 6.03897Q0.427031 5.83908 0.497402 5.6424Q0.567773 5.44573 0.647709 5.25275Q0.727646 5.05976 0.816955 4.87093Q0.906265 4.6821 1.00473 4.49789Q1.1032 4.31367 1.21059 4.1345Q1.31798 3.95533 1.43403 3.78165Q1.55007 3.60797 1.67451 3.44019Q1.79894 3.27242 1.93145 3.11095Q2.06397 2.94948 2.20425 2.7947Q2.34452 2.63993 2.49223 2.49223Q2.63993 2.34452 2.7947 2.20425Q2.94948 2.06397 3.11095 1.93145Q3.27242 1.79894 3.44019 1.67451Q3.60797 1.55007 3.78165 1.43402Q3.95533 1.31798 4.1345 1.21059Q4.31367 1.1032 4.49789 1.00473Q4.6821 0.906265 4.87093 0.816955Q5.05976 0.727646 5.25275 0.647709Q5.44573 0.567773 5.6424 0.497402Q5.83908 0.427031 6.03897 0.366395Q6.23886 0.305759 6.44148 0.255004Q6.64411 0.204249 6.84898 0.163498Q7.05385 0.122747 7.26047 0.0920971Q7.46709 0.0614474 7.67497 0.0409732Q7.88285 0.0204989 8.09148 0.0102495Q8.30012 0 8.509 0Z" id="path_1" />
    <path d="M8.83984 17.6797C13.7219 17.6797 17.6797 13.7219 17.6797 8.83984C17.6797 3.95773 13.7219 0 8.83984 0C3.95773 0 0 3.95773 0 8.83984C0 13.7219 3.95773 17.6797 8.83984 17.6797Z" id="path_2" />
    <path d="M6.99513 0L13.9903 6.99513L6.99513 13.9903L0 6.99513L6.99513 0" transform="translate(1.821352 7.450703)" id="path_3" />
    <clipPath id="clip_1">
      <use xlink:href="#path_2" />
    </clipPath>
    <clipPath id="clip_2">
      <use xlink:href="#path_3" />
    </clipPath>
    <clipPath id="mask_1">
      <use xlink:href="#path_1" />
    </clipPath>
  </defs>
  <g id="laptop" transform="translate(0.2874756 0.2874756)">
    <g id="Combined-Shape-Copy-13" transform="translate(0 0.01677712)">
      <path d="M8.509 0L99.7894 0Q99.9983 0 100.207 0.0102495Q100.416 0.0204989 100.623 0.0409732Q100.831 0.0614474 101.038 0.0920971Q101.245 0.122747 101.449 0.163498Q101.654 0.204249 101.857 0.255004Q102.06 0.305759 102.259 0.366395Q102.459 0.427031 102.656 0.497402Q102.853 0.567773 103.046 0.647709Q103.239 0.727646 103.427 0.816955Q103.616 0.906265 103.801 1.00473Q103.985 1.1032 104.164 1.21059Q104.343 1.31798 104.517 1.43403Q104.69 1.55007 104.858 1.67451Q105.026 1.79894 105.187 1.93145Q105.349 2.06397 105.504 2.20425Q105.658 2.34452 105.806 2.49223Q105.954 2.63993 106.094 2.7947Q106.234 2.94948 106.367 3.11095Q106.499 3.27242 106.624 3.44019Q106.748 3.60797 106.864 3.78165Q106.98 3.95533 107.088 4.1345Q107.195 4.31367 107.294 4.49789Q107.392 4.6821 107.481 4.87093Q107.571 5.05976 107.651 5.25275Q107.731 5.44573 107.801 5.6424Q107.871 5.83908 107.932 6.03897Q107.993 6.23886 108.043 6.44148Q108.094 6.64411 108.135 6.84898Q108.176 7.05385 108.206 7.26047Q108.237 7.46709 108.257 7.67497Q108.278 7.88285 108.288 8.09148Q108.298 8.30012 108.298 8.509L108.298 64.7675Q108.298 64.9764 108.288 65.185Q108.278 65.3937 108.257 65.6016Q108.237 65.8094 108.206 66.0161Q108.176 66.2227 108.135 66.4276Q108.094 66.6324 108.043 66.8351Q107.993 67.0377 107.932 67.2376Q107.871 67.4374 107.801 67.6341Q107.731 67.8308 107.651 68.0238Q107.571 68.2168 107.481 68.4056Q107.392 68.5944 107.294 68.7786Q107.195 68.9629 107.088 69.142Q106.98 69.3212 106.864 69.4949Q106.748 69.6685 106.624 69.8363Q106.499 70.0041 106.367 70.1656Q106.234 70.327 106.094 70.4818Q105.954 70.6366 105.806 70.7843Q105.658 70.932 105.504 71.0723Q105.349 71.2126 105.187 71.3451Q105.026 71.4776 104.858 71.602Q104.69 71.7265 104.517 71.8425Q104.343 71.9585 104.164 72.0659Q103.985 72.1733 103.801 72.2718Q103.616 72.3703 103.427 72.4596Q103.239 72.5489 103.046 72.6288Q102.853 72.7087 102.656 72.7791Q102.459 72.8495 102.259 72.9101Q102.06 72.9708 101.857 73.0215Q101.654 73.0723 101.449 73.113Q101.245 73.1538 101.038 73.1844Q100.831 73.2151 100.623 73.2356Q100.416 73.256 100.207 73.2663Q99.9983 73.2765 99.7894 73.2765L8.509 73.2765Q8.30011 73.2765 8.09148 73.2663Q7.88285 73.256 7.67497 73.2356Q7.46709 73.2151 7.26047 73.1844Q7.05385 73.1538 6.84898 73.113Q6.6441 73.0723 6.44148 73.0215Q6.23886 72.9708 6.03897 72.9101Q5.83908 72.8495 5.6424 72.7791Q5.44573 72.7087 5.25275 72.6288Q5.05976 72.5489 4.87093 72.4596Q4.6821 72.3703 4.49788 72.2718Q4.31367 72.1733 4.1345 72.0659Q3.95533 71.9585 3.78165 71.8425Q3.60797 71.7265 3.44019 71.602Q3.27242 71.4776 3.11095 71.3451Q2.94948 71.2126 2.7947 71.0723Q2.63993 70.932 2.49223 70.7843Q2.34452 70.6366 2.20425 70.4818Q2.06397 70.327 1.93145 70.1656Q1.79894 70.0041 1.67451 69.8363Q1.55007 69.6685 1.43402 69.4949Q1.31798 69.3212 1.21059 69.142Q1.1032 68.9629 1.00473 68.7786Q0.906265 68.5944 0.816955 68.4056Q0.727646 68.2168 0.647709 68.0238Q0.567772 67.8308 0.497401 67.6341Q0.427031 67.4374 0.366395 67.2376Q0.305759 67.0377 0.255004 66.8351Q0.204249 66.6324 0.163498 66.4275Q0.122747 66.2227 0.0920971 66.0161Q0.0614474 65.8094 0.0409732 65.6016Q0.0204989 65.3937 0.0102495 65.185Q0 64.9764 0 64.7675L0 8.509Q0 8.30012 0.0102495 8.09148Q0.0204989 7.88285 0.0409732 7.67497Q0.0614474 7.46709 0.0920971 7.26047Q0.122747 7.05385 0.163498 6.84898Q0.204249 6.64411 0.255004 6.44148Q0.305759 6.23886 0.366395 6.03897Q0.427031 5.83908 0.497402 5.6424Q0.567773 5.44573 0.647709 5.25275Q0.727646 5.05976 0.816955 4.87093Q0.906265 4.6821 1.00473 4.49789Q1.1032 4.31367 1.21059 4.1345Q1.31798 3.95533 1.43403 3.78165Q1.55007 3.60797 1.67451 3.44019Q1.79894 3.27242 1.93145 3.11095Q2.06397 2.94948 2.20425 2.7947Q2.34452 2.63993 2.49223 2.49223Q2.63993 2.34452 2.7947 2.20425Q2.94948 2.06397 3.11095 1.93145Q3.27242 1.79894 3.44019 1.67451Q3.60797 1.55007 3.78165 1.43402Q3.95533 1.31798 4.1345 1.21059Q4.31367 1.1032 4.49789 1.00473Q4.6821 0.906265 4.87093 0.816955Q5.05976 0.727646 5.25275 0.647709Q5.44573 0.567773 5.6424 0.497402Q5.83908 0.427031 6.03897 0.366395Q6.23886 0.305759 6.44148 0.255004Q6.64411 0.204249 6.84898 0.163498Q7.05385 0.122747 7.26047 0.0920971Q7.46709 0.0614474 7.67497 0.0409732Q7.88285 0.0204989 8.09148 0.0102495Q8.30012 0 8.509 0Z" id="Mask" fill="#E8E7E6" stroke="none" />
      <g clip-path="url(#mask_1)">
        <path d="M0 0C0 5.75576 4.66596 10.4217 10.4217 10.4217C10.4217 16.1775 15.0877 20.8434 20.8434 20.8434C26.5992 20.8434 31.2652 16.1775 31.2652 10.4217C37.0209 10.4217 41.6869 5.75576 41.6869 0L0 0ZM20.8434 0C20.8434 5.75576 25.5094 10.4217 31.2652 10.4217L10.4217 10.4217C16.1775 10.4217 20.8434 5.75576 20.8434 0Z" transform="translate(87.45497 39.18213)" id="Combined-Shape-Copy-13" fill="#FFFFFF" fill-rule="evenodd" stroke="none" />
      </g>
    </g>
    <path d="M0 0C0 2.93698 2.38089 5.31787 5.31787 5.31787C5.31787 8.25485 7.69876 10.6357 10.6357 10.6357C13.5727 10.6357 15.9536 8.25485 15.9536 5.31787C18.8906 5.31787 21.2715 2.93698 21.2715 0L0 0ZM10.6357 0C10.6357 2.93698 13.0166 5.31787 15.9536 5.31787L5.31787 5.31787C8.25485 5.31787 10.6357 2.93698 10.6357 0Z" transform="translate(6.193588 5.796228)" id="Combined-Shape" fill="#FFFFFF" fill-rule="evenodd" stroke="none" />
    <path d="M108.137 -4.67674e-16Q108.111 0.188686 108.076 0.376008Q108.042 0.563331 107.999 0.748914Q107.956 0.934498 107.904 1.11797Q107.853 1.30144 107.794 1.48244Q107.734 1.66343 107.667 1.84159Q107.599 2.01974 107.524 2.19469Q107.449 2.36965 107.365 2.54106Q107.282 2.71246 107.192 2.87998Q107.101 3.04749 107.003 3.21078Q106.905 3.37407 106.799 3.5328Q106.694 3.69153 106.582 3.84539Q106.469 3.99924 106.35 4.14792Q106.231 4.2966 106.105 4.4398Q105.98 4.58299 105.848 4.72042Q105.716 4.85785 105.578 4.98924Q105.44 5.12063 105.296 5.24572Q105.153 5.3708 105.004 5.48933Q104.854 5.60786 104.7 5.71959Q104.546 5.83133 104.387 5.93604Q104.228 6.04076 104.064 6.13825Q103.9 6.23574 103.732 6.32581Q103.564 6.41588 103.393 6.49835Q103.221 6.58081 103.046 6.65551Q102.871 6.73021 102.692 6.79698Q102.514 6.86376 102.332 6.92249Q102.151 6.98122 101.968 7.03178Q101.784 7.08234 101.598 7.12462Q101.412 7.16691 101.225 7.20084Q101.038 7.23478 100.849 7.26029Q100.66 7.28579 100.47 7.30283Q100.28 7.31986 100.09 7.32839Q99.8998 7.33691 99.7093 7.33691L8.42892 7.33691Q8.23842 7.33691 8.04811 7.32839Q7.8578 7.31986 7.66806 7.30283Q7.47832 7.28579 7.28954 7.26029Q7.10075 7.23478 6.9133 7.20084Q6.72584 7.16691 6.54009 7.12462Q6.35434 7.08234 6.17067 7.03178Q5.987 6.98122 5.80578 6.92249Q5.62455 6.86376 5.44614 6.79698Q5.26773 6.73021 5.09248 6.65551Q4.91723 6.58081 4.74551 6.49835Q4.57378 6.41588 4.40591 6.32581Q4.23805 6.23574 4.07438 6.13825Q3.91072 6.04076 3.75158 5.93605Q3.59244 5.83133 3.43815 5.71959Q3.28385 5.60786 3.13472 5.48933Q2.98558 5.3708 2.84189 5.24572Q2.69821 5.12063 2.56027 4.98924Q2.42233 4.85785 2.29041 4.72042Q2.15848 4.58299 2.03284 4.4398Q1.9072 4.2966 1.7881 4.14792Q1.66899 3.99924 1.55666 3.84539Q1.44432 3.69153 1.33899 3.5328Q1.23366 3.37407 1.13553 3.21078Q1.03741 3.04749 0.946688 2.87998Q0.855969 2.71246 0.772838 2.54106Q0.689708 2.36965 0.614331 2.19469Q0.538955 2.01974 0.471484 1.84159Q0.404013 1.66343 0.344582 1.48244Q0.285152 1.30144 0.233882 1.11797Q0.182611 0.934498 0.139603 0.748914Q0.0965954 0.563331 0.0619361 0.376008Q0.0272769 0.188686 0.0010359 -9.35348e-16L108.137 0L108.137 -4.67674e-16Z" transform="translate(0.08007646 65.9564)" id="Combined-Shape" fill="#CFCFCF" fill-rule="evenodd" stroke="none" />
    <g id="Group-6" transform="translate(45.25904 25.87908)">
      <g id="Oval-24">
        <g clip-path="url(#clip_1)">
          <use xlink:href="#path_2" fill="none" stroke="#7C92FF" stroke-width="6.44" />
        </g>
      </g>
      <g id="Rectangle-51">
        <g clip-path="url(#clip_2)">
          <use xlink:href="#path_3" fill="none" stroke="#7C92FF" stroke-width="6.44" />
        </g>
      </g>
    </g>
    <path d="M15.0873 0L5.02778 0Q4.90436 0 4.78108 0.00605618Q4.6578 0.0121124 4.53497 0.0242101Q4.41214 0.0363079 4.29005 0.0544181Q4.16796 0.0725284 4.04691 0.0966074Q3.92586 0.120686 3.80613 0.150676Q3.6864 0.180666 3.56829 0.216495Q3.45018 0.252323 3.33397 0.293904Q3.21776 0.335484 3.10373 0.382717Q2.9897 0.42995 2.87813 0.482721Q2.76655 0.535492 2.6577 0.593674Q2.54885 0.651856 2.44299 0.715309Q2.33712 0.778763 2.2345 0.847334Q2.13187 0.915905 2.03274 0.98943Q1.9336 1.06295 1.83819 1.14125Q1.74278 1.21955 1.65133 1.30244Q1.55988 1.38533 1.4726 1.4726Q1.38533 1.55988 1.30244 1.65133Q1.21955 1.74278 1.14125 1.83819Q1.06295 1.9336 0.98943 2.03274Q0.915905 2.13187 0.847334 2.2345Q0.778763 2.33712 0.715309 2.44299Q0.651856 2.54885 0.593674 2.6577Q0.535492 2.76655 0.482721 2.87813Q0.42995 2.9897 0.382717 3.10373Q0.335484 3.21776 0.293904 3.33397Q0.252323 3.45018 0.216495 3.56829Q0.180666 3.6864 0.150676 3.80613Q0.120686 3.92586 0.0966074 4.04691Q0.0725284 4.16796 0.0544181 4.29005Q0.0363079 4.41214 0.0242101 4.53497Q0.0121124 4.6578 0.00605618 4.78108Q0 4.90436 0 5.02778L0 5.02978Q0 5.15321 0.00605618 5.27648Q0.0121124 5.39976 0.0242101 5.52259Q0.0363079 5.64542 0.0544181 5.76751Q0.0725284 5.8896 0.0966074 6.01065Q0.120686 6.13171 0.150676 6.25143Q0.180666 6.37116 0.216495 6.48927Q0.252323 6.60738 0.293904 6.72359Q0.335484 6.8398 0.382717 6.95383Q0.42995 7.06786 0.482721 7.17943Q0.535492 7.29101 0.593674 7.39986Q0.651856 7.50871 0.715309 7.61458Q0.778763 7.72044 0.847334 7.82307Q0.915905 7.92569 0.98943 8.02483Q1.06295 8.12396 1.14125 8.21937Q1.21955 8.31478 1.30244 8.40623Q1.38533 8.49768 1.4726 8.58496Q1.55988 8.67223 1.65133 8.75512Q1.74278 8.83801 1.83819 8.91631Q1.9336 8.99461 2.03274 9.06813Q2.13187 9.14166 2.2345 9.21023Q2.33712 9.2788 2.44299 9.34225Q2.54885 9.40571 2.6577 9.46389Q2.76655 9.52207 2.87813 9.57484Q2.9897 9.62761 3.10373 9.67485Q3.21776 9.72208 3.33397 9.76366Q3.45018 9.80524 3.56829 9.84107Q3.6864 9.8769 3.80613 9.90689Q3.92586 9.93688 4.04691 9.96096Q4.16796 9.98503 4.29005 10.0031Q4.41214 10.0213 4.53497 10.0334Q4.6578 10.0455 4.78108 10.0515Q4.90436 10.0576 5.02778 10.0576L15.0873 10.0576Q15.2108 10.0576 15.334 10.0515Q15.4573 10.0455 15.5802 10.0334Q15.703 10.0213 15.8251 10.0031Q15.9472 9.98503 16.0682 9.96096Q16.1893 9.93688 16.309 9.90689Q16.4287 9.8769 16.5468 9.84107Q16.6649 9.80524 16.7812 9.76366Q16.8974 9.72208 17.0114 9.67485Q17.1254 9.62761 17.237 9.57484Q17.3486 9.52207 17.4574 9.46389Q17.5663 9.40571 17.6721 9.34225Q17.778 9.2788 17.8806 9.21023Q17.9833 9.14166 18.0824 9.06813Q18.1815 8.99461 18.2769 8.91631Q18.3723 8.83801 18.4638 8.75512Q18.5553 8.67223 18.6425 8.58496Q18.7298 8.49768 18.8127 8.40623Q18.8956 8.31478 18.9739 8.21937Q19.0522 8.12396 19.1257 8.02483Q19.1992 7.92569 19.2678 7.82307Q19.3364 7.72044 19.3998 7.61458Q19.4633 7.50871 19.5215 7.39986Q19.5796 7.29101 19.6324 7.17944Q19.6852 7.06786 19.7324 6.95383Q19.7796 6.8398 19.8212 6.72359Q19.8628 6.60738 19.8986 6.48927Q19.9345 6.37116 19.9645 6.25143Q19.9944 6.13171 20.0185 6.01065Q20.0426 5.8896 20.0607 5.76751Q20.0788 5.64542 20.0909 5.52259Q20.103 5.39976 20.1091 5.27648Q20.1151 5.15321 20.1151 5.02978L20.1151 5.02778Q20.1151 4.90436 20.1091 4.78108Q20.103 4.6578 20.0909 4.53497Q20.0788 4.41214 20.0607 4.29005Q20.0426 4.16796 20.0185 4.04691Q19.9944 3.92586 19.9645 3.80613Q19.9345 3.6864 19.8986 3.56829Q19.8628 3.45018 19.8212 3.33397Q19.7796 3.21776 19.7324 3.10373Q19.6852 2.9897 19.6324 2.87813Q19.5796 2.76655 19.5215 2.6577Q19.4633 2.54885 19.3998 2.44299Q19.3364 2.33712 19.2678 2.2345Q19.1992 2.13187 19.1257 2.03274Q19.0522 1.9336 18.9739 1.83819Q18.8956 1.74278 18.8127 1.65133Q18.7298 1.55988 18.6425 1.4726Q18.5553 1.38533 18.4638 1.30244Q18.3723 1.21955 18.2769 1.14125Q18.1815 1.06295 18.0824 0.98943Q17.9833 0.915905 17.8806 0.847334Q17.778 0.778763 17.6721 0.715309Q17.5663 0.651856 17.4574 0.593674Q17.3486 0.535492 17.237 0.482721Q17.1254 0.42995 17.0114 0.382717Q16.8974 0.335484 16.7812 0.293904Q16.6649 0.252323 16.5468 0.216495Q16.4287 0.180666 16.309 0.150676Q16.1893 0.120686 16.0682 0.0966074Q15.9472 0.0725284 15.8251 0.0544181Q15.703 0.0363079 15.5802 0.0242101Q15.4573 0.0121124 15.334 0.00605618Q15.2108 0 15.0873 0ZM86.3883 0.179599L76.3287 0.179599Q76.2053 0.179599 76.082 0.185656Q75.9587 0.191712 75.8359 0.203809Q75.7131 0.215907 75.591 0.234017Q75.4689 0.252128 75.3478 0.276207Q75.2268 0.300286 75.1071 0.330276Q74.9873 0.360265 74.8692 0.396094Q74.7511 0.431922 74.6349 0.473503Q74.5187 0.515084 74.4047 0.562316Q74.2906 0.609549 74.1791 0.66232Q74.0675 0.715091 73.9586 0.773273Q73.8498 0.831456 73.7439 0.894909Q73.638 0.958362 73.5354 1.02693Q73.4328 1.0955 73.3337 1.16903Q73.2345 1.24255 73.1391 1.32085Q73.0437 1.39915 72.9523 1.48204Q72.8608 1.56493 72.7735 1.6522Q72.6863 1.73948 72.6034 1.83093Q72.5205 1.92238 72.4422 2.01779Q72.3639 2.1132 72.2904 2.21233Q72.2168 2.31147 72.1483 2.4141Q72.0797 2.51672 72.0162 2.62258Q71.9528 2.72845 71.8946 2.8373Q71.8364 2.94615 71.7837 3.05773Q71.7309 3.1693 71.6836 3.28333Q71.6364 3.39736 71.5948 3.51357Q71.5533 3.62978 71.5174 3.74789Q71.4816 3.866 71.4516 3.98573Q71.4216 4.10546 71.3975 4.22651Q71.3735 4.34756 71.3554 4.46965Q71.3372 4.59174 71.3251 4.71457Q71.313 4.8374 71.307 4.96068Q71.3009 5.08396 71.3009 5.20738L71.3009 5.20938Q71.3009 5.33281 71.307 5.45608Q71.3131 5.57936 71.3252 5.70219Q71.3372 5.82502 71.3554 5.94711Q71.3735 6.0692 71.3975 6.19025Q71.4216 6.31131 71.4516 6.43103Q71.4816 6.55076 71.5174 6.66887Q71.5533 6.78698 71.5948 6.90319Q71.6364 7.0194 71.6836 7.13343Q71.7309 7.24746 71.7836 7.35903Q71.8364 7.47061 71.8946 7.57946Q71.9528 7.68831 72.0162 7.79418Q72.0797 7.90004 72.1483 8.00267Q72.2168 8.10529 72.2904 8.20443Q72.3639 8.30356 72.4422 8.39897Q72.5205 8.49438 72.6034 8.58583Q72.6863 8.67729 72.7735 8.76456Q72.8608 8.85183 72.9523 8.93472Q73.0437 9.01761 73.1391 9.09591Q73.2345 9.17421 73.3337 9.24773Q73.4328 9.32126 73.5354 9.38983Q73.638 9.4584 73.7439 9.52185Q73.8498 9.58531 73.9586 9.64349Q74.0675 9.70167 74.1791 9.75444Q74.2906 9.80721 74.4047 9.85445Q74.5187 9.90168 74.6349 9.94326Q74.7511 9.98484 74.8692 10.0207Q74.9873 10.0565 75.1071 10.0865Q75.2268 10.1165 75.3478 10.1406Q75.4689 10.1646 75.591 10.1827Q75.7131 10.2009 75.8359 10.213Q75.9587 10.2251 76.082 10.2311Q76.2053 10.2372 76.3287 10.2372L86.3883 10.2372Q86.5117 10.2372 86.635 10.2311Q86.7583 10.2251 86.8811 10.213Q87.0039 10.2009 87.126 10.1827Q87.2481 10.1646 87.3691 10.1406Q87.4902 10.1165 87.6099 10.0865Q87.7297 10.0565 87.8478 10.0207Q87.9659 9.98484 88.0821 9.94326Q88.1983 9.90168 88.3123 9.85445Q88.4264 9.80721 88.5379 9.75444Q88.6495 9.70167 88.7584 9.64349Q88.8672 9.58531 88.9731 9.52185Q89.0789 9.4584 89.1816 9.38983Q89.2842 9.32126 89.3833 9.24773Q89.4825 9.17421 89.5779 9.09591Q89.6733 9.01761 89.7647 8.93472Q89.8562 8.85183 89.9435 8.76456Q90.0307 8.67729 90.1136 8.58583Q90.1965 8.49438 90.2748 8.39897Q90.3531 8.30356 90.4266 8.20443Q90.5002 8.10529 90.5687 8.00267Q90.6373 7.90004 90.7008 7.79418Q90.7642 7.68831 90.8224 7.57946Q90.8806 7.47061 90.9333 7.35903Q90.9861 7.24746 91.0333 7.13343Q91.0806 7.0194 91.1222 6.90319Q91.1637 6.78698 91.1996 6.66887Q91.2354 6.55076 91.2654 6.43103Q91.2954 6.31131 91.3195 6.19025Q91.3435 6.0692 91.3616 5.94711Q91.3798 5.82502 91.3919 5.70219Q91.404 5.57936 91.41 5.45608Q91.4161 5.33281 91.4161 5.20938L91.4161 5.20738Q91.4161 5.08396 91.41 4.96068Q91.404 4.8374 91.3919 4.71457Q91.3798 4.59174 91.3616 4.46965Q91.3435 4.34756 91.3195 4.22651Q91.2954 4.10546 91.2654 3.98573Q91.2354 3.866 91.1996 3.74789Q91.1637 3.62978 91.1222 3.51357Q91.0806 3.39736 91.0333 3.28333Q90.9861 3.1693 90.9333 3.05773Q90.8806 2.94615 90.8224 2.8373Q90.7642 2.72845 90.7007 2.62258Q90.6373 2.51672 90.5687 2.4141Q90.5002 2.31147 90.4266 2.21233Q90.3531 2.1132 90.2748 2.01779Q90.1965 1.92238 90.1136 1.83093Q90.0307 1.73948 89.9435 1.6522Q89.8562 1.56493 89.7647 1.48204Q89.6733 1.39915 89.5779 1.32085Q89.4825 1.24255 89.3833 1.16903Q89.2842 1.0955 89.1816 1.02693Q89.0789 0.958362 88.9731 0.894909Q88.8672 0.831456 88.7584 0.773273Q88.6495 0.715091 88.5379 0.66232Q88.4264 0.609549 88.3123 0.562316Q88.1983 0.515084 88.0821 0.473503Q87.9659 0.431922 87.8478 0.396094Q87.7297 0.360265 87.6099 0.330276Q87.4902 0.300286 87.3692 0.276207Q87.2481 0.252128 87.126 0.234017Q87.0039 0.215907 86.8811 0.203809Q86.7583 0.191712 86.635 0.185656Q86.5117 0.179599 86.3883 0.179599Z" transform="translate(9.159567 64.49294)" id="Combined-Shape" fill="#C2C2C2" fill-rule="evenodd" stroke="none" />
  </g>
</svg>