<?xml version="1.0" encoding="utf-8"?>
<svg width="123px" height="60px" viewBox="0 0 123 60" version="1.1" xmlns:xlink="http://www.w3.org/1999/xlink" xmlns="http://www.w3.org/2000/svg">
  <desc>Created with Lunacy</desc>
  <defs>
    <path d="M34.344 0L102.015 0Q102.329 0 102.642 0.0219235Q102.955 0.0438469 103.266 0.0875867Q103.576 0.131326 103.883 0.196669Q104.19 0.262011 104.492 0.348636Q104.793 0.435261 105.088 0.542746Q105.383 0.650231 105.669 0.778049Q105.956 0.905868 106.233 1.0534Q106.51 1.20092 106.776 1.36744Q107.042 1.53396 107.295 1.71865Q107.549 1.90334 107.789 2.1053Q108.029 2.30726 108.254 2.5255Q108.48 2.74375 108.689 2.97721Q108.899 3.21067 109.092 3.45821Q109.285 3.70574 109.46 3.96615Q109.635 4.22655 109.791 4.49854Q109.947 4.77054 110.084 5.05279L119.498 24.4488Q119.629 24.719 119.742 24.9972Q119.855 25.2755 119.949 25.5607Q120.042 25.8459 120.117 26.1367Q120.192 26.4276 120.247 26.7228Q120.302 27.0179 120.337 27.3161Q120.372 27.6143 120.387 27.9142Q120.402 28.2141 120.397 28.5143Q120.392 28.8145 120.367 29.1137Q120.342 29.4129 120.297 29.7097Q120.252 30.0066 120.187 30.2998Q120.122 30.593 120.038 30.8812Q119.954 31.1694 119.851 31.4513Q119.747 31.7332 119.625 32.0076Q119.503 32.2819 119.363 32.5475Q119.223 32.8131 119.066 33.0688Q118.908 33.3244 118.734 33.569L110.314 45.3885Q110.004 45.8236 109.645 46.2188Q109.285 46.614 108.882 46.9638Q108.478 47.3135 108.035 47.6129Q107.593 47.9122 107.118 48.157Q106.643 48.4017 106.143 48.5883Q105.642 48.775 105.123 48.9009Q104.604 49.0268 104.074 49.0902Q103.543 49.1536 103.009 49.1536L101.067 49.1536L101.067 49.182L18.3333 49.182L18.3333 49.1536L16.2044 49.1536Q15.6702 49.1536 15.1398 49.0902Q14.6094 49.0268 14.0903 48.9009Q13.5712 48.775 13.0707 48.5883Q12.5702 48.4017 12.0953 48.157Q11.6205 47.9122 11.1781 47.6129Q10.7357 47.3135 10.3319 46.9638Q9.92819 46.614 9.5688 46.2188Q9.20942 45.8236 8.89948 45.3885L0.479362 33.569Q0.305152 33.3244 0.147687 33.0688Q-0.00977856 32.8131 -0.149794 32.5475Q-0.28981 32.2819 -0.411749 32.0076Q-0.533688 31.7332 -0.637004 31.4513Q-0.74032 31.1694 -0.824551 30.8812Q-0.908782 30.593 -0.973551 30.2998Q-1.03832 30.0066 -1.08334 29.7097Q-1.12835 29.4129 -1.15341 29.1137Q-1.17847 28.8145 -1.18347 28.5143Q-1.18847 28.2141 -1.17337 27.9142Q-1.15828 27.6143 -1.12316 27.3161Q-1.08805 27.0179 -1.03307 26.7228Q-0.978095 26.4276 -0.903499 26.1367Q-0.828903 25.8459 -0.735023 25.5607Q-0.641144 25.2755 -0.528401 24.9972Q-0.415659 24.719 -0.284557 24.4488L9.12929 5.05279Q9.26628 4.77054 9.42267 4.49854Q9.57905 4.22655 9.75405 3.96615Q9.92906 3.70574 10.1218 3.45821Q10.3146 3.21067 10.5242 2.97721Q10.7338 2.74375 10.9592 2.5255Q11.1846 2.30726 11.4247 2.1053Q11.6648 1.90334 11.9184 1.71865Q12.1721 1.53396 12.438 1.36744Q12.7039 1.20092 12.9808 1.0534Q13.2577 0.905868 13.5442 0.77805Q13.8307 0.650231 14.1255 0.542746Q14.4202 0.435261 14.7218 0.348636Q15.0233 0.262011 15.3302 0.196669Q15.6371 0.131326 15.9478 0.0875867Q16.2584 0.0438469 16.5714 0.0219235Q16.8844 0 17.1981 0L34.344 0Z" transform="translate(0.1153475 0)" id="path_1" />
    <path d="M0 0L11.5762 0L11.5762 11.5762L0 11.5762L0 0Z" transform="matrix(0.7071068 -0.7071068 0.7071068 0.7071068 53.86983 27.46009)" id="path_2" />
    <path d="M0 0L16.3712 0L16.3712 8.61154L0 8.61154L0 0Z" transform="translate(53.86891 18.70981)" id="path_3" />
    <clipPath id="clip_1">
      <use xlink:href="#path_2" />
    </clipPath>
    <clipPath id="clip_2">
      <use xlink:href="#path_3" />
    </clipPath>
    <clipPath id="mask_1">
      <use xlink:href="#path_1" />
    </clipPath>
  </defs>
  <g id="psp" transform="translate(0.2874756 0.2875977)">
    <path d="M5.749 0L13.292 0Q13.4332 0 13.5741 0.00692492Q13.7151 0.0138498 13.8555 0.027683Q13.996 0.0415162 14.1356 0.0622242Q14.2752 0.0829323 14.4136 0.110465Q14.552 0.137998 14.6889 0.17229Q14.8258 0.206582 14.9609 0.24755Q15.0959 0.288518 15.2288 0.336063Q15.3617 0.383608 15.4921 0.437616Q15.6225 0.491625 15.7501 0.551965Q15.8776 0.612306 16.0021 0.678835Q16.1266 0.745363 16.2476 0.817918Q16.3687 0.890473 16.486 0.968881Q16.6034 1.04729 16.7167 1.13136Q16.8301 1.21543 16.9392 1.30496Q17.0483 1.39449 17.1528 1.48927Q17.2574 1.58405 17.3572 1.68384Q17.457 1.78364 17.5518 1.88821Q17.6465 1.99278 17.7361 2.10187Q17.8256 2.21097 17.9097 2.32432Q17.9938 2.43768 18.0722 2.55503Q18.1506 2.67237 18.2231 2.79342Q18.2957 2.91447 18.3622 3.03894Q18.4287 3.16341 18.4891 3.29099Q18.5494 3.41857 18.6034 3.54895Q18.6574 3.67934 18.705 3.81222Q18.7525 3.9451 18.7935 4.08015Q18.8345 4.21521 18.8688 4.35211Q18.903 4.48901 18.9306 4.62743Q18.9581 4.76584 18.9788 4.90545Q18.9995 5.04505 19.0134 5.1855Q19.0272 5.32595 19.0341 5.46691Q19.041 5.60787 19.041 5.749L19.041 5.82717Q19.041 5.9683 19.0341 6.10926Q19.0272 6.25022 19.0134 6.39067Q18.9995 6.53112 18.9788 6.67072Q18.9581 6.81033 18.9306 6.94874Q18.903 7.08716 18.8688 7.22406Q18.8345 7.36096 18.7935 7.49602Q18.7525 7.63107 18.705 7.76395Q18.6574 7.89683 18.6034 8.02722Q18.5494 8.1576 18.4891 8.28518Q18.4287 8.41277 18.3622 8.53723Q18.2957 8.6617 18.2231 8.78275Q18.1506 8.9038 18.0722 9.02114Q17.9938 9.13849 17.9097 9.25184Q17.8256 9.3652 17.7361 9.4743Q17.6465 9.58339 17.5518 9.68796Q17.457 9.79253 17.3572 9.89233Q17.2574 9.99212 17.1528 10.0869Q17.0483 10.1817 16.9392 10.2712Q16.8301 10.3607 16.7167 10.4448Q16.6034 10.5289 16.486 10.6073Q16.3687 10.6857 16.2476 10.7583Q16.1266 10.8308 16.0021 10.8973Q15.8776 10.9639 15.7501 11.0242Q15.6225 11.0845 15.4921 11.1386Q15.3617 11.1926 15.2288 11.2401Q15.0959 11.2877 14.9609 11.3286Q14.8258 11.3696 14.6889 11.4039Q14.552 11.4382 14.4136 11.4657Q14.2752 11.4932 14.1356 11.5139Q13.996 11.5347 13.8555 11.5485Q13.7151 11.5623 13.5741 11.5692Q13.4332 11.5762 13.292 11.5762L5.749 11.5762Q5.60787 11.5762 5.46691 11.5692Q5.32595 11.5623 5.1855 11.5485Q5.04505 11.5347 4.90545 11.5139Q4.76584 11.4932 4.62743 11.4657Q4.48901 11.4382 4.35211 11.4039Q4.21521 11.3696 4.08015 11.3286Q3.9451 11.2877 3.81222 11.2401Q3.67934 11.1926 3.54895 11.1386Q3.41857 11.0845 3.29099 11.0242Q3.16341 10.9639 3.03894 10.8973Q2.91447 10.8308 2.79342 10.7583Q2.67237 10.6857 2.55503 10.6073Q2.43768 10.5289 2.32432 10.4448Q2.21097 10.3607 2.10187 10.2712Q1.99278 10.1817 1.88821 10.0869Q1.78364 9.99212 1.68384 9.89233Q1.58405 9.79253 1.48927 9.68796Q1.39449 9.58339 1.30496 9.4743Q1.21543 9.3652 1.13136 9.25185Q1.04729 9.13849 0.968881 9.02114Q0.890473 8.9038 0.817918 8.78275Q0.745363 8.6617 0.678835 8.53723Q0.612306 8.41277 0.551965 8.28518Q0.491625 8.1576 0.437616 8.02722Q0.383608 7.89683 0.336063 7.76395Q0.288518 7.63107 0.24755 7.49602Q0.206582 7.36096 0.17229 7.22406Q0.137998 7.08716 0.110465 6.94874Q0.0829323 6.81033 0.0622242 6.67072Q0.0415162 6.53112 0.027683 6.39067Q0.0138498 6.25022 0.00692492 6.10926Q0 5.9683 0 5.82717L0 5.749Q0 5.60787 0.00692492 5.46691Q0.0138498 5.32595 0.027683 5.1855Q0.0415162 5.04505 0.0622242 4.90545Q0.0829323 4.76584 0.110465 4.62743Q0.137998 4.48901 0.17229 4.35211Q0.206582 4.21521 0.24755 4.08015Q0.288518 3.9451 0.336063 3.81222Q0.383608 3.67934 0.437616 3.54895Q0.491625 3.41857 0.551965 3.29099Q0.612306 3.16341 0.678835 3.03894Q0.745363 2.91447 0.817918 2.79342Q0.890473 2.67237 0.968881 2.55503Q1.04729 2.43768 1.13136 2.32432Q1.21543 2.21097 1.30496 2.10187Q1.39449 1.99278 1.48927 1.88821Q1.58405 1.78364 1.68384 1.68384Q1.78364 1.58405 1.88821 1.48927Q1.99278 1.39449 2.10187 1.30496Q2.21097 1.21543 2.32432 1.13136Q2.43768 1.04729 2.55503 0.968881Q2.67237 0.890473 2.79342 0.817918Q2.91447 0.745363 3.03894 0.678835Q3.16341 0.612306 3.29099 0.551965Q3.41857 0.491625 3.54895 0.437616Q3.67934 0.383608 3.81222 0.336063Q3.9451 0.288518 4.08015 0.24755Q4.21521 0.206582 4.35211 0.17229Q4.48901 0.137998 4.62743 0.110465Q4.76584 0.0829323 4.90545 0.0622242Q5.04505 0.0415162 5.1855 0.027683Q5.32595 0.0138498 5.46691 0.00692492Q5.60787 0 5.749 0L5.749 0Z" transform="translate(21.3943 1.769072)" id="Rectangle-61" fill="#6D397E" stroke="none" />
    <path d="M5.749 0L13.292 0Q13.4332 0 13.5741 0.00692492Q13.7151 0.0138498 13.8555 0.027683Q13.996 0.0415162 14.1356 0.0622242Q14.2752 0.0829323 14.4136 0.110465Q14.552 0.137998 14.6889 0.17229Q14.8258 0.206582 14.9609 0.24755Q15.0959 0.288518 15.2288 0.336063Q15.3617 0.383608 15.4921 0.437616Q15.6225 0.491625 15.7501 0.551965Q15.8776 0.612306 16.0021 0.678835Q16.1266 0.745363 16.2476 0.817918Q16.3687 0.890473 16.486 0.968881Q16.6034 1.04729 16.7167 1.13136Q16.8301 1.21543 16.9392 1.30496Q17.0483 1.39449 17.1528 1.48927Q17.2574 1.58405 17.3572 1.68384Q17.457 1.78364 17.5518 1.88821Q17.6465 1.99278 17.7361 2.10187Q17.8256 2.21097 17.9097 2.32432Q17.9938 2.43768 18.0722 2.55503Q18.1506 2.67237 18.2231 2.79342Q18.2957 2.91447 18.3622 3.03894Q18.4287 3.16341 18.4891 3.29099Q18.5494 3.41857 18.6034 3.54895Q18.6574 3.67934 18.705 3.81222Q18.7525 3.9451 18.7935 4.08015Q18.8345 4.21521 18.8688 4.35211Q18.903 4.48901 18.9306 4.62743Q18.9581 4.76584 18.9788 4.90545Q18.9995 5.04505 19.0134 5.1855Q19.0272 5.32595 19.0341 5.46691Q19.041 5.60787 19.041 5.749L19.041 5.82717Q19.041 5.9683 19.0341 6.10926Q19.0272 6.25022 19.0134 6.39067Q18.9995 6.53112 18.9788 6.67072Q18.9581 6.81033 18.9306 6.94874Q18.903 7.08716 18.8688 7.22406Q18.8345 7.36096 18.7935 7.49602Q18.7525 7.63107 18.705 7.76395Q18.6574 7.89683 18.6034 8.02722Q18.5494 8.1576 18.4891 8.28518Q18.4287 8.41277 18.3622 8.53723Q18.2957 8.6617 18.2231 8.78275Q18.1506 8.9038 18.0722 9.02114Q17.9938 9.13849 17.9097 9.25184Q17.8256 9.3652 17.7361 9.4743Q17.6465 9.58339 17.5518 9.68796Q17.457 9.79253 17.3572 9.89233Q17.2574 9.99212 17.1528 10.0869Q17.0483 10.1817 16.9392 10.2712Q16.8301 10.3607 16.7167 10.4448Q16.6034 10.5289 16.486 10.6073Q16.3687 10.6857 16.2476 10.7583Q16.1266 10.8308 16.0021 10.8973Q15.8776 10.9639 15.7501 11.0242Q15.6225 11.0845 15.4921 11.1386Q15.3617 11.1926 15.2288 11.2401Q15.0959 11.2877 14.9609 11.3286Q14.8258 11.3696 14.6889 11.4039Q14.552 11.4382 14.4136 11.4657Q14.2752 11.4932 14.1356 11.5139Q13.996 11.5347 13.8555 11.5485Q13.7151 11.5623 13.5741 11.5692Q13.4332 11.5762 13.292 11.5762L5.749 11.5762Q5.60787 11.5762 5.46691 11.5692Q5.32595 11.5623 5.1855 11.5485Q5.04505 11.5347 4.90545 11.5139Q4.76584 11.4932 4.62743 11.4657Q4.48901 11.4382 4.35211 11.4039Q4.21521 11.3696 4.08015 11.3286Q3.9451 11.2877 3.81222 11.2401Q3.67934 11.1926 3.54895 11.1386Q3.41857 11.0845 3.29099 11.0242Q3.16341 10.9639 3.03894 10.8973Q2.91447 10.8308 2.79342 10.7583Q2.67237 10.6857 2.55503 10.6073Q2.43768 10.5289 2.32432 10.4448Q2.21097 10.3607 2.10187 10.2712Q1.99278 10.1817 1.88821 10.0869Q1.78364 9.99212 1.68384 9.89233Q1.58405 9.79253 1.48927 9.68796Q1.39449 9.58339 1.30496 9.4743Q1.21543 9.3652 1.13136 9.25185Q1.04729 9.13849 0.968881 9.02114Q0.890473 8.9038 0.817918 8.78275Q0.745363 8.6617 0.678835 8.53723Q0.612306 8.41277 0.551965 8.28518Q0.491625 8.1576 0.437616 8.02722Q0.383608 7.89683 0.336063 7.76395Q0.288518 7.63107 0.24755 7.49602Q0.206582 7.36096 0.17229 7.22406Q0.137998 7.08716 0.110465 6.94874Q0.0829323 6.81033 0.0622242 6.67072Q0.0415162 6.53112 0.027683 6.39067Q0.0138498 6.25022 0.00692492 6.10926Q0 5.9683 0 5.82717L0 5.749Q0 5.60787 0.00692492 5.46691Q0.0138498 5.32595 0.027683 5.1855Q0.0415162 5.04505 0.0622242 4.90545Q0.0829323 4.76584 0.110465 4.62743Q0.137998 4.48901 0.17229 4.35211Q0.206582 4.21521 0.24755 4.08015Q0.288518 3.9451 0.336063 3.81222Q0.383608 3.67934 0.437616 3.54895Q0.491625 3.41857 0.551965 3.29099Q0.612306 3.16341 0.678835 3.03894Q0.745363 2.91447 0.817918 2.79342Q0.890473 2.67237 0.968881 2.55503Q1.04729 2.43768 1.13136 2.32432Q1.21543 2.21097 1.30496 2.10187Q1.39449 1.99278 1.48927 1.88821Q1.58405 1.78364 1.68384 1.68384Q1.78364 1.58405 1.88821 1.48927Q1.99278 1.39449 2.10187 1.30496Q2.21097 1.21543 2.32432 1.13136Q2.43768 1.04729 2.55503 0.968881Q2.67237 0.890473 2.79342 0.817918Q2.91447 0.745363 3.03894 0.678835Q3.16341 0.612306 3.29099 0.551965Q3.41857 0.491625 3.54895 0.437616Q3.67934 0.383608 3.81222 0.336063Q3.9451 0.288518 4.08015 0.24755Q4.21521 0.206582 4.35211 0.17229Q4.48901 0.137998 4.62743 0.110465Q4.76584 0.0829323 4.90545 0.0622242Q5.04505 0.0415162 5.1855 0.027683Q5.32595 0.0138498 5.46691 0.00692492Q5.60787 0 5.749 0L5.749 0Z" transform="translate(84.30682 1.769072)" id="Rectangle-61-Copy-2" fill="#6D397E" stroke="none" />
    <g id="Combined-Shape-Copy-15" transform="translate(2.239769 5.72191)">
      <path d="M34.344 0L102.015 0Q102.329 0 102.642 0.0219235Q102.955 0.0438469 103.266 0.0875867Q103.576 0.131326 103.883 0.196669Q104.19 0.262011 104.492 0.348636Q104.793 0.435261 105.088 0.542746Q105.383 0.650231 105.669 0.778049Q105.956 0.905868 106.233 1.0534Q106.51 1.20092 106.776 1.36744Q107.042 1.53396 107.295 1.71865Q107.549 1.90334 107.789 2.1053Q108.029 2.30726 108.254 2.5255Q108.48 2.74375 108.689 2.97721Q108.899 3.21067 109.092 3.45821Q109.285 3.70574 109.46 3.96615Q109.635 4.22655 109.791 4.49854Q109.947 4.77054 110.084 5.05279L119.498 24.4488Q119.629 24.719 119.742 24.9972Q119.855 25.2755 119.949 25.5607Q120.042 25.8459 120.117 26.1367Q120.192 26.4276 120.247 26.7228Q120.302 27.0179 120.337 27.3161Q120.372 27.6143 120.387 27.9142Q120.402 28.2141 120.397 28.5143Q120.392 28.8145 120.367 29.1137Q120.342 29.4129 120.297 29.7097Q120.252 30.0066 120.187 30.2998Q120.122 30.593 120.038 30.8812Q119.954 31.1694 119.851 31.4513Q119.747 31.7332 119.625 32.0076Q119.503 32.2819 119.363 32.5475Q119.223 32.8131 119.066 33.0688Q118.908 33.3244 118.734 33.569L110.314 45.3885Q110.004 45.8236 109.645 46.2188Q109.285 46.614 108.882 46.9638Q108.478 47.3135 108.035 47.6129Q107.593 47.9122 107.118 48.157Q106.643 48.4017 106.143 48.5883Q105.642 48.775 105.123 48.9009Q104.604 49.0268 104.074 49.0902Q103.543 49.1536 103.009 49.1536L101.067 49.1536L101.067 49.182L18.3333 49.182L18.3333 49.1536L16.2044 49.1536Q15.6702 49.1536 15.1398 49.0902Q14.6094 49.0268 14.0903 48.9009Q13.5712 48.775 13.0707 48.5883Q12.5702 48.4017 12.0953 48.157Q11.6205 47.9122 11.1781 47.6129Q10.7357 47.3135 10.3319 46.9638Q9.92819 46.614 9.5688 46.2188Q9.20942 45.8236 8.89948 45.3885L0.479362 33.569Q0.305152 33.3244 0.147687 33.0688Q-0.00977856 32.8131 -0.149794 32.5475Q-0.28981 32.2819 -0.411749 32.0076Q-0.533688 31.7332 -0.637004 31.4513Q-0.74032 31.1694 -0.824551 30.8812Q-0.908782 30.593 -0.973551 30.2998Q-1.03832 30.0066 -1.08334 29.7097Q-1.12835 29.4129 -1.15341 29.1137Q-1.17847 28.8145 -1.18347 28.5143Q-1.18847 28.2141 -1.17337 27.9142Q-1.15828 27.6143 -1.12316 27.3161Q-1.08805 27.0179 -1.03307 26.7228Q-0.978095 26.4276 -0.903499 26.1367Q-0.828903 25.8459 -0.735023 25.5607Q-0.641144 25.2755 -0.528401 24.9972Q-0.415659 24.719 -0.284557 24.4488L9.12929 5.05279Q9.26628 4.77054 9.42267 4.49854Q9.57905 4.22655 9.75405 3.96615Q9.92906 3.70574 10.1218 3.45821Q10.3146 3.21067 10.5242 2.97721Q10.7338 2.74375 10.9592 2.5255Q11.1846 2.30726 11.4247 2.1053Q11.6648 1.90334 11.9184 1.71865Q12.1721 1.53396 12.438 1.36744Q12.7039 1.20092 12.9808 1.0534Q13.2577 0.905868 13.5442 0.77805Q13.8307 0.650231 14.1255 0.542746Q14.4202 0.435261 14.7218 0.348636Q15.0233 0.262011 15.3302 0.196669Q15.6371 0.131326 15.9478 0.0875867Q16.2584 0.0438469 16.5714 0.0219235Q16.8844 0 17.1981 0L34.344 0Z" transform="translate(0.1153475 0)" id="Mask" fill="#AB70C0" fill-rule="evenodd" stroke="none" />
      <g clip-path="url(#mask_1)">
        <path d="M34.344 0L102.015 0Q102.329 0 102.642 0.0219235Q102.955 0.0438469 103.266 0.0875867Q103.576 0.131326 103.883 0.196669Q104.19 0.262011 104.492 0.348636Q104.793 0.435261 105.088 0.542746Q105.383 0.650231 105.669 0.778049Q105.956 0.905868 106.233 1.0534Q106.51 1.20092 106.776 1.36744Q107.042 1.53396 107.295 1.71865Q107.549 1.90334 107.789 2.1053Q108.029 2.30726 108.254 2.5255Q108.48 2.74375 108.689 2.97721Q108.899 3.21067 109.092 3.45821Q109.285 3.70574 109.46 3.96615Q109.635 4.22655 109.791 4.49854Q109.947 4.77054 110.084 5.05279L119.498 24.4488Q119.629 24.719 119.742 24.9972Q119.855 25.2755 119.949 25.5607Q120.042 25.8459 120.117 26.1367Q120.192 26.4276 120.247 26.7228Q120.302 27.0179 120.337 27.3161Q120.372 27.6143 120.387 27.9142Q120.402 28.2141 120.397 28.5143Q120.392 28.8145 120.367 29.1137Q120.342 29.4129 120.297 29.7097Q120.252 30.0066 120.187 30.2998Q120.122 30.593 120.038 30.8812Q119.954 31.1694 119.851 31.4513Q119.747 31.7332 119.625 32.0076Q119.503 32.2819 119.363 32.5475Q119.223 32.8131 119.066 33.0688Q118.908 33.3244 118.734 33.569L110.314 45.3885Q110.004 45.8236 109.645 46.2188Q109.285 46.614 108.882 46.9638Q108.478 47.3135 108.035 47.6129Q107.593 47.9122 107.118 48.157Q106.643 48.4017 106.143 48.5883Q105.642 48.775 105.123 48.9009Q104.604 49.0268 104.074 49.0902Q103.543 49.1536 103.009 49.1536L101.067 49.1536L101.067 49.182L18.3333 49.182L18.3333 49.1536L16.2044 49.1536Q15.6702 49.1536 15.1398 49.0902Q14.6094 49.0268 14.0903 48.9009Q13.5712 48.775 13.0707 48.5883Q12.5702 48.4017 12.0953 48.157Q11.6205 47.9122 11.1781 47.6129Q10.7357 47.3135 10.3319 46.9638Q9.92819 46.614 9.5688 46.2188Q9.20942 45.8236 8.89948 45.3885L0.479362 33.569Q0.305152 33.3244 0.147687 33.0688Q-0.00977856 32.8131 -0.149794 32.5475Q-0.28981 32.2819 -0.411749 32.0076Q-0.533688 31.7332 -0.637004 31.4513Q-0.74032 31.1694 -0.824551 30.8812Q-0.908782 30.593 -0.973551 30.2998Q-1.03832 30.0066 -1.08334 29.7097Q-1.12835 29.4129 -1.15341 29.1137Q-1.17847 28.8145 -1.18347 28.5143Q-1.18847 28.2141 -1.17337 27.9142Q-1.15828 27.6143 -1.12316 27.3161Q-1.08805 27.0179 -1.03307 26.7228Q-0.978095 26.4276 -0.903499 26.1367Q-0.828903 25.8459 -0.735023 25.5607Q-0.641144 25.2755 -0.528401 24.9972Q-0.415659 24.719 -0.284557 24.4488L9.12929 5.05279Q9.26628 4.77054 9.42267 4.49854Q9.57905 4.22655 9.75405 3.96615Q9.92906 3.70574 10.1218 3.45821Q10.3146 3.21067 10.5242 2.97721Q10.7338 2.74375 10.9592 2.5255Q11.1846 2.30726 11.4247 2.1053Q11.6648 1.90334 11.9184 1.71865Q12.1721 1.53396 12.438 1.36744Q12.7039 1.20092 12.9808 1.0534Q13.2577 0.905868 13.5442 0.77805Q13.8307 0.650231 14.1255 0.542746Q14.4202 0.435261 14.7218 0.348636Q15.0233 0.262011 15.3302 0.196669Q15.6371 0.131326 15.9478 0.0875867Q16.2584 0.0438469 16.5714 0.0219235Q16.8844 0 17.1981 0L34.344 0Z" transform="translate(0.1153475 3.105802)" id="Combined-Shape-Copy-15" fill="#9960AD" fill-rule="evenodd" stroke="none" />
      </g>
    </g>
    <path d="M14.0696 0L1.54942 0Q1.4733 0 1.39755 0.00746088Q1.3218 0.0149218 1.24714 0.0297717Q1.17249 0.0446216 1.09965 0.0667175Q1.02681 0.0888134 0.956482 0.117943Q0.886158 0.147072 0.819028 0.182953Q0.751898 0.218835 0.688608 0.261124Q0.625318 0.303413 0.566478 0.351702Q0.507638 0.399991 0.453814 0.453814Q0.399991 0.507638 0.351702 0.566478Q0.303413 0.625318 0.261124 0.688608Q0.218835 0.751898 0.182953 0.819028Q0.147072 0.886158 0.117943 0.956482Q0.0888134 1.02681 0.0667175 1.09965Q0.0446216 1.17249 0.0297717 1.24714Q0.0149218 1.3218 0.00746088 1.39755Q0 1.4733 0 1.54942L0 1.55142Q0 1.62754 0.00746088 1.70329Q0.0149218 1.77904 0.0297717 1.8537Q0.0446216 1.92835 0.0667175 2.00119Q0.0888134 2.07403 0.117943 2.14436Q0.147072 2.21468 0.182953 2.28181Q0.218835 2.34894 0.261124 2.41223Q0.303413 2.47552 0.351702 2.53436Q0.399991 2.5932 0.453814 2.64702Q0.507638 2.70085 0.566478 2.74914Q0.625318 2.79743 0.688608 2.83971Q0.751898 2.882 0.819028 2.91789Q0.886158 2.95377 0.956482 2.9829Q1.02681 3.01203 1.09965 3.03412Q1.17249 3.05622 1.24714 3.07107Q1.3218 3.08592 1.39755 3.09338Q1.4733 3.10084 1.54942 3.10084L14.0696 3.10084Q14.1457 3.10084 14.2215 3.09338Q14.2972 3.08592 14.3719 3.07107Q14.4466 3.05622 14.5194 3.03412Q14.5922 3.01202 14.6626 2.9829Q14.7329 2.95377 14.8 2.91789Q14.8671 2.882 14.9304 2.83971Q14.9937 2.79743 15.0526 2.74914Q15.1114 2.70085 15.1652 2.64702Q15.219 2.5932 15.2673 2.53436Q15.3156 2.47552 15.3579 2.41223Q15.4002 2.34894 15.4361 2.28181Q15.472 2.21468 15.5011 2.14436Q15.5302 2.07403 15.5523 2.00119Q15.5744 1.92835 15.5893 1.8537Q15.6041 1.77904 15.6116 1.70329Q15.619 1.62754 15.619 1.55142L15.619 1.54942Q15.619 1.4733 15.6116 1.39755Q15.6041 1.3218 15.5893 1.24714Q15.5744 1.17249 15.5523 1.09965Q15.5302 1.02681 15.5011 0.956482Q15.472 0.886158 15.4361 0.819028Q15.4002 0.751898 15.3579 0.688608Q15.3156 0.625318 15.2673 0.566478Q15.219 0.507638 15.1652 0.453814Q15.1114 0.399991 15.0526 0.351702Q14.9937 0.303413 14.9304 0.261124Q14.8671 0.218835 14.8 0.182953Q14.7329 0.147072 14.6626 0.117943Q14.5922 0.0888134 14.5194 0.0667175Q14.4466 0.0446216 14.3719 0.0297717Q14.2972 0.0149218 14.2215 0.00746088Q14.1457 0 14.0696 0ZM19.0024 0L17.7511 0Q17.675 0 17.5992 0.00746088Q17.5235 0.0149218 17.4488 0.0297717Q17.3742 0.0446216 17.3013 0.0667175Q17.2285 0.0888134 17.1581 0.117943Q17.0878 0.147072 17.0207 0.182953Q16.9536 0.218835 16.8903 0.261124Q16.827 0.303413 16.7681 0.351702Q16.7093 0.399991 16.6555 0.453814Q16.6017 0.507638 16.5534 0.566478Q16.5051 0.625318 16.4628 0.688608Q16.4205 0.751898 16.3846 0.819028Q16.3487 0.886158 16.3196 0.956482Q16.2905 1.02681 16.2684 1.09965Q16.2463 1.17249 16.2314 1.24714Q16.2166 1.3218 16.2091 1.39755Q16.2017 1.4733 16.2017 1.54942L16.2017 1.55142Q16.2017 1.62754 16.2091 1.70329Q16.2166 1.77904 16.2314 1.8537Q16.2463 1.92835 16.2684 2.00119Q16.2905 2.07403 16.3196 2.14436Q16.3487 2.21468 16.3846 2.28181Q16.4205 2.34894 16.4628 2.41223Q16.5051 2.47552 16.5534 2.53436Q16.6017 2.5932 16.6555 2.64702Q16.7093 2.70085 16.7681 2.74914Q16.827 2.79743 16.8903 2.83971Q16.9536 2.882 17.0207 2.91789Q17.0878 2.95377 17.1581 2.9829Q17.2285 3.01203 17.3013 3.03412Q17.3742 3.05622 17.4488 3.07107Q17.5235 3.08592 17.5992 3.09338Q17.675 3.10084 17.7511 3.10084L19.0024 3.10084Q19.0785 3.10084 19.1543 3.09338Q19.23 3.08592 19.3047 3.07107Q19.3793 3.05622 19.4522 3.03412Q19.525 3.01202 19.5953 2.9829Q19.6656 2.95377 19.7328 2.91789Q19.7999 2.882 19.8632 2.83971Q19.9265 2.79743 19.9853 2.74914Q20.0442 2.70085 20.098 2.64702Q20.1518 2.5932 20.2001 2.53436Q20.2484 2.47552 20.2907 2.41223Q20.333 2.34894 20.3688 2.28181Q20.4047 2.21468 20.4339 2.14436Q20.463 2.07403 20.4851 2.00119Q20.5072 1.92835 20.522 1.8537Q20.5369 1.77904 20.5443 1.70329Q20.5518 1.62754 20.5518 1.55142L20.5518 1.54942Q20.5518 1.4733 20.5443 1.39755Q20.5369 1.3218 20.522 1.24714Q20.5072 1.17249 20.4851 1.09965Q20.463 1.02681 20.4339 0.956482Q20.4047 0.886158 20.3688 0.819028Q20.333 0.751898 20.2907 0.688608Q20.2484 0.625318 20.2001 0.566478Q20.1518 0.507638 20.098 0.453814Q20.0442 0.399991 19.9853 0.351702Q19.9265 0.303413 19.8632 0.261124Q19.7999 0.218835 19.7328 0.182953Q19.6656 0.147072 19.5953 0.117943Q19.525 0.0888134 19.4522 0.0667175Q19.3793 0.0446216 19.3047 0.0297717Q19.23 0.0149218 19.1543 0.00746088Q19.0785 0 19.0024 0Z" transform="translate(51.70213 45.46454)" id="Combined-Shape" fill="#C88FDD" fill-rule="evenodd" stroke="none" />
    <path d="M2.759 0L57.0983 0Q57.2338 0 57.3687 0.0132853Q57.5036 0.0265707 57.6365 0.0530134Q57.7695 0.0794561 57.8992 0.118802Q58.0289 0.158147 58.1541 0.210016Q58.2793 0.261886 58.3988 0.325779Q58.5184 0.389673 58.6311 0.464975Q58.7438 0.540278 58.8486 0.626264Q58.9533 0.71225 59.0492 0.808092Q59.145 0.903934 59.231 1.00871Q59.317 1.11348 59.3923 1.22618Q59.4676 1.33888 59.5315 1.45842Q59.5954 1.57795 59.6472 1.70318Q59.6991 1.8284 59.7385 1.9581Q59.7778 2.08781 59.8042 2.22075Q59.8307 2.35368 59.844 2.48857Q59.8573 2.62346 59.8573 2.759L59.8573 29.1218Q59.8573 29.2573 59.844 29.3922Q59.8307 29.5271 59.8043 29.66Q59.7778 29.793 59.7385 29.9227Q59.6991 30.0524 59.6473 30.1776Q59.5954 30.3028 59.5315 30.4224Q59.4676 30.5419 59.3923 30.6546Q59.317 30.7673 59.231 30.8721Q59.145 30.9769 59.0492 31.0727Q58.9533 31.1685 58.8486 31.2545Q58.7438 31.3405 58.6311 31.4158Q58.5184 31.4911 58.3988 31.555Q58.2793 31.6189 58.1541 31.6708Q58.0289 31.7226 57.8992 31.762Q57.7695 31.8013 57.6365 31.8278Q57.5036 31.8542 57.3687 31.8675Q57.2338 31.8808 57.0983 31.8808L2.759 31.8808Q2.62346 31.8808 2.48857 31.8675Q2.35368 31.8542 2.22075 31.8278Q2.08781 31.8013 1.9581 31.762Q1.8284 31.7226 1.70318 31.6708Q1.57795 31.6189 1.45842 31.555Q1.33888 31.4911 1.22618 31.4158Q1.11348 31.3405 1.00871 31.2545Q0.903934 31.1685 0.808092 31.0727Q0.71225 30.9769 0.626264 30.8721Q0.540278 30.7673 0.464975 30.6546Q0.389673 30.5419 0.325779 30.4224Q0.261886 30.3028 0.210016 30.1776Q0.158147 30.0524 0.118802 29.9227Q0.0794561 29.793 0.0530134 29.66Q0.0265707 29.5271 0.0132853 29.3922Q0 29.2573 0 29.1218L0 2.759Q0 2.62346 0.0132853 2.48857Q0.0265707 2.35368 0.0530134 2.22075Q0.0794561 2.08781 0.118802 1.9581Q0.158147 1.8284 0.210016 1.70318Q0.261886 1.57795 0.325779 1.45842Q0.389673 1.33888 0.464975 1.22618Q0.540278 1.11348 0.626264 1.00871Q0.71225 0.903934 0.808092 0.808092Q0.903934 0.71225 1.00871 0.626264Q1.11348 0.540278 1.22618 0.464975Q1.33888 0.389673 1.45842 0.325779Q1.57795 0.261886 1.70318 0.210016Q1.8284 0.158147 1.9581 0.118802Q2.08781 0.0794561 2.22075 0.0530134Q2.35368 0.0265707 2.48857 0.0132853Q2.62346 0 2.759 0Z" transform="translate(32.12343 11.08648)" id="Rectangle-57" fill="#BABDBE" stroke="none" />
    <path d="M2.759 0L54.5059 0Q54.6414 0 54.7763 0.0132853Q54.9112 0.0265707 55.0441 0.0530134Q55.1771 0.0794561 55.3068 0.118802Q55.4365 0.158147 55.5617 0.210016Q55.6869 0.261886 55.8065 0.325779Q55.926 0.389673 56.0387 0.464975Q56.1514 0.540278 56.2562 0.626264Q56.3609 0.71225 56.4568 0.808092Q56.5526 0.903934 56.6386 1.00871Q56.7246 1.11348 56.7999 1.22618Q56.8752 1.33888 56.9391 1.45842Q57.003 1.57795 57.0549 1.70318Q57.1067 1.8284 57.1461 1.9581Q57.1854 2.08781 57.2119 2.22075Q57.2383 2.35368 57.2516 2.48857Q57.2649 2.62346 57.2649 2.759L57.2649 27.2765Q57.2649 27.4121 57.2516 27.547Q57.2383 27.6819 57.2119 27.8148Q57.1854 27.9477 57.1461 28.0774Q57.1067 28.2071 57.0549 28.3324Q57.003 28.4576 56.9391 28.5771Q56.8752 28.6967 56.7999 28.8094Q56.7246 28.9221 56.6386 29.0268Q56.5526 29.1316 56.4568 29.2274Q56.3609 29.3233 56.2562 29.4093Q56.1514 29.4953 56.0387 29.5706Q55.926 29.6459 55.8065 29.7098Q55.6869 29.7737 55.5617 29.8255Q55.4365 29.8774 55.3068 29.9167Q55.1771 29.9561 55.0441 29.9825Q54.9112 30.009 54.7763 30.0223Q54.6414 30.0355 54.5059 30.0355L2.759 30.0355Q2.62346 30.0355 2.48857 30.0223Q2.35368 30.009 2.22075 29.9825Q2.08781 29.9561 1.9581 29.9167Q1.8284 29.8774 1.70318 29.8255Q1.57795 29.7737 1.45842 29.7098Q1.33888 29.6459 1.22618 29.5706Q1.11348 29.4953 1.00871 29.4093Q0.903934 29.3233 0.808092 29.2274Q0.71225 29.1316 0.626264 29.0268Q0.540278 28.9221 0.464975 28.8094Q0.389673 28.6967 0.325779 28.5771Q0.261886 28.4576 0.210016 28.3324Q0.158147 28.2071 0.118802 28.0774Q0.0794561 27.9477 0.0530134 27.8148Q0.0265707 27.6819 0.0132853 27.547Q0 27.4121 0 27.2765L0 2.759Q0 2.62346 0.0132853 2.48857Q0.0265707 2.35368 0.0530134 2.22075Q0.0794561 2.08781 0.118802 1.9581Q0.158147 1.8284 0.210016 1.70318Q0.261886 1.57795 0.325779 1.45842Q0.389673 1.33888 0.464975 1.22618Q0.540278 1.11348 0.626264 1.00871Q0.71225 0.903934 0.808092 0.808092Q0.903934 0.71225 1.00871 0.626264Q1.11348 0.540278 1.22618 0.464975Q1.33888 0.389673 1.45842 0.325779Q1.57795 0.261886 1.70318 0.210016Q1.8284 0.158147 1.9581 0.118802Q2.08781 0.0794561 2.22075 0.0530134Q2.35368 0.0265707 2.48857 0.0132853Q2.62346 0 2.759 0L2.759 0Z" transform="translate(33.39399 12.07469)" id="Rectangle-57-Copy" fill="#E8E7E6" stroke="none" />
    <path d="M4.30477 0L76.3049 0Q76.4106 0 76.5161 0.00518528Q76.6217 0.0103706 76.7268 0.0207286Q76.832 0.0310867 76.9365 0.0465926Q77.0411 0.0620986 77.1447 0.082715Q77.2484 0.103331 77.3509 0.129009Q77.4534 0.154686 77.5545 0.185362Q77.6556 0.216038 77.7551 0.251639Q77.8546 0.287241 77.9523 0.327681Q78.0499 0.368122 78.1454 0.413304Q78.241 0.458486 78.3342 0.508302Q78.4273 0.558117 78.518 0.612446Q78.6086 0.666774 78.6965 0.725485Q78.7844 0.784195 78.8692 0.847146Q78.9541 0.910098 79.0358 0.977138Q79.1175 1.04418 79.1958 1.11515Q79.2741 1.18611 79.3488 1.26084Q79.4235 1.33556 79.4945 1.41386Q79.5655 1.49216 79.6325 1.57385Q79.6996 1.65554 79.7625 1.74042Q79.8255 1.8253 79.8842 1.91317Q79.9429 2.00103 79.9972 2.09168Q80.0516 2.18232 80.1014 2.27552Q80.1512 2.36871 80.1964 2.46424Q80.2415 2.55977 80.282 2.65741Q80.3224 2.75504 80.358 2.85454Q80.3936 2.95404 80.4243 3.05516Q80.455 3.15629 80.4807 3.2588Q80.5063 3.36131 80.527 3.46495Q80.5476 3.5686 80.5631 3.67313Q80.5786 3.77766 80.5889 3.88283Q80.5993 3.988 80.6045 4.09355Q80.6097 4.19909 80.6097 4.30477L80.6097 4.30677Q80.6097 4.41245 80.6045 4.518Q80.5993 4.62354 80.5889 4.72871Q80.5786 4.83388 80.5631 4.93841Q80.5476 5.04294 80.527 5.14659Q80.5063 5.25024 80.4807 5.35274Q80.455 5.45525 80.4243 5.55638Q80.3936 5.65751 80.358 5.757Q80.3224 5.8565 80.282 5.95414Q80.2415 6.05177 80.1964 6.1473Q80.1512 6.24283 80.1014 6.33603Q80.0516 6.42922 79.9972 6.51986Q79.9429 6.61051 79.8842 6.69837Q79.8255 6.78624 79.7625 6.87112Q79.6996 6.956 79.6325 7.03769Q79.5655 7.11938 79.4945 7.19768Q79.4235 7.27598 79.3488 7.3507Q79.2741 7.42543 79.1958 7.4964Q79.1175 7.56736 79.0358 7.6344Q78.9541 7.70144 78.8692 7.76439Q78.7844 7.82735 78.6965 7.88606Q78.6086 7.94477 78.518 7.99909Q78.4274 8.05342 78.3342 8.10324Q78.241 8.15305 78.1454 8.19824Q78.0499 8.24342 77.9523 8.28386Q77.8546 8.3243 77.7551 8.3599Q77.6556 8.3955 77.5545 8.42618Q77.4534 8.45685 77.3509 8.48253Q77.2484 8.50821 77.1447 8.52883Q77.0411 8.54944 76.9365 8.56495Q76.832 8.58045 76.7268 8.59081Q76.6217 8.60117 76.5161 8.60636Q76.4106 8.61154 76.3049 8.61154L4.30477 8.61154Q4.19909 8.61154 4.09355 8.60636Q3.988 8.60117 3.88283 8.59081Q3.77766 8.58045 3.67313 8.56495Q3.5686 8.54944 3.46495 8.52883Q3.36131 8.50821 3.2588 8.48253Q3.15629 8.45685 3.05516 8.42618Q2.95404 8.3955 2.85454 8.3599Q2.75504 8.3243 2.65741 8.28386Q2.55977 8.24342 2.46424 8.19824Q2.36871 8.15305 2.27552 8.10324Q2.18232 8.05342 2.09168 7.99909Q2.00103 7.94477 1.91317 7.88606Q1.8253 7.82735 1.74042 7.76439Q1.65554 7.70144 1.57385 7.6344Q1.49216 7.56736 1.41386 7.49639Q1.33556 7.42543 1.26084 7.3507Q1.18611 7.27598 1.11515 7.19768Q1.04418 7.11938 0.977138 7.03769Q0.910098 6.956 0.847146 6.87112Q0.784195 6.78624 0.725485 6.69837Q0.666774 6.61051 0.612446 6.51986Q0.558117 6.42922 0.508302 6.33603Q0.458486 6.24283 0.413304 6.1473Q0.368122 6.05177 0.327681 5.95413Q0.287241 5.8565 0.251639 5.757Q0.216038 5.65751 0.185362 5.55638Q0.154686 5.45525 0.129009 5.35274Q0.103331 5.25024 0.082715 5.14659Q0.0620986 5.04294 0.0465926 4.93841Q0.0310867 4.83388 0.0207286 4.72871Q0.0103706 4.62354 0.00518528 4.518Q0 4.41245 0 4.30677L0 4.30477Q0 4.19909 0.00518528 4.09355Q0.0103706 3.988 0.0207286 3.88283Q0.0310867 3.77766 0.0465926 3.67313Q0.0620986 3.5686 0.082715 3.46495Q0.103331 3.36131 0.129009 3.2588Q0.154686 3.15629 0.185362 3.05516Q0.216038 2.95404 0.251639 2.85454Q0.287241 2.75504 0.327681 2.65741Q0.368122 2.55977 0.413304 2.46424Q0.458486 2.36871 0.508302 2.27552Q0.558117 2.18232 0.612446 2.09168Q0.666774 2.00103 0.725485 1.91317Q0.784195 1.8253 0.847146 1.74042Q0.910098 1.65554 0.977138 1.57385Q1.04418 1.49216 1.11515 1.41386Q1.18611 1.33556 1.26084 1.26084Q1.33556 1.18611 1.41386 1.11515Q1.49216 1.04418 1.57385 0.977138Q1.65554 0.910098 1.74042 0.847146Q1.8253 0.784195 1.91317 0.725485Q2.00103 0.666774 2.09168 0.612446Q2.18232 0.558117 2.27552 0.508302Q2.36871 0.458486 2.46424 0.413304Q2.55977 0.368122 2.65741 0.327681Q2.75504 0.287241 2.85454 0.251639Q2.95404 0.216038 3.05516 0.185362Q3.15629 0.154686 3.2588 0.129009Q3.36131 0.103331 3.46495 0.082715Q3.5686 0.0620986 3.67313 0.0465926Q3.77766 0.0310867 3.88283 0.0207286Q3.988 0.0103706 4.09355 0.00518528Q4.19909 0 4.30477 0Z" transform="translate(21.67664 50.47369)" id="Rectangle-59" fill="#FF9F31" stroke="none" />
    <path d="M59.4949 0Q59.5005 0.105305 59.5005 0.210759L59.5005 0.212759Q59.5005 0.40682 59.4815 0.599947Q59.4624 0.793074 59.4246 0.983406Q59.3867 1.17374 59.3304 1.35944Q59.274 1.54515 59.1998 1.72444Q59.1255 1.90373 59.034 2.07487Q58.9426 2.24602 58.8347 2.40737Q58.7269 2.56873 58.6038 2.71874Q58.4807 2.86875 58.3435 3.00597Q58.2063 3.1432 58.0563 3.26631Q57.9063 3.38942 57.7449 3.49723Q57.5835 3.60505 57.4124 3.69653Q57.2412 3.78801 57.062 3.86227Q56.8827 3.93654 56.697 3.99287Q56.5113 4.0492 56.3209 4.08706Q56.1306 4.12492 55.9375 4.14394Q55.7443 4.16296 55.5503 4.16296L3.9502 4.16296Q3.75614 4.16296 3.56302 4.14394Q3.36989 4.12492 3.17956 4.08706Q2.98923 4.0492 2.80352 3.99287Q2.61782 3.93654 2.43853 3.86227Q2.25924 3.78801 2.08809 3.69653Q1.91694 3.60505 1.75559 3.49723Q1.59423 3.38942 1.44422 3.26631Q1.29421 3.1432 1.15699 3.00597Q1.01977 2.86875 0.896655 2.71874Q0.773544 2.56873 0.665729 2.40737Q0.557915 2.24602 0.466435 2.07487Q0.374955 1.90373 0.300691 1.72444Q0.226427 1.54515 0.170094 1.35944Q0.113761 1.17374 0.0759021 0.983406Q0.0380426 0.793074 0.0190213 0.599947Q0 0.40682 0 0.212759L0 0.210759Q0 0.105305 0.00562644 1.98468e-16L59.4949 0Z" transform="translate(32.30183 50.47369)" id="Combined-Shape" fill="#FFB731" fill-rule="evenodd" stroke="none" />
    <path d="M11.4654 22.9308C17.7976 22.9308 22.9308 17.7976 22.9308 11.4654C22.9308 5.13324 17.7976 0 11.4654 0C5.13324 0 0 5.13324 0 11.4654C0 17.7976 5.13324 22.9308 11.4654 22.9308Z" transform="translate(93.95712 17.7216)" id="Oval-28" fill="#C88FDD" stroke="none" />
    <path d="M11.4654 22.9308C17.7976 22.9308 22.9308 17.7976 22.9308 11.4654C22.9308 5.13324 17.7976 0 11.4654 0C5.13324 0 0 5.13324 0 11.4654C0 17.7976 5.13324 22.9308 11.4654 22.9308Z" transform="translate(6.571153 17.7216)" id="Oval-28-Copy" fill="#C88FDD" stroke="none" />
    <path d="M5.56585 2.78292C5.56585 4.31989 4.31989 5.56585 2.78292 5.56585C1.24596 5.56585 0 4.31989 0 2.78292C0 1.24596 1.24596 0 2.78292 0C4.31989 0 5.56585 1.24596 5.56585 2.78292ZM5.56585 15.8012C5.56585 17.3381 4.31989 18.5841 2.78292 18.5841C1.24596 18.5841 0 17.3381 0 15.8012C0 14.2642 1.24596 13.0182 2.78292 13.0182C4.31989 13.0182 5.56585 14.2642 5.56585 15.8012Z" transform="translate(102.7098 19.83919)" id="Combined-Shape" fill="#FFB731" fill-rule="evenodd" stroke="none" />
    <path d="M5.56585 2.78292C5.56585 4.31989 4.31989 5.56585 2.78292 5.56585C1.24596 5.56585 0 4.31989 0 2.78292C0 1.24596 1.24596 0 2.78292 0C4.31989 0 5.56585 1.24596 5.56585 2.78292ZM19.041 2.78292C19.041 4.31989 17.7951 5.56585 16.2581 5.56585C14.7212 5.56585 13.4752 4.31989 13.4752 2.78292C13.4752 1.24596 14.7212 0 16.2581 0C17.7951 0 19.041 1.24596 19.041 2.78292Z" transform="translate(95.93354 26.47431)" id="Combined-Shape" fill="#FFB731" fill-rule="evenodd" stroke="none" />
    <path d="M1.609 0L3.47322 0Q3.55227 0 3.63093 0.00774777Q3.7096 0.0154955 3.78712 0.0309165Q3.86465 0.0463374 3.94029 0.069283Q4.01593 0.0922286 4.08896 0.122478Q4.16199 0.152727 4.2317 0.189989Q4.30141 0.22725 4.36713 0.271165Q4.43286 0.31508 4.49396 0.365226Q4.55506 0.415372 4.61096 0.471265Q4.66685 0.527158 4.71699 0.588261Q4.76714 0.649364 4.81105 0.715087Q4.85497 0.780811 4.89223 0.850523Q4.92949 0.920234 4.95974 0.993262Q4.98999 1.06629 5.01294 1.14193Q5.03588 1.21757 5.0513 1.2951Q5.06673 1.37263 5.07447 1.45129Q5.08222 1.52995 5.08222 1.609L5.08222 3.47322Q5.08222 3.73434 4.99964 3.98206Q4.91706 4.22978 4.76039 4.43867Q4.7094 4.65858 4.59986 4.85598Q4.49032 5.05337 4.3307 5.213L3.67884 5.86485Q3.56679 5.97691 3.43502 6.06495Q3.30326 6.15299 3.15685 6.21364Q3.01044 6.27428 2.85501 6.3052Q2.69958 6.33611 2.54111 6.33611Q2.38264 6.33611 2.22721 6.3052Q2.07178 6.27428 1.92537 6.21364Q1.77896 6.15299 1.6472 6.06495Q1.51543 5.97691 1.40338 5.86485L0.751523 5.213Q0.591895 5.05337 0.482358 4.85598Q0.372821 4.65858 0.321834 4.43867Q0.165155 4.22978 0.0825776 3.98206Q0 3.73434 0 3.47322L0 1.609Q0 1.52995 0.00774777 1.45129Q0.0154955 1.37263 0.0309165 1.2951Q0.0463374 1.21757 0.069283 1.14193Q0.0922286 1.06629 0.122478 0.993262Q0.152727 0.920234 0.189989 0.850523Q0.22725 0.780811 0.271165 0.715087Q0.31508 0.649364 0.365226 0.588261Q0.415372 0.527158 0.471265 0.471265Q0.527158 0.415372 0.588261 0.365226Q0.649364 0.31508 0.715088 0.271165Q0.780811 0.22725 0.850523 0.189989Q0.920234 0.152727 0.993262 0.122478Q1.06629 0.0922286 1.14193 0.069283Q1.21757 0.0463374 1.2951 0.0309165Q1.37263 0.0154955 1.45129 0.00774777Q1.52996 0 1.609 0ZM0.321835 15.0009Q0.372822 14.781 0.482359 14.5836Q0.591896 14.3862 0.751524 14.2266L1.40338 13.5747Q1.51543 13.4627 1.6472 13.3746Q1.77896 13.2866 1.92537 13.226Q2.07178 13.1653 2.22721 13.1344Q2.38264 13.1035 2.54111 13.1035Q2.69958 13.1035 2.85501 13.1344Q3.01044 13.1653 3.15685 13.226Q3.30326 13.2866 3.43502 13.3746Q3.56679 13.4627 3.67885 13.5747L4.3307 14.2266Q4.49033 14.3862 4.59986 14.5836Q4.7094 14.781 4.76039 15.0009Q4.91707 15.2098 4.99964 15.4575Q5.08222 15.7053 5.08222 15.9664L5.08222 17.8306Q5.08222 17.9096 5.07447 17.9883Q5.06673 18.067 5.0513 18.1445Q5.03588 18.222 5.01294 18.2977Q4.98999 18.3733 4.95974 18.4463Q4.92949 18.5194 4.89223 18.5891Q4.85497 18.6588 4.81105 18.7245Q4.76714 18.7902 4.717 18.8513Q4.66685 18.9124 4.61096 18.9683Q4.55506 19.0242 4.49396 19.0744Q4.43286 19.1245 4.36713 19.1684Q4.30141 19.2123 4.2317 19.2496Q4.16199 19.2869 4.08896 19.3171Q4.01593 19.3474 3.94029 19.3703Q3.86465 19.3933 3.78712 19.4087Q3.70959 19.4241 3.63093 19.4318Q3.55227 19.4396 3.47322 19.4396L1.609 19.4396Q1.52995 19.4396 1.45129 19.4318Q1.37263 19.4241 1.2951 19.4087Q1.21757 19.3933 1.14193 19.3703Q1.06629 19.3474 0.993262 19.3171Q0.920234 19.2869 0.850523 19.2496Q0.780811 19.2123 0.715087 19.1684Q0.649364 19.1245 0.588261 19.0744Q0.527158 19.0242 0.471265 18.9683Q0.415372 18.9124 0.365226 18.8513Q0.31508 18.7902 0.271165 18.7245Q0.22725 18.6588 0.189989 18.5891Q0.152727 18.5194 0.122478 18.4463Q0.0922286 18.3733 0.069283 18.2977Q0.0463374 18.222 0.0309165 18.1445Q0.0154955 18.067 0.00774777 17.9883Q0 17.9096 0 17.8306L0 15.9664Q6.15123e-17 15.7053 0.0825785 15.4575Q0.165157 15.2098 0.321838 15.0009L0.321835 15.0009Z" transform="translate(15.46504 19.41567)" id="Combined-Shape" fill="#FFB731" fill-rule="evenodd" stroke="none" />
    <path d="M1.609 0L3.47322 0Q3.55227 0 3.63093 0.00774777Q3.7096 0.0154955 3.78712 0.0309165Q3.86465 0.0463374 3.94029 0.069283Q4.01593 0.0922286 4.08896 0.122478Q4.16199 0.152727 4.2317 0.189989Q4.30141 0.22725 4.36713 0.271165Q4.43286 0.31508 4.49396 0.365226Q4.55506 0.415372 4.61096 0.471265Q4.66685 0.527158 4.71699 0.588261Q4.76714 0.649364 4.81105 0.715087Q4.85497 0.780811 4.89223 0.850523Q4.92949 0.920234 4.95974 0.993262Q4.98999 1.06629 5.01294 1.14193Q5.03588 1.21757 5.0513 1.2951Q5.06673 1.37263 5.07447 1.45129Q5.08222 1.52995 5.08222 1.609L5.08222 3.47322Q5.08222 3.73434 4.99964 3.98206Q4.91706 4.22978 4.76039 4.43867Q4.7094 4.65858 4.59986 4.85598Q4.49032 5.05337 4.3307 5.213L3.67884 5.86485Q3.56679 5.97691 3.43502 6.06495Q3.30326 6.15299 3.15685 6.21364Q3.01044 6.27428 2.85501 6.3052Q2.69958 6.33611 2.54111 6.33611Q2.38264 6.33611 2.22721 6.3052Q2.07178 6.27428 1.92537 6.21364Q1.77896 6.15299 1.6472 6.06495Q1.51543 5.97691 1.40338 5.86485L0.751523 5.213Q0.591895 5.05337 0.482358 4.85598Q0.372821 4.65858 0.321834 4.43867Q0.165155 4.22978 0.0825776 3.98206Q0 3.73434 0 3.47322L0 1.609Q0 1.52995 0.00774777 1.45129Q0.0154955 1.37263 0.0309165 1.2951Q0.0463374 1.21757 0.069283 1.14193Q0.0922286 1.06629 0.122478 0.993262Q0.152727 0.920234 0.189989 0.850523Q0.22725 0.780811 0.271165 0.715087Q0.31508 0.649364 0.365226 0.588261Q0.415372 0.527158 0.471265 0.471265Q0.527158 0.415372 0.588261 0.365226Q0.649364 0.31508 0.715088 0.271165Q0.780811 0.22725 0.850523 0.189989Q0.920234 0.152727 0.993262 0.122478Q1.06629 0.0922286 1.14193 0.069283Q1.21757 0.0463374 1.2951 0.0309165Q1.37263 0.0154955 1.45129 0.00774777Q1.52996 0 1.609 0ZM0.321835 15.0009Q0.372822 14.781 0.482359 14.5836Q0.591896 14.3862 0.751524 14.2266L1.40338 13.5747Q1.51543 13.4627 1.6472 13.3746Q1.77896 13.2866 1.92537 13.226Q2.07178 13.1653 2.22721 13.1344Q2.38264 13.1035 2.54111 13.1035Q2.69958 13.1035 2.85501 13.1344Q3.01044 13.1653 3.15685 13.226Q3.30326 13.2866 3.43502 13.3746Q3.56679 13.4627 3.67885 13.5747L4.3307 14.2266Q4.49033 14.3862 4.59986 14.5836Q4.7094 14.781 4.76039 15.0009Q4.91707 15.2098 4.99964 15.4575Q5.08222 15.7053 5.08222 15.9664L5.08222 17.8306Q5.08222 17.9096 5.07447 17.9883Q5.06673 18.067 5.0513 18.1445Q5.03588 18.222 5.01294 18.2977Q4.98999 18.3733 4.95974 18.4463Q4.92949 18.5194 4.89223 18.5891Q4.85497 18.6588 4.81105 18.7245Q4.76714 18.7902 4.717 18.8513Q4.66685 18.9124 4.61096 18.9683Q4.55506 19.0242 4.49396 19.0744Q4.43286 19.1245 4.36713 19.1684Q4.30141 19.2123 4.2317 19.2496Q4.16199 19.2869 4.08896 19.3171Q4.01593 19.3474 3.94029 19.3703Q3.86465 19.3933 3.78712 19.4087Q3.70959 19.4241 3.63093 19.4318Q3.55227 19.4396 3.47322 19.4396L1.609 19.4396Q1.52995 19.4396 1.45129 19.4318Q1.37263 19.4241 1.2951 19.4087Q1.21757 19.3933 1.14193 19.3703Q1.06629 19.3474 0.993262 19.3171Q0.920234 19.2869 0.850523 19.2496Q0.780811 19.2123 0.715087 19.1684Q0.649364 19.1245 0.588261 19.0744Q0.527158 19.0242 0.471265 18.9683Q0.415372 18.9124 0.365226 18.8513Q0.31508 18.7902 0.271165 18.7245Q0.22725 18.6588 0.189989 18.5891Q0.152727 18.5194 0.122478 18.4463Q0.0922286 18.3733 0.069283 18.2977Q0.0463374 18.222 0.0309165 18.1445Q0.0154955 18.067 0.00774777 17.9883Q0 17.9096 0 17.8306L0 15.9664Q6.15123e-17 15.7053 0.0825785 15.4575Q0.165157 15.2098 0.321838 15.0009L0.321835 15.0009Z" transform="matrix(1.192488E-08 1 -1 1.192488E-08 27.72595 26.59436)" id="Combined-Shape-Copy-14" fill="#FFB731" fill-rule="evenodd" stroke="none" />
    <path d="M1.609 0L2.06149 0Q2.14054 0 2.2192 0.00774777Q2.29787 0.0154955 2.37539 0.0309165Q2.45292 0.0463374 2.52856 0.069283Q2.6042 0.0922286 2.67723 0.122478Q2.75026 0.152727 2.81997 0.189989Q2.88968 0.22725 2.95541 0.271165Q3.02113 0.31508 3.08223 0.365226Q3.14333 0.415372 3.19923 0.471265Q3.25512 0.527158 3.30527 0.588261Q3.35541 0.649364 3.39933 0.715087Q3.44324 0.780811 3.4805 0.850523Q3.51777 0.920234 3.54801 0.993262Q3.57826 1.06629 3.60121 1.14193Q3.62416 1.21757 3.63958 1.2951Q3.655 1.37263 3.66275 1.45129Q3.67049 1.52995 3.67049 1.609L3.67049 2.76736Q3.67049 2.8464 3.66275 2.92507Q3.655 3.00373 3.63958 3.08126Q3.62416 3.15878 3.60121 3.23443Q3.57826 3.31007 3.54801 3.38309Q3.51777 3.45612 3.4805 3.52583Q3.44324 3.59555 3.39933 3.66127Q3.35541 3.72699 3.30527 3.7881Q3.25512 3.8492 3.19923 3.90509Q3.14333 3.96099 3.08223 4.01113Q3.02113 4.06128 2.95541 4.10519Q2.88968 4.14911 2.81997 4.18637Q2.75026 4.22363 2.67723 4.25388Q2.6042 4.28413 2.52856 4.30707Q2.45292 4.33002 2.37539 4.34544Q2.29787 4.36086 2.2192 4.36861Q2.14054 4.37636 2.06149 4.37636L1.609 4.37636Q1.52995 4.37636 1.45129 4.36861Q1.37263 4.36086 1.2951 4.34544Q1.21757 4.33002 1.14193 4.30707Q1.06629 4.28413 0.993262 4.25388Q0.920234 4.22363 0.850523 4.18637Q0.780811 4.14911 0.715087 4.10519Q0.649364 4.06128 0.588261 4.01113Q0.527158 3.96099 0.471265 3.90509Q0.415372 3.8492 0.365226 3.7881Q0.31508 3.72699 0.271165 3.66127Q0.22725 3.59555 0.189989 3.52583Q0.152727 3.45612 0.122478 3.38309Q0.0922286 3.31007 0.069283 3.23442Q0.0463374 3.15878 0.0309165 3.08126Q0.0154955 3.00373 0.00774777 2.92507Q0 2.8464 0 2.76736L0 1.609Q0 1.52995 0.00774777 1.45129Q0.0154955 1.37263 0.0309165 1.2951Q0.0463374 1.21757 0.069283 1.14193Q0.0922286 1.06629 0.122478 0.993262Q0.152727 0.920234 0.189989 0.850523Q0.22725 0.780811 0.271165 0.715087Q0.31508 0.649364 0.365226 0.588261Q0.415372 0.527158 0.471265 0.471265Q0.527158 0.415372 0.588261 0.365226Q0.649364 0.31508 0.715087 0.271165Q0.780811 0.22725 0.850523 0.189989Q0.920234 0.152727 0.993262 0.122478Q1.06629 0.0922286 1.14193 0.069283Q1.21757 0.0463374 1.2951 0.0309165Q1.37263 0.0154955 1.45129 0.00774777Q1.52995 0 1.609 0L1.609 0Z" transform="translate(25.06479 0.07499806)" id="Rectangle-62" fill="#9960AD" stroke="none" />
    <path d="M1.609 0L2.06149 0Q2.14054 0 2.2192 0.00774777Q2.29787 0.0154955 2.37539 0.0309165Q2.45292 0.0463374 2.52856 0.069283Q2.6042 0.0922286 2.67723 0.122478Q2.75026 0.152727 2.81997 0.189989Q2.88968 0.22725 2.95541 0.271165Q3.02113 0.31508 3.08223 0.365226Q3.14333 0.415372 3.19923 0.471265Q3.25512 0.527158 3.30527 0.588261Q3.35541 0.649364 3.39933 0.715087Q3.44324 0.780811 3.4805 0.850523Q3.51777 0.920234 3.54801 0.993262Q3.57826 1.06629 3.60121 1.14193Q3.62416 1.21757 3.63958 1.2951Q3.655 1.37263 3.66275 1.45129Q3.67049 1.52995 3.67049 1.609L3.67049 2.76736Q3.67049 2.8464 3.66275 2.92507Q3.655 3.00373 3.63958 3.08126Q3.62416 3.15878 3.60121 3.23443Q3.57826 3.31007 3.54801 3.38309Q3.51777 3.45612 3.4805 3.52583Q3.44324 3.59555 3.39933 3.66127Q3.35541 3.72699 3.30527 3.7881Q3.25512 3.8492 3.19923 3.90509Q3.14333 3.96099 3.08223 4.01113Q3.02113 4.06128 2.95541 4.10519Q2.88968 4.14911 2.81997 4.18637Q2.75026 4.22363 2.67723 4.25388Q2.6042 4.28413 2.52856 4.30707Q2.45292 4.33002 2.37539 4.34544Q2.29787 4.36086 2.2192 4.36861Q2.14054 4.37636 2.06149 4.37636L1.609 4.37636Q1.52995 4.37636 1.45129 4.36861Q1.37263 4.36086 1.2951 4.34544Q1.21757 4.33002 1.14193 4.30707Q1.06629 4.28413 0.993262 4.25388Q0.920234 4.22363 0.850523 4.18637Q0.780811 4.14911 0.715087 4.10519Q0.649364 4.06128 0.588261 4.01113Q0.527158 3.96099 0.471265 3.90509Q0.415372 3.8492 0.365226 3.7881Q0.31508 3.72699 0.271165 3.66127Q0.22725 3.59555 0.189989 3.52583Q0.152727 3.45612 0.122478 3.38309Q0.0922286 3.31007 0.069283 3.23442Q0.0463374 3.15878 0.0309165 3.08126Q0.0154955 3.00373 0.00774777 2.92507Q0 2.8464 0 2.76736L0 1.609Q0 1.52995 0.00774777 1.45129Q0.0154955 1.37263 0.0309165 1.2951Q0.0463374 1.21757 0.069283 1.14193Q0.0922286 1.06629 0.122478 0.993262Q0.152727 0.920234 0.189989 0.850523Q0.22725 0.780811 0.271165 0.715087Q0.31508 0.649364 0.365226 0.588261Q0.415372 0.527158 0.471265 0.471265Q0.527158 0.415372 0.588261 0.365226Q0.649364 0.31508 0.715087 0.271165Q0.780811 0.22725 0.850523 0.189989Q0.920234 0.152727 0.993262 0.122478Q1.06629 0.0922286 1.14193 0.069283Q1.21757 0.0463374 1.2951 0.0309165Q1.37263 0.0154955 1.45129 0.00774777Q1.52995 0 1.609 0L1.609 0Z" transform="translate(87.97732 0.07499806)" id="Rectangle-62-Copy-2" fill="#9960AD" stroke="none" />
    <path d="M1.609 0L2.06149 0Q2.14054 0 2.2192 0.00774777Q2.29787 0.0154955 2.37539 0.0309165Q2.45292 0.0463374 2.52856 0.069283Q2.6042 0.0922286 2.67723 0.122478Q2.75026 0.152727 2.81997 0.189989Q2.88968 0.22725 2.95541 0.271165Q3.02113 0.31508 3.08223 0.365226Q3.14333 0.415372 3.19923 0.471265Q3.25512 0.527158 3.30527 0.588261Q3.35541 0.649364 3.39933 0.715087Q3.44324 0.780811 3.4805 0.850523Q3.51777 0.920234 3.54801 0.993262Q3.57826 1.06629 3.60121 1.14193Q3.62416 1.21757 3.63958 1.2951Q3.655 1.37263 3.66275 1.45129Q3.67049 1.52995 3.67049 1.609L3.67049 2.76736Q3.67049 2.8464 3.66275 2.92507Q3.655 3.00373 3.63958 3.08126Q3.62416 3.15878 3.60121 3.23443Q3.57826 3.31007 3.54801 3.38309Q3.51777 3.45612 3.4805 3.52583Q3.44324 3.59555 3.39933 3.66127Q3.35541 3.72699 3.30527 3.7881Q3.25512 3.8492 3.19923 3.90509Q3.14333 3.96099 3.08223 4.01113Q3.02113 4.06128 2.95541 4.10519Q2.88968 4.14911 2.81997 4.18637Q2.75026 4.22363 2.67723 4.25388Q2.6042 4.28413 2.52856 4.30707Q2.45292 4.33002 2.37539 4.34544Q2.29787 4.36086 2.2192 4.36861Q2.14054 4.37636 2.06149 4.37636L1.609 4.37636Q1.52995 4.37636 1.45129 4.36861Q1.37263 4.36086 1.2951 4.34544Q1.21757 4.33002 1.14193 4.30707Q1.06629 4.28413 0.993262 4.25388Q0.920234 4.22363 0.850523 4.18637Q0.780811 4.14911 0.715087 4.10519Q0.649364 4.06128 0.588261 4.01113Q0.527158 3.96099 0.471265 3.90509Q0.415372 3.8492 0.365226 3.7881Q0.31508 3.72699 0.271165 3.66127Q0.22725 3.59555 0.189989 3.52583Q0.152727 3.45612 0.122478 3.38309Q0.0922286 3.31007 0.069283 3.23442Q0.0463374 3.15878 0.0309165 3.08126Q0.0154955 3.00373 0.00774777 2.92507Q0 2.8464 0 2.76736L0 1.609Q0 1.52995 0.00774777 1.45129Q0.0154955 1.37263 0.0309165 1.2951Q0.0463374 1.21757 0.069283 1.14193Q0.0922286 1.06629 0.122478 0.993262Q0.152727 0.920234 0.189989 0.850523Q0.22725 0.780811 0.271165 0.715087Q0.31508 0.649364 0.365226 0.588261Q0.415372 0.527158 0.471265 0.471265Q0.527158 0.415372 0.588261 0.365226Q0.649364 0.31508 0.715087 0.271165Q0.780811 0.22725 0.850523 0.189989Q0.920234 0.152727 0.993262 0.122478Q1.06629 0.0922286 1.14193 0.069283Q1.21757 0.0463374 1.2951 0.0309165Q1.37263 0.0154955 1.45129 0.00774777Q1.52995 0 1.609 0L1.609 0Z" transform="translate(29.72349 0.07499806)" id="Rectangle-62-Copy" fill="#9960AD" stroke="none" />
    <path d="M1.609 0L2.06149 0Q2.14054 0 2.2192 0.00774777Q2.29787 0.0154955 2.37539 0.0309165Q2.45292 0.0463374 2.52856 0.069283Q2.6042 0.0922286 2.67723 0.122478Q2.75026 0.152727 2.81997 0.189989Q2.88968 0.22725 2.95541 0.271165Q3.02113 0.31508 3.08223 0.365226Q3.14333 0.415372 3.19923 0.471265Q3.25512 0.527158 3.30527 0.588261Q3.35541 0.649364 3.39933 0.715087Q3.44324 0.780811 3.4805 0.850523Q3.51777 0.920234 3.54801 0.993262Q3.57826 1.06629 3.60121 1.14193Q3.62416 1.21757 3.63958 1.2951Q3.655 1.37263 3.66275 1.45129Q3.67049 1.52995 3.67049 1.609L3.67049 2.76736Q3.67049 2.8464 3.66275 2.92507Q3.655 3.00373 3.63958 3.08126Q3.62416 3.15878 3.60121 3.23443Q3.57826 3.31007 3.54801 3.38309Q3.51777 3.45612 3.4805 3.52583Q3.44324 3.59555 3.39933 3.66127Q3.35541 3.72699 3.30527 3.7881Q3.25512 3.8492 3.19923 3.90509Q3.14333 3.96099 3.08223 4.01113Q3.02113 4.06128 2.95541 4.10519Q2.88968 4.14911 2.81997 4.18637Q2.75026 4.22363 2.67723 4.25388Q2.6042 4.28413 2.52856 4.30707Q2.45292 4.33002 2.37539 4.34544Q2.29787 4.36086 2.2192 4.36861Q2.14054 4.37636 2.06149 4.37636L1.609 4.37636Q1.52995 4.37636 1.45129 4.36861Q1.37263 4.36086 1.2951 4.34544Q1.21757 4.33002 1.14193 4.30707Q1.06629 4.28413 0.993262 4.25388Q0.920234 4.22363 0.850523 4.18637Q0.780811 4.14911 0.715087 4.10519Q0.649364 4.06128 0.588261 4.01113Q0.527158 3.96099 0.471265 3.90509Q0.415372 3.8492 0.365226 3.7881Q0.31508 3.72699 0.271165 3.66127Q0.22725 3.59555 0.189989 3.52583Q0.152727 3.45612 0.122478 3.38309Q0.0922286 3.31007 0.069283 3.23442Q0.0463374 3.15878 0.0309165 3.08126Q0.0154955 3.00373 0.00774777 2.92507Q0 2.8464 0 2.76736L0 1.609Q0 1.52995 0.00774777 1.45129Q0.0154955 1.37263 0.0309165 1.2951Q0.0463374 1.21757 0.069283 1.14193Q0.0922286 1.06629 0.122478 0.993262Q0.152727 0.920234 0.189989 0.850523Q0.22725 0.780811 0.271165 0.715087Q0.31508 0.649364 0.365226 0.588261Q0.415372 0.527158 0.471265 0.471265Q0.527158 0.415372 0.588261 0.365226Q0.649364 0.31508 0.715087 0.271165Q0.780811 0.22725 0.850523 0.189989Q0.920234 0.152727 0.993262 0.122478Q1.06629 0.0922286 1.14193 0.069283Q1.21757 0.0463374 1.2951 0.0309165Q1.37263 0.0154955 1.45129 0.00774777Q1.52995 0 1.609 0L1.609 0Z" transform="translate(92.63602 0.07499806)" id="Rectangle-62-Copy-3" fill="#9960AD" stroke="none" />
    <path d="M3.449 0L3.67562 0Q3.84506 0 4.01368 0.0166079Q4.1823 0.0332158 4.34849 0.0662716Q4.51467 0.0993274 4.67681 0.148513Q4.83895 0.197698 4.99549 0.262539Q5.15204 0.327381 5.30147 0.407254Q5.4509 0.487126 5.59178 0.581261Q5.73267 0.675396 5.86364 0.782887Q5.99462 0.890378 6.11443 1.01019Q6.23424 1.13 6.34173 1.26098Q6.44922 1.39196 6.54336 1.53284Q6.63749 1.67372 6.71737 1.82315Q6.79724 1.97258 6.86208 2.12912Q6.92692 2.28567 6.97611 2.44781Q7.02529 2.60995 7.05835 2.77613Q7.0914 2.94232 7.10801 3.11094Q7.12462 3.27956 7.12462 3.449L7.12462 15.1858Q7.12462 15.3553 7.10801 15.5239Q7.0914 15.6925 7.05835 15.8587Q7.02529 16.0249 6.97611 16.187Q6.92692 16.3491 6.86208 16.5057Q6.79724 16.6622 6.71737 16.8117Q6.63749 16.9611 6.54336 17.102Q6.44922 17.2429 6.34173 17.3738Q6.23424 17.5048 6.11443 17.6246Q5.99462 17.7444 5.86364 17.8519Q5.73267 17.9594 5.59178 18.0535Q5.4509 18.1477 5.30147 18.2276Q5.15204 18.3074 4.99549 18.3723Q4.83895 18.4371 4.67681 18.4863Q4.51467 18.5355 4.34849 18.5685Q4.1823 18.6016 4.01368 18.6182Q3.84506 18.6348 3.67562 18.6348L3.449 18.6348Q3.27956 18.6348 3.11094 18.6182Q2.94232 18.6016 2.77613 18.5685Q2.60995 18.5355 2.44781 18.4863Q2.28567 18.4371 2.12912 18.3723Q1.97258 18.3074 1.82315 18.2276Q1.67372 18.1477 1.53284 18.0535Q1.39196 17.9594 1.26098 17.8519Q1.13 17.7444 1.01019 17.6246Q0.890378 17.5048 0.782887 17.3738Q0.675396 17.2429 0.581261 17.102Q0.487126 16.9611 0.407254 16.8117Q0.327381 16.6622 0.262539 16.5057Q0.197698 16.3491 0.148513 16.187Q0.0993274 16.0249 0.0662716 15.8587Q0.0332158 15.6925 0.0166079 15.5239Q0 15.3553 0 15.1858L0 3.449Q0 3.27956 0.0166079 3.11094Q0.0332158 2.94232 0.0662716 2.77613Q0.0993274 2.60995 0.148513 2.44781Q0.197698 2.28567 0.262539 2.12912Q0.327381 1.97258 0.407254 1.82315Q0.487126 1.67372 0.581261 1.53284Q0.675396 1.39196 0.782887 1.26098Q0.890378 1.13 1.01019 1.01019Q1.13 0.890378 1.26098 0.782887Q1.39196 0.675396 1.53284 0.581261Q1.67372 0.487126 1.82315 0.407254Q1.97258 0.327381 2.12912 0.262539Q2.28567 0.197698 2.44781 0.148513Q2.60995 0.0993274 2.77613 0.0662716Q2.94232 0.0332158 3.11094 0.0166079Q3.27956 0 3.449 0L3.449 0Z" transform="matrix(0.7771459 -0.6293204 0.6293204 0.7771459 0.02073956 42.01097)" id="Rectangle-63" fill="#FF9F31" stroke="none" />
    <g id="Rectangle-64">
      <g clip-path="url(#clip_1)">
        <use xlink:href="#path_2" fill="none" stroke="#FF9F31" stroke-width="6.44" />
      </g>
    </g>
    <g id="Rectangle-65">
      <g clip-path="url(#clip_2)">
        <use xlink:href="#path_3" fill="none" stroke="#FF9F31" stroke-width="6.44" />
      </g>
    </g>
  </g>
</svg>