<?xml version="1.0" encoding="utf-8"?>
<svg width="57px" height="94px" viewBox="0 0 57 94" version="1.1" xmlns:xlink="http://www.w3.org/1999/xlink" xmlns="http://www.w3.org/2000/svg">
  <desc>Created with Lunacy</desc>
  <defs>
    <path d="M11.0768 0L22.1536 11.6918L11.0768 23.3836L0 11.6918L11.0768 0" transform="translate(15.52146 24.10367)" id="path_1" />
    <path d="M0 0L22.1536 0L22.1536 11.7569L0 11.7569L0 0Z" transform="translate(15.52146 24.10367)" id="path_2" />
    <clipPath id="clip_1">
      <use xlink:href="#path_1" />
    </clipPath>
    <clipPath id="clip_2">
      <use xlink:href="#path_2" />
    </clipPath>
  </defs>
  <g id="smartphone" transform="translate(0.2874756 0.2874756)">
    <path d="M2.5537 0L2.5557 0Q2.68115 0 2.806 0.0122968Q2.93086 0.0245935 3.0539 0.0490686Q3.17694 0.0735437 3.297 0.109961Q3.41705 0.146379 3.53296 0.194389Q3.64886 0.242398 3.7595 0.301537Q3.87015 0.360677 3.97446 0.430376Q4.07877 0.500075 4.17575 0.579663Q4.27273 0.659251 4.36144 0.747961Q4.45015 0.836671 4.52973 0.933649Q4.60932 1.03063 4.67902 1.13494Q4.74872 1.23925 4.80786 1.34989Q4.867 1.46054 4.91501 1.57644Q4.96302 1.69235 4.99944 1.8124Q5.03585 1.93245 5.06033 2.0555Q5.0848 2.17854 5.0971 2.30339Q5.1094 2.42824 5.1094 2.5537L5.1094 9.20322Q5.1094 9.32867 5.0971 9.45352Q5.0848 9.57837 5.06033 9.70142Q5.03585 9.82446 4.99944 9.94452Q4.96302 10.0646 4.91501 10.1805Q4.867 10.2964 4.80786 10.407Q4.74872 10.5177 4.67902 10.622Q4.60932 10.7263 4.52973 10.8233Q4.45015 10.9202 4.36144 11.009Q4.27273 11.0977 4.17575 11.1773Q4.07877 11.2568 3.97446 11.3265Q3.87015 11.3962 3.7595 11.4554Q3.64886 11.5145 3.53296 11.5625Q3.41705 11.6105 3.297 11.647Q3.17694 11.6834 3.0539 11.7078Q2.93086 11.7323 2.806 11.7446Q2.68115 11.7569 2.5557 11.7569L2.5537 11.7569Q2.42824 11.7569 2.30339 11.7446Q2.17854 11.7323 2.0555 11.7078Q1.93245 11.6834 1.8124 11.647Q1.69235 11.6105 1.57644 11.5625Q1.46054 11.5145 1.34989 11.4554Q1.23925 11.3962 1.13494 11.3265Q1.03063 11.2568 0.933649 11.1773Q0.836671 11.0977 0.747961 11.009Q0.659251 10.9202 0.579663 10.8233Q0.500075 10.7263 0.430376 10.622Q0.360677 10.5177 0.301537 10.407Q0.242398 10.2964 0.194389 10.1805Q0.146379 10.0646 0.109961 9.94452Q0.0735437 9.82446 0.0490686 9.70142Q0.0245935 9.57837 0.0122968 9.45352Q0 9.32867 0 9.20322L0 2.5537Q0 2.42824 0.0122968 2.30339Q0.0245935 2.17854 0.0490686 2.0555Q0.0735437 1.93245 0.109961 1.8124Q0.146379 1.69235 0.194389 1.57644Q0.242398 1.46054 0.301537 1.34989Q0.360677 1.23925 0.430376 1.13494Q0.500075 1.03063 0.579663 0.933649Q0.659251 0.836671 0.747961 0.747961Q0.836671 0.659251 0.933649 0.579663Q1.03063 0.500075 1.13494 0.430376Q1.23925 0.360677 1.34989 0.301537Q1.46054 0.242398 1.57644 0.194389Q1.69235 0.146379 1.8124 0.109961Q1.93245 0.0735437 2.0555 0.0490686Q2.17854 0.0245935 2.30339 0.0122968Q2.42824 0 2.5537 0Z" transform="translate(50.67302 34.69174)" id="Rectangle-45-Copy" fill="#CA401D" stroke="none" />
    <path d="M8.509 0L44.5327 0Q44.7416 0 44.9502 0.0102495Q45.1589 0.0204989 45.3667 0.0409732Q45.5746 0.0614474 45.7812 0.0920971Q45.9879 0.122747 46.1927 0.163498Q46.3976 0.204249 46.6002 0.255004Q46.8028 0.305759 47.0027 0.366395Q47.2026 0.427031 47.3993 0.497401Q47.596 0.567772 47.789 0.647709Q47.9819 0.727646 48.1708 0.816955Q48.3596 0.906265 48.5438 1.00473Q48.728 1.1032 48.9072 1.21059Q49.0864 1.31798 49.26 1.43402Q49.4337 1.55007 49.6015 1.67451Q49.7693 1.79894 49.9308 1.93145Q50.0922 2.06397 50.247 2.20425Q50.4018 2.34452 50.5495 2.49223Q50.6972 2.63993 50.8375 2.7947Q50.9777 2.94948 51.1102 3.11095Q51.2428 3.27242 51.3672 3.44019Q51.4916 3.60797 51.6077 3.78165Q51.7237 3.95533 51.8311 4.1345Q51.9385 4.31367 52.037 4.49789Q52.1354 4.6821 52.2247 4.87093Q52.3141 5.05976 52.394 5.25275Q52.4739 5.44573 52.5443 5.6424Q52.6147 5.83908 52.6753 6.03897Q52.7359 6.23886 52.7867 6.44148Q52.8374 6.6441 52.8782 6.84898Q52.919 7.05385 52.9496 7.26047Q52.9803 7.46709 53.0007 7.67497Q53.0212 7.88285 53.0315 8.09148Q53.0417 8.30011 53.0417 8.509L53.0417 84.3547Q53.0417 84.5636 53.0315 84.7722Q53.0212 84.9809 53.0007 85.1887Q52.9803 85.3966 52.9496 85.6032Q52.919 85.8099 52.8782 86.0147Q52.8374 86.2196 52.7867 86.4222Q52.7359 86.6249 52.6753 86.8247Q52.6147 87.0246 52.5443 87.2213Q52.4739 87.418 52.394 87.611Q52.314 87.8039 52.2247 87.9928Q52.1354 88.1816 52.037 88.3658Q51.9385 88.55 51.8311 88.7292Q51.7237 88.9084 51.6077 89.0821Q51.4916 89.2557 51.3672 89.4235Q51.2428 89.5913 51.1102 89.7528Q50.9777 89.9142 50.8375 90.069Q50.6972 90.2238 50.5495 90.3715Q50.4018 90.5192 50.247 90.6595Q50.0922 90.7998 49.9308 90.9323Q49.7693 91.0648 49.6015 91.1892Q49.4337 91.3136 49.26 91.4297Q49.0864 91.5457 48.9072 91.6531Q48.728 91.7605 48.5438 91.859Q48.3596 91.9575 48.1708 92.0468Q47.9819 92.1361 47.789 92.216Q47.596 92.2959 47.3993 92.3663Q47.2026 92.4367 47.0027 92.4973Q46.8028 92.558 46.6002 92.6087Q46.3976 92.6595 46.1927 92.7002Q45.9879 92.741 45.7812 92.7716Q45.5746 92.8023 45.3667 92.8227Q45.1589 92.8432 44.9502 92.8535Q44.7416 92.8637 44.5327 92.8637L8.509 92.8637Q8.30011 92.8637 8.09148 92.8535Q7.88285 92.8432 7.67497 92.8228Q7.46709 92.8023 7.26047 92.7716Q7.05385 92.741 6.84898 92.7002Q6.6441 92.6595 6.44148 92.6087Q6.23886 92.558 6.03897 92.4973Q5.83908 92.4367 5.6424 92.3663Q5.44573 92.2959 5.25275 92.216Q5.05976 92.1361 4.87093 92.0468Q4.6821 91.9575 4.49788 91.859Q4.31367 91.7605 4.1345 91.6531Q3.95533 91.5457 3.78165 91.4297Q3.60797 91.3136 3.44019 91.1892Q3.27242 91.0648 3.11095 90.9323Q2.94948 90.7997 2.7947 90.6595Q2.63993 90.5192 2.49223 90.3715Q2.34452 90.2238 2.20425 90.069Q2.06397 89.9142 1.93145 89.7528Q1.79894 89.5913 1.67451 89.4235Q1.55007 89.2557 1.43402 89.0821Q1.31798 88.9084 1.21059 88.7292Q1.1032 88.55 1.00473 88.3658Q0.906265 88.1816 0.816955 87.9928Q0.727646 87.8039 0.647709 87.611Q0.567772 87.418 0.497401 87.2213Q0.427031 87.0246 0.366395 86.8247Q0.305759 86.6249 0.255004 86.4222Q0.204249 86.2196 0.163498 86.0147Q0.122747 85.8099 0.0920971 85.6032Q0.0614474 85.3966 0.0409732 85.1888Q0.0204989 84.9809 0.0102495 84.7722Q0 84.5636 0 84.3547L0 8.509Q0 8.30011 0.0102495 8.09148Q0.0204989 7.88285 0.0409732 7.67497Q0.0614474 7.46709 0.0920971 7.26047Q0.122747 7.05385 0.163498 6.84898Q0.204249 6.6441 0.255004 6.44148Q0.305759 6.23886 0.366395 6.03897Q0.427031 5.83908 0.497401 5.6424Q0.567772 5.44573 0.647709 5.25275Q0.727646 5.05976 0.816955 4.87093Q0.906265 4.6821 1.00473 4.49788Q1.1032 4.31367 1.21059 4.1345Q1.31798 3.95533 1.43402 3.78165Q1.55007 3.60797 1.67451 3.44019Q1.79894 3.27242 1.93145 3.11095Q2.06397 2.94948 2.20425 2.7947Q2.34452 2.63993 2.49223 2.49223Q2.63993 2.34452 2.7947 2.20425Q2.94948 2.06397 3.11095 1.93145Q3.27242 1.79894 3.44019 1.67451Q3.60797 1.55007 3.78165 1.43402Q3.95533 1.31798 4.1345 1.21059Q4.31367 1.1032 4.49789 1.00473Q4.6821 0.906265 4.87093 0.816955Q5.05976 0.727646 5.25275 0.647709Q5.44573 0.567772 5.6424 0.497401Q5.83908 0.427031 6.03897 0.366395Q6.23886 0.305759 6.44148 0.255004Q6.6441 0.204249 6.84898 0.163498Q7.05385 0.122747 7.26047 0.0920971Q7.46709 0.0614474 7.67497 0.0409732Q7.88285 0.0204989 8.09148 0.0102495Q8.30011 0 8.509 0L8.509 0Z" transform="translate(0.09392354 0.01679609)" id="Rectangle-41" fill="#EE552E" stroke="none" />
    <path d="M8.509 0L36.0497 0Q36.2586 0 36.4672 0.0102495Q36.6758 0.0204989 36.8837 0.0409732Q37.0916 0.0614474 37.2982 0.0920971Q37.5048 0.122747 37.7097 0.163498Q37.9146 0.204249 38.1172 0.255004Q38.3198 0.305759 38.5197 0.366395Q38.7196 0.427031 38.9163 0.497401Q39.1129 0.567772 39.3059 0.647709Q39.4989 0.727646 39.6877 0.816955Q39.8766 0.906265 40.0608 1.00473Q40.245 1.1032 40.4242 1.21059Q40.6033 1.31798 40.777 1.43402Q40.9507 1.55007 41.1185 1.67451Q41.2863 1.79894 41.4477 1.93145Q41.6092 2.06397 41.764 2.20425Q41.9188 2.34452 42.0665 2.49223Q42.2142 2.63993 42.3544 2.7947Q42.4947 2.94948 42.6272 3.11095Q42.7597 3.27242 42.8842 3.44019Q43.0086 3.60797 43.1247 3.78165Q43.2407 3.95533 43.3481 4.1345Q43.4555 4.31367 43.554 4.49789Q43.6524 4.6821 43.7417 4.87093Q43.831 5.05976 43.911 5.25275Q43.9909 5.44573 44.0613 5.6424Q44.1317 5.83908 44.1923 6.03897Q44.2529 6.23886 44.3037 6.44148Q44.3544 6.6441 44.3952 6.84898Q44.4359 7.05385 44.4666 7.26047Q44.4972 7.46709 44.5177 7.67497Q44.5382 7.88285 44.5484 8.09148Q44.5587 8.30011 44.5587 8.509L44.5587 61.0385Q44.5587 61.2474 44.5484 61.4561Q44.5382 61.6647 44.5177 61.8726Q44.4972 62.0804 44.4666 62.2871Q44.4359 62.4937 44.3952 62.6986Q44.3544 62.9034 44.3037 63.1061Q44.2529 63.3087 44.1923 63.5086Q44.1317 63.7085 44.0613 63.9051Q43.9909 64.1018 43.911 64.2948Q43.831 64.4878 43.7417 64.6766Q43.6524 64.8654 43.554 65.0497Q43.4555 65.2339 43.3481 65.413Q43.2407 65.5922 43.1247 65.7659Q43.0086 65.9396 42.8842 66.1073Q42.7597 66.2751 42.6272 66.4366Q42.4947 66.5981 42.3544 66.7528Q42.2142 66.9076 42.0665 67.0553Q41.9188 67.203 41.764 67.3433Q41.6092 67.4836 41.4477 67.6161Q41.2863 67.7486 41.1185 67.873Q40.9507 67.9975 40.777 68.1135Q40.6033 68.2296 40.4242 68.3369Q40.245 68.4443 40.0608 68.5428Q39.8766 68.6413 39.6877 68.7306Q39.4989 68.8199 39.3059 68.8998Q39.1129 68.9798 38.9163 69.0501Q38.7196 69.1205 38.5197 69.1811Q38.3198 69.2418 38.1172 69.2925Q37.9146 69.3433 37.7097 69.384Q37.5048 69.4248 37.2982 69.4554Q37.0916 69.4861 36.8837 69.5066Q36.6758 69.527 36.4672 69.5373Q36.2586 69.5475 36.0497 69.5475L8.509 69.5475Q8.30011 69.5475 8.09148 69.5373Q7.88285 69.527 7.67497 69.5066Q7.46709 69.4861 7.26047 69.4554Q7.05385 69.4248 6.84898 69.384Q6.6441 69.3433 6.44148 69.2925Q6.23886 69.2418 6.03897 69.1811Q5.83908 69.1205 5.6424 69.0501Q5.44573 68.9798 5.25275 68.8998Q5.05976 68.8199 4.87093 68.7306Q4.6821 68.6413 4.49788 68.5428Q4.31367 68.4443 4.1345 68.3369Q3.95533 68.2296 3.78165 68.1135Q3.60797 67.9975 3.44019 67.873Q3.27242 67.7486 3.11095 67.6161Q2.94948 67.4836 2.7947 67.3433Q2.63993 67.203 2.49223 67.0553Q2.34452 66.9076 2.20425 66.7528Q2.06397 66.5981 1.93145 66.4366Q1.79894 66.2751 1.67451 66.1073Q1.55007 65.9396 1.43402 65.7659Q1.31798 65.5922 1.21059 65.413Q1.1032 65.2339 1.00473 65.0497Q0.906265 64.8654 0.816955 64.6766Q0.727646 64.4878 0.647709 64.2948Q0.567772 64.1018 0.497401 63.9051Q0.427031 63.7085 0.366395 63.5086Q0.305759 63.3087 0.255004 63.1061Q0.204249 62.9034 0.163498 62.6986Q0.122747 62.4937 0.0920971 62.2871Q0.0614474 62.0804 0.0409732 61.8726Q0.0204989 61.6647 0.0102495 61.4561Q0 61.2474 0 61.0385L0 8.509Q0 8.30011 0.0102495 8.09148Q0.0204989 7.88285 0.0409732 7.67497Q0.0614474 7.46709 0.0920971 7.26047Q0.122747 7.05385 0.163498 6.84898Q0.204249 6.6441 0.255004 6.44148Q0.305759 6.23886 0.366395 6.03897Q0.427031 5.83908 0.497402 5.6424Q0.567773 5.44573 0.647709 5.25275Q0.727646 5.05976 0.816955 4.87093Q0.906265 4.6821 1.00473 4.49788Q1.1032 4.31367 1.21059 4.1345Q1.31798 3.95533 1.43403 3.78165Q1.55007 3.60797 1.67451 3.44019Q1.79894 3.27242 1.93145 3.11095Q2.06397 2.94948 2.20425 2.7947Q2.34452 2.63993 2.49223 2.49223Q2.63993 2.34452 2.7947 2.20425Q2.94948 2.06397 3.11095 1.93145Q3.27242 1.79894 3.44019 1.67451Q3.60797 1.55007 3.78165 1.43402Q3.95533 1.31798 4.1345 1.21059Q4.31367 1.1032 4.49789 1.00473Q4.6821 0.906265 4.87093 0.816955Q5.05976 0.727646 5.25275 0.647709Q5.44573 0.567772 5.6424 0.497401Q5.83908 0.427031 6.03897 0.366395Q6.23886 0.305759 6.44148 0.255004Q6.64411 0.204249 6.84898 0.163498Q7.05385 0.122747 7.26047 0.0920971Q7.46709 0.0614474 7.67497 0.0409732Q7.88285 0.0204989 8.09148 0.0102495Q8.30012 0 8.509 0L8.509 0Z" transform="translate(4.335434 7.133907)" id="Rectangle-41-Copy" fill="#DCDCDC" stroke="none" />
    <path d="M8.509 0L34.2074 0Q34.4163 0 34.6249 0.0102495Q34.8336 0.0204989 35.0414 0.0409732Q35.2493 0.0614474 35.4559 0.0920971Q35.6626 0.122747 35.8674 0.163498Q36.0723 0.204249 36.2749 0.255004Q36.4776 0.305759 36.6774 0.366395Q36.8773 0.427031 37.074 0.497401Q37.2707 0.567772 37.4637 0.647709Q37.6566 0.727646 37.8455 0.816955Q38.0343 0.906265 38.2185 1.00473Q38.4027 1.1032 38.5819 1.21059Q38.7611 1.31798 38.9348 1.43402Q39.1084 1.55007 39.2762 1.67451Q39.444 1.79894 39.6055 1.93145Q39.7669 2.06397 39.9217 2.20425Q40.0765 2.34452 40.2242 2.49223Q40.3719 2.63993 40.5122 2.7947Q40.6524 2.94948 40.785 3.11095Q40.9175 3.27242 41.0419 3.44019Q41.1663 3.60797 41.2824 3.78165Q41.3984 3.95533 41.5058 4.1345Q41.6132 4.31367 41.7117 4.49789Q41.8101 4.6821 41.8995 4.87093Q41.9888 5.05976 42.0687 5.25275Q42.1486 5.44573 42.219 5.6424Q42.2894 5.83908 42.35 6.03897Q42.4107 6.23886 42.4614 6.44148Q42.5122 6.6441 42.5529 6.84898Q42.5937 7.05385 42.6243 7.26047Q42.655 7.46709 42.6754 7.67497Q42.6959 7.88285 42.7062 8.09148Q42.7164 8.30011 42.7164 8.509L42.7164 58.1631Q42.7164 58.372 42.7062 58.5806Q42.6959 58.7893 42.6754 58.9971Q42.655 59.205 42.6243 59.4116Q42.5937 59.6183 42.5529 59.8231Q42.5122 60.028 42.4614 60.2306Q42.4107 60.4333 42.35 60.6331Q42.2894 60.833 42.219 61.0297Q42.1486 61.2264 42.0687 61.4194Q41.9888 61.6123 41.8995 61.8012Q41.8101 61.99 41.7117 62.1742Q41.6132 62.3584 41.5058 62.5376Q41.3984 62.7168 41.2824 62.8905Q41.1663 63.0641 41.0419 63.2319Q40.9175 63.3997 40.785 63.5612Q40.6524 63.7226 40.5122 63.8774Q40.3719 64.0322 40.2242 64.1799Q40.0765 64.3276 39.9217 64.4679Q39.7669 64.6081 39.6055 64.7407Q39.444 64.8732 39.2762 64.9976Q39.1084 65.122 38.9348 65.2381Q38.7611 65.3541 38.5819 65.4615Q38.4027 65.5689 38.2185 65.6674Q38.0343 65.7658 37.8455 65.8551Q37.6566 65.9445 37.4637 66.0244Q37.2707 66.1043 37.074 66.1747Q36.8773 66.2451 36.6774 66.3057Q36.4776 66.3663 36.2749 66.4171Q36.0723 66.4679 35.8674 66.5086Q35.6626 66.5494 35.4559 66.58Q35.2493 66.6107 35.0414 66.6311Q34.8336 66.6516 34.6249 66.6619Q34.4163 66.6721 34.2074 66.6721L8.509 66.6721Q8.30011 66.6721 8.09148 66.6619Q7.88285 66.6516 7.67497 66.6311Q7.46709 66.6107 7.26047 66.58Q7.05385 66.5494 6.84898 66.5086Q6.6441 66.4679 6.44148 66.4171Q6.23886 66.3663 6.03897 66.3057Q5.83908 66.2451 5.6424 66.1747Q5.44573 66.1043 5.25275 66.0244Q5.05976 65.9445 4.87093 65.8551Q4.6821 65.7658 4.49788 65.6674Q4.31367 65.5689 4.1345 65.4615Q3.95533 65.3541 3.78165 65.2381Q3.60797 65.122 3.44019 64.9976Q3.27242 64.8732 3.11095 64.7407Q2.94948 64.6081 2.7947 64.4679Q2.63993 64.3276 2.49223 64.1799Q2.34452 64.0322 2.20425 63.8774Q2.06397 63.7226 1.93145 63.5612Q1.79894 63.3997 1.67451 63.2319Q1.55007 63.0641 1.43402 62.8905Q1.31798 62.7168 1.21059 62.5376Q1.1032 62.3584 1.00473 62.1742Q0.906265 61.99 0.816955 61.8012Q0.727646 61.6123 0.647709 61.4194Q0.567772 61.2264 0.497401 61.0297Q0.427031 60.833 0.366395 60.6331Q0.305759 60.4333 0.255004 60.2306Q0.204249 60.028 0.163498 59.8231Q0.122747 59.6183 0.0920971 59.4116Q0.0614474 59.205 0.0409732 58.9971Q0.0204989 58.7893 0.0102495 58.5806Q0 58.372 0 58.1631L0 8.509Q0 8.30011 0.0102495 8.09148Q0.0204989 7.88285 0.0409732 7.67497Q0.0614474 7.46709 0.0920971 7.26047Q0.122747 7.05385 0.163498 6.84898Q0.204249 6.6441 0.255004 6.44148Q0.305759 6.23886 0.366395 6.03897Q0.427031 5.83908 0.497402 5.6424Q0.567773 5.44573 0.647709 5.25275Q0.727646 5.05976 0.816955 4.87093Q0.906265 4.6821 1.00473 4.49788Q1.1032 4.31367 1.21059 4.1345Q1.31798 3.95533 1.43403 3.78165Q1.55007 3.60797 1.67451 3.44019Q1.79894 3.27242 1.93145 3.11095Q2.06397 2.94948 2.20425 2.7947Q2.34452 2.63993 2.49223 2.49223Q2.63993 2.34452 2.7947 2.20425Q2.94948 2.06397 3.11095 1.93145Q3.27242 1.79894 3.44019 1.67451Q3.60797 1.55007 3.78165 1.43402Q3.95533 1.31798 4.1345 1.21059Q4.31367 1.1032 4.49789 1.00473Q4.6821 0.906265 4.87093 0.816955Q5.05976 0.727646 5.25275 0.647709Q5.44573 0.567772 5.6424 0.497401Q5.83908 0.427031 6.03897 0.366395Q6.23886 0.305759 6.44148 0.255004Q6.64411 0.204249 6.84898 0.163498Q7.05385 0.122747 7.26047 0.0920971Q7.46709 0.0614474 7.67497 0.0409732Q7.88285 0.0204989 8.09148 0.0102495Q8.30012 0 8.509 0L8.509 0Z" transform="translate(5.21427 8.630515)" id="Rectangle-41-Copy-2" fill="#FFFFFF" stroke="none" />
    <path d="M2.33643 0L18.7004 0Q18.8152 0 18.9295 0.0112506Q19.0437 0.0225011 19.1563 0.0448939Q19.2688 0.0672866 19.3787 0.100606Q19.4885 0.133925 19.5946 0.17785Q19.7006 0.221775 19.8018 0.275883Q19.9031 0.32999 19.9985 0.39376Q20.0939 0.457529 20.1827 0.530345Q20.2714 0.603162 20.3526 0.684325Q20.4337 0.765488 20.5065 0.854215Q20.5794 0.942942 20.6431 1.03838Q20.7069 1.13382 20.761 1.23505Q20.8151 1.33627 20.859 1.44232Q20.903 1.54836 20.9363 1.6582Q20.9696 1.76804 20.992 1.88062Q21.0144 1.99319 21.0256 2.10742Q21.0369 2.22165 21.0369 2.33643L21.0369 2.33843Q21.0369 2.45321 21.0256 2.56744Q21.0144 2.68167 20.992 2.79425Q20.9696 2.90682 20.9363 3.01666Q20.903 3.1265 20.859 3.23254Q20.8151 3.33859 20.761 3.43982Q20.7069 3.54105 20.6431 3.63648Q20.5794 3.73192 20.5065 3.82065Q20.4337 3.90937 20.3526 3.99054Q20.2714 4.0717 20.1827 4.14452Q20.0939 4.21733 19.9985 4.2811Q19.9031 4.34487 19.8018 4.39898Q19.7006 4.45309 19.5946 4.49701Q19.4885 4.54094 19.3787 4.57426Q19.2688 4.60758 19.1563 4.62997Q19.0437 4.65236 18.9295 4.66361Q18.8152 4.67486 18.7004 4.67486L2.33643 4.67486Q2.22165 4.67486 2.10742 4.66361Q1.99319 4.65236 1.88062 4.62997Q1.76804 4.60758 1.6582 4.57426Q1.54836 4.54094 1.44232 4.49701Q1.33627 4.45309 1.23505 4.39898Q1.13382 4.34487 1.03838 4.2811Q0.942942 4.21733 0.854215 4.14452Q0.765488 4.0717 0.684325 3.99054Q0.603162 3.90937 0.530345 3.82065Q0.457529 3.73192 0.39376 3.63648Q0.32999 3.54105 0.275883 3.43982Q0.221775 3.33859 0.17785 3.23254Q0.133925 3.1265 0.100606 3.01666Q0.0672866 2.90682 0.0448939 2.79425Q0.0225011 2.68167 0.0112506 2.56744Q0 2.45321 0 2.33843L0 2.33643Q0 2.22165 0.0112506 2.10742Q0.0225011 1.99319 0.0448939 1.88062Q0.0672866 1.76804 0.100606 1.6582Q0.133925 1.54836 0.17785 1.44232Q0.221775 1.33627 0.275883 1.23505Q0.32999 1.13382 0.39376 1.03838Q0.457529 0.942942 0.530345 0.854215Q0.603162 0.765488 0.684325 0.684325Q0.765488 0.603162 0.854215 0.530345Q0.942942 0.457529 1.03838 0.39376Q1.13382 0.32999 1.23505 0.275883Q1.33627 0.221775 1.44232 0.17785Q1.54836 0.133925 1.6582 0.100606Q1.76804 0.0672866 1.88062 0.0448939Q1.99319 0.0225011 2.10742 0.0112506Q2.22165 0 2.33643 0Z" transform="translate(16.18222 56.99736)" id="Rectangle-46" fill="#E8E7E6" stroke="none" />
    <g id="Rectangle-42">
      <g clip-path="url(#clip_1)">
        <use xlink:href="#path_1" fill="none" stroke="#8DB440" stroke-width="6.44" />
      </g>
    </g>
    <g id="Rectangle-43">
      <g clip-path="url(#clip_2)">
        <use xlink:href="#path_2" fill="none" stroke="#8DB440" stroke-width="6.44" />
      </g>
    </g>
    <path d="M12.0137 6.00683C8.69619 6.00683 6.00683 3.31748 6.00683 0C2.68935 0 0 2.68935 0 6.00683C0 9.32432 2.68935 12.0137 6.00683 12.0137C9.32432 12.0137 12.0137 9.32432 12.0137 6.00683Z" transform="translate(20.5914 78.23084)" id="Combined-Shape" fill="#CA401D" fill-rule="evenodd" stroke="none" />
    <path d="M12.36 0L1.08659 0Q1.03321 0 0.980089 0.00523225Q0.926965 0.0104645 0.87461 0.0208786Q0.822255 0.0312927 0.771172 0.0467884Q0.72009 0.062284 0.670772 0.082712Q0.621455 0.10314 0.574377 0.128304Q0.527299 0.153467 0.482915 0.183124Q0.43853 0.212781 0.397266 0.246645Q0.356002 0.28051 0.318256 0.318256Q0.28051 0.356002 0.246645 0.397266Q0.212781 0.43853 0.183124 0.482915Q0.153467 0.527299 0.128304 0.574377Q0.10314 0.621455 0.082712 0.670772Q0.062284 0.72009 0.0467884 0.771172Q0.0312927 0.822255 0.0208786 0.87461Q0.0104645 0.926965 0.00523225 0.980089Q0 1.03321 0 1.08659L0 1.08859Q0 1.14197 0.00523225 1.1951Q0.0104645 1.24822 0.0208786 1.30058Q0.0312927 1.35293 0.0467884 1.40402Q0.062284 1.4551 0.082712 1.50441Q0.10314 1.55373 0.128304 1.60081Q0.153467 1.64789 0.183124 1.69227Q0.212781 1.73666 0.246645 1.77792Q0.28051 1.81919 0.318256 1.85693Q0.356002 1.89468 0.397266 1.92854Q0.43853 1.96241 0.482915 1.99206Q0.527299 2.02172 0.574377 2.04688Q0.621455 2.07205 0.670772 2.09248Q0.72009 2.1129 0.771172 2.1284Q0.822255 2.14389 0.87461 2.15431Q0.926965 2.16472 0.980089 2.16996Q1.03321 2.17519 1.08659 2.17519L12.36 2.17519Q12.4134 2.17519 12.4665 2.16996Q12.5196 2.16472 12.572 2.15431Q12.6244 2.14389 12.6754 2.1284Q12.7265 2.1129 12.7758 2.09248Q12.8252 2.07205 12.8722 2.04688Q12.9193 2.02172 12.9637 1.99206Q13.0081 1.96241 13.0493 1.92854Q13.0906 1.89468 13.1284 1.85693Q13.1661 1.81919 13.2 1.77792Q13.2338 1.73666 13.2635 1.69227Q13.2931 1.64789 13.3183 1.60081Q13.3435 1.55373 13.3639 1.50442Q13.3843 1.4551 13.3998 1.40402Q13.4153 1.35293 13.4257 1.30058Q13.4362 1.24822 13.4414 1.1951Q13.4466 1.14197 13.4466 1.08859L13.4466 1.08659Q13.4466 1.03321 13.4414 0.980089Q13.4362 0.926965 13.4257 0.87461Q13.4153 0.822255 13.3998 0.771172Q13.3843 0.72009 13.3639 0.670772Q13.3435 0.621455 13.3183 0.574377Q13.2931 0.527299 13.2635 0.482915Q13.2338 0.43853 13.2 0.397266Q13.1661 0.356002 13.1284 0.318256Q13.0906 0.28051 13.0493 0.246645Q13.0081 0.212781 12.9637 0.183124Q12.9193 0.153467 12.8722 0.128304Q12.8252 0.10314 12.7758 0.082712Q12.7265 0.062284 12.6754 0.0467884Q12.6244 0.0312927 12.572 0.0208786Q12.5196 0.0104645 12.4665 0.00523225Q12.4134 0 12.36 0ZM16.3249 0L15.8114 0Q15.758 0 15.7049 0.00523225Q15.6518 0.0104645 15.5994 0.0208786Q15.5471 0.0312927 15.496 0.0467884Q15.4449 0.062284 15.3956 0.082712Q15.3463 0.10314 15.2992 0.128304Q15.2521 0.153467 15.2077 0.183124Q15.1633 0.212781 15.1221 0.246645Q15.0808 0.28051 15.0431 0.318256Q15.0053 0.356002 14.9714 0.397266Q14.9376 0.43853 14.9079 0.482915Q14.8783 0.527299 14.8531 0.574377Q14.8279 0.621455 14.8075 0.670772Q14.7871 0.72009 14.7716 0.771172Q14.7561 0.822255 14.7457 0.87461Q14.7353 0.926965 14.73 0.980089Q14.7248 1.03321 14.7248 1.08659L14.7248 1.08859Q14.7248 1.14197 14.73 1.1951Q14.7353 1.24822 14.7457 1.30058Q14.7561 1.35293 14.7716 1.40402Q14.7871 1.4551 14.8075 1.50441Q14.8279 1.55373 14.8531 1.60081Q14.8783 1.64789 14.9079 1.69227Q14.9376 1.73666 14.9714 1.77792Q15.0053 1.81919 15.0431 1.85693Q15.0808 1.89468 15.1221 1.92854Q15.1633 1.96241 15.2077 1.99206Q15.2521 2.02172 15.2992 2.04688Q15.3463 2.07205 15.3956 2.09248Q15.4449 2.1129 15.496 2.1284Q15.5471 2.14389 15.5994 2.15431Q15.6518 2.16472 15.7049 2.16996Q15.758 2.17519 15.8114 2.17519L16.3249 2.17519Q16.3783 2.17519 16.4315 2.16996Q16.4846 2.16472 16.5369 2.15431Q16.5893 2.14389 16.6404 2.1284Q16.6915 2.1129 16.7408 2.09248Q16.7901 2.07205 16.8372 2.04688Q16.8842 2.02172 16.9286 1.99206Q16.973 1.96241 17.0143 1.92854Q17.0555 1.89468 17.0933 1.85693Q17.131 1.81919 17.1649 1.77792Q17.1988 1.73666 17.2284 1.69227Q17.2581 1.64789 17.2832 1.60081Q17.3084 1.55373 17.3288 1.50442Q17.3493 1.4551 17.3648 1.40402Q17.3802 1.35293 17.3907 1.30058Q17.4011 1.24822 17.4063 1.1951Q17.4115 1.14197 17.4115 1.08859L17.4115 1.08659Q17.4115 1.03321 17.4063 0.980089Q17.4011 0.926965 17.3907 0.87461Q17.3802 0.822255 17.3648 0.771172Q17.3493 0.72009 17.3288 0.670772Q17.3084 0.621455 17.2832 0.574377Q17.2581 0.527299 17.2284 0.482915Q17.1988 0.43853 17.1649 0.397266Q17.131 0.356002 17.0933 0.318256Q17.0555 0.28051 17.0143 0.246645Q16.973 0.212781 16.9286 0.183124Q16.8842 0.153467 16.8372 0.128304Q16.7901 0.10314 16.7408 0.082712Q16.6915 0.062284 16.6404 0.0467884Q16.5893 0.0312927 16.5369 0.0208786Q16.4846 0.0104645 16.4315 0.00523225Q16.3783 0 16.3249 0Z" transform="translate(17.89436 2.354227)" id="Combined-Shape" fill="#CA401D" fill-rule="evenodd" stroke="none" />
    <path d="M3.41525 0L3.41725 0Q3.58503 0 3.752 0.0164453Q3.91897 0.0328907 4.08353 0.065623Q4.24808 0.0983553 4.40864 0.147059Q4.56919 0.195763 4.7242 0.25997Q4.87921 0.324177 5.02718 0.403268Q5.17515 0.482359 5.31465 0.575573Q5.45416 0.668786 5.58385 0.775225Q5.71355 0.881664 5.83219 1.0003Q5.95083 1.11894 6.05727 1.24864Q6.1637 1.37833 6.25692 1.51784Q6.35013 1.65734 6.42922 1.80531Q6.50831 1.95328 6.57252 2.10829Q6.63673 2.2633 6.68543 2.42385Q6.73414 2.58441 6.76687 2.74896Q6.7996 2.91352 6.81605 3.08049Q6.83249 3.24747 6.83249 3.41525L6.83249 15.8236Q6.83249 15.9914 6.81605 16.1584Q6.7996 16.3253 6.76687 16.4899Q6.73414 16.6544 6.68543 16.815Q6.63673 16.9756 6.57252 17.1306Q6.50831 17.2856 6.42922 17.4335Q6.35013 17.5815 6.25692 17.721Q6.1637 17.8605 6.05727 17.9902Q5.95083 18.1199 5.83219 18.2386Q5.71355 18.3572 5.58385 18.4636Q5.45416 18.5701 5.31465 18.6633Q5.17515 18.7565 5.02718 18.8356Q4.87921 18.9147 4.7242 18.9789Q4.56919 19.0431 4.40864 19.0918Q4.24808 19.1405 4.08353 19.1732Q3.91897 19.206 3.752 19.2224Q3.58503 19.2389 3.41725 19.2389L3.41525 19.2389Q3.24747 19.2389 3.08049 19.2224Q2.91352 19.206 2.74896 19.1732Q2.58441 19.1405 2.42385 19.0918Q2.2633 19.0431 2.10829 18.9789Q1.95328 18.9147 1.80531 18.8356Q1.65734 18.7565 1.51784 18.6633Q1.37833 18.5701 1.24864 18.4636Q1.11894 18.3572 1.0003 18.2386Q0.881664 18.1199 0.775225 17.9902Q0.668786 17.8605 0.575573 17.721Q0.482359 17.5815 0.403268 17.4335Q0.324177 17.2856 0.25997 17.1306Q0.195763 16.9756 0.147059 16.815Q0.0983553 16.6544 0.065623 16.4899Q0.0328907 16.3253 0.0164453 16.1584Q0 15.9914 0 15.8236L0 3.41525Q0 3.24747 0.0164453 3.08049Q0.0328907 2.91352 0.065623 2.74896Q0.0983553 2.58441 0.147059 2.42385Q0.195763 2.2633 0.25997 2.10829Q0.324177 1.95328 0.403268 1.80531Q0.482359 1.65734 0.575573 1.51784Q0.668786 1.37833 0.775225 1.24864Q0.881664 1.11894 1.0003 1.0003Q1.11894 0.881664 1.24864 0.775225Q1.37833 0.668786 1.51784 0.575573Q1.65734 0.482359 1.80531 0.403268Q1.95328 0.324177 2.10829 0.25997Q2.2633 0.195763 2.42385 0.147059Q2.58441 0.0983553 2.74896 0.065623Q2.91352 0.0328907 3.08049 0.0164453Q3.24747 0 3.41525 0L3.41525 0Z" transform="translate(48.90625 13.66498)" id="Rectangle-45" fill="#8DB440" stroke="none" />
    <path d="M0.875537 0L8.83379 0Q8.92003 0 9.0046 0.0168232Q9.08918 0.0336464 9.16884 0.0666462Q9.24851 0.0996461 9.32021 0.147555Q9.39191 0.195463 9.45289 0.256439Q9.51387 0.317415 9.56177 0.389114Q9.60968 0.460814 9.64268 0.540483Q9.67568 0.620152 9.69251 0.704728Q9.70933 0.789304 9.70933 0.875537L9.70933 0.877537Q9.70933 0.963769 9.69251 1.04835Q9.67568 1.13292 9.64268 1.21259Q9.60968 1.29226 9.56178 1.36396Q9.51387 1.43566 9.45289 1.49663Q9.39191 1.55761 9.32021 1.60552Q9.24851 1.65343 9.16885 1.68643Q9.08918 1.71943 9.0046 1.73625Q8.92003 1.75307 8.83379 1.75307L0.875537 1.75307Q0.789304 1.75307 0.704728 1.73625Q0.620152 1.71943 0.540483 1.68643Q0.460814 1.65343 0.389114 1.60552Q0.317415 1.55761 0.256439 1.49663Q0.195463 1.43566 0.147555 1.36396Q0.0996461 1.29226 0.0666462 1.21259Q0.0336464 1.13292 0.0168232 1.04835Q0 0.963769 0 0.877537L0 0.875537Q0 0.789304 0.0168232 0.704728Q0.0336464 0.620152 0.0666463 0.540483Q0.0996461 0.460815 0.147555 0.389115Q0.195463 0.317415 0.256439 0.256439Q0.317415 0.195463 0.389115 0.147555Q0.460815 0.0996461 0.540483 0.0666463Q0.620152 0.0336464 0.704728 0.0168232Q0.789304 0 0.875537 0Z" transform="translate(17.60748 58.40985)" id="Rectangle-47" fill="#8DB440" stroke="none" />
  </g>
</svg>